%TF.GenerationSoftware,KiCad,Pcbnew,8.0.8-8.0.8-0~ubuntu24.04.1*%
%TF.CreationDate,2025-02-17T20:41:45+00:00*%
%TF.ProjectId,base-module,62617365-2d6d-46f6-9475-6c652e6b6963,1.0.0*%
%TF.SameCoordinates,Original*%
%TF.FileFunction,OtherDrawing,Comment*%
%FSLAX46Y46*%
G04 Gerber Fmt 4.6, Leading zero omitted, Abs format (unit mm)*
G04 Created by KiCad (PCBNEW 8.0.8-8.0.8-0~ubuntu24.04.1) date 2025-02-17 20:41:45*
%MOMM*%
%LPD*%
G01*
G04 APERTURE LIST*
%ADD10C,0.100000*%
%ADD11C,0.200000*%
%ADD12C,0.080000*%
G04 APERTURE END LIST*
D10*
X267909513Y-178468688D02*
G75*
G02*
X267722371Y-178468688I-93571J0D01*
G01*
X267722371Y-178468688D02*
G75*
G02*
X267909513Y-178468688I93571J0D01*
G01*
X270783881Y-173076050D02*
X271278972Y-173073851D01*
X274126750Y-175356000D02*
X272856750Y-175356000D01*
X276158750Y-175356000D02*
X276412750Y-174848000D01*
X275217833Y-176851758D02*
X276334120Y-176851758D01*
X281746750Y-168752000D02*
X279206750Y-175356000D01*
X270824750Y-175356000D02*
X271078750Y-174848000D01*
X271788833Y-177613758D02*
X271280833Y-177613758D01*
X273872750Y-175356000D02*
X274126750Y-174848000D01*
X270783881Y-173076050D02*
X271303468Y-171794463D01*
X274074833Y-177613758D02*
X273820833Y-178121758D01*
X273820833Y-178121758D02*
X274328833Y-178121758D01*
X273110750Y-175356000D02*
X273364750Y-174848000D01*
X267815942Y-178468688D02*
X268230371Y-177613117D01*
X270645833Y-176597758D02*
X271788833Y-176597758D01*
X275904750Y-175356000D02*
X277174750Y-175356000D01*
X270010833Y-176597758D02*
X269502165Y-177615167D01*
X274328833Y-178121758D02*
X274582833Y-178629758D01*
X274582833Y-178629758D02*
X274074833Y-179645758D01*
X271586750Y-175356000D02*
X271840750Y-174848000D01*
X270824750Y-175356000D02*
X269554750Y-175356000D01*
X278910122Y-176091281D02*
X268933223Y-176089882D01*
X272042833Y-176089758D02*
X271788833Y-176597758D01*
X276427691Y-176851758D02*
G75*
G02*
X276240549Y-176851758I-93571J0D01*
G01*
X276240549Y-176851758D02*
G75*
G02*
X276427691Y-176851758I93571J0D01*
G01*
X276920750Y-175356000D02*
X277174750Y-174848000D01*
X269502165Y-177615167D02*
X268230371Y-177613117D01*
X271726023Y-178990402D02*
G75*
G02*
X271538881Y-178990402I-93571J0D01*
G01*
X271538881Y-178990402D02*
G75*
G02*
X271726023Y-178990402I93571J0D01*
G01*
X272390404Y-176597758D02*
G75*
G02*
X272203262Y-176597758I-93571J0D01*
G01*
X272203262Y-176597758D02*
G75*
G02*
X272390404Y-176597758I93571J0D01*
G01*
X280742337Y-170518413D02*
X280247246Y-170520612D01*
X275396750Y-175356000D02*
X275650750Y-174848000D01*
X271788833Y-176597758D02*
X271282627Y-177615808D01*
X273566833Y-176597758D02*
X273060627Y-177615808D01*
X277630833Y-176851758D02*
X278900833Y-176109857D01*
X272348750Y-175356000D02*
X272602750Y-174848000D01*
X277249833Y-176089758D02*
X277630833Y-176851758D01*
X271378452Y-178482402D02*
X271632452Y-178990402D01*
X278140113Y-178099609D02*
X277378113Y-178353609D01*
X274380750Y-175356000D02*
X275904750Y-175356000D01*
X269300750Y-175356000D02*
X272094750Y-168752000D01*
X274168404Y-179645758D02*
G75*
G02*
X273981262Y-179645758I-93571J0D01*
G01*
X273981262Y-179645758D02*
G75*
G02*
X274168404Y-179645758I93571J0D01*
G01*
X271840750Y-171800000D02*
X271303468Y-171794463D01*
X274836833Y-176089758D02*
X274074833Y-177613758D01*
X271280833Y-177613758D02*
X270264833Y-177613758D01*
X272296833Y-176597758D02*
X273566833Y-176597758D01*
X270899833Y-176089758D02*
X270645833Y-176597758D01*
X270062750Y-175356000D02*
X270316750Y-174848000D01*
X275598833Y-176089758D02*
X274836833Y-177613758D01*
X279206750Y-175356000D02*
X269300750Y-175356000D01*
X277378113Y-178353609D02*
X276870113Y-179115609D01*
X280742337Y-170518413D02*
X280222750Y-171800000D01*
X268667967Y-176604868D02*
X270010833Y-176597758D01*
X277682750Y-175356000D02*
X277936750Y-174848000D01*
X271374404Y-178469329D02*
X271788833Y-177613758D01*
X273058833Y-177613758D02*
X271788833Y-177613758D01*
X278900833Y-176109857D02*
X278140113Y-178099609D01*
X269300750Y-175356000D02*
X268933223Y-176089882D01*
X270824750Y-175356000D02*
X271205750Y-175356000D01*
X272550833Y-176089758D02*
X272296833Y-176597758D01*
X278910122Y-176091281D02*
X279206750Y-175356000D01*
X274634750Y-175356000D02*
X274888750Y-174848000D01*
X268933223Y-176089882D02*
X268667967Y-176604868D01*
X276963684Y-179115609D02*
G75*
G02*
X276776542Y-179115609I-93571J0D01*
G01*
X276776542Y-179115609D02*
G75*
G02*
X276963684Y-179115609I93571J0D01*
G01*
X278444750Y-175356000D02*
X278698750Y-174848000D01*
X274836833Y-177613758D02*
X276487833Y-177613758D01*
X277249833Y-176089758D02*
X276487833Y-177613758D01*
X272094750Y-168752000D02*
X281746750Y-168752000D01*
X274126750Y-175356000D02*
X274380750Y-175356000D01*
X280159250Y-171800000D02*
X271840750Y-171800000D01*
D11*
G36*
X273015094Y-173187159D02*
G01*
X273515304Y-173344940D01*
X273469035Y-173440740D01*
X273418278Y-173529387D01*
X273363033Y-173610882D01*
X273294401Y-173695260D01*
X273267153Y-173724494D01*
X273191102Y-173795812D01*
X273109983Y-173857850D01*
X273023795Y-173910607D01*
X272932540Y-173954082D01*
X272834141Y-173987848D01*
X272726033Y-174011967D01*
X272623474Y-174025157D01*
X272513482Y-174030961D01*
X272480691Y-174031263D01*
X272365149Y-174027948D01*
X272259224Y-174018005D01*
X272162916Y-174001433D01*
X272062711Y-173973720D01*
X271975597Y-173936985D01*
X271888890Y-173880656D01*
X271812931Y-173806437D01*
X271755282Y-173726819D01*
X271705861Y-173633504D01*
X271693252Y-173604326D01*
X271662598Y-173510262D01*
X271644274Y-173406856D01*
X271638280Y-173294107D01*
X271642705Y-173193014D01*
X271655692Y-173085432D01*
X271672247Y-172994696D01*
X271701213Y-172874567D01*
X271736819Y-172761597D01*
X271779065Y-172655786D01*
X271827952Y-172557135D01*
X271883479Y-172465643D01*
X271945646Y-172381311D01*
X272014454Y-172304137D01*
X272089902Y-172234124D01*
X272171296Y-172171727D01*
X272257697Y-172117650D01*
X272349105Y-172071893D01*
X272445520Y-172034455D01*
X272546942Y-172005337D01*
X272653371Y-171984538D01*
X272764806Y-171972059D01*
X272881249Y-171967899D01*
X272992895Y-171971668D01*
X273095191Y-171982973D01*
X273205604Y-172006489D01*
X273302553Y-172040859D01*
X273398643Y-172094674D01*
X273434215Y-172122260D01*
X273506416Y-172197718D01*
X273564873Y-172289023D01*
X273604040Y-172379899D01*
X273633109Y-172482418D01*
X273652080Y-172596580D01*
X273089833Y-172718213D01*
X273071750Y-172619358D01*
X273058081Y-172584368D01*
X272997804Y-172505498D01*
X272955987Y-172475436D01*
X272863633Y-172442272D01*
X272798695Y-172436845D01*
X272699013Y-172447256D01*
X272596141Y-172483857D01*
X272512938Y-172538514D01*
X272446497Y-172603419D01*
X272389709Y-172684103D01*
X272346302Y-172774573D01*
X272313781Y-172868209D01*
X272286356Y-172975355D01*
X272282854Y-172991765D01*
X272265094Y-173089021D01*
X272252912Y-173192473D01*
X272251290Y-173294891D01*
X272269124Y-173397652D01*
X272288716Y-173440683D01*
X272359310Y-173514803D01*
X272450211Y-173552695D01*
X272543217Y-173562316D01*
X272646123Y-173552966D01*
X272744554Y-173521083D01*
X272827516Y-173466573D01*
X272899048Y-173390139D01*
X272957667Y-173302823D01*
X273005202Y-173209717D01*
X273015094Y-173187159D01*
G37*
G36*
X274803149Y-172500727D02*
G01*
X274908532Y-172505597D01*
X275011688Y-172515308D01*
X275089693Y-172527704D01*
X275188474Y-172557608D01*
X275275332Y-172609539D01*
X275313419Y-172645917D01*
X275364888Y-172732247D01*
X275387181Y-172822260D01*
X275394420Y-172919887D01*
X275385991Y-173020129D01*
X275382296Y-173039637D01*
X275247474Y-173687857D01*
X275230841Y-173785205D01*
X275226469Y-173850034D01*
X275239284Y-173951206D01*
X275250893Y-174000000D01*
X274737983Y-174000000D01*
X274715513Y-173913049D01*
X274716001Y-173818771D01*
X274636432Y-173879155D01*
X274551990Y-173932022D01*
X274470782Y-173970690D01*
X274369087Y-174002633D01*
X274271770Y-174021266D01*
X274168966Y-174030316D01*
X274121514Y-174031263D01*
X274016612Y-174025699D01*
X273914068Y-174005717D01*
X273820821Y-173965867D01*
X273757592Y-173915003D01*
X273700286Y-173828610D01*
X273676803Y-173729287D01*
X273684808Y-173627773D01*
X273698440Y-173583321D01*
X274242170Y-173583321D01*
X274264811Y-173678616D01*
X274267083Y-173681018D01*
X274360626Y-173717309D01*
X274391647Y-173718632D01*
X274493021Y-173705649D01*
X274569944Y-173677599D01*
X274654866Y-173625873D01*
X274702324Y-173577948D01*
X274748997Y-173490135D01*
X274767292Y-173424075D01*
X274783901Y-173343475D01*
X274684894Y-173372268D01*
X274583147Y-173398321D01*
X274535262Y-173409420D01*
X274437679Y-173434923D01*
X274341455Y-173470145D01*
X274307627Y-173490020D01*
X274246731Y-173567262D01*
X274242170Y-173583321D01*
X273698440Y-173583321D01*
X273713726Y-173533473D01*
X273764379Y-173442525D01*
X273834773Y-173364968D01*
X273922481Y-173305701D01*
X274013874Y-173265706D01*
X274109320Y-173236120D01*
X274219211Y-173211584D01*
X274331496Y-173189974D01*
X274428016Y-173170940D01*
X274532186Y-173149569D01*
X274629656Y-173127661D01*
X274635890Y-173126099D01*
X274735663Y-173097889D01*
X274828775Y-173066994D01*
X274842519Y-173062107D01*
X274848927Y-172960594D01*
X274831284Y-172916538D01*
X274741525Y-172877154D01*
X274693531Y-172874528D01*
X274593818Y-172882429D01*
X274496990Y-172913845D01*
X274482017Y-172922400D01*
X274409393Y-172994375D01*
X274368200Y-173062107D01*
X273858709Y-172999581D01*
X273898418Y-172908677D01*
X273949342Y-172816719D01*
X273994508Y-172754361D01*
X274067985Y-172680390D01*
X274151451Y-172620074D01*
X274187460Y-172599023D01*
X274278979Y-172558973D01*
X274376702Y-172532077D01*
X274410209Y-172525261D01*
X274515356Y-172509485D01*
X274615602Y-172501419D01*
X274700370Y-172499371D01*
X274803149Y-172500727D01*
G37*
G36*
X275851242Y-172530635D02*
G01*
X276363664Y-172530635D01*
X276313350Y-172772923D01*
X276371975Y-172692724D01*
X276440165Y-172615692D01*
X276510209Y-172557990D01*
X276600863Y-172515915D01*
X276702465Y-172499600D01*
X276716839Y-172499371D01*
X276816081Y-172511867D01*
X276909836Y-172545584D01*
X276965478Y-172575087D01*
X276712931Y-172978576D01*
X276619303Y-172943907D01*
X276568339Y-172937055D01*
X276467955Y-172959891D01*
X276387599Y-173022781D01*
X276382715Y-173028401D01*
X276323080Y-173118128D01*
X276280865Y-173212438D01*
X276247583Y-173310355D01*
X276216981Y-173424037D01*
X276198067Y-173508583D01*
X276095974Y-174000000D01*
X275545939Y-174000000D01*
X275851242Y-172530635D01*
G37*
G36*
X278354243Y-174000000D02*
G01*
X277842310Y-174000000D01*
X277883343Y-173803140D01*
X277803172Y-173873894D01*
X277723028Y-173933211D01*
X277651312Y-173973133D01*
X277551730Y-174008556D01*
X277447888Y-174027629D01*
X277376295Y-174031263D01*
X277273443Y-174023260D01*
X277169903Y-173993694D01*
X277084081Y-173942343D01*
X277015977Y-173869207D01*
X276978179Y-173803628D01*
X276939934Y-173699340D01*
X276920437Y-173602471D01*
X276913201Y-173498698D01*
X276914128Y-173478274D01*
X277464932Y-173478274D01*
X277487669Y-173563293D01*
X277556654Y-173638341D01*
X277632750Y-173656106D01*
X277733500Y-173632658D01*
X277815445Y-173573674D01*
X277826678Y-173562316D01*
X277887701Y-173475282D01*
X277928793Y-173377251D01*
X277955278Y-173282134D01*
X277961012Y-173256036D01*
X277976279Y-173155542D01*
X277975209Y-173053810D01*
X277949288Y-172969295D01*
X277878142Y-172895351D01*
X277788576Y-172874528D01*
X277690677Y-172900171D01*
X277609791Y-172965387D01*
X277552936Y-173050773D01*
X277513847Y-173148269D01*
X277488003Y-173243509D01*
X277482296Y-173269713D01*
X277465934Y-173373908D01*
X277464932Y-173478274D01*
X276914128Y-173478274D01*
X276918227Y-173388022D01*
X276931782Y-173290518D01*
X276939588Y-173250174D01*
X276966529Y-173140482D01*
X277000029Y-173039161D01*
X277040088Y-172946213D01*
X277096817Y-172845726D01*
X277162992Y-172757295D01*
X277225352Y-172692812D01*
X277305941Y-172627072D01*
X277390171Y-172574934D01*
X277493040Y-172531297D01*
X277600864Y-172506172D01*
X277697230Y-172499371D01*
X277795895Y-172505902D01*
X277896517Y-172529665D01*
X277920956Y-172538939D01*
X278008883Y-172588032D01*
X278081179Y-172657152D01*
X278217955Y-171999162D01*
X278770433Y-171999162D01*
X278354243Y-174000000D01*
G37*
G36*
X272451845Y-169205162D02*
G01*
X273252473Y-169205162D01*
X273309626Y-170417584D01*
X273869431Y-169205162D01*
X274668105Y-169205162D01*
X274251915Y-171206000D01*
X273754148Y-171206000D01*
X274073618Y-169670200D01*
X273368733Y-171206000D01*
X272918837Y-171206000D01*
X272853380Y-169670200D01*
X272533911Y-171206000D01*
X272035655Y-171206000D01*
X272451845Y-169205162D01*
G37*
G36*
X275811688Y-169709363D02*
G01*
X275929003Y-169725580D01*
X276033462Y-169754272D01*
X276125065Y-169795437D01*
X276218019Y-169861303D01*
X276292459Y-169945132D01*
X276303066Y-169960849D01*
X276351846Y-170055381D01*
X276381926Y-170159028D01*
X276393306Y-170271791D01*
X276388177Y-170375701D01*
X276373408Y-170467409D01*
X276346716Y-170570063D01*
X276310602Y-170666753D01*
X276265066Y-170757481D01*
X276210109Y-170842246D01*
X276145731Y-170921047D01*
X276071931Y-170993886D01*
X276039773Y-171021352D01*
X275954641Y-171083553D01*
X275863498Y-171135211D01*
X275766345Y-171176327D01*
X275663181Y-171206900D01*
X275554006Y-171226931D01*
X275438821Y-171236419D01*
X275391064Y-171237263D01*
X275287723Y-171232886D01*
X275174608Y-171216079D01*
X275073377Y-171186667D01*
X274984030Y-171144649D01*
X274894812Y-171079697D01*
X274872292Y-171057988D01*
X274802041Y-170969780D01*
X274752124Y-170871852D01*
X274722540Y-170764204D01*
X274713290Y-170646836D01*
X274718632Y-170574980D01*
X275266092Y-170574980D01*
X275268286Y-170679923D01*
X275297274Y-170766362D01*
X275369448Y-170838170D01*
X275464395Y-170862012D01*
X275471664Y-170862106D01*
X275570800Y-170844060D01*
X275661334Y-170789924D01*
X275685620Y-170767828D01*
X275745210Y-170689505D01*
X275788563Y-170594861D01*
X275818771Y-170490593D01*
X275824350Y-170464967D01*
X275839429Y-170363490D01*
X275836868Y-170260871D01*
X275807742Y-170175783D01*
X275737034Y-170104342D01*
X275638237Y-170080528D01*
X275537632Y-170099041D01*
X275451580Y-170149385D01*
X275420373Y-170177249D01*
X275359902Y-170255356D01*
X275316548Y-170347100D01*
X275286993Y-170446555D01*
X275281643Y-170470829D01*
X275266092Y-170574980D01*
X274718632Y-170574980D01*
X274721113Y-170541604D01*
X274732585Y-170475225D01*
X274759184Y-170373380D01*
X274795325Y-170277283D01*
X274841006Y-170186935D01*
X274896228Y-170102335D01*
X274960990Y-170023483D01*
X275035293Y-169950379D01*
X275067686Y-169922748D01*
X275153400Y-169860125D01*
X275244457Y-169808116D01*
X275340856Y-169766721D01*
X275442599Y-169735940D01*
X275549684Y-169715773D01*
X275662112Y-169706221D01*
X275708579Y-169705371D01*
X275811688Y-169709363D01*
G37*
G36*
X278016186Y-171206000D02*
G01*
X277504253Y-171206000D01*
X277545285Y-171009140D01*
X277465115Y-171079894D01*
X277384971Y-171139211D01*
X277313255Y-171179133D01*
X277213672Y-171214556D01*
X277109831Y-171233629D01*
X277038237Y-171237263D01*
X276935386Y-171229260D01*
X276831846Y-171199694D01*
X276746024Y-171148343D01*
X276677919Y-171075207D01*
X276640121Y-171009628D01*
X276601877Y-170905340D01*
X276582379Y-170808471D01*
X276575144Y-170704698D01*
X276576071Y-170684274D01*
X277126875Y-170684274D01*
X277149612Y-170769293D01*
X277218597Y-170844341D01*
X277294692Y-170862106D01*
X277395442Y-170838658D01*
X277477388Y-170779674D01*
X277488621Y-170768316D01*
X277549644Y-170681282D01*
X277590736Y-170583251D01*
X277617221Y-170488134D01*
X277622955Y-170462036D01*
X277638222Y-170361542D01*
X277637151Y-170259810D01*
X277611231Y-170175295D01*
X277540085Y-170101351D01*
X277450519Y-170080528D01*
X277352620Y-170106171D01*
X277271733Y-170171387D01*
X277214878Y-170256773D01*
X277175790Y-170354269D01*
X277149946Y-170449509D01*
X277144239Y-170475713D01*
X277127877Y-170579908D01*
X277126875Y-170684274D01*
X276576071Y-170684274D01*
X276580170Y-170594022D01*
X276593725Y-170496518D01*
X276601531Y-170456174D01*
X276628472Y-170346482D01*
X276661972Y-170245161D01*
X276702031Y-170152213D01*
X276758760Y-170051726D01*
X276824935Y-169963295D01*
X276887295Y-169898812D01*
X276967884Y-169833072D01*
X277052113Y-169780934D01*
X277154983Y-169737297D01*
X277262807Y-169712172D01*
X277359172Y-169705371D01*
X277457838Y-169711902D01*
X277558459Y-169735665D01*
X277582899Y-169744939D01*
X277670826Y-169794032D01*
X277743122Y-169863152D01*
X277879898Y-169205162D01*
X278432375Y-169205162D01*
X278016186Y-171206000D01*
G37*
G36*
X279883666Y-171206000D02*
G01*
X279372710Y-171206000D01*
X279422047Y-170968107D01*
X279350729Y-171035671D01*
X279272830Y-171099199D01*
X279189177Y-171154287D01*
X279148495Y-171175713D01*
X279055323Y-171210756D01*
X278952452Y-171231252D01*
X278850519Y-171237263D01*
X278745556Y-171228592D01*
X278646303Y-171198109D01*
X278559406Y-171138499D01*
X278525188Y-171098533D01*
X278482005Y-171008398D01*
X278464771Y-170908427D01*
X278466020Y-170805624D01*
X278479220Y-170706122D01*
X278486109Y-170670619D01*
X278680038Y-169736635D01*
X279229584Y-169736635D01*
X279061545Y-170545078D01*
X279049092Y-170644178D01*
X279070338Y-170741450D01*
X279156159Y-170795946D01*
X279197833Y-170799579D01*
X279296640Y-170777797D01*
X279374664Y-170722399D01*
X279432437Y-170638976D01*
X279468539Y-170547156D01*
X279494832Y-170443962D01*
X279641866Y-169736635D01*
X280188970Y-169736635D01*
X279883666Y-171206000D01*
G37*
D10*
X123764285Y-51708890D02*
X123764285Y-52208890D01*
X123764285Y-52208890D02*
X123573809Y-52208890D01*
X123573809Y-52208890D02*
X123526190Y-52185080D01*
X123526190Y-52185080D02*
X123502380Y-52161271D01*
X123502380Y-52161271D02*
X123478571Y-52113652D01*
X123478571Y-52113652D02*
X123478571Y-52042223D01*
X123478571Y-52042223D02*
X123502380Y-51994604D01*
X123502380Y-51994604D02*
X123526190Y-51970795D01*
X123526190Y-51970795D02*
X123573809Y-51946985D01*
X123573809Y-51946985D02*
X123764285Y-51946985D01*
X122978571Y-51756509D02*
X123002380Y-51732700D01*
X123002380Y-51732700D02*
X123073809Y-51708890D01*
X123073809Y-51708890D02*
X123121428Y-51708890D01*
X123121428Y-51708890D02*
X123192856Y-51732700D01*
X123192856Y-51732700D02*
X123240475Y-51780319D01*
X123240475Y-51780319D02*
X123264285Y-51827938D01*
X123264285Y-51827938D02*
X123288094Y-51923176D01*
X123288094Y-51923176D02*
X123288094Y-51994604D01*
X123288094Y-51994604D02*
X123264285Y-52089842D01*
X123264285Y-52089842D02*
X123240475Y-52137461D01*
X123240475Y-52137461D02*
X123192856Y-52185080D01*
X123192856Y-52185080D02*
X123121428Y-52208890D01*
X123121428Y-52208890D02*
X123073809Y-52208890D01*
X123073809Y-52208890D02*
X123002380Y-52185080D01*
X123002380Y-52185080D02*
X122978571Y-52161271D01*
X122597618Y-51970795D02*
X122526190Y-51946985D01*
X122526190Y-51946985D02*
X122502380Y-51923176D01*
X122502380Y-51923176D02*
X122478571Y-51875557D01*
X122478571Y-51875557D02*
X122478571Y-51804128D01*
X122478571Y-51804128D02*
X122502380Y-51756509D01*
X122502380Y-51756509D02*
X122526190Y-51732700D01*
X122526190Y-51732700D02*
X122573809Y-51708890D01*
X122573809Y-51708890D02*
X122764285Y-51708890D01*
X122764285Y-51708890D02*
X122764285Y-52208890D01*
X122764285Y-52208890D02*
X122597618Y-52208890D01*
X122597618Y-52208890D02*
X122549999Y-52185080D01*
X122549999Y-52185080D02*
X122526190Y-52161271D01*
X122526190Y-52161271D02*
X122502380Y-52113652D01*
X122502380Y-52113652D02*
X122502380Y-52066033D01*
X122502380Y-52066033D02*
X122526190Y-52018414D01*
X122526190Y-52018414D02*
X122549999Y-51994604D01*
X122549999Y-51994604D02*
X122597618Y-51970795D01*
X122597618Y-51970795D02*
X122764285Y-51970795D01*
X121883333Y-51970795D02*
X121716666Y-51970795D01*
X121645238Y-51708890D02*
X121883333Y-51708890D01*
X121883333Y-51708890D02*
X121883333Y-52208890D01*
X121883333Y-52208890D02*
X121645238Y-52208890D01*
X121216666Y-51708890D02*
X121216666Y-52208890D01*
X121216666Y-51732700D02*
X121264285Y-51708890D01*
X121264285Y-51708890D02*
X121359523Y-51708890D01*
X121359523Y-51708890D02*
X121407142Y-51732700D01*
X121407142Y-51732700D02*
X121430952Y-51756509D01*
X121430952Y-51756509D02*
X121454761Y-51804128D01*
X121454761Y-51804128D02*
X121454761Y-51946985D01*
X121454761Y-51946985D02*
X121430952Y-51994604D01*
X121430952Y-51994604D02*
X121407142Y-52018414D01*
X121407142Y-52018414D02*
X121359523Y-52042223D01*
X121359523Y-52042223D02*
X121264285Y-52042223D01*
X121264285Y-52042223D02*
X121216666Y-52018414D01*
X120764285Y-52042223D02*
X120764285Y-51637461D01*
X120764285Y-51637461D02*
X120788095Y-51589842D01*
X120788095Y-51589842D02*
X120811904Y-51566033D01*
X120811904Y-51566033D02*
X120859523Y-51542223D01*
X120859523Y-51542223D02*
X120930952Y-51542223D01*
X120930952Y-51542223D02*
X120978571Y-51566033D01*
X120764285Y-51732700D02*
X120811904Y-51708890D01*
X120811904Y-51708890D02*
X120907142Y-51708890D01*
X120907142Y-51708890D02*
X120954761Y-51732700D01*
X120954761Y-51732700D02*
X120978571Y-51756509D01*
X120978571Y-51756509D02*
X121002380Y-51804128D01*
X121002380Y-51804128D02*
X121002380Y-51946985D01*
X121002380Y-51946985D02*
X120978571Y-51994604D01*
X120978571Y-51994604D02*
X120954761Y-52018414D01*
X120954761Y-52018414D02*
X120907142Y-52042223D01*
X120907142Y-52042223D02*
X120811904Y-52042223D01*
X120811904Y-52042223D02*
X120764285Y-52018414D01*
X120335714Y-51732700D02*
X120383333Y-51708890D01*
X120383333Y-51708890D02*
X120478571Y-51708890D01*
X120478571Y-51708890D02*
X120526190Y-51732700D01*
X120526190Y-51732700D02*
X120549999Y-51780319D01*
X120549999Y-51780319D02*
X120549999Y-51970795D01*
X120549999Y-51970795D02*
X120526190Y-52018414D01*
X120526190Y-52018414D02*
X120478571Y-52042223D01*
X120478571Y-52042223D02*
X120383333Y-52042223D01*
X120383333Y-52042223D02*
X120335714Y-52018414D01*
X120335714Y-52018414D02*
X120311904Y-51970795D01*
X120311904Y-51970795D02*
X120311904Y-51923176D01*
X120311904Y-51923176D02*
X120549999Y-51875557D01*
%TO.C,J800*%
X117050000Y-51360000D02*
X127050000Y-51360000D01*
D12*
%TO.C,J200*%
X136370000Y-151275000D02*
X42370000Y-151275000D01*
%TD*%
M02*
