%TF.GenerationSoftware,KiCad,Pcbnew,8.0.8-8.0.8-0~ubuntu24.04.1*%
%TF.CreationDate,2025-02-17T21:18:05+00:00*%
%TF.ProjectId,base-module,62617365-2d6d-46f6-9475-6c652e6b6963,1.0.0*%
%TF.SameCoordinates,Original*%
%TF.FileFunction,Legend,Top*%
%TF.FilePolarity,Positive*%
%FSLAX46Y46*%
G04 Gerber Fmt 4.6, Leading zero omitted, Abs format (unit mm)*
G04 Created by KiCad (PCBNEW 8.0.8-8.0.8-0~ubuntu24.04.1) date 2025-02-17 21:18:05*
%MOMM*%
%LPD*%
G01*
G04 APERTURE LIST*
%ADD10C,0.100000*%
%ADD11C,0.150000*%
%ADD12C,0.000000*%
%ADD13C,0.120000*%
%ADD14C,0.200000*%
G04 APERTURE END LIST*
D10*
X109506265Y-54477133D02*
X110115789Y-54477133D01*
X106206265Y-54477133D02*
X106815789Y-54477133D01*
X106511027Y-54781895D02*
X106511027Y-54172371D01*
D11*
X42464285Y-144229819D02*
X42464285Y-144944104D01*
X42464285Y-144944104D02*
X42416666Y-145086961D01*
X42416666Y-145086961D02*
X42321428Y-145182200D01*
X42321428Y-145182200D02*
X42178571Y-145229819D01*
X42178571Y-145229819D02*
X42083333Y-145229819D01*
X42892857Y-144325057D02*
X42940476Y-144277438D01*
X42940476Y-144277438D02*
X43035714Y-144229819D01*
X43035714Y-144229819D02*
X43273809Y-144229819D01*
X43273809Y-144229819D02*
X43369047Y-144277438D01*
X43369047Y-144277438D02*
X43416666Y-144325057D01*
X43416666Y-144325057D02*
X43464285Y-144420295D01*
X43464285Y-144420295D02*
X43464285Y-144515533D01*
X43464285Y-144515533D02*
X43416666Y-144658390D01*
X43416666Y-144658390D02*
X42845238Y-145229819D01*
X42845238Y-145229819D02*
X43464285Y-145229819D01*
X44083333Y-144229819D02*
X44178571Y-144229819D01*
X44178571Y-144229819D02*
X44273809Y-144277438D01*
X44273809Y-144277438D02*
X44321428Y-144325057D01*
X44321428Y-144325057D02*
X44369047Y-144420295D01*
X44369047Y-144420295D02*
X44416666Y-144610771D01*
X44416666Y-144610771D02*
X44416666Y-144848866D01*
X44416666Y-144848866D02*
X44369047Y-145039342D01*
X44369047Y-145039342D02*
X44321428Y-145134580D01*
X44321428Y-145134580D02*
X44273809Y-145182200D01*
X44273809Y-145182200D02*
X44178571Y-145229819D01*
X44178571Y-145229819D02*
X44083333Y-145229819D01*
X44083333Y-145229819D02*
X43988095Y-145182200D01*
X43988095Y-145182200D02*
X43940476Y-145134580D01*
X43940476Y-145134580D02*
X43892857Y-145039342D01*
X43892857Y-145039342D02*
X43845238Y-144848866D01*
X43845238Y-144848866D02*
X43845238Y-144610771D01*
X43845238Y-144610771D02*
X43892857Y-144420295D01*
X43892857Y-144420295D02*
X43940476Y-144325057D01*
X43940476Y-144325057D02*
X43988095Y-144277438D01*
X43988095Y-144277438D02*
X44083333Y-144229819D01*
X45035714Y-144229819D02*
X45130952Y-144229819D01*
X45130952Y-144229819D02*
X45226190Y-144277438D01*
X45226190Y-144277438D02*
X45273809Y-144325057D01*
X45273809Y-144325057D02*
X45321428Y-144420295D01*
X45321428Y-144420295D02*
X45369047Y-144610771D01*
X45369047Y-144610771D02*
X45369047Y-144848866D01*
X45369047Y-144848866D02*
X45321428Y-145039342D01*
X45321428Y-145039342D02*
X45273809Y-145134580D01*
X45273809Y-145134580D02*
X45226190Y-145182200D01*
X45226190Y-145182200D02*
X45130952Y-145229819D01*
X45130952Y-145229819D02*
X45035714Y-145229819D01*
X45035714Y-145229819D02*
X44940476Y-145182200D01*
X44940476Y-145182200D02*
X44892857Y-145134580D01*
X44892857Y-145134580D02*
X44845238Y-145039342D01*
X44845238Y-145039342D02*
X44797619Y-144848866D01*
X44797619Y-144848866D02*
X44797619Y-144610771D01*
X44797619Y-144610771D02*
X44845238Y-144420295D01*
X44845238Y-144420295D02*
X44892857Y-144325057D01*
X44892857Y-144325057D02*
X44940476Y-144277438D01*
X44940476Y-144277438D02*
X45035714Y-144229819D01*
D10*
X114556265Y-54477133D02*
X115165789Y-54477133D01*
X111256265Y-54477133D02*
X111865789Y-54477133D01*
X111561027Y-54781895D02*
X111561027Y-54172371D01*
D12*
%TO.C,kibuzzard-67B37005*%
G36*
X133541061Y-103501777D02*
G01*
X133541061Y-104265913D01*
X133541061Y-104543780D01*
X133541061Y-105284222D01*
X133537252Y-105361759D01*
X133525861Y-105438550D01*
X133506998Y-105513855D01*
X133480845Y-105586948D01*
X133447653Y-105657125D01*
X133407743Y-105723712D01*
X133361498Y-105786066D01*
X133309364Y-105843586D01*
X133251844Y-105895720D01*
X133189490Y-105941965D01*
X133122904Y-105981875D01*
X133052726Y-106015067D01*
X132979633Y-106041220D01*
X132904328Y-106060083D01*
X132827538Y-106071474D01*
X132750000Y-106075283D01*
X132672462Y-106071474D01*
X132595672Y-106060083D01*
X132520367Y-106041220D01*
X132447274Y-106015067D01*
X132377096Y-105981875D01*
X132310510Y-105941965D01*
X132248156Y-105895720D01*
X132190636Y-105843586D01*
X132138502Y-105786066D01*
X132092257Y-105723712D01*
X132052347Y-105657125D01*
X132019155Y-105586948D01*
X131993002Y-105513855D01*
X131974139Y-105438550D01*
X131962748Y-105361759D01*
X131958939Y-105284222D01*
X131958939Y-104543780D01*
X131958939Y-104248142D01*
X132228191Y-104248142D01*
X132235662Y-104333966D01*
X132258078Y-104410501D01*
X132317044Y-104526010D01*
X132462439Y-104454927D01*
X132416397Y-104358805D01*
X132397819Y-104246527D01*
X132429321Y-104155250D01*
X132515751Y-104122132D01*
X132577141Y-104137480D01*
X132615913Y-104177060D01*
X132636914Y-104231987D01*
X132643376Y-104293376D01*
X132643376Y-104367690D01*
X132808158Y-104367690D01*
X132808158Y-104306300D01*
X132816034Y-104217851D01*
X132839661Y-104146365D01*
X132883078Y-104099111D01*
X132950323Y-104083360D01*
X133058562Y-104124556D01*
X133091276Y-104180897D01*
X133102181Y-104267528D01*
X133097738Y-104344063D01*
X133084410Y-104408885D01*
X133050485Y-104505008D01*
X133216882Y-104543780D01*
X133234653Y-104493700D01*
X133252423Y-104423425D01*
X133266155Y-104344265D01*
X133271809Y-104265913D01*
X133265953Y-104172617D01*
X133248384Y-104093053D01*
X133220113Y-104026817D01*
X133182149Y-103973506D01*
X133081179Y-103904039D01*
X132953554Y-103881422D01*
X132872375Y-103892124D01*
X132803312Y-103924233D01*
X132747981Y-103975727D01*
X132707997Y-104044588D01*
X132623990Y-103954120D01*
X132509289Y-103920194D01*
X132397819Y-103939580D01*
X132308158Y-103999354D01*
X132249192Y-104101939D01*
X132233441Y-104169588D01*
X132228191Y-104248142D01*
X131958939Y-104248142D01*
X131958939Y-103013893D01*
X132250808Y-103013893D01*
X132250808Y-103222294D01*
X132334814Y-103236834D01*
X132431745Y-103254604D01*
X132536551Y-103274798D01*
X132644184Y-103296607D01*
X132752423Y-103320032D01*
X132859047Y-103345073D01*
X132959006Y-103370921D01*
X133047254Y-103396769D01*
X132957795Y-103422819D01*
X132857431Y-103449273D01*
X132750808Y-103475121D01*
X132642569Y-103499354D01*
X132535137Y-103521769D01*
X132430937Y-103542165D01*
X132334612Y-103559128D01*
X132250808Y-103571244D01*
X132250808Y-103781260D01*
X132341276Y-103762682D01*
X132454362Y-103736026D01*
X132538997Y-103714665D01*
X132627042Y-103691510D01*
X132718498Y-103666559D01*
X132811748Y-103640172D01*
X132905179Y-103612709D01*
X132998788Y-103584168D01*
X133132068Y-103541761D01*
X133250808Y-103501777D01*
X133250808Y-103296607D01*
X133164737Y-103265733D01*
X133076692Y-103235577D01*
X132986672Y-103206139D01*
X132896204Y-103177868D01*
X132806812Y-103151212D01*
X132718498Y-103126171D01*
X132589863Y-103091842D01*
X132467286Y-103061551D01*
X132353393Y-103035501D01*
X132250808Y-103013893D01*
X131958939Y-103013893D01*
X131958939Y-102632633D01*
X132228191Y-102632633D01*
X132235662Y-102718457D01*
X132258078Y-102794992D01*
X132317044Y-102910501D01*
X132462439Y-102839418D01*
X132416397Y-102743296D01*
X132397819Y-102631018D01*
X132429321Y-102539742D01*
X132515751Y-102506624D01*
X132577141Y-102521971D01*
X132615913Y-102561551D01*
X132636914Y-102616478D01*
X132643376Y-102677868D01*
X132643376Y-102752181D01*
X132808158Y-102752181D01*
X132808158Y-102690792D01*
X132816034Y-102602342D01*
X132839661Y-102530856D01*
X132883078Y-102483603D01*
X132950323Y-102467851D01*
X133058562Y-102509047D01*
X133091276Y-102565388D01*
X133102181Y-102652019D01*
X133097738Y-102728554D01*
X133084410Y-102793376D01*
X133050485Y-102889499D01*
X133216882Y-102928271D01*
X133234653Y-102878191D01*
X133252423Y-102807916D01*
X133266155Y-102728756D01*
X133271809Y-102650404D01*
X133265953Y-102557108D01*
X133248384Y-102477544D01*
X133220113Y-102411309D01*
X133182149Y-102357997D01*
X133081179Y-102288530D01*
X132953554Y-102265913D01*
X132872375Y-102276616D01*
X132803312Y-102308724D01*
X132747981Y-102360218D01*
X132707997Y-102429079D01*
X132623990Y-102338611D01*
X132509289Y-102304685D01*
X132397819Y-102324071D01*
X132308158Y-102383845D01*
X132249192Y-102486430D01*
X132233441Y-102554079D01*
X132228191Y-102632633D01*
X131958939Y-102632633D01*
X131958939Y-102265913D01*
X131958939Y-102265778D01*
X131962748Y-102188241D01*
X131974139Y-102111450D01*
X131993002Y-102036145D01*
X132019155Y-101963052D01*
X132052347Y-101892875D01*
X132092257Y-101826288D01*
X132138502Y-101763934D01*
X132190636Y-101706414D01*
X132248156Y-101654280D01*
X132310510Y-101608035D01*
X132377096Y-101568125D01*
X132447274Y-101534933D01*
X132520367Y-101508780D01*
X132595672Y-101489917D01*
X132672462Y-101478526D01*
X132750000Y-101474717D01*
X132827538Y-101478526D01*
X132904328Y-101489917D01*
X132979633Y-101508780D01*
X133052726Y-101534933D01*
X133122904Y-101568125D01*
X133189490Y-101608035D01*
X133251844Y-101654280D01*
X133309364Y-101706414D01*
X133361498Y-101763934D01*
X133407743Y-101826288D01*
X133447653Y-101892875D01*
X133480845Y-101963052D01*
X133506998Y-102036145D01*
X133525861Y-102111450D01*
X133537252Y-102188241D01*
X133541061Y-102265778D01*
X133541061Y-102265913D01*
X133541061Y-102650404D01*
X133541061Y-103501777D01*
G37*
D13*
%TO.C,L301*%
X104760720Y-130236542D02*
X105610720Y-130236542D01*
X104760720Y-134606542D02*
X104760720Y-130236542D01*
X104760720Y-134606542D02*
X105610720Y-134606542D01*
X109480720Y-130236542D02*
X108630720Y-130236542D01*
X109480720Y-134606542D02*
X108630720Y-134606542D01*
X109480720Y-134606542D02*
X109480720Y-130236542D01*
%TO.C,JP300*%
X103050000Y-135675000D02*
X105850000Y-135675000D01*
X103050000Y-137675000D02*
X103050000Y-135675000D01*
X105850000Y-135675000D02*
X105850000Y-137675000D01*
X105850000Y-137675000D02*
X103050000Y-137675000D01*
%TO.C,TP302*%
X133450000Y-105325000D02*
G75*
G02*
X132050000Y-105325000I-700000J0D01*
G01*
X132050000Y-105325000D02*
G75*
G02*
X133450000Y-105325000I700000J0D01*
G01*
%TO.C,U200*%
X132850000Y-139615000D02*
X132075000Y-139615000D01*
X132850000Y-139615000D02*
X133625000Y-139615000D01*
X132850000Y-142735000D02*
X132075000Y-142735000D01*
X132850000Y-142735000D02*
X133625000Y-142735000D01*
X134452500Y-143015000D02*
X133972500Y-143015000D01*
X134212500Y-142685000D01*
X134452500Y-143015000D01*
G36*
X134452500Y-143015000D02*
G01*
X133972500Y-143015000D01*
X134212500Y-142685000D01*
X134452500Y-143015000D01*
G37*
D10*
%TO.C,LED300*%
X105750000Y-59985000D02*
X105750000Y-51985000D01*
X107550000Y-53510000D02*
X107550000Y-54410000D01*
X107550000Y-54410000D02*
X108750000Y-53960000D01*
X107850000Y-54485000D02*
X108250000Y-54885000D01*
X108250000Y-54885000D02*
X107950000Y-54885000D01*
X108300000Y-54385000D02*
X108700000Y-54785000D01*
X108700000Y-54785000D02*
X108400000Y-54785000D01*
X108750000Y-53510000D02*
X108750000Y-54410000D01*
X108750000Y-53960000D02*
X106750000Y-53960000D01*
X108750000Y-53960000D02*
X107550000Y-53510000D01*
X108750000Y-53960000D02*
X109450000Y-53960000D01*
X110550000Y-51985000D02*
X110550000Y-59985000D01*
X110550000Y-59985000D02*
X105750000Y-59985000D01*
D11*
%TO.C,D301*%
X124120000Y-136775000D02*
X124120000Y-139065000D01*
X124120000Y-139065000D02*
X125580000Y-139065000D01*
X125580000Y-139065000D02*
X125580000Y-136775000D01*
%TO.C,FB400*%
X106110000Y-104715000D02*
X105790000Y-104715000D01*
X106110000Y-105735000D02*
X105790000Y-105735000D01*
D12*
%TO.C,kibuzzard-67B2198C*%
G36*
X134545840Y-111401494D02*
G01*
X134601979Y-111429362D01*
X134638328Y-111477019D01*
X134650444Y-111545679D01*
X134605210Y-111657956D01*
X134545840Y-111687641D01*
X134458199Y-111697536D01*
X134414580Y-111697536D01*
X134414580Y-111397052D01*
X134446890Y-111393013D01*
X134474354Y-111392205D01*
X134545840Y-111401494D01*
G37*
G36*
X135802462Y-110953826D02*
G01*
X135877684Y-110964984D01*
X135951451Y-110983461D01*
X136023051Y-111009080D01*
X136091796Y-111041594D01*
X136157022Y-111080689D01*
X136218103Y-111125990D01*
X136274449Y-111177059D01*
X136325518Y-111233405D01*
X136370818Y-111294485D01*
X136409914Y-111359712D01*
X136442427Y-111428456D01*
X136468046Y-111500057D01*
X136486524Y-111573823D01*
X136497682Y-111649046D01*
X136501414Y-111725000D01*
X136497682Y-111800954D01*
X136486524Y-111876177D01*
X136468046Y-111949943D01*
X136442427Y-112021544D01*
X136409914Y-112090288D01*
X136370818Y-112155515D01*
X136325518Y-112216595D01*
X136274449Y-112272941D01*
X136218103Y-112324010D01*
X136157022Y-112369311D01*
X136091796Y-112408406D01*
X136023051Y-112440920D01*
X135951451Y-112466539D01*
X135877684Y-112485016D01*
X135802462Y-112496174D01*
X135726508Y-112499906D01*
X135726373Y-112499906D01*
X135511511Y-112499906D01*
X134918619Y-112499906D01*
X134215872Y-112499906D01*
X133273492Y-112499906D01*
X133197538Y-112496174D01*
X133122316Y-112485016D01*
X133048549Y-112466539D01*
X132976949Y-112440920D01*
X132908204Y-112408406D01*
X132842978Y-112369311D01*
X132781897Y-112324010D01*
X132725551Y-112272941D01*
X132674482Y-112216595D01*
X132629182Y-112155515D01*
X132590086Y-112090288D01*
X132557573Y-112021544D01*
X132531954Y-111949943D01*
X132513476Y-111876177D01*
X132502318Y-111800954D01*
X132498586Y-111725000D01*
X132502318Y-111649046D01*
X132513476Y-111573823D01*
X132531954Y-111500057D01*
X132557573Y-111428456D01*
X132590086Y-111359712D01*
X132629182Y-111294485D01*
X132665739Y-111245194D01*
X134215872Y-111245194D01*
X134215872Y-112230654D01*
X134414580Y-112230654D01*
X134414580Y-111862318D01*
X134517973Y-111862318D01*
X134572698Y-111953796D01*
X134623788Y-112044063D01*
X134670032Y-112135541D01*
X134710218Y-112230654D01*
X134918619Y-112230654D01*
X134954160Y-112230654D01*
X135169023Y-112230654D01*
X135206179Y-112143215D01*
X135249798Y-112045679D01*
X135296648Y-111944911D01*
X135343498Y-111847779D01*
X135390953Y-111947940D01*
X135436389Y-112048102D01*
X135477383Y-112143821D01*
X135511511Y-112230654D01*
X135726373Y-112230654D01*
X135682754Y-112124838D01*
X135653069Y-112060218D01*
X135618942Y-111990751D01*
X135581179Y-111917851D01*
X135540590Y-111842932D01*
X135498183Y-111768619D01*
X135454968Y-111697536D01*
X135710218Y-111230654D01*
X135509895Y-111230654D01*
X135343498Y-111550525D01*
X135185178Y-111230654D01*
X134970315Y-111230654D01*
X135232027Y-111702383D01*
X135192447Y-111773263D01*
X135151252Y-111846971D01*
X135110258Y-111921082D01*
X135071284Y-111993174D01*
X135034935Y-112061834D01*
X135001817Y-112125646D01*
X134954160Y-112230654D01*
X134918619Y-112230654D01*
X134872577Y-112124838D01*
X134816842Y-112013368D01*
X134757068Y-111906745D01*
X134698910Y-111813853D01*
X134769588Y-111768215D01*
X134816842Y-111705614D01*
X134843498Y-111630493D01*
X134852383Y-111547294D01*
X134845719Y-111468740D01*
X134825727Y-111401090D01*
X134748990Y-111298506D01*
X134694063Y-111263368D01*
X134629443Y-111238732D01*
X134555937Y-111224192D01*
X134474354Y-111219346D01*
X134417811Y-111220961D01*
X134349960Y-111225000D01*
X134279685Y-111233078D01*
X134215872Y-111245194D01*
X132665739Y-111245194D01*
X132674482Y-111233405D01*
X132725551Y-111177059D01*
X132781897Y-111125990D01*
X132842978Y-111080689D01*
X132908204Y-111041594D01*
X132976949Y-111009080D01*
X133048549Y-110983461D01*
X133122316Y-110964984D01*
X133197538Y-110953826D01*
X133273492Y-110950094D01*
X134215872Y-110950094D01*
X135726373Y-110950094D01*
X135726508Y-110950094D01*
X135802462Y-110953826D01*
G37*
D13*
%TO.C,U801*%
X131650000Y-137240000D02*
X131650000Y-137030000D01*
X131840000Y-138810000D02*
X131840000Y-138360000D01*
X133460000Y-136790000D02*
X133460000Y-137240000D01*
X133460000Y-138810000D02*
X133460000Y-138360000D01*
X131650000Y-136790000D02*
X131410000Y-136460000D01*
X131890000Y-136460000D01*
X131650000Y-136790000D01*
G36*
X131650000Y-136790000D02*
G01*
X131410000Y-136460000D01*
X131890000Y-136460000D01*
X131650000Y-136790000D01*
G37*
%TO.C,TP701*%
X133950000Y-113725000D02*
G75*
G02*
X132550000Y-113725000I-700000J0D01*
G01*
X132550000Y-113725000D02*
G75*
G02*
X133950000Y-113725000I700000J0D01*
G01*
%TO.C,U301*%
X111550000Y-132558050D02*
X110750000Y-132558050D01*
X111550000Y-132558050D02*
X112350000Y-132558050D01*
X111550000Y-135678050D02*
X110750000Y-135678050D01*
X111550000Y-135678050D02*
X112350000Y-135678050D01*
D14*
X110350000Y-132518050D02*
G75*
G02*
X110150000Y-132518050I-100000J0D01*
G01*
X110150000Y-132518050D02*
G75*
G02*
X110350000Y-132518050I100000J0D01*
G01*
D12*
%TO.C,kibuzzard-67B20BD5*%
G36*
X126697598Y-111755183D02*
G01*
X126718277Y-111835312D01*
X126735724Y-111914795D01*
X126751233Y-111997509D01*
X126594852Y-111997509D01*
X126611007Y-111914795D01*
X126629101Y-111835312D01*
X126649779Y-111755183D01*
X126673689Y-111669238D01*
X126697598Y-111755183D01*
G37*
G36*
X131559849Y-112438651D02*
G01*
X131505999Y-112438651D01*
X131279828Y-112438651D01*
X130632332Y-112438651D01*
X129652687Y-112438651D01*
X129177081Y-112438651D01*
X128884997Y-112438651D01*
X128360280Y-112438651D01*
X128047518Y-112438651D01*
X127380635Y-112438651D01*
X126815854Y-112438651D01*
X126363511Y-112438651D01*
X126201960Y-112438651D01*
X126201960Y-112314149D01*
X126363511Y-112314149D01*
X126528939Y-112314149D01*
X126565127Y-112129335D01*
X126778374Y-112129335D01*
X126815854Y-112314149D01*
X126986451Y-112314149D01*
X126965127Y-112223448D01*
X126943543Y-112135383D01*
X126921702Y-112049955D01*
X126899602Y-111967164D01*
X126884633Y-111913503D01*
X127032978Y-111913503D01*
X127038551Y-112007929D01*
X127055272Y-112090886D01*
X127083139Y-112162372D01*
X127122154Y-112222388D01*
X127190508Y-112282701D01*
X127276668Y-112318888D01*
X127380635Y-112330950D01*
X127451233Y-112326589D01*
X127513107Y-112313503D01*
X127604222Y-112275377D01*
X127564157Y-112150013D01*
X127498891Y-112178446D01*
X127396144Y-112192663D01*
X127303899Y-112174408D01*
X127241702Y-112119642D01*
X127215495Y-112063853D01*
X127199770Y-111993848D01*
X127194529Y-111909626D01*
X127198891Y-111837251D01*
X127211976Y-111777800D01*
X127257211Y-111693148D01*
X127320539Y-111647913D01*
X127393560Y-111634343D01*
X127489844Y-111647913D01*
X127561572Y-111680870D01*
X127602929Y-111554214D01*
X127576435Y-111538705D01*
X127533139Y-111519319D01*
X127513907Y-111514149D01*
X127676597Y-111514149D01*
X127676597Y-111645975D01*
X127887259Y-111645975D01*
X127887259Y-112314149D01*
X128047518Y-112314149D01*
X128047518Y-111645975D01*
X128258180Y-111645975D01*
X128360280Y-111645975D01*
X128534755Y-111645975D01*
X128534755Y-112182324D01*
X128360280Y-112182324D01*
X128360280Y-112314149D01*
X128868196Y-112314149D01*
X128868196Y-112182324D01*
X128695013Y-112182324D01*
X128695013Y-111645975D01*
X128868196Y-111645975D01*
X128868196Y-111514149D01*
X128953495Y-111514149D01*
X128968358Y-111586524D01*
X128989682Y-111676992D01*
X129006771Y-111744700D01*
X129025295Y-111815136D01*
X129045256Y-111888301D01*
X129066365Y-111962902D01*
X129088336Y-112037646D01*
X129111169Y-112112534D01*
X129145094Y-112219157D01*
X129177081Y-112314149D01*
X129341217Y-112314149D01*
X129365916Y-112245293D01*
X129390041Y-112174856D01*
X129413592Y-112102841D01*
X129436209Y-112030466D01*
X129457534Y-111958953D01*
X129477566Y-111888301D01*
X129505030Y-111785393D01*
X129529262Y-111687332D01*
X129550102Y-111596217D01*
X129567388Y-111514149D01*
X129652687Y-111514149D01*
X129652687Y-111645975D01*
X129827162Y-111645975D01*
X129827162Y-112182324D01*
X129652687Y-112182324D01*
X129652687Y-112314149D01*
X130160603Y-112314149D01*
X130160603Y-112182324D01*
X129987421Y-112182324D01*
X129987421Y-111645975D01*
X130160603Y-111645975D01*
X130160603Y-111514149D01*
X130261411Y-111514149D01*
X130261411Y-111645975D01*
X130472073Y-111645975D01*
X130472073Y-112314149D01*
X130632332Y-112314149D01*
X130632332Y-111645975D01*
X130842994Y-111645975D01*
X130842994Y-111514149D01*
X130892106Y-111514149D01*
X130925349Y-111600669D01*
X130959598Y-111684460D01*
X130994852Y-111765522D01*
X131032547Y-111845867D01*
X131074120Y-111927504D01*
X131119569Y-112010433D01*
X131119569Y-112314149D01*
X131279828Y-112314149D01*
X131279828Y-112009141D01*
X131314723Y-111946621D01*
X131347033Y-111885716D01*
X131377081Y-111825458D01*
X131405191Y-111764876D01*
X131431686Y-111703810D01*
X131456887Y-111642097D01*
X131481443Y-111579093D01*
X131505999Y-111514149D01*
X131341863Y-111514149D01*
X131310199Y-111607202D01*
X131292429Y-111658576D01*
X131274012Y-111709303D01*
X131236532Y-111804941D01*
X131203576Y-111879900D01*
X131165450Y-111795732D01*
X131128616Y-111703487D01*
X131094044Y-111608010D01*
X131062703Y-111514149D01*
X130892106Y-111514149D01*
X130842994Y-111514149D01*
X130681443Y-111514149D01*
X130261411Y-111514149D01*
X130160603Y-111514149D01*
X130041702Y-111514149D01*
X129652687Y-111514149D01*
X129567388Y-111514149D01*
X129400668Y-111514149D01*
X129389036Y-111581354D01*
X129374820Y-111658899D01*
X129358665Y-111742744D01*
X129341217Y-111828850D01*
X129322477Y-111915442D01*
X129302445Y-112000740D01*
X129281766Y-112080708D01*
X129261088Y-112151306D01*
X129240248Y-112079739D01*
X129219085Y-111999448D01*
X129198406Y-111914149D01*
X129179020Y-111827558D01*
X129161088Y-111741613D01*
X129144771Y-111658253D01*
X129131201Y-111581193D01*
X129121508Y-111514149D01*
X129006484Y-111514149D01*
X128953495Y-111514149D01*
X128868196Y-111514149D01*
X128360280Y-111514149D01*
X128360280Y-111645975D01*
X128258180Y-111645975D01*
X128258180Y-111514149D01*
X128144448Y-111514149D01*
X127676597Y-111514149D01*
X127513907Y-111514149D01*
X127473043Y-111503164D01*
X127401314Y-111496533D01*
X127396144Y-111496055D01*
X127320377Y-111503002D01*
X127250749Y-111523842D01*
X127188713Y-111558091D01*
X127135724Y-111605264D01*
X127092590Y-111664876D01*
X127060118Y-111736443D01*
X127039763Y-111819480D01*
X127032978Y-111913503D01*
X126884633Y-111913503D01*
X126877243Y-111887009D01*
X126849093Y-111789795D01*
X126820862Y-111695248D01*
X126792550Y-111603366D01*
X126764157Y-111514149D01*
X126651718Y-111514149D01*
X126590975Y-111514149D01*
X126563592Y-111602639D01*
X126535724Y-111693632D01*
X126507372Y-111787130D01*
X126478535Y-111883131D01*
X126455324Y-111962614D01*
X126432215Y-112045458D01*
X126409211Y-112131661D01*
X126386309Y-112221225D01*
X126363511Y-112314149D01*
X126201960Y-112314149D01*
X126201960Y-111193201D01*
X126403576Y-111193201D01*
X126492752Y-111232620D01*
X126562219Y-111248613D01*
X126651718Y-111253945D01*
X126742402Y-111247123D01*
X126816284Y-111226660D01*
X126873366Y-111192555D01*
X126928131Y-111118403D01*
X126946387Y-111018726D01*
X126940894Y-110958468D01*
X126924416Y-110909518D01*
X126868196Y-110837143D01*
X126793236Y-110790617D01*
X126715046Y-110758953D01*
X126665288Y-110739567D01*
X126620054Y-110715657D01*
X126587097Y-110684639D01*
X126574173Y-110643928D01*
X126588246Y-110592950D01*
X126630465Y-110562363D01*
X126700829Y-110552167D01*
X126791944Y-110565092D01*
X126863673Y-110596109D01*
X126873958Y-110568969D01*
X127030393Y-110568969D01*
X127241055Y-110568969D01*
X127241055Y-111237143D01*
X127401314Y-111237143D01*
X128382251Y-111237143D01*
X128884997Y-111237143D01*
X128884997Y-111105318D01*
X128542509Y-111105318D01*
X128542509Y-110568969D01*
X129006484Y-110568969D01*
X129180959Y-110568969D01*
X129180959Y-111105318D01*
X129006484Y-111105318D01*
X129006484Y-111237143D01*
X129514400Y-111237143D01*
X129642348Y-111237143D01*
X129785805Y-111237143D01*
X129785805Y-110705964D01*
X129833840Y-110794637D01*
X129879720Y-110883167D01*
X129923446Y-110971554D01*
X129965019Y-111059940D01*
X130004437Y-111148470D01*
X130041702Y-111237143D01*
X130169650Y-111237143D01*
X130287259Y-111237143D01*
X130446225Y-111237143D01*
X130446225Y-110871392D01*
X130514076Y-110944413D01*
X130548810Y-110989324D01*
X130581928Y-111037466D01*
X130612784Y-111087870D01*
X130640732Y-111139567D01*
X130681443Y-111237143D01*
X130861088Y-111237143D01*
X130840086Y-111179470D01*
X130813269Y-111120180D01*
X130781766Y-111060730D01*
X130746710Y-111002571D01*
X130708745Y-110946836D01*
X130668519Y-110894655D01*
X130627485Y-110847159D01*
X130587097Y-110805479D01*
X130626354Y-110757983D01*
X130663996Y-110708549D01*
X130699698Y-110658630D01*
X130733139Y-110609680D01*
X130763673Y-110562184D01*
X130790652Y-110516626D01*
X130833947Y-110437143D01*
X130654303Y-110437143D01*
X130615530Y-110514688D01*
X130564480Y-110601279D01*
X130505676Y-110689163D01*
X130446225Y-110769292D01*
X130446225Y-110437143D01*
X130287259Y-110437143D01*
X130287259Y-111237143D01*
X130169650Y-111237143D01*
X130169650Y-110437143D01*
X130026193Y-110437143D01*
X130026193Y-110929550D01*
X130003414Y-110879146D01*
X129976435Y-110820988D01*
X129946064Y-110757983D01*
X129913107Y-110693040D01*
X129878374Y-110626966D01*
X129842671Y-110560568D01*
X129806484Y-110496432D01*
X129770296Y-110437143D01*
X129642348Y-110437143D01*
X129642348Y-111237143D01*
X129514400Y-111237143D01*
X129514400Y-111105318D01*
X129341217Y-111105318D01*
X129341217Y-110568969D01*
X129514400Y-110568969D01*
X129514400Y-110437143D01*
X129006484Y-110437143D01*
X129006484Y-110568969D01*
X128542509Y-110568969D01*
X128542509Y-110437143D01*
X128382251Y-110437143D01*
X128382251Y-111237143D01*
X127401314Y-111237143D01*
X127401314Y-110983831D01*
X127790328Y-110983831D01*
X128144448Y-110983831D01*
X128144448Y-110827450D01*
X127790328Y-110827450D01*
X127790328Y-110983831D01*
X127401314Y-110983831D01*
X127401314Y-110568969D01*
X127611976Y-110568969D01*
X127611976Y-110437143D01*
X127030393Y-110437143D01*
X127030393Y-110568969D01*
X126873958Y-110568969D01*
X126910199Y-110473331D01*
X126817792Y-110435851D01*
X126758180Y-110423250D01*
X126689198Y-110419050D01*
X126610002Y-110426086D01*
X126543012Y-110447195D01*
X126488228Y-110482377D01*
X126433463Y-110557983D01*
X126415207Y-110658145D01*
X126435886Y-110753137D01*
X126488228Y-110817111D01*
X126558665Y-110859760D01*
X126633624Y-110889486D01*
X126687905Y-110912103D01*
X126737017Y-110939243D01*
X126773204Y-110973492D01*
X126787421Y-111017434D01*
X126781605Y-111055560D01*
X126760280Y-111089163D01*
X126718277Y-111112426D01*
X126651718Y-111120827D01*
X126587259Y-111116303D01*
X126533463Y-111102733D01*
X126450102Y-111063961D01*
X126403576Y-111193201D01*
X126201960Y-111193201D01*
X126201960Y-110311349D01*
X126363511Y-110311349D01*
X131505999Y-110311349D01*
X131559849Y-110311349D01*
X132198040Y-110311349D01*
X131559849Y-112438651D01*
G37*
D11*
%TO.C,D400*%
X128510000Y-107075000D02*
X128510000Y-109365000D01*
X128510000Y-109365000D02*
X129970000Y-109365000D01*
X129970000Y-109365000D02*
X129970000Y-107075000D01*
%TO.C,D701*%
X124445000Y-109960000D02*
X124445000Y-112250000D01*
X125905000Y-109960000D02*
X124445000Y-109960000D01*
X125905000Y-112250000D02*
X125905000Y-109960000D01*
%TO.C,D402*%
X131510000Y-107075000D02*
X131510000Y-109365000D01*
X131510000Y-109365000D02*
X132970000Y-109365000D01*
X132970000Y-109365000D02*
X132970000Y-107075000D01*
%TO.C,Y700*%
X130950000Y-112825000D02*
X129450000Y-112825000D01*
X130950000Y-114025000D02*
X130950000Y-112825000D01*
D13*
%TO.C,U700*%
X124040000Y-118315000D02*
X124490000Y-118315000D01*
X124040000Y-118765000D02*
X124040000Y-118315000D01*
X124040000Y-125085000D02*
X124040000Y-125535000D01*
X124040000Y-125535000D02*
X124490000Y-125535000D01*
X131260000Y-118315000D02*
X130810000Y-118315000D01*
X131260000Y-118765000D02*
X131260000Y-118315000D01*
X131260000Y-125085000D02*
X131260000Y-125535000D01*
X131260000Y-125535000D02*
X130810000Y-125535000D01*
D14*
X131000000Y-117025000D02*
G75*
G02*
X130800000Y-117025000I-100000J0D01*
G01*
X130800000Y-117025000D02*
G75*
G02*
X131000000Y-117025000I100000J0D01*
G01*
D13*
%TO.C,TP700*%
X133950000Y-111725000D02*
G75*
G02*
X132550000Y-111725000I-700000J0D01*
G01*
X132550000Y-111725000D02*
G75*
G02*
X133950000Y-111725000I700000J0D01*
G01*
%TO.C,U800*%
X121550000Y-60012500D02*
X120775000Y-60012500D01*
X121550000Y-60012500D02*
X122325000Y-60012500D01*
X121550000Y-63132500D02*
X120775000Y-63132500D01*
X121550000Y-63132500D02*
X122325000Y-63132500D01*
X120187500Y-60062500D02*
X119947500Y-59732500D01*
X120427500Y-59732500D01*
X120187500Y-60062500D01*
G36*
X120187500Y-60062500D02*
G01*
X119947500Y-59732500D01*
X120427500Y-59732500D01*
X120187500Y-60062500D01*
G37*
D12*
%TO.C,kibuzzard-67B37472*%
G36*
X131100565Y-102597092D02*
G01*
X131078150Y-102668578D01*
X131010905Y-102721486D01*
X130941887Y-102745719D01*
X130854380Y-102760258D01*
X130748384Y-102765105D01*
X130643287Y-102760258D01*
X130556318Y-102745719D01*
X130487480Y-102721486D01*
X130420234Y-102668578D01*
X130397819Y-102597092D01*
X130398318Y-102595477D01*
X130623990Y-102595477D01*
X130656300Y-102661712D01*
X130732229Y-102685945D01*
X130807351Y-102661712D01*
X130838853Y-102595477D01*
X130807351Y-102531664D01*
X130732229Y-102506624D01*
X130656300Y-102531664D01*
X130623990Y-102595477D01*
X130398318Y-102595477D01*
X130420234Y-102524596D01*
X130487480Y-102471890D01*
X130556318Y-102448106D01*
X130643287Y-102433836D01*
X130748384Y-102429079D01*
X130854380Y-102433836D01*
X130941887Y-102448106D01*
X131010905Y-102471890D01*
X131078150Y-102524596D01*
X131100066Y-102595477D01*
X131100565Y-102597092D01*
G37*
G36*
X131541061Y-103508239D02*
G01*
X131541061Y-104290145D01*
X131541061Y-104559935D01*
X131541061Y-105300377D01*
X131537252Y-105377914D01*
X131525861Y-105454705D01*
X131506998Y-105530010D01*
X131480845Y-105603103D01*
X131447653Y-105673280D01*
X131407743Y-105739867D01*
X131361498Y-105802221D01*
X131309364Y-105859741D01*
X131251844Y-105911875D01*
X131189490Y-105958120D01*
X131122904Y-105998030D01*
X131052726Y-106031222D01*
X130979633Y-106057375D01*
X130904328Y-106076238D01*
X130827538Y-106087629D01*
X130750000Y-106091438D01*
X130672462Y-106087629D01*
X130595672Y-106076238D01*
X130520367Y-106057375D01*
X130447274Y-106031222D01*
X130377096Y-105998030D01*
X130310510Y-105958120D01*
X130248156Y-105911875D01*
X130190636Y-105859741D01*
X130138502Y-105802221D01*
X130092257Y-105739867D01*
X130052347Y-105673280D01*
X130019155Y-105603103D01*
X129993002Y-105530010D01*
X129974139Y-105454705D01*
X129962748Y-105377914D01*
X129958939Y-105300377D01*
X129958939Y-104559935D01*
X129958939Y-103931502D01*
X130250808Y-103931502D01*
X130250808Y-104442003D01*
X130374192Y-104448061D01*
X130502019Y-104456543D01*
X130633481Y-104467851D01*
X130767771Y-104482391D01*
X130771204Y-104371325D01*
X130781502Y-104283683D01*
X130820275Y-104166559D01*
X130880048Y-104111632D01*
X130956785Y-104097900D01*
X131010097Y-104105977D01*
X131056139Y-104135864D01*
X131089257Y-104195638D01*
X131102181Y-104291761D01*
X131098546Y-104367286D01*
X131087641Y-104429079D01*
X131055331Y-104519548D01*
X131220113Y-104559935D01*
X131237884Y-104513893D01*
X131254847Y-104446850D01*
X131266963Y-104369305D01*
X131271809Y-104290145D01*
X131265751Y-104197658D01*
X131247577Y-104117286D01*
X131218498Y-104049031D01*
X131179725Y-103992892D01*
X131077141Y-103918578D01*
X130948708Y-103894346D01*
X130855008Y-103905295D01*
X130776387Y-103938144D01*
X130712843Y-103992892D01*
X130664737Y-104069898D01*
X130632427Y-104169521D01*
X130615913Y-104291761D01*
X130523829Y-104283683D01*
X130415590Y-104275606D01*
X130415590Y-103931502D01*
X130250808Y-103931502D01*
X129958939Y-103931502D01*
X129958939Y-103020355D01*
X130250808Y-103020355D01*
X130250808Y-103228756D01*
X130334814Y-103243296D01*
X130431745Y-103261066D01*
X130536551Y-103281260D01*
X130644184Y-103303069D01*
X130752423Y-103326494D01*
X130859047Y-103351535D01*
X130959006Y-103377383D01*
X131047254Y-103403231D01*
X130957795Y-103429281D01*
X130857431Y-103455735D01*
X130750808Y-103481583D01*
X130642569Y-103505816D01*
X130535137Y-103528231D01*
X130430937Y-103548627D01*
X130334612Y-103565590D01*
X130250808Y-103577706D01*
X130250808Y-103787722D01*
X130341276Y-103769144D01*
X130454362Y-103742488D01*
X130538997Y-103721127D01*
X130627042Y-103697972D01*
X130718498Y-103673021D01*
X130811748Y-103646634D01*
X130905179Y-103619171D01*
X130998788Y-103590630D01*
X131132068Y-103548223D01*
X131250808Y-103508239D01*
X131250808Y-103303069D01*
X131164737Y-103272195D01*
X131076692Y-103242039D01*
X130986672Y-103212601D01*
X130896204Y-103184330D01*
X130806812Y-103157674D01*
X130718498Y-103132633D01*
X130589863Y-103098304D01*
X130467286Y-103068013D01*
X130353393Y-103041963D01*
X130250808Y-103020355D01*
X129958939Y-103020355D01*
X129958939Y-102597092D01*
X130228191Y-102597092D01*
X130242551Y-102699587D01*
X130285631Y-102785209D01*
X130357431Y-102853958D01*
X130430331Y-102893538D01*
X130519790Y-102921809D01*
X130625808Y-102938772D01*
X130748384Y-102944426D01*
X130872375Y-102938873D01*
X130979402Y-102922213D01*
X131069467Y-102894447D01*
X131142569Y-102855574D01*
X131214369Y-102787363D01*
X131257449Y-102701203D01*
X131271809Y-102597092D01*
X131257449Y-102492982D01*
X131214369Y-102406821D01*
X131142569Y-102338611D01*
X131069467Y-102299737D01*
X130979402Y-102271971D01*
X130872375Y-102255311D01*
X130748384Y-102249758D01*
X130625151Y-102255311D01*
X130518780Y-102271971D01*
X130429271Y-102299737D01*
X130356624Y-102338611D01*
X130285272Y-102406821D01*
X130242461Y-102492982D01*
X130228191Y-102597092D01*
X129958939Y-102597092D01*
X129958939Y-102249758D01*
X129958939Y-102249623D01*
X129962748Y-102172086D01*
X129974139Y-102095295D01*
X129993002Y-102019990D01*
X130019155Y-101946897D01*
X130052347Y-101876720D01*
X130092257Y-101810133D01*
X130138502Y-101747779D01*
X130190636Y-101690259D01*
X130248156Y-101638125D01*
X130310510Y-101591880D01*
X130377096Y-101551970D01*
X130447274Y-101518778D01*
X130520367Y-101492625D01*
X130595672Y-101473762D01*
X130672462Y-101462371D01*
X130750000Y-101458562D01*
X130827538Y-101462371D01*
X130904328Y-101473762D01*
X130979633Y-101492625D01*
X131052726Y-101518778D01*
X131122904Y-101551970D01*
X131189490Y-101591880D01*
X131251844Y-101638125D01*
X131309364Y-101690259D01*
X131361498Y-101747779D01*
X131407743Y-101810133D01*
X131447653Y-101876720D01*
X131480845Y-101946897D01*
X131506998Y-102019990D01*
X131525861Y-102095295D01*
X131537252Y-102172086D01*
X131541061Y-102249623D01*
X131541061Y-102249758D01*
X131541061Y-102597092D01*
X131541061Y-103508239D01*
G37*
D13*
%TO.C,U400*%
X104965000Y-109740000D02*
X105665000Y-109740000D01*
X104965000Y-110440000D02*
X104965000Y-109740000D01*
X104965000Y-123260000D02*
X104965000Y-123960000D01*
X104965000Y-123960000D02*
X105665000Y-123960000D01*
X119185000Y-109740000D02*
X118485000Y-109740000D01*
X119185000Y-110440000D02*
X119185000Y-109740000D01*
X119185000Y-123260000D02*
X119185000Y-123960000D01*
X119185000Y-123960000D02*
X118485000Y-123960000D01*
X118955000Y-109452500D02*
X118485000Y-109112500D01*
X118955000Y-108772500D01*
X118955000Y-109452500D01*
G36*
X118955000Y-109452500D02*
G01*
X118485000Y-109112500D01*
X118955000Y-108772500D01*
X118955000Y-109452500D01*
G37*
%TO.C,TP300*%
X129450000Y-105325000D02*
G75*
G02*
X128050000Y-105325000I-700000J0D01*
G01*
X128050000Y-105325000D02*
G75*
G02*
X129450000Y-105325000I700000J0D01*
G01*
%TO.C,JP301*%
X112295720Y-129225000D02*
X115095720Y-129225000D01*
X112295720Y-131225000D02*
X112295720Y-129225000D01*
X115095720Y-129225000D02*
X115095720Y-131225000D01*
X115095720Y-131225000D02*
X112295720Y-131225000D01*
%TO.C,J800*%
X117380000Y-55135000D02*
X117380000Y-56835000D01*
X126720000Y-55135000D02*
X126720000Y-56835000D01*
D12*
%TO.C,kibuzzard-67B219C6*%
G36*
X135825333Y-112959453D02*
G01*
X135900006Y-112970529D01*
X135973235Y-112988872D01*
X136044312Y-113014304D01*
X136112555Y-113046581D01*
X136177306Y-113085391D01*
X136237941Y-113130361D01*
X136293876Y-113181057D01*
X136344572Y-113236992D01*
X136389542Y-113297627D01*
X136428352Y-113362377D01*
X136460628Y-113430620D01*
X136486060Y-113501698D01*
X136504403Y-113574926D01*
X136515480Y-113649600D01*
X136519184Y-113725000D01*
X136515480Y-113800400D01*
X136504403Y-113875074D01*
X136486060Y-113948302D01*
X136460628Y-114019380D01*
X136428352Y-114087623D01*
X136389542Y-114152373D01*
X136344572Y-114213008D01*
X136293876Y-114268943D01*
X136237941Y-114319639D01*
X136177306Y-114364609D01*
X136112555Y-114403419D01*
X136044312Y-114435696D01*
X135973235Y-114461128D01*
X135900006Y-114479471D01*
X135825333Y-114490547D01*
X135749933Y-114494251D01*
X135749798Y-114494251D01*
X135534935Y-114494251D01*
X134656099Y-114494251D01*
X134192447Y-114494251D01*
X133250067Y-114494251D01*
X133174667Y-114490547D01*
X133099994Y-114479471D01*
X133026765Y-114461128D01*
X132955688Y-114435696D01*
X132887445Y-114403419D01*
X132822694Y-114364609D01*
X132762059Y-114319639D01*
X132706124Y-114268943D01*
X132655428Y-114213008D01*
X132610458Y-114152373D01*
X132571648Y-114087623D01*
X132539372Y-114019380D01*
X132513940Y-113948302D01*
X132495597Y-113875074D01*
X132484520Y-113800400D01*
X132480816Y-113725000D01*
X132484520Y-113649600D01*
X132495597Y-113574926D01*
X132513940Y-113501698D01*
X132539372Y-113430620D01*
X132558687Y-113389782D01*
X134192447Y-113389782D01*
X134455775Y-113389782D01*
X134455775Y-114225000D01*
X134656099Y-114225000D01*
X134977585Y-114225000D01*
X135192447Y-114225000D01*
X135229604Y-114137561D01*
X135273223Y-114040024D01*
X135320073Y-113939257D01*
X135366922Y-113842124D01*
X135414378Y-113942286D01*
X135459814Y-114042447D01*
X135500808Y-114138166D01*
X135534935Y-114225000D01*
X135749798Y-114225000D01*
X135706179Y-114119184D01*
X135676494Y-114054564D01*
X135642367Y-113985097D01*
X135604604Y-113912197D01*
X135564015Y-113837278D01*
X135521607Y-113762964D01*
X135478393Y-113691882D01*
X135733643Y-113225000D01*
X135533320Y-113225000D01*
X135366922Y-113544871D01*
X135208603Y-113225000D01*
X134993740Y-113225000D01*
X135255452Y-113696729D01*
X135215872Y-113767609D01*
X135174677Y-113841317D01*
X135133683Y-113915428D01*
X135094709Y-113987520D01*
X135058360Y-114056179D01*
X135025242Y-114119992D01*
X134977585Y-114225000D01*
X134656099Y-114225000D01*
X134656099Y-113389782D01*
X134919426Y-113389782D01*
X134919426Y-113225000D01*
X134192447Y-113225000D01*
X134192447Y-113389782D01*
X132558687Y-113389782D01*
X132571648Y-113362377D01*
X132610458Y-113297627D01*
X132655428Y-113236992D01*
X132706124Y-113181057D01*
X132762059Y-113130361D01*
X132822694Y-113085391D01*
X132887445Y-113046581D01*
X132955688Y-113014304D01*
X133026765Y-112988872D01*
X133099994Y-112970529D01*
X133174667Y-112959453D01*
X133250067Y-112955749D01*
X134192447Y-112955749D01*
X135749798Y-112955749D01*
X135749933Y-112955749D01*
X135825333Y-112959453D01*
G37*
D13*
%TO.C,TP301*%
X131450000Y-105325000D02*
G75*
G02*
X130050000Y-105325000I-700000J0D01*
G01*
X130050000Y-105325000D02*
G75*
G02*
X131450000Y-105325000I700000J0D01*
G01*
%TO.C,J200*%
X42110000Y-145715000D02*
X47630000Y-145715000D01*
X42110000Y-150715000D02*
X42110000Y-145715000D01*
X47630000Y-145715000D02*
X47630000Y-146715000D01*
X49130000Y-146715000D02*
X47630000Y-146715000D01*
X51670000Y-146715000D02*
X50869000Y-146715000D01*
X54210000Y-146715000D02*
X53409000Y-146715000D01*
X56750000Y-146715000D02*
X55949000Y-146715000D01*
X59290000Y-146715000D02*
X58489000Y-146715000D01*
X61830000Y-146715000D02*
X61029000Y-146715000D01*
X64370000Y-146715000D02*
X63569000Y-146715000D01*
X66910000Y-146715000D02*
X66109000Y-146715000D01*
X69450000Y-146715000D02*
X68649000Y-146715000D01*
X71990000Y-146715000D02*
X71189000Y-146715000D01*
X74530000Y-146715000D02*
X73729000Y-146715000D01*
X77070000Y-146715000D02*
X76269000Y-146715000D01*
X79610000Y-146715000D02*
X78809000Y-146715000D01*
X82150000Y-146715000D02*
X81349000Y-146715000D01*
X84690000Y-146715000D02*
X83889000Y-146715000D01*
X87230000Y-146715000D02*
X86429000Y-146715000D01*
X89770000Y-146715000D02*
X88969000Y-146715000D01*
X92310000Y-146715000D02*
X91509000Y-146715000D01*
X94850000Y-146715000D02*
X94049000Y-146715000D01*
X97390000Y-146715000D02*
X96589000Y-146715000D01*
X99930000Y-146715000D02*
X99129000Y-146715000D01*
X102470000Y-146715000D02*
X101669000Y-146715000D01*
X105010000Y-146715000D02*
X104209000Y-146715000D01*
X107550000Y-146715000D02*
X106749000Y-146715000D01*
X110090000Y-146715000D02*
X109289000Y-146715000D01*
X112630000Y-146715000D02*
X111829000Y-146715000D01*
X115170000Y-146715000D02*
X114369000Y-146715000D01*
X117710000Y-146715000D02*
X116909000Y-146715000D01*
X120250000Y-146715000D02*
X119449000Y-146715000D01*
X122790000Y-146715000D02*
X121989000Y-146715000D01*
X125330000Y-146715000D02*
X124529000Y-146715000D01*
X127645000Y-146715000D02*
X127069000Y-146715000D01*
X129835000Y-145975000D02*
X130435000Y-146275000D01*
X130435000Y-145675000D02*
X129835000Y-145975000D01*
X130435000Y-146275000D02*
X130435000Y-145675000D01*
X131110000Y-145715000D02*
X131110000Y-146715000D01*
X131111000Y-146715000D02*
X129835000Y-146715000D01*
X136630000Y-145715000D02*
X131110000Y-145715000D01*
X136630000Y-150715000D02*
X136630000Y-145715000D01*
D11*
%TO.C,F300*%
X104240000Y-138265000D02*
X104560000Y-138265000D01*
X104240000Y-139285000D02*
X104560000Y-139285000D01*
D13*
%TO.C,U600*%
X115190000Y-135125000D02*
X115190000Y-138125000D01*
X118410000Y-135125000D02*
X118410000Y-138125000D01*
X118570000Y-134585000D02*
X118090000Y-134585000D01*
X118090000Y-134105000D01*
X118570000Y-134585000D01*
G36*
X118570000Y-134585000D02*
G01*
X118090000Y-134585000D01*
X118090000Y-134105000D01*
X118570000Y-134585000D01*
G37*
D11*
%TO.C,X300*%
X114125000Y-103750000D02*
X115325000Y-103750000D01*
X115325000Y-105350000D02*
X114125000Y-105350000D01*
D12*
%TO.C,kibuzzard-67B37418*%
G36*
X129530560Y-103091438D02*
G01*
X129530560Y-103904039D01*
X129530560Y-104568013D01*
X129530560Y-105308454D01*
X129526801Y-105384963D01*
X129515562Y-105460734D01*
X129496949Y-105535039D01*
X129471143Y-105607162D01*
X129438393Y-105676408D01*
X129399012Y-105742110D01*
X129353381Y-105803637D01*
X129301939Y-105860394D01*
X129245182Y-105911836D01*
X129183656Y-105957466D01*
X129117953Y-105996847D01*
X129048707Y-106029598D01*
X128976585Y-106055404D01*
X128902280Y-106074016D01*
X128826508Y-106085256D01*
X128750000Y-106089015D01*
X128673492Y-106085256D01*
X128597720Y-106074016D01*
X128523415Y-106055404D01*
X128451293Y-106029598D01*
X128382047Y-105996847D01*
X128316344Y-105957466D01*
X128254818Y-105911836D01*
X128198061Y-105860394D01*
X128146619Y-105803637D01*
X128100988Y-105742110D01*
X128061607Y-105676408D01*
X128028857Y-105607162D01*
X128003051Y-105535039D01*
X127984438Y-105460734D01*
X127973199Y-105384963D01*
X127969440Y-105308454D01*
X127969440Y-104568013D01*
X127969440Y-104102746D01*
X128261309Y-104102746D01*
X128261309Y-104238449D01*
X128324313Y-104307916D01*
X128382472Y-104393538D01*
X128432553Y-104484006D01*
X128469709Y-104568013D01*
X128634491Y-104503393D01*
X128594911Y-104404847D01*
X128537561Y-104301454D01*
X129096527Y-104301454D01*
X129096527Y-104511470D01*
X129261309Y-104511470D01*
X129261309Y-103904039D01*
X129096527Y-103904039D01*
X129096527Y-104102746D01*
X128261309Y-104102746D01*
X127969440Y-104102746D01*
X127969440Y-103450081D01*
X128238691Y-103450081D01*
X128246769Y-103534289D01*
X128271002Y-103618901D01*
X128312197Y-103698667D01*
X128371163Y-103768336D01*
X128510097Y-103669790D01*
X128434168Y-103568013D01*
X128411551Y-103469467D01*
X128444669Y-103375767D01*
X128539176Y-103338611D01*
X128624798Y-103368498D01*
X128712036Y-103444426D01*
X128758279Y-103492084D01*
X128806543Y-103542973D01*
X128857835Y-103593861D01*
X128913166Y-103641519D01*
X128973142Y-103683522D01*
X129038368Y-103717447D01*
X129109451Y-103739863D01*
X129186995Y-103747334D01*
X129220921Y-103748142D01*
X129261309Y-103744103D01*
X129261309Y-103091438D01*
X129096527Y-103091438D01*
X129096527Y-103521163D01*
X129043215Y-103504200D01*
X128985864Y-103463005D01*
X128930937Y-103411309D01*
X128884895Y-103362843D01*
X128804120Y-103280452D01*
X128716882Y-103207754D01*
X128623990Y-103156058D01*
X128524637Y-103136672D01*
X128399435Y-103162520D01*
X128309774Y-103231987D01*
X128256462Y-103332149D01*
X128238691Y-103450081D01*
X127969440Y-103450081D01*
X127969440Y-102241680D01*
X128261309Y-102241680D01*
X128261309Y-102450081D01*
X128345315Y-102464620D01*
X128442246Y-102482391D01*
X128547052Y-102502585D01*
X128654685Y-102524394D01*
X128762924Y-102547819D01*
X128869548Y-102572859D01*
X128969507Y-102598708D01*
X129057754Y-102624556D01*
X128968296Y-102650606D01*
X128867932Y-102677060D01*
X128761309Y-102702908D01*
X128653069Y-102727141D01*
X128545638Y-102749556D01*
X128441438Y-102769952D01*
X128345113Y-102786914D01*
X128261309Y-102799031D01*
X128261309Y-103009047D01*
X128351777Y-102990468D01*
X128464863Y-102963813D01*
X128549497Y-102942452D01*
X128637543Y-102919296D01*
X128728998Y-102894346D01*
X128822249Y-102867959D01*
X128915679Y-102840495D01*
X129009289Y-102811955D01*
X129142569Y-102769548D01*
X129261309Y-102729564D01*
X129261309Y-102524394D01*
X129175238Y-102493520D01*
X129087193Y-102463364D01*
X128997173Y-102433926D01*
X128906704Y-102405654D01*
X128817313Y-102378998D01*
X128728998Y-102353958D01*
X128600363Y-102319628D01*
X128477787Y-102289338D01*
X128363893Y-102263288D01*
X128261309Y-102241680D01*
X127969440Y-102241680D01*
X127969440Y-102241546D01*
X127973199Y-102165037D01*
X127984438Y-102089266D01*
X128003051Y-102014961D01*
X128028857Y-101942838D01*
X128061607Y-101873592D01*
X128100988Y-101807890D01*
X128146619Y-101746363D01*
X128198061Y-101689606D01*
X128254818Y-101638164D01*
X128316344Y-101592534D01*
X128382047Y-101553153D01*
X128451293Y-101520402D01*
X128523415Y-101494596D01*
X128597720Y-101475984D01*
X128673492Y-101464744D01*
X128750000Y-101460985D01*
X128826508Y-101464744D01*
X128902280Y-101475984D01*
X128976585Y-101494596D01*
X129048707Y-101520402D01*
X129117953Y-101553153D01*
X129183656Y-101592534D01*
X129245182Y-101638164D01*
X129301939Y-101689606D01*
X129353381Y-101746363D01*
X129399012Y-101807890D01*
X129438393Y-101873592D01*
X129471143Y-101942838D01*
X129496949Y-102014961D01*
X129515562Y-102089266D01*
X129526801Y-102165037D01*
X129530560Y-102241546D01*
X129530560Y-102241680D01*
X129530560Y-102729564D01*
X129530560Y-103091438D01*
G37*
D11*
%TO.C,X400*%
X112275000Y-103550000D02*
X110775000Y-103550000D01*
X112275000Y-104750000D02*
X112275000Y-103550000D01*
D13*
%TO.C,Y900*%
X132500000Y-129675000D02*
X128500000Y-129675000D01*
X132500000Y-132975000D02*
X132500000Y-129675000D01*
%TO.C,U500*%
X119790000Y-135125000D02*
X119790000Y-138125000D01*
X123010000Y-135125000D02*
X123010000Y-138125000D01*
X123170000Y-134585000D02*
X122690000Y-134585000D01*
X122690000Y-134105000D01*
X123170000Y-134585000D01*
G36*
X123170000Y-134585000D02*
G01*
X122690000Y-134585000D01*
X122690000Y-134105000D01*
X123170000Y-134585000D01*
G37*
D11*
%TO.C,U100*%
X97155000Y-114670000D02*
X102435000Y-114670000D01*
X97155000Y-119030000D02*
X97155000Y-114670000D01*
X102435000Y-114670000D02*
X102435000Y-119030000D01*
X102435000Y-119030000D02*
X97155000Y-119030000D01*
X102325000Y-114350000D02*
G75*
G02*
X102265000Y-114350000I-30000J0D01*
G01*
X102265000Y-114350000D02*
G75*
G02*
X102325000Y-114350000I30000J0D01*
G01*
%TO.C,D700*%
X122695000Y-110650000D02*
X122695000Y-112940000D01*
X122695000Y-112940000D02*
X124155000Y-112940000D01*
X124155000Y-112940000D02*
X124155000Y-110650000D01*
D13*
%TO.C,L300*%
X97765000Y-129561508D02*
X97765000Y-130411508D01*
X97765000Y-129561508D02*
X102135000Y-129561508D01*
X97765000Y-134281508D02*
X97765000Y-133431508D01*
X97765000Y-134281508D02*
X102135000Y-134281508D01*
X102135000Y-129561508D02*
X102135000Y-130411508D01*
X102135000Y-134281508D02*
X102135000Y-133431508D01*
%TO.C,U302*%
X126190000Y-133702500D02*
X126665000Y-133702500D01*
X126190000Y-134177500D02*
X126190000Y-133702500D01*
X126190000Y-136447500D02*
X126190000Y-136922500D01*
X126190000Y-136922500D02*
X126665000Y-136922500D01*
X128935000Y-133702500D02*
X129170000Y-133702500D01*
X129410000Y-134177500D02*
X129410000Y-134002500D01*
X129410000Y-136447500D02*
X129410000Y-136922500D01*
X129410000Y-136922500D02*
X128935000Y-136922500D01*
X129740000Y-133942500D02*
X129410000Y-133702500D01*
X129740000Y-133462500D01*
X129740000Y-133942500D01*
G36*
X129740000Y-133942500D02*
G01*
X129410000Y-133702500D01*
X129740000Y-133462500D01*
X129740000Y-133942500D01*
G37*
D11*
%TO.C,D401*%
X130020000Y-107075000D02*
X130020000Y-109365000D01*
X130020000Y-109365000D02*
X131480000Y-109365000D01*
X131480000Y-109365000D02*
X131480000Y-107075000D01*
%TO.C,Q700*%
X129800000Y-127245000D02*
X131200000Y-127245000D01*
X129800000Y-128615000D02*
X129800000Y-128135000D01*
X129800000Y-129505000D02*
X131200000Y-129505000D01*
X131200000Y-127245000D02*
X131200000Y-127965000D01*
X131200000Y-129505000D02*
X131200000Y-128785000D01*
X129530000Y-127275000D02*
G75*
G02*
X129470000Y-127275000I-30000J0D01*
G01*
X129470000Y-127275000D02*
G75*
G02*
X129530000Y-127275000I30000J0D01*
G01*
D13*
%TO.C,U300*%
X96693492Y-136350788D02*
X96693492Y-135550788D01*
X96693492Y-136350788D02*
X96693492Y-137150788D01*
X99813492Y-136350788D02*
X99813492Y-135550788D01*
X99813492Y-136350788D02*
X99813492Y-137150788D01*
D14*
X99953492Y-135050788D02*
G75*
G02*
X99753492Y-135050788I-100000J0D01*
G01*
X99753492Y-135050788D02*
G75*
G02*
X99953492Y-135050788I100000J0D01*
G01*
D10*
%TO.C,LED301*%
X110800000Y-59985000D02*
X110800000Y-51985000D01*
X112600000Y-53510000D02*
X112600000Y-54410000D01*
X112600000Y-54410000D02*
X113800000Y-53960000D01*
X112900000Y-54485000D02*
X113300000Y-54885000D01*
X113300000Y-54885000D02*
X113000000Y-54885000D01*
X113350000Y-54385000D02*
X113750000Y-54785000D01*
X113750000Y-54785000D02*
X113450000Y-54785000D01*
X113800000Y-53510000D02*
X113800000Y-54410000D01*
X113800000Y-53960000D02*
X111800000Y-53960000D01*
X113800000Y-53960000D02*
X112600000Y-53510000D01*
X113800000Y-53960000D02*
X114500000Y-53960000D01*
X115600000Y-51985000D02*
X115600000Y-59985000D01*
X115600000Y-59985000D02*
X110800000Y-59985000D01*
%TD*%
M02*
