%TF.GenerationSoftware,KiCad,Pcbnew,8.0.8-8.0.8-0~ubuntu24.04.1*%
%TF.CreationDate,2025-02-17T20:41:45+00:00*%
%TF.ProjectId,base-module,62617365-2d6d-46f6-9475-6c652e6b6963,1.0.0*%
%TF.SameCoordinates,Original*%
%TF.FileFunction,Other,User*%
%FSLAX46Y46*%
G04 Gerber Fmt 4.6, Leading zero omitted, Abs format (unit mm)*
G04 Created by KiCad (PCBNEW 8.0.8-8.0.8-0~ubuntu24.04.1) date 2025-02-17 20:41:45*
%MOMM*%
%LPD*%
G01*
G04 APERTURE LIST*
%ADD10C,0.050000*%
G04 APERTURE END LIST*
D10*
%TO.C,L301*%
X104770720Y-129571542D02*
X104770720Y-135271542D01*
X104770720Y-135271542D02*
X109470720Y-135271542D01*
X109470720Y-129571542D02*
X104770720Y-129571542D01*
X109470720Y-135271542D02*
X109470720Y-129571542D01*
%TO.C,JP300*%
X102800000Y-135425000D02*
X102800000Y-137925000D01*
X102800000Y-135425000D02*
X106100000Y-135425000D01*
X106100000Y-137925000D02*
X102800000Y-137925000D01*
X106100000Y-137925000D02*
X106100000Y-135425000D01*
%TO.C,TP302*%
X133750000Y-105325000D02*
G75*
G02*
X131750000Y-105325000I-1000000J0D01*
G01*
X131750000Y-105325000D02*
G75*
G02*
X133750000Y-105325000I1000000J0D01*
G01*
%TO.C,U200*%
X130650000Y-139475000D02*
X130650000Y-142875000D01*
X130650000Y-142875000D02*
X135050000Y-142875000D01*
X135050000Y-139475000D02*
X130650000Y-139475000D01*
X135050000Y-142875000D02*
X135050000Y-139475000D01*
%TO.C,LED300*%
X105983600Y-51335000D02*
X110283600Y-51335000D01*
X110283600Y-59785000D01*
X105983600Y-59785000D01*
X105983600Y-51335000D01*
X106633591Y-51284985D02*
G75*
G02*
X109633609Y-51284985I1500009J-5D01*
G01*
%TO.C,R903*%
X126450000Y-133025000D02*
X126450000Y-131225000D01*
X127250000Y-131225000D02*
X126450000Y-131225000D01*
X127250000Y-131225000D02*
X127250000Y-133025000D01*
X127250000Y-133025000D02*
X126450000Y-133025000D01*
%TO.C,R308*%
X125800000Y-137975000D02*
X127600000Y-137975000D01*
X125800000Y-138775000D02*
X125800000Y-137975000D01*
X127600000Y-138775000D02*
X125800000Y-138775000D01*
X127600000Y-138775000D02*
X127600000Y-137975000D01*
%TO.C,C501*%
X118700000Y-136675000D02*
X119500000Y-136675000D01*
X118700000Y-138475000D02*
X118700000Y-136675000D01*
X118700000Y-138475000D02*
X119500000Y-138475000D01*
X119500000Y-136675000D02*
X119500000Y-138475000D01*
%TO.C,R716*%
X122600000Y-128125000D02*
X122600000Y-128925000D01*
X122600000Y-128125000D02*
X124400000Y-128125000D01*
X124400000Y-128125000D02*
X124400000Y-128925000D01*
X124400000Y-128925000D02*
X122600000Y-128925000D01*
%TO.C,R306*%
X113670720Y-134221542D02*
X113670720Y-132421542D01*
X114470720Y-132421542D02*
X113670720Y-132421542D01*
X114470720Y-132421542D02*
X114470720Y-134221542D01*
X114470720Y-134221542D02*
X113670720Y-134221542D01*
%TO.C,D301*%
X124120000Y-136095000D02*
X125580000Y-136095000D01*
X124120000Y-139055000D02*
X124120000Y-136095000D01*
X125580000Y-136095000D02*
X125580000Y-139055000D01*
X125580000Y-139055000D02*
X124120000Y-139055000D01*
%TO.C,FB400*%
X104470000Y-104495000D02*
X107430000Y-104495000D01*
X104470000Y-105955000D02*
X104470000Y-104495000D01*
X107430000Y-104495000D02*
X107430000Y-105955000D01*
X107430000Y-105955000D02*
X104470000Y-105955000D01*
%TO.C,C601*%
X114150000Y-136675000D02*
X114950000Y-136675000D01*
X114150000Y-138475000D02*
X114150000Y-136675000D01*
X114150000Y-138475000D02*
X114950000Y-138475000D01*
X114950000Y-136675000D02*
X114950000Y-138475000D01*
%TO.C,R301*%
X96250000Y-138471508D02*
X98050000Y-138471508D01*
X96250000Y-139271508D02*
X96250000Y-138471508D01*
X98050000Y-139271508D02*
X96250000Y-139271508D01*
X98050000Y-139271508D02*
X98050000Y-138471508D01*
%TO.C,C408*%
X103800000Y-106075000D02*
X105600000Y-106075000D01*
X103800000Y-106875000D02*
X103800000Y-106075000D01*
X105600000Y-106875000D02*
X103800000Y-106875000D01*
X105600000Y-106875000D02*
X105600000Y-106075000D01*
%TO.C,R600*%
X118700000Y-134525000D02*
X119500000Y-134525000D01*
X118700000Y-136325000D02*
X118700000Y-134525000D01*
X118700000Y-136325000D02*
X119500000Y-136325000D01*
X119500000Y-134525000D02*
X119500000Y-136325000D01*
%TO.C,C400*%
X115175000Y-107250000D02*
X115175000Y-108050000D01*
X115175000Y-107250000D02*
X116975000Y-107250000D01*
X116975000Y-107250000D02*
X116975000Y-108050000D01*
X116975000Y-108050000D02*
X115175000Y-108050000D01*
%TO.C,C313*%
X112850000Y-105625000D02*
X114650000Y-105625000D01*
X112850000Y-106425000D02*
X112850000Y-105625000D01*
X114650000Y-106425000D02*
X112850000Y-106425000D01*
X114650000Y-106425000D02*
X114650000Y-105625000D01*
%TO.C,R801*%
X123950000Y-62275000D02*
X123950000Y-63075000D01*
X123950000Y-62275000D02*
X125750000Y-62275000D01*
X125750000Y-62275000D02*
X125750000Y-63075000D01*
X125750000Y-63075000D02*
X123950000Y-63075000D01*
%TO.C,C600*%
X115900000Y-133625000D02*
X117700000Y-133625000D01*
X115900000Y-134425000D02*
X115900000Y-133625000D01*
X117700000Y-134425000D02*
X115900000Y-134425000D01*
X117700000Y-134425000D02*
X117700000Y-133625000D01*
%TO.C,C407*%
X106275000Y-106975000D02*
X108075000Y-106975000D01*
X106275000Y-107775000D02*
X106275000Y-106975000D01*
X108075000Y-107775000D02*
X106275000Y-107775000D01*
X108075000Y-107775000D02*
X108075000Y-106975000D01*
%TO.C,C314*%
X114800000Y-105625000D02*
X114800000Y-106425000D01*
X114800000Y-105625000D02*
X116600000Y-105625000D01*
X116600000Y-105625000D02*
X116600000Y-106425000D01*
X116600000Y-106425000D02*
X114800000Y-106425000D01*
%TO.C,U801*%
X131350000Y-136300000D02*
X131350000Y-139300000D01*
X131350000Y-139300000D02*
X133950000Y-139300000D01*
X133950000Y-136300000D02*
X131350000Y-136300000D01*
X133950000Y-139300000D02*
X133950000Y-136300000D01*
%TO.C,TP701*%
X134250000Y-113725000D02*
G75*
G02*
X132250000Y-113725000I-1000000J0D01*
G01*
X132250000Y-113725000D02*
G75*
G02*
X134250000Y-113725000I1000000J0D01*
G01*
%TO.C,C304*%
X94046542Y-135591059D02*
X95246542Y-135591059D01*
X94046542Y-138391059D02*
X94046542Y-135591059D01*
X95246542Y-135591059D02*
X95246542Y-138391059D01*
X95246542Y-138391059D02*
X94046542Y-138391059D01*
%TO.C,C305*%
X95690000Y-135471508D02*
X95690000Y-133671508D01*
X96490000Y-133671508D02*
X95690000Y-133671508D01*
X96490000Y-133671508D02*
X96490000Y-135471508D01*
X96490000Y-135471508D02*
X95690000Y-135471508D01*
%TO.C,R404*%
X118550000Y-107245000D02*
X120350000Y-107245000D01*
X118550000Y-108045000D02*
X118550000Y-107245000D01*
X120350000Y-108045000D02*
X118550000Y-108045000D01*
X120350000Y-108045000D02*
X120350000Y-107245000D01*
%TO.C,U301*%
X109500000Y-132418050D02*
X109500000Y-135818050D01*
X109500000Y-135818050D02*
X113600000Y-135818050D01*
X113600000Y-132418050D02*
X109500000Y-132418050D01*
X113600000Y-135818050D02*
X113600000Y-132418050D01*
%TO.C,C500*%
X120500000Y-133625000D02*
X122300000Y-133625000D01*
X120500000Y-134425000D02*
X120500000Y-133625000D01*
X122300000Y-134425000D02*
X120500000Y-134425000D01*
X122300000Y-134425000D02*
X122300000Y-133625000D01*
%TO.C,R902*%
X127350000Y-133025000D02*
X127350000Y-131225000D01*
X128150000Y-131225000D02*
X127350000Y-131225000D01*
X128150000Y-131225000D02*
X128150000Y-133025000D01*
X128150000Y-133025000D02*
X127350000Y-133025000D01*
%TO.C,D400*%
X128510000Y-106395000D02*
X129970000Y-106395000D01*
X128510000Y-109355000D02*
X128510000Y-106395000D01*
X129970000Y-106395000D02*
X129970000Y-109355000D01*
X129970000Y-109355000D02*
X128510000Y-109355000D01*
%TO.C,R700*%
X120925000Y-117325000D02*
X120925000Y-115525000D01*
X121725000Y-115525000D02*
X120925000Y-115525000D01*
X121725000Y-115525000D02*
X121725000Y-117325000D01*
X121725000Y-117325000D02*
X120925000Y-117325000D01*
%TO.C,R405*%
X99680000Y-59275000D02*
X99680000Y-60075000D01*
X99680000Y-59275000D02*
X101480000Y-59275000D01*
X101480000Y-59275000D02*
X101480000Y-60075000D01*
X101480000Y-60075000D02*
X99680000Y-60075000D01*
%TO.C,R409*%
X114050000Y-60325000D02*
X114850000Y-60325000D01*
X114050000Y-62125000D02*
X114050000Y-60325000D01*
X114050000Y-62125000D02*
X114850000Y-62125000D01*
X114850000Y-60325000D02*
X114850000Y-62125000D01*
%TO.C,R400*%
X113150000Y-60325000D02*
X113950000Y-60325000D01*
X113150000Y-62125000D02*
X113150000Y-60325000D01*
X113150000Y-62125000D02*
X113950000Y-62125000D01*
X113950000Y-60325000D02*
X113950000Y-62125000D01*
%TO.C,R411*%
X126550000Y-106975000D02*
X127350000Y-106975000D01*
X126550000Y-108775000D02*
X126550000Y-106975000D01*
X126550000Y-108775000D02*
X127350000Y-108775000D01*
X127350000Y-106975000D02*
X127350000Y-108775000D01*
%TO.C,C410*%
X122700000Y-115000000D02*
X122700000Y-113200000D01*
X123500000Y-113200000D02*
X122700000Y-113200000D01*
X123500000Y-113200000D02*
X123500000Y-115000000D01*
X123500000Y-115000000D02*
X122700000Y-115000000D01*
%TO.C,D701*%
X124445000Y-109970000D02*
X125905000Y-109970000D01*
X124445000Y-112930000D02*
X124445000Y-109970000D01*
X125905000Y-109970000D02*
X125905000Y-112930000D01*
X125905000Y-112930000D02*
X124445000Y-112930000D01*
%TO.C,R701*%
X123600000Y-117325000D02*
X123600000Y-115525000D01*
X124400000Y-115525000D02*
X123600000Y-115525000D01*
X124400000Y-115525000D02*
X124400000Y-117325000D01*
X124400000Y-117325000D02*
X123600000Y-117325000D01*
%TO.C,C405*%
X120875000Y-111750000D02*
X120875000Y-109950000D01*
X121675000Y-109950000D02*
X120875000Y-109950000D01*
X121675000Y-109950000D02*
X121675000Y-111750000D01*
X121675000Y-111750000D02*
X120875000Y-111750000D01*
%TO.C,C301*%
X100000000Y-135571508D02*
X102800000Y-135571508D01*
X100000000Y-136771508D02*
X100000000Y-135571508D01*
X102800000Y-135571508D02*
X102800000Y-136771508D01*
X102800000Y-136771508D02*
X100000000Y-136771508D01*
%TO.C,C300*%
X100000000Y-136881508D02*
X100800000Y-136881508D01*
X100000000Y-138681508D02*
X100000000Y-136881508D01*
X100000000Y-138681508D02*
X100800000Y-138681508D01*
X100800000Y-136881508D02*
X100800000Y-138681508D01*
%TO.C,D402*%
X131510000Y-106395000D02*
X132970000Y-106395000D01*
X131510000Y-109355000D02*
X131510000Y-106395000D01*
X132970000Y-106395000D02*
X132970000Y-109355000D01*
X132970000Y-109355000D02*
X131510000Y-109355000D01*
%TO.C,Y700*%
X127250000Y-112925000D02*
X130850000Y-112925000D01*
X127250000Y-115725000D02*
X127250000Y-112925000D01*
X130850000Y-112925000D02*
X130850000Y-115725000D01*
X130850000Y-115725000D02*
X127250000Y-115725000D01*
%TO.C,U700*%
X122500000Y-118775000D02*
X123900000Y-118775000D01*
X122500000Y-121925000D02*
X122500000Y-118775000D01*
X122500000Y-121925000D02*
X122500000Y-125075000D01*
X122500000Y-125075000D02*
X123900000Y-125075000D01*
X123900000Y-118175000D02*
X124500000Y-118175000D01*
X123900000Y-118775000D02*
X123900000Y-118175000D01*
X123900000Y-125075000D02*
X123900000Y-125675000D01*
X123900000Y-125675000D02*
X124500000Y-125675000D01*
X124500000Y-116775000D02*
X127650000Y-116775000D01*
X124500000Y-118175000D02*
X124500000Y-116775000D01*
X124500000Y-125675000D02*
X124500000Y-127075000D01*
X124500000Y-127075000D02*
X127650000Y-127075000D01*
X130800000Y-116775000D02*
X127650000Y-116775000D01*
X130800000Y-118175000D02*
X130800000Y-116775000D01*
X130800000Y-125675000D02*
X130800000Y-127075000D01*
X130800000Y-127075000D02*
X127650000Y-127075000D01*
X131400000Y-118175000D02*
X130800000Y-118175000D01*
X131400000Y-118775000D02*
X131400000Y-118175000D01*
X131400000Y-125075000D02*
X131400000Y-125675000D01*
X131400000Y-125675000D02*
X130800000Y-125675000D01*
X132800000Y-118775000D02*
X131400000Y-118775000D01*
X132800000Y-121925000D02*
X132800000Y-118775000D01*
X132800000Y-121925000D02*
X132800000Y-125075000D01*
X132800000Y-125075000D02*
X131400000Y-125075000D01*
%TO.C,TP700*%
X134250000Y-111725000D02*
G75*
G02*
X132250000Y-111725000I-1000000J0D01*
G01*
X132250000Y-111725000D02*
G75*
G02*
X134250000Y-111725000I1000000J0D01*
G01*
%TO.C,R707*%
X122450000Y-108975000D02*
X122450000Y-109775000D01*
X122450000Y-108975000D02*
X124250000Y-108975000D01*
X124250000Y-108975000D02*
X124250000Y-109775000D01*
X124250000Y-109775000D02*
X122450000Y-109775000D01*
%TO.C,U800*%
X119350000Y-59872500D02*
X119350000Y-63272500D01*
X119350000Y-63272500D02*
X123750000Y-63272500D01*
X123750000Y-59872500D02*
X119350000Y-59872500D01*
X123750000Y-63272500D02*
X123750000Y-59872500D01*
%TO.C,U400*%
X103355000Y-110450000D02*
X104825000Y-110450000D01*
X103355000Y-116850000D02*
X103355000Y-110450000D01*
X103355000Y-116850000D02*
X103355000Y-123250000D01*
X103355000Y-123250000D02*
X104825000Y-123250000D01*
X104825000Y-109600000D02*
X105675000Y-109600000D01*
X104825000Y-110450000D02*
X104825000Y-109600000D01*
X104825000Y-123250000D02*
X104825000Y-124100000D01*
X104825000Y-124100000D02*
X105675000Y-124100000D01*
X105675000Y-108130000D02*
X112075000Y-108130000D01*
X105675000Y-109600000D02*
X105675000Y-108130000D01*
X105675000Y-124100000D02*
X105675000Y-125570000D01*
X105675000Y-125570000D02*
X112075000Y-125570000D01*
X118475000Y-108130000D02*
X112075000Y-108130000D01*
X118475000Y-109600000D02*
X118475000Y-108130000D01*
X118475000Y-124100000D02*
X118475000Y-125570000D01*
X118475000Y-125570000D02*
X112075000Y-125570000D01*
X119325000Y-109600000D02*
X118475000Y-109600000D01*
X119325000Y-110450000D02*
X119325000Y-109600000D01*
X119325000Y-123250000D02*
X119325000Y-124100000D01*
X119325000Y-124100000D02*
X118475000Y-124100000D01*
X120795000Y-110450000D02*
X119325000Y-110450000D01*
X120795000Y-116850000D02*
X120795000Y-110450000D01*
X120795000Y-116850000D02*
X120795000Y-123250000D01*
X120795000Y-123250000D02*
X119325000Y-123250000D01*
%TO.C,C409*%
X103800000Y-106975000D02*
X105600000Y-106975000D01*
X103800000Y-107775000D02*
X103800000Y-106975000D01*
X105600000Y-107775000D02*
X103800000Y-107775000D01*
X105600000Y-107775000D02*
X105600000Y-106975000D01*
%TO.C,C708*%
X127200000Y-115835000D02*
X129000000Y-115835000D01*
X127200000Y-116635000D02*
X127200000Y-115835000D01*
X129000000Y-116635000D02*
X127200000Y-116635000D01*
X129000000Y-116635000D02*
X129000000Y-115835000D01*
%TO.C,R705*%
X132500000Y-116525000D02*
X132500000Y-114725000D01*
X133300000Y-114725000D02*
X132500000Y-114725000D01*
X133300000Y-114725000D02*
X133300000Y-116525000D01*
X133300000Y-116525000D02*
X132500000Y-116525000D01*
%TO.C,R307*%
X113670720Y-136121542D02*
X113670720Y-134321542D01*
X114470720Y-134321542D02*
X113670720Y-134321542D01*
X114470720Y-134321542D02*
X114470720Y-136121542D01*
X114470720Y-136121542D02*
X113670720Y-136121542D01*
%TO.C,R711*%
X132150000Y-127775000D02*
X132150000Y-128575000D01*
X132150000Y-127775000D02*
X133950000Y-127775000D01*
X133950000Y-127775000D02*
X133950000Y-128575000D01*
X133950000Y-128575000D02*
X132150000Y-128575000D01*
%TO.C,R710*%
X132150000Y-126875000D02*
X132150000Y-127675000D01*
X132150000Y-126875000D02*
X133950000Y-126875000D01*
X133950000Y-126875000D02*
X133950000Y-127675000D01*
X133950000Y-127675000D02*
X132150000Y-127675000D01*
%TO.C,R715*%
X122600000Y-127250000D02*
X122600000Y-128050000D01*
X122600000Y-127250000D02*
X124400000Y-127250000D01*
X124400000Y-127250000D02*
X124400000Y-128050000D01*
X124400000Y-128050000D02*
X122600000Y-128050000D01*
%TO.C,C801*%
X115850000Y-62125000D02*
X115850000Y-60325000D01*
X116650000Y-60325000D02*
X115850000Y-60325000D01*
X116650000Y-60325000D02*
X116650000Y-62125000D01*
X116650000Y-62125000D02*
X115850000Y-62125000D01*
%TO.C,TP300*%
X129750000Y-105325000D02*
G75*
G02*
X127750000Y-105325000I-1000000J0D01*
G01*
X127750000Y-105325000D02*
G75*
G02*
X129750000Y-105325000I1000000J0D01*
G01*
%TO.C,C402*%
X102475000Y-109950000D02*
X103275000Y-109950000D01*
X102475000Y-111750000D02*
X102475000Y-109950000D01*
X102475000Y-111750000D02*
X103275000Y-111750000D01*
X103275000Y-109950000D02*
X103275000Y-111750000D01*
%TO.C,JP301*%
X112045720Y-128975000D02*
X112045720Y-131475000D01*
X112045720Y-128975000D02*
X115345720Y-128975000D01*
X115345720Y-131475000D02*
X112045720Y-131475000D01*
X115345720Y-131475000D02*
X115345720Y-128975000D01*
%TO.C,J800*%
X127370000Y-59795000D02*
X116730000Y-59795000D01*
X116730000Y-50855000D01*
X127370000Y-50855000D01*
X127370000Y-59795000D01*
%TO.C,C311*%
X108870720Y-135881542D02*
X108870720Y-136681542D01*
X108870720Y-135881542D02*
X110670720Y-135881542D01*
X110670720Y-135881542D02*
X110670720Y-136681542D01*
X110670720Y-136681542D02*
X108870720Y-136681542D01*
%TO.C,TP301*%
X131750000Y-105325000D02*
G75*
G02*
X129750000Y-105325000I-1000000J0D01*
G01*
X129750000Y-105325000D02*
G75*
G02*
X131750000Y-105325000I1000000J0D01*
G01*
%TO.C,C707*%
X129100000Y-115825000D02*
X129100000Y-116625000D01*
X129100000Y-115825000D02*
X130900000Y-115825000D01*
X130900000Y-115825000D02*
X130900000Y-116625000D01*
X130900000Y-116625000D02*
X129100000Y-116625000D01*
%TO.C,R901*%
X123500000Y-134125000D02*
X123500000Y-132325000D01*
X124300000Y-132325000D02*
X123500000Y-132325000D01*
X124300000Y-132325000D02*
X124300000Y-134125000D01*
X124300000Y-134125000D02*
X123500000Y-134125000D01*
%TO.C,R709*%
X132150000Y-128675000D02*
X133950000Y-128675000D01*
X132150000Y-129475000D02*
X132150000Y-128675000D01*
X133950000Y-129475000D02*
X132150000Y-129475000D01*
X133950000Y-129475000D02*
X133950000Y-128675000D01*
%TO.C,R805*%
X116750000Y-62125000D02*
X116750000Y-60325000D01*
X117550000Y-60325000D02*
X116750000Y-60325000D01*
X117550000Y-60325000D02*
X117550000Y-62125000D01*
X117550000Y-62125000D02*
X116750000Y-62125000D01*
%TO.C,R800*%
X117650000Y-62125000D02*
X117650000Y-60325000D01*
X118450000Y-60325000D02*
X117650000Y-60325000D01*
X118450000Y-60325000D02*
X118450000Y-62125000D01*
X118450000Y-62125000D02*
X117650000Y-62125000D01*
%TO.C,C310*%
X110800720Y-135881542D02*
X113600720Y-135881542D01*
X110800720Y-137081542D02*
X110800720Y-135881542D01*
X113600720Y-135881542D02*
X113600720Y-137081542D01*
X113600720Y-137081542D02*
X110800720Y-137081542D01*
%TO.C,R402*%
X121800000Y-115000000D02*
X121800000Y-113200000D01*
X122600000Y-113200000D02*
X121800000Y-113200000D01*
X122600000Y-113200000D02*
X122600000Y-115000000D01*
X122600000Y-115000000D02*
X121800000Y-115000000D01*
%TO.C,R702*%
X132900000Y-120775000D02*
X133700000Y-120775000D01*
X132900000Y-122575000D02*
X132900000Y-120775000D01*
X132900000Y-122575000D02*
X133700000Y-122575000D01*
X133700000Y-120775000D02*
X133700000Y-122575000D01*
%TO.C,C309*%
X110790271Y-137125000D02*
X113590271Y-137125000D01*
X110790271Y-138325000D02*
X110790271Y-137125000D01*
X113590271Y-137125000D02*
X113590271Y-138325000D01*
X113590271Y-138325000D02*
X110790271Y-138325000D01*
%TO.C,C900*%
X130050000Y-133175000D02*
X130850000Y-133175000D01*
X130050000Y-134975000D02*
X130050000Y-133175000D01*
X130050000Y-134975000D02*
X130850000Y-134975000D01*
X130850000Y-133175000D02*
X130850000Y-134975000D01*
%TO.C,C404*%
X118575000Y-126000000D02*
X118575000Y-124200000D01*
X119375000Y-124200000D02*
X118575000Y-124200000D01*
X119375000Y-124200000D02*
X119375000Y-126000000D01*
X119375000Y-126000000D02*
X118575000Y-126000000D01*
%TO.C,R802*%
X132150000Y-134925000D02*
X132150000Y-133125000D01*
X132950000Y-133125000D02*
X132150000Y-133125000D01*
X132950000Y-133125000D02*
X132950000Y-134925000D01*
X132950000Y-134925000D02*
X132150000Y-134925000D01*
%TO.C,C701*%
X130950000Y-117225000D02*
X130950000Y-118025000D01*
X130950000Y-117225000D02*
X132750000Y-117225000D01*
X132750000Y-117225000D02*
X132750000Y-118025000D01*
X132750000Y-118025000D02*
X130950000Y-118025000D01*
%TO.C,R300*%
X98150000Y-138471508D02*
X99950000Y-138471508D01*
X98150000Y-139271508D02*
X98150000Y-138471508D01*
X99950000Y-139271508D02*
X98150000Y-139271508D01*
X99950000Y-139271508D02*
X99950000Y-138471508D01*
%TO.C,J200*%
X41870000Y-145475000D02*
X41870000Y-159205000D01*
X41870000Y-159205000D02*
X136870000Y-159205000D01*
X48720000Y-139615000D02*
X48720000Y-145475000D01*
X48720000Y-145475000D02*
X41870000Y-145475000D01*
X130010000Y-139615000D02*
X48720000Y-139615000D01*
X130010000Y-145475000D02*
X130010000Y-139615000D01*
X136870000Y-145475000D02*
X130010000Y-145475000D01*
X136870000Y-159205000D02*
X136870000Y-145475000D01*
%TO.C,C700*%
X121600000Y-125475000D02*
X121600000Y-126275000D01*
X121600000Y-125475000D02*
X123400000Y-125475000D01*
X123400000Y-125475000D02*
X123400000Y-126275000D01*
X123400000Y-126275000D02*
X121600000Y-126275000D01*
%TO.C,R500*%
X123250000Y-136675000D02*
X124050000Y-136675000D01*
X123250000Y-138475000D02*
X123250000Y-136675000D01*
X123250000Y-138475000D02*
X124050000Y-138475000D01*
X124050000Y-136675000D02*
X124050000Y-138475000D01*
%TO.C,C406*%
X106275000Y-106075000D02*
X108075000Y-106075000D01*
X106275000Y-106875000D02*
X106275000Y-106075000D01*
X108075000Y-106875000D02*
X106275000Y-106875000D01*
X108075000Y-106875000D02*
X108075000Y-106075000D01*
%TO.C,C411*%
X108525000Y-106625000D02*
X110325000Y-106625000D01*
X108525000Y-107425000D02*
X108525000Y-106625000D01*
X110325000Y-107425000D02*
X108525000Y-107425000D01*
X110325000Y-107425000D02*
X110325000Y-106625000D01*
%TO.C,C704*%
X132890000Y-120322500D02*
X132890000Y-118522500D01*
X133690000Y-118522500D02*
X132890000Y-118522500D01*
X133690000Y-118522500D02*
X133690000Y-120322500D01*
X133690000Y-120322500D02*
X132890000Y-120322500D01*
%TO.C,C902*%
X130950000Y-133175000D02*
X131750000Y-133175000D01*
X130950000Y-134975000D02*
X130950000Y-133175000D01*
X130950000Y-134975000D02*
X131750000Y-134975000D01*
X131750000Y-133175000D02*
X131750000Y-134975000D01*
%TO.C,C312*%
X132250000Y-135375000D02*
X132250000Y-136175000D01*
X132250000Y-135375000D02*
X134050000Y-135375000D01*
X134050000Y-135375000D02*
X134050000Y-136175000D01*
X134050000Y-136175000D02*
X132250000Y-136175000D01*
%TO.C,C702*%
X121610000Y-123527500D02*
X122410000Y-123527500D01*
X121610000Y-125327500D02*
X121610000Y-123527500D01*
X121610000Y-125327500D02*
X122410000Y-125327500D01*
X122410000Y-123527500D02*
X122410000Y-125327500D01*
%TO.C,R706*%
X131550000Y-116525000D02*
X131550000Y-114725000D01*
X132350000Y-114725000D02*
X131550000Y-114725000D01*
X132350000Y-114725000D02*
X132350000Y-116525000D01*
X132350000Y-116525000D02*
X131550000Y-116525000D01*
%TO.C,R803*%
X133050000Y-133125000D02*
X133850000Y-133125000D01*
X133050000Y-134925000D02*
X133050000Y-133125000D01*
X133050000Y-134925000D02*
X133850000Y-134925000D01*
X133850000Y-133125000D02*
X133850000Y-134925000D01*
%TO.C,C307*%
X109508674Y-129571542D02*
X110708674Y-129571542D01*
X109508674Y-132371542D02*
X109508674Y-129571542D01*
X110708674Y-129571542D02*
X110708674Y-132371542D01*
X110708674Y-132371542D02*
X109508674Y-132371542D01*
%TO.C,C306*%
X112080720Y-131571542D02*
X113880720Y-131571542D01*
X112080720Y-132371542D02*
X112080720Y-131571542D01*
X113880720Y-132371542D02*
X112080720Y-132371542D01*
X113880720Y-132371542D02*
X113880720Y-131571542D01*
%TO.C,R401*%
X120900000Y-113200000D02*
X121700000Y-113200000D01*
X120900000Y-115000000D02*
X120900000Y-113200000D01*
X120900000Y-115000000D02*
X121700000Y-115000000D01*
X121700000Y-113200000D02*
X121700000Y-115000000D01*
%TO.C,F300*%
X102920000Y-138045000D02*
X105880000Y-138045000D01*
X102920000Y-139505000D02*
X102920000Y-138045000D01*
X105880000Y-138045000D02*
X105880000Y-139505000D01*
X105880000Y-139505000D02*
X102920000Y-139505000D01*
%TO.C,R714*%
X122600000Y-126375000D02*
X122600000Y-127175000D01*
X122600000Y-126375000D02*
X124400000Y-126375000D01*
X124400000Y-126375000D02*
X124400000Y-127175000D01*
X124400000Y-127175000D02*
X122600000Y-127175000D01*
%TO.C,R900*%
X124400000Y-134125000D02*
X124400000Y-132325000D01*
X125200000Y-132325000D02*
X124400000Y-132325000D01*
X125200000Y-132325000D02*
X125200000Y-134125000D01*
X125200000Y-134125000D02*
X124400000Y-134125000D01*
%TO.C,C414*%
X116675000Y-125650000D02*
X116675000Y-126450000D01*
X116675000Y-125650000D02*
X118475000Y-125650000D01*
X118475000Y-125650000D02*
X118475000Y-126450000D01*
X118475000Y-126450000D02*
X116675000Y-126450000D01*
%TO.C,SW400*%
X98705000Y-48825000D02*
X98330000Y-51575000D01*
X98705000Y-48825000D02*
X102455000Y-48825000D01*
X102455000Y-48825000D02*
X102830000Y-51575000D01*
X95705000Y-51575000D02*
X105455000Y-51575000D01*
X105455000Y-59525000D01*
X95705000Y-59525000D01*
X95705000Y-51575000D01*
X96080000Y-51299600D02*
X97080000Y-51299600D01*
X97080000Y-51575000D01*
X96080000Y-51575000D01*
X96080000Y-51299600D01*
X104080000Y-51325000D02*
X105080000Y-51325000D01*
X105080000Y-51575000D01*
X104080000Y-51575000D01*
X104080000Y-51325000D01*
%TO.C,U600*%
X115050000Y-134495000D02*
X115050000Y-138755000D01*
X115050000Y-138755000D02*
X118550000Y-138755000D01*
X118550000Y-134495000D02*
X115050000Y-134495000D01*
X118550000Y-138755000D02*
X118550000Y-134495000D01*
%TO.C,X300*%
X113025000Y-103750000D02*
X116425000Y-103750000D01*
X113025000Y-105350000D02*
X113025000Y-103750000D01*
X116425000Y-103750000D02*
X116425000Y-105350000D01*
X116425000Y-105350000D02*
X113025000Y-105350000D01*
%TO.C,R406*%
X99680000Y-57475000D02*
X101480000Y-57475000D01*
X99680000Y-58275000D02*
X99680000Y-57475000D01*
X101480000Y-58275000D02*
X99680000Y-58275000D01*
X101480000Y-58275000D02*
X101480000Y-57475000D01*
%TO.C,R412*%
X125650000Y-106975000D02*
X126450000Y-106975000D01*
X125650000Y-108775000D02*
X125650000Y-106975000D01*
X125650000Y-108775000D02*
X126450000Y-108775000D01*
X126450000Y-106975000D02*
X126450000Y-108775000D01*
%TO.C,C706*%
X121800000Y-115525000D02*
X122600000Y-115525000D01*
X121800000Y-117325000D02*
X121800000Y-115525000D01*
X121800000Y-117325000D02*
X122600000Y-117325000D01*
X122600000Y-115525000D02*
X122600000Y-117325000D01*
%TO.C,C800*%
X123950000Y-60125000D02*
X123950000Y-60925000D01*
X123950000Y-60125000D02*
X125750000Y-60125000D01*
X125750000Y-60125000D02*
X125750000Y-60925000D01*
X125750000Y-60925000D02*
X123950000Y-60925000D01*
%TO.C,C302*%
X100000000Y-134309462D02*
X102800000Y-134309462D01*
X100000000Y-135509462D02*
X100000000Y-134309462D01*
X102800000Y-134309462D02*
X102800000Y-135509462D01*
X102800000Y-135509462D02*
X100000000Y-135509462D01*
%TO.C,C401*%
X112425000Y-107075000D02*
X112425000Y-107875000D01*
X112425000Y-107075000D02*
X114225000Y-107075000D01*
X114225000Y-107075000D02*
X114225000Y-107875000D01*
X114225000Y-107875000D02*
X112425000Y-107875000D01*
%TO.C,C705*%
X125300000Y-115835000D02*
X125300000Y-116635000D01*
X125300000Y-115835000D02*
X127100000Y-115835000D01*
X127100000Y-115835000D02*
X127100000Y-116635000D01*
X127100000Y-116635000D02*
X125300000Y-116635000D01*
%TO.C,R712*%
X127280761Y-128321447D02*
X127846447Y-127755761D01*
X127846447Y-127755761D02*
X129119239Y-129028553D01*
X128553553Y-129594239D02*
X127280761Y-128321447D01*
X128553553Y-129594239D02*
X129119239Y-129028553D01*
%TO.C,X400*%
X108575000Y-103650000D02*
X112175000Y-103650000D01*
X108575000Y-106450000D02*
X108575000Y-103650000D01*
X112175000Y-103650000D02*
X112175000Y-106450000D01*
X112175000Y-106450000D02*
X108575000Y-106450000D01*
%TO.C,R708*%
X121500000Y-122075000D02*
X121500000Y-120275000D01*
X122300000Y-120275000D02*
X121500000Y-120275000D01*
X122300000Y-120275000D02*
X122300000Y-122075000D01*
X122300000Y-122075000D02*
X121500000Y-122075000D01*
%TO.C,C403*%
X102925000Y-123350000D02*
X104725000Y-123350000D01*
X102925000Y-124150000D02*
X102925000Y-123350000D01*
X104725000Y-124150000D02*
X102925000Y-124150000D01*
X104725000Y-124150000D02*
X104725000Y-123350000D01*
%TO.C,R410*%
X127450000Y-106975000D02*
X128250000Y-106975000D01*
X127450000Y-108775000D02*
X127450000Y-106975000D01*
X127450000Y-108775000D02*
X128250000Y-108775000D01*
X128250000Y-106975000D02*
X128250000Y-108775000D01*
%TO.C,Y900*%
X128400000Y-129625000D02*
X128400000Y-133025000D01*
X128400000Y-133025000D02*
X132600000Y-133025000D01*
X132600000Y-129625000D02*
X128400000Y-129625000D01*
X132600000Y-133025000D02*
X132600000Y-129625000D01*
%TO.C,U500*%
X119650000Y-134495000D02*
X119650000Y-138755000D01*
X119650000Y-138755000D02*
X123150000Y-138755000D01*
X123150000Y-134495000D02*
X119650000Y-134495000D01*
X123150000Y-138755000D02*
X123150000Y-134495000D01*
%TO.C,R713*%
X124350000Y-108975000D02*
X124350000Y-109775000D01*
X124350000Y-108975000D02*
X126150000Y-108975000D01*
X126150000Y-108975000D02*
X126150000Y-109775000D01*
X126150000Y-109775000D02*
X124350000Y-109775000D01*
%TO.C,C412*%
X110425000Y-106625000D02*
X110425000Y-107425000D01*
X110425000Y-106625000D02*
X112225000Y-106625000D01*
X112225000Y-106625000D02*
X112225000Y-107425000D01*
X112225000Y-107425000D02*
X110425000Y-107425000D01*
%TO.C,C415*%
X118560000Y-105465000D02*
X118560000Y-106265000D01*
X118560000Y-105465000D02*
X120360000Y-105465000D01*
X120360000Y-105465000D02*
X120360000Y-106265000D01*
X120360000Y-106265000D02*
X118560000Y-106265000D01*
%TO.C,U100*%
X97045000Y-114350000D02*
X102545000Y-114350000D01*
X97045000Y-119350000D02*
X97045000Y-114350000D01*
X102545000Y-114350000D02*
X102545000Y-119350000D01*
X102545000Y-119350000D02*
X97045000Y-119350000D01*
%TO.C,D700*%
X122695000Y-109970000D02*
X124155000Y-109970000D01*
X122695000Y-112930000D02*
X122695000Y-109970000D01*
X124155000Y-109970000D02*
X124155000Y-112930000D01*
X124155000Y-112930000D02*
X122695000Y-112930000D01*
%TO.C,C413*%
X102475000Y-123250000D02*
X102475000Y-121450000D01*
X103275000Y-121450000D02*
X102475000Y-121450000D01*
X103275000Y-121450000D02*
X103275000Y-123250000D01*
X103275000Y-123250000D02*
X102475000Y-123250000D01*
%TO.C,L300*%
X97100000Y-129571508D02*
X97100000Y-134271508D01*
X97100000Y-134271508D02*
X102800000Y-134271508D01*
X102800000Y-129571508D02*
X97100000Y-129571508D01*
X102800000Y-134271508D02*
X102800000Y-129571508D01*
%TO.C,C100*%
X102450000Y-119525000D02*
X103250000Y-119525000D01*
X102450000Y-121325000D02*
X102450000Y-119525000D01*
X102450000Y-121325000D02*
X103250000Y-121325000D01*
X103250000Y-119525000D02*
X103250000Y-121325000D01*
%TO.C,U302*%
X125670000Y-133182500D02*
X125670000Y-137442500D01*
X125670000Y-137442500D02*
X129930000Y-137442500D01*
X129930000Y-133182500D02*
X125670000Y-133182500D01*
X129930000Y-137442500D02*
X129930000Y-133182500D01*
%TO.C,C703*%
X130950000Y-125875000D02*
X130950000Y-126675000D01*
X130950000Y-125875000D02*
X132750000Y-125875000D01*
X132750000Y-125875000D02*
X132750000Y-126675000D01*
X132750000Y-126675000D02*
X130950000Y-126675000D01*
%TO.C,D401*%
X130020000Y-106395000D02*
X131480000Y-106395000D01*
X130020000Y-109355000D02*
X130020000Y-106395000D01*
X131480000Y-106395000D02*
X131480000Y-109355000D01*
X131480000Y-109355000D02*
X130020000Y-109355000D01*
%TO.C,R408*%
X114950000Y-60325000D02*
X115750000Y-60325000D01*
X114950000Y-62125000D02*
X114950000Y-60325000D01*
X114950000Y-62125000D02*
X115750000Y-62125000D01*
X115750000Y-60325000D02*
X115750000Y-62125000D01*
%TO.C,R403*%
X118560000Y-106365000D02*
X120360000Y-106365000D01*
X118560000Y-107165000D02*
X118560000Y-106365000D01*
X120360000Y-107165000D02*
X118560000Y-107165000D01*
X120360000Y-107165000D02*
X120360000Y-106365000D01*
%TO.C,R703*%
X122700000Y-115525000D02*
X123500000Y-115525000D01*
X122700000Y-117325000D02*
X122700000Y-115525000D01*
X122700000Y-117325000D02*
X123500000Y-117325000D01*
X123500000Y-115525000D02*
X123500000Y-117325000D01*
%TO.C,C308*%
X110770720Y-129571542D02*
X111970720Y-129571542D01*
X110770720Y-132371542D02*
X110770720Y-129571542D01*
X111970720Y-129571542D02*
X111970720Y-132371542D01*
X111970720Y-132371542D02*
X110770720Y-132371542D01*
%TO.C,R407*%
X112250000Y-60325000D02*
X113050000Y-60325000D01*
X112250000Y-62125000D02*
X112250000Y-60325000D01*
X112250000Y-62125000D02*
X113050000Y-62125000D01*
X113050000Y-60325000D02*
X113050000Y-62125000D01*
%TO.C,Q700*%
X129800000Y-127275000D02*
X131200000Y-127275000D01*
X129800000Y-129475000D02*
X129800000Y-127275000D01*
X131200000Y-127275000D02*
X131200000Y-129475000D01*
X131200000Y-129475000D02*
X129800000Y-129475000D01*
%TO.C,C904*%
X130050000Y-136925000D02*
X130050000Y-135125000D01*
X130850000Y-135125000D02*
X130050000Y-135125000D01*
X130850000Y-135125000D02*
X130850000Y-136925000D01*
X130850000Y-136925000D02*
X130050000Y-136925000D01*
%TO.C,C416*%
X99680000Y-58375000D02*
X101480000Y-58375000D01*
X99680000Y-59175000D02*
X99680000Y-58375000D01*
X101480000Y-59175000D02*
X99680000Y-59175000D01*
X101480000Y-59175000D02*
X101480000Y-58375000D01*
%TO.C,R804*%
X134050000Y-138525000D02*
X134050000Y-139325000D01*
X134050000Y-138525000D02*
X135850000Y-138525000D01*
X135850000Y-138525000D02*
X135850000Y-139325000D01*
X135850000Y-139325000D02*
X134050000Y-139325000D01*
%TO.C,U300*%
X96553492Y-134300788D02*
X96553492Y-138400788D01*
X96553492Y-138400788D02*
X99953492Y-138400788D01*
X99953492Y-134300788D02*
X96553492Y-134300788D01*
X99953492Y-138400788D02*
X99953492Y-134300788D01*
%TO.C,C303*%
X95290000Y-135601508D02*
X96490000Y-135601508D01*
X95290000Y-138401508D02*
X95290000Y-135601508D01*
X96490000Y-135601508D02*
X96490000Y-138401508D01*
X96490000Y-138401508D02*
X95290000Y-138401508D01*
%TO.C,LED301*%
X111033600Y-51335000D02*
X115333600Y-51335000D01*
X115333600Y-59785000D01*
X111033600Y-59785000D01*
X111033600Y-51335000D01*
X111683591Y-51284985D02*
G75*
G02*
X114683609Y-51284985I1500009J-5D01*
G01*
%TO.C,R704*%
X120650000Y-127250000D02*
X120650000Y-128050000D01*
X120650000Y-127250000D02*
X122450000Y-127250000D01*
X122450000Y-127250000D02*
X122450000Y-128050000D01*
X122450000Y-128050000D02*
X120650000Y-128050000D01*
%TD*%
M02*
