%TF.GenerationSoftware,KiCad,Pcbnew,8.0.8-8.0.8-0~ubuntu24.04.1*%
%TF.CreationDate,2025-02-17T20:41:45+00:00*%
%TF.ProjectId,base-module,62617365-2d6d-46f6-9475-6c652e6b6963,1.0.0*%
%TF.SameCoordinates,Original*%
%TF.FileFunction,Other,Comment*%
%FSLAX46Y46*%
G04 Gerber Fmt 4.6, Leading zero omitted, Abs format (unit mm)*
G04 Created by KiCad (PCBNEW 8.0.8-8.0.8-0~ubuntu24.04.1) date 2025-02-17 20:41:45*
%MOMM*%
%LPD*%
G01*
G04 APERTURE LIST*
%ADD10C,0.100000*%
%ADD11C,0.150000*%
G04 APERTURE END LIST*
D10*
X136630000Y-150715002D02*
X136630000Y-51285001D01*
X42110000Y-150715002D02*
X42040000Y-51285001D01*
D11*
X138349819Y-107898221D02*
X137349819Y-107898221D01*
X137349819Y-107898221D02*
X137349819Y-107660126D01*
X137349819Y-107660126D02*
X137397438Y-107517269D01*
X137397438Y-107517269D02*
X137492676Y-107422031D01*
X137492676Y-107422031D02*
X137587914Y-107374412D01*
X137587914Y-107374412D02*
X137778390Y-107326793D01*
X137778390Y-107326793D02*
X137921247Y-107326793D01*
X137921247Y-107326793D02*
X138111723Y-107374412D01*
X138111723Y-107374412D02*
X138206961Y-107422031D01*
X138206961Y-107422031D02*
X138302200Y-107517269D01*
X138302200Y-107517269D02*
X138349819Y-107660126D01*
X138349819Y-107660126D02*
X138349819Y-107898221D01*
X137349819Y-106707745D02*
X137349819Y-106517269D01*
X137349819Y-106517269D02*
X137397438Y-106422031D01*
X137397438Y-106422031D02*
X137492676Y-106326793D01*
X137492676Y-106326793D02*
X137683152Y-106279174D01*
X137683152Y-106279174D02*
X138016485Y-106279174D01*
X138016485Y-106279174D02*
X138206961Y-106326793D01*
X138206961Y-106326793D02*
X138302200Y-106422031D01*
X138302200Y-106422031D02*
X138349819Y-106517269D01*
X138349819Y-106517269D02*
X138349819Y-106707745D01*
X138349819Y-106707745D02*
X138302200Y-106802983D01*
X138302200Y-106802983D02*
X138206961Y-106898221D01*
X138206961Y-106898221D02*
X138016485Y-106945840D01*
X138016485Y-106945840D02*
X137683152Y-106945840D01*
X137683152Y-106945840D02*
X137492676Y-106898221D01*
X137492676Y-106898221D02*
X137397438Y-106802983D01*
X137397438Y-106802983D02*
X137349819Y-106707745D01*
X138349819Y-105850602D02*
X137349819Y-105850602D01*
X137349819Y-105850602D02*
X138349819Y-105279174D01*
X138349819Y-105279174D02*
X137349819Y-105279174D01*
X137349819Y-104755364D02*
X137540295Y-104850602D01*
X137349819Y-104469650D02*
X137349819Y-103898222D01*
X138349819Y-104183936D02*
X137349819Y-104183936D01*
X138349819Y-102802983D02*
X137349819Y-102802983D01*
X137349819Y-102802983D02*
X137349819Y-102422031D01*
X137349819Y-102422031D02*
X137397438Y-102326793D01*
X137397438Y-102326793D02*
X137445057Y-102279174D01*
X137445057Y-102279174D02*
X137540295Y-102231555D01*
X137540295Y-102231555D02*
X137683152Y-102231555D01*
X137683152Y-102231555D02*
X137778390Y-102279174D01*
X137778390Y-102279174D02*
X137826009Y-102326793D01*
X137826009Y-102326793D02*
X137873628Y-102422031D01*
X137873628Y-102422031D02*
X137873628Y-102802983D01*
X137349819Y-101802983D02*
X138159342Y-101802983D01*
X138159342Y-101802983D02*
X138254580Y-101755364D01*
X138254580Y-101755364D02*
X138302200Y-101707745D01*
X138302200Y-101707745D02*
X138349819Y-101612507D01*
X138349819Y-101612507D02*
X138349819Y-101422031D01*
X138349819Y-101422031D02*
X138302200Y-101326793D01*
X138302200Y-101326793D02*
X138254580Y-101279174D01*
X138254580Y-101279174D02*
X138159342Y-101231555D01*
X138159342Y-101231555D02*
X137349819Y-101231555D01*
X137349819Y-100898221D02*
X137349819Y-100326793D01*
X138349819Y-100612507D02*
X137349819Y-100612507D01*
X138064104Y-99279173D02*
X138064104Y-98802983D01*
X138349819Y-99374411D02*
X137349819Y-99041078D01*
X137349819Y-99041078D02*
X138349819Y-98707745D01*
X138349819Y-98374411D02*
X137349819Y-98374411D01*
X137349819Y-98374411D02*
X138349819Y-97802983D01*
X138349819Y-97802983D02*
X137349819Y-97802983D01*
X137873628Y-97136316D02*
X138349819Y-97136316D01*
X137349819Y-97469649D02*
X137873628Y-97136316D01*
X137873628Y-97136316D02*
X137349819Y-96802983D01*
X137349819Y-96612506D02*
X137349819Y-96041078D01*
X138349819Y-96326792D02*
X137349819Y-96326792D01*
X138349819Y-95707744D02*
X137349819Y-95707744D01*
X137826009Y-95707744D02*
X137826009Y-95136316D01*
X138349819Y-95136316D02*
X137349819Y-95136316D01*
X138349819Y-94660125D02*
X137349819Y-94660125D01*
X138349819Y-94183935D02*
X137349819Y-94183935D01*
X137349819Y-94183935D02*
X138349819Y-93612507D01*
X138349819Y-93612507D02*
X137349819Y-93612507D01*
X137397438Y-92612507D02*
X137349819Y-92707745D01*
X137349819Y-92707745D02*
X137349819Y-92850602D01*
X137349819Y-92850602D02*
X137397438Y-92993459D01*
X137397438Y-92993459D02*
X137492676Y-93088697D01*
X137492676Y-93088697D02*
X137587914Y-93136316D01*
X137587914Y-93136316D02*
X137778390Y-93183935D01*
X137778390Y-93183935D02*
X137921247Y-93183935D01*
X137921247Y-93183935D02*
X138111723Y-93136316D01*
X138111723Y-93136316D02*
X138206961Y-93088697D01*
X138206961Y-93088697D02*
X138302200Y-92993459D01*
X138302200Y-92993459D02*
X138349819Y-92850602D01*
X138349819Y-92850602D02*
X138349819Y-92755364D01*
X138349819Y-92755364D02*
X138302200Y-92612507D01*
X138302200Y-92612507D02*
X138254580Y-92564888D01*
X138254580Y-92564888D02*
X137921247Y-92564888D01*
X137921247Y-92564888D02*
X137921247Y-92755364D01*
X138349819Y-91374411D02*
X137349819Y-91374411D01*
X137826009Y-91374411D02*
X137826009Y-90802983D01*
X138349819Y-90802983D02*
X137349819Y-90802983D01*
X137826009Y-90326792D02*
X137826009Y-89993459D01*
X138349819Y-89850602D02*
X138349819Y-90326792D01*
X138349819Y-90326792D02*
X137349819Y-90326792D01*
X137349819Y-90326792D02*
X137349819Y-89850602D01*
X138349819Y-88850602D02*
X137873628Y-89183935D01*
X138349819Y-89422030D02*
X137349819Y-89422030D01*
X137349819Y-89422030D02*
X137349819Y-89041078D01*
X137349819Y-89041078D02*
X137397438Y-88945840D01*
X137397438Y-88945840D02*
X137445057Y-88898221D01*
X137445057Y-88898221D02*
X137540295Y-88850602D01*
X137540295Y-88850602D02*
X137683152Y-88850602D01*
X137683152Y-88850602D02*
X137778390Y-88898221D01*
X137778390Y-88898221D02*
X137826009Y-88945840D01*
X137826009Y-88945840D02*
X137873628Y-89041078D01*
X137873628Y-89041078D02*
X137873628Y-89422030D01*
X137826009Y-88422030D02*
X137826009Y-88088697D01*
X138349819Y-87945840D02*
X138349819Y-88422030D01*
X138349819Y-88422030D02*
X137349819Y-88422030D01*
X137349819Y-88422030D02*
X137349819Y-87945840D01*
X41429819Y-105698221D02*
X40429819Y-105698221D01*
X40429819Y-105698221D02*
X40429819Y-105460126D01*
X40429819Y-105460126D02*
X40477438Y-105317269D01*
X40477438Y-105317269D02*
X40572676Y-105222031D01*
X40572676Y-105222031D02*
X40667914Y-105174412D01*
X40667914Y-105174412D02*
X40858390Y-105126793D01*
X40858390Y-105126793D02*
X41001247Y-105126793D01*
X41001247Y-105126793D02*
X41191723Y-105174412D01*
X41191723Y-105174412D02*
X41286961Y-105222031D01*
X41286961Y-105222031D02*
X41382200Y-105317269D01*
X41382200Y-105317269D02*
X41429819Y-105460126D01*
X41429819Y-105460126D02*
X41429819Y-105698221D01*
X40429819Y-104507745D02*
X40429819Y-104317269D01*
X40429819Y-104317269D02*
X40477438Y-104222031D01*
X40477438Y-104222031D02*
X40572676Y-104126793D01*
X40572676Y-104126793D02*
X40763152Y-104079174D01*
X40763152Y-104079174D02*
X41096485Y-104079174D01*
X41096485Y-104079174D02*
X41286961Y-104126793D01*
X41286961Y-104126793D02*
X41382200Y-104222031D01*
X41382200Y-104222031D02*
X41429819Y-104317269D01*
X41429819Y-104317269D02*
X41429819Y-104507745D01*
X41429819Y-104507745D02*
X41382200Y-104602983D01*
X41382200Y-104602983D02*
X41286961Y-104698221D01*
X41286961Y-104698221D02*
X41096485Y-104745840D01*
X41096485Y-104745840D02*
X40763152Y-104745840D01*
X40763152Y-104745840D02*
X40572676Y-104698221D01*
X40572676Y-104698221D02*
X40477438Y-104602983D01*
X40477438Y-104602983D02*
X40429819Y-104507745D01*
X41429819Y-103650602D02*
X40429819Y-103650602D01*
X40429819Y-103650602D02*
X41429819Y-103079174D01*
X41429819Y-103079174D02*
X40429819Y-103079174D01*
X40429819Y-102555364D02*
X40620295Y-102650602D01*
X40429819Y-102269650D02*
X40429819Y-101698222D01*
X41429819Y-101983936D02*
X40429819Y-101983936D01*
X41429819Y-100602983D02*
X40429819Y-100602983D01*
X40429819Y-100602983D02*
X40429819Y-100222031D01*
X40429819Y-100222031D02*
X40477438Y-100126793D01*
X40477438Y-100126793D02*
X40525057Y-100079174D01*
X40525057Y-100079174D02*
X40620295Y-100031555D01*
X40620295Y-100031555D02*
X40763152Y-100031555D01*
X40763152Y-100031555D02*
X40858390Y-100079174D01*
X40858390Y-100079174D02*
X40906009Y-100126793D01*
X40906009Y-100126793D02*
X40953628Y-100222031D01*
X40953628Y-100222031D02*
X40953628Y-100602983D01*
X40429819Y-99602983D02*
X41239342Y-99602983D01*
X41239342Y-99602983D02*
X41334580Y-99555364D01*
X41334580Y-99555364D02*
X41382200Y-99507745D01*
X41382200Y-99507745D02*
X41429819Y-99412507D01*
X41429819Y-99412507D02*
X41429819Y-99222031D01*
X41429819Y-99222031D02*
X41382200Y-99126793D01*
X41382200Y-99126793D02*
X41334580Y-99079174D01*
X41334580Y-99079174D02*
X41239342Y-99031555D01*
X41239342Y-99031555D02*
X40429819Y-99031555D01*
X40429819Y-98698221D02*
X40429819Y-98126793D01*
X41429819Y-98412507D02*
X40429819Y-98412507D01*
X41144104Y-97079173D02*
X41144104Y-96602983D01*
X41429819Y-97174411D02*
X40429819Y-96841078D01*
X40429819Y-96841078D02*
X41429819Y-96507745D01*
X41429819Y-96174411D02*
X40429819Y-96174411D01*
X40429819Y-96174411D02*
X41429819Y-95602983D01*
X41429819Y-95602983D02*
X40429819Y-95602983D01*
X40953628Y-94936316D02*
X41429819Y-94936316D01*
X40429819Y-95269649D02*
X40953628Y-94936316D01*
X40953628Y-94936316D02*
X40429819Y-94602983D01*
X40429819Y-94412506D02*
X40429819Y-93841078D01*
X41429819Y-94126792D02*
X40429819Y-94126792D01*
X41429819Y-93507744D02*
X40429819Y-93507744D01*
X40906009Y-93507744D02*
X40906009Y-92936316D01*
X41429819Y-92936316D02*
X40429819Y-92936316D01*
X41429819Y-92460125D02*
X40429819Y-92460125D01*
X41429819Y-91983935D02*
X40429819Y-91983935D01*
X40429819Y-91983935D02*
X41429819Y-91412507D01*
X41429819Y-91412507D02*
X40429819Y-91412507D01*
X40477438Y-90412507D02*
X40429819Y-90507745D01*
X40429819Y-90507745D02*
X40429819Y-90650602D01*
X40429819Y-90650602D02*
X40477438Y-90793459D01*
X40477438Y-90793459D02*
X40572676Y-90888697D01*
X40572676Y-90888697D02*
X40667914Y-90936316D01*
X40667914Y-90936316D02*
X40858390Y-90983935D01*
X40858390Y-90983935D02*
X41001247Y-90983935D01*
X41001247Y-90983935D02*
X41191723Y-90936316D01*
X41191723Y-90936316D02*
X41286961Y-90888697D01*
X41286961Y-90888697D02*
X41382200Y-90793459D01*
X41382200Y-90793459D02*
X41429819Y-90650602D01*
X41429819Y-90650602D02*
X41429819Y-90555364D01*
X41429819Y-90555364D02*
X41382200Y-90412507D01*
X41382200Y-90412507D02*
X41334580Y-90364888D01*
X41334580Y-90364888D02*
X41001247Y-90364888D01*
X41001247Y-90364888D02*
X41001247Y-90555364D01*
X41429819Y-89174411D02*
X40429819Y-89174411D01*
X40906009Y-89174411D02*
X40906009Y-88602983D01*
X41429819Y-88602983D02*
X40429819Y-88602983D01*
X40906009Y-88126792D02*
X40906009Y-87793459D01*
X41429819Y-87650602D02*
X41429819Y-88126792D01*
X41429819Y-88126792D02*
X40429819Y-88126792D01*
X40429819Y-88126792D02*
X40429819Y-87650602D01*
X41429819Y-86650602D02*
X40953628Y-86983935D01*
X41429819Y-87222030D02*
X40429819Y-87222030D01*
X40429819Y-87222030D02*
X40429819Y-86841078D01*
X40429819Y-86841078D02*
X40477438Y-86745840D01*
X40477438Y-86745840D02*
X40525057Y-86698221D01*
X40525057Y-86698221D02*
X40620295Y-86650602D01*
X40620295Y-86650602D02*
X40763152Y-86650602D01*
X40763152Y-86650602D02*
X40858390Y-86698221D01*
X40858390Y-86698221D02*
X40906009Y-86745840D01*
X40906009Y-86745840D02*
X40953628Y-86841078D01*
X40953628Y-86841078D02*
X40953628Y-87222030D01*
X40906009Y-86222030D02*
X40906009Y-85888697D01*
X41429819Y-85745840D02*
X41429819Y-86222030D01*
X41429819Y-86222030D02*
X40429819Y-86222030D01*
X40429819Y-86222030D02*
X40429819Y-85745840D01*
X84941429Y-44758391D02*
X84846191Y-44710772D01*
X84846191Y-44710772D02*
X84798572Y-44663153D01*
X84798572Y-44663153D02*
X84750953Y-44567915D01*
X84750953Y-44567915D02*
X84750953Y-44520296D01*
X84750953Y-44520296D02*
X84798572Y-44425058D01*
X84798572Y-44425058D02*
X84846191Y-44377439D01*
X84846191Y-44377439D02*
X84941429Y-44329820D01*
X84941429Y-44329820D02*
X85131905Y-44329820D01*
X85131905Y-44329820D02*
X85227143Y-44377439D01*
X85227143Y-44377439D02*
X85274762Y-44425058D01*
X85274762Y-44425058D02*
X85322381Y-44520296D01*
X85322381Y-44520296D02*
X85322381Y-44567915D01*
X85322381Y-44567915D02*
X85274762Y-44663153D01*
X85274762Y-44663153D02*
X85227143Y-44710772D01*
X85227143Y-44710772D02*
X85131905Y-44758391D01*
X85131905Y-44758391D02*
X84941429Y-44758391D01*
X84941429Y-44758391D02*
X84846191Y-44806010D01*
X84846191Y-44806010D02*
X84798572Y-44853629D01*
X84798572Y-44853629D02*
X84750953Y-44948867D01*
X84750953Y-44948867D02*
X84750953Y-45139343D01*
X84750953Y-45139343D02*
X84798572Y-45234581D01*
X84798572Y-45234581D02*
X84846191Y-45282201D01*
X84846191Y-45282201D02*
X84941429Y-45329820D01*
X84941429Y-45329820D02*
X85131905Y-45329820D01*
X85131905Y-45329820D02*
X85227143Y-45282201D01*
X85227143Y-45282201D02*
X85274762Y-45234581D01*
X85274762Y-45234581D02*
X85322381Y-45139343D01*
X85322381Y-45139343D02*
X85322381Y-44948867D01*
X85322381Y-44948867D02*
X85274762Y-44853629D01*
X85274762Y-44853629D02*
X85227143Y-44806010D01*
X85227143Y-44806010D02*
X85131905Y-44758391D01*
X85893810Y-44758391D02*
X85798572Y-44710772D01*
X85798572Y-44710772D02*
X85750953Y-44663153D01*
X85750953Y-44663153D02*
X85703334Y-44567915D01*
X85703334Y-44567915D02*
X85703334Y-44520296D01*
X85703334Y-44520296D02*
X85750953Y-44425058D01*
X85750953Y-44425058D02*
X85798572Y-44377439D01*
X85798572Y-44377439D02*
X85893810Y-44329820D01*
X85893810Y-44329820D02*
X86084286Y-44329820D01*
X86084286Y-44329820D02*
X86179524Y-44377439D01*
X86179524Y-44377439D02*
X86227143Y-44425058D01*
X86227143Y-44425058D02*
X86274762Y-44520296D01*
X86274762Y-44520296D02*
X86274762Y-44567915D01*
X86274762Y-44567915D02*
X86227143Y-44663153D01*
X86227143Y-44663153D02*
X86179524Y-44710772D01*
X86179524Y-44710772D02*
X86084286Y-44758391D01*
X86084286Y-44758391D02*
X85893810Y-44758391D01*
X85893810Y-44758391D02*
X85798572Y-44806010D01*
X85798572Y-44806010D02*
X85750953Y-44853629D01*
X85750953Y-44853629D02*
X85703334Y-44948867D01*
X85703334Y-44948867D02*
X85703334Y-45139343D01*
X85703334Y-45139343D02*
X85750953Y-45234581D01*
X85750953Y-45234581D02*
X85798572Y-45282201D01*
X85798572Y-45282201D02*
X85893810Y-45329820D01*
X85893810Y-45329820D02*
X86084286Y-45329820D01*
X86084286Y-45329820D02*
X86179524Y-45282201D01*
X86179524Y-45282201D02*
X86227143Y-45234581D01*
X86227143Y-45234581D02*
X86274762Y-45139343D01*
X86274762Y-45139343D02*
X86274762Y-44948867D01*
X86274762Y-44948867D02*
X86227143Y-44853629D01*
X86227143Y-44853629D02*
X86179524Y-44806010D01*
X86179524Y-44806010D02*
X86084286Y-44758391D01*
X86703334Y-45234581D02*
X86750953Y-45282201D01*
X86750953Y-45282201D02*
X86703334Y-45329820D01*
X86703334Y-45329820D02*
X86655715Y-45282201D01*
X86655715Y-45282201D02*
X86703334Y-45234581D01*
X86703334Y-45234581D02*
X86703334Y-45329820D01*
X87227143Y-45329820D02*
X87417619Y-45329820D01*
X87417619Y-45329820D02*
X87512857Y-45282201D01*
X87512857Y-45282201D02*
X87560476Y-45234581D01*
X87560476Y-45234581D02*
X87655714Y-45091724D01*
X87655714Y-45091724D02*
X87703333Y-44901248D01*
X87703333Y-44901248D02*
X87703333Y-44520296D01*
X87703333Y-44520296D02*
X87655714Y-44425058D01*
X87655714Y-44425058D02*
X87608095Y-44377439D01*
X87608095Y-44377439D02*
X87512857Y-44329820D01*
X87512857Y-44329820D02*
X87322381Y-44329820D01*
X87322381Y-44329820D02*
X87227143Y-44377439D01*
X87227143Y-44377439D02*
X87179524Y-44425058D01*
X87179524Y-44425058D02*
X87131905Y-44520296D01*
X87131905Y-44520296D02*
X87131905Y-44758391D01*
X87131905Y-44758391D02*
X87179524Y-44853629D01*
X87179524Y-44853629D02*
X87227143Y-44901248D01*
X87227143Y-44901248D02*
X87322381Y-44948867D01*
X87322381Y-44948867D02*
X87512857Y-44948867D01*
X87512857Y-44948867D02*
X87608095Y-44901248D01*
X87608095Y-44901248D02*
X87655714Y-44853629D01*
X87655714Y-44853629D02*
X87703333Y-44758391D01*
X88322381Y-44329820D02*
X88417619Y-44329820D01*
X88417619Y-44329820D02*
X88512857Y-44377439D01*
X88512857Y-44377439D02*
X88560476Y-44425058D01*
X88560476Y-44425058D02*
X88608095Y-44520296D01*
X88608095Y-44520296D02*
X88655714Y-44710772D01*
X88655714Y-44710772D02*
X88655714Y-44948867D01*
X88655714Y-44948867D02*
X88608095Y-45139343D01*
X88608095Y-45139343D02*
X88560476Y-45234581D01*
X88560476Y-45234581D02*
X88512857Y-45282201D01*
X88512857Y-45282201D02*
X88417619Y-45329820D01*
X88417619Y-45329820D02*
X88322381Y-45329820D01*
X88322381Y-45329820D02*
X88227143Y-45282201D01*
X88227143Y-45282201D02*
X88179524Y-45234581D01*
X88179524Y-45234581D02*
X88131905Y-45139343D01*
X88131905Y-45139343D02*
X88084286Y-44948867D01*
X88084286Y-44948867D02*
X88084286Y-44710772D01*
X88084286Y-44710772D02*
X88131905Y-44520296D01*
X88131905Y-44520296D02*
X88179524Y-44425058D01*
X88179524Y-44425058D02*
X88227143Y-44377439D01*
X88227143Y-44377439D02*
X88322381Y-44329820D01*
X89274762Y-44329820D02*
X89370000Y-44329820D01*
X89370000Y-44329820D02*
X89465238Y-44377439D01*
X89465238Y-44377439D02*
X89512857Y-44425058D01*
X89512857Y-44425058D02*
X89560476Y-44520296D01*
X89560476Y-44520296D02*
X89608095Y-44710772D01*
X89608095Y-44710772D02*
X89608095Y-44948867D01*
X89608095Y-44948867D02*
X89560476Y-45139343D01*
X89560476Y-45139343D02*
X89512857Y-45234581D01*
X89512857Y-45234581D02*
X89465238Y-45282201D01*
X89465238Y-45282201D02*
X89370000Y-45329820D01*
X89370000Y-45329820D02*
X89274762Y-45329820D01*
X89274762Y-45329820D02*
X89179524Y-45282201D01*
X89179524Y-45282201D02*
X89131905Y-45234581D01*
X89131905Y-45234581D02*
X89084286Y-45139343D01*
X89084286Y-45139343D02*
X89036667Y-44948867D01*
X89036667Y-44948867D02*
X89036667Y-44710772D01*
X89036667Y-44710772D02*
X89084286Y-44520296D01*
X89084286Y-44520296D02*
X89131905Y-44425058D01*
X89131905Y-44425058D02*
X89179524Y-44377439D01*
X89179524Y-44377439D02*
X89274762Y-44329820D01*
X90227143Y-44329820D02*
X90322381Y-44329820D01*
X90322381Y-44329820D02*
X90417619Y-44377439D01*
X90417619Y-44377439D02*
X90465238Y-44425058D01*
X90465238Y-44425058D02*
X90512857Y-44520296D01*
X90512857Y-44520296D02*
X90560476Y-44710772D01*
X90560476Y-44710772D02*
X90560476Y-44948867D01*
X90560476Y-44948867D02*
X90512857Y-45139343D01*
X90512857Y-45139343D02*
X90465238Y-45234581D01*
X90465238Y-45234581D02*
X90417619Y-45282201D01*
X90417619Y-45282201D02*
X90322381Y-45329820D01*
X90322381Y-45329820D02*
X90227143Y-45329820D01*
X90227143Y-45329820D02*
X90131905Y-45282201D01*
X90131905Y-45282201D02*
X90084286Y-45234581D01*
X90084286Y-45234581D02*
X90036667Y-45139343D01*
X90036667Y-45139343D02*
X89989048Y-44948867D01*
X89989048Y-44948867D02*
X89989048Y-44710772D01*
X89989048Y-44710772D02*
X90036667Y-44520296D01*
X90036667Y-44520296D02*
X90084286Y-44425058D01*
X90084286Y-44425058D02*
X90131905Y-44377439D01*
X90131905Y-44377439D02*
X90227143Y-44329820D01*
X91750953Y-45329820D02*
X91750953Y-44663153D01*
X91750953Y-44758391D02*
X91798572Y-44710772D01*
X91798572Y-44710772D02*
X91893810Y-44663153D01*
X91893810Y-44663153D02*
X92036667Y-44663153D01*
X92036667Y-44663153D02*
X92131905Y-44710772D01*
X92131905Y-44710772D02*
X92179524Y-44806010D01*
X92179524Y-44806010D02*
X92179524Y-45329820D01*
X92179524Y-44806010D02*
X92227143Y-44710772D01*
X92227143Y-44710772D02*
X92322381Y-44663153D01*
X92322381Y-44663153D02*
X92465238Y-44663153D01*
X92465238Y-44663153D02*
X92560477Y-44710772D01*
X92560477Y-44710772D02*
X92608096Y-44806010D01*
X92608096Y-44806010D02*
X92608096Y-45329820D01*
X93084286Y-45329820D02*
X93084286Y-44663153D01*
X93084286Y-44758391D02*
X93131905Y-44710772D01*
X93131905Y-44710772D02*
X93227143Y-44663153D01*
X93227143Y-44663153D02*
X93370000Y-44663153D01*
X93370000Y-44663153D02*
X93465238Y-44710772D01*
X93465238Y-44710772D02*
X93512857Y-44806010D01*
X93512857Y-44806010D02*
X93512857Y-45329820D01*
X93512857Y-44806010D02*
X93560476Y-44710772D01*
X93560476Y-44710772D02*
X93655714Y-44663153D01*
X93655714Y-44663153D02*
X93798571Y-44663153D01*
X93798571Y-44663153D02*
X93893810Y-44710772D01*
X93893810Y-44710772D02*
X93941429Y-44806010D01*
X93941429Y-44806010D02*
X93941429Y-45329820D01*
D10*
X44920000Y-54345001D02*
X44920000Y-45438581D01*
X133820000Y-54345001D02*
X133820000Y-45438581D01*
X44920000Y-46025001D02*
X133820000Y-46025001D01*
X44920000Y-46025001D02*
X133820000Y-46025001D01*
X44920000Y-46025001D02*
X46046504Y-45438580D01*
X44920000Y-46025001D02*
X46046504Y-46611422D01*
X133820000Y-46025001D02*
X132693496Y-46611422D01*
X133820000Y-46025001D02*
X132693496Y-45438580D01*
D11*
X38917063Y-48891357D02*
X38918802Y-49510402D01*
X38918802Y-49510402D02*
X38536915Y-49178140D01*
X38536915Y-49178140D02*
X38537316Y-49320997D01*
X38537316Y-49320997D02*
X38489965Y-49416368D01*
X38489965Y-49416368D02*
X38442480Y-49464121D01*
X38442480Y-49464121D02*
X38347376Y-49512007D01*
X38347376Y-49512007D02*
X38109282Y-49512676D01*
X38109282Y-49512676D02*
X38013910Y-49465325D01*
X38013910Y-49465325D02*
X37966158Y-49417839D01*
X37966158Y-49417839D02*
X37918271Y-49322735D01*
X37918271Y-49322735D02*
X37917469Y-49037022D01*
X37917469Y-49037022D02*
X37964820Y-48941651D01*
X37964820Y-48941651D02*
X38012305Y-48893898D01*
X38015248Y-49941513D02*
X37967763Y-49989266D01*
X37967763Y-49989266D02*
X37920010Y-49941781D01*
X37920010Y-49941781D02*
X37967495Y-49894028D01*
X37967495Y-49894028D02*
X38015248Y-49941513D01*
X38015248Y-49941513D02*
X37920010Y-49941781D01*
X38922681Y-50891348D02*
X38921344Y-50415160D01*
X38921344Y-50415160D02*
X38445021Y-50368879D01*
X38445021Y-50368879D02*
X38492774Y-50416364D01*
X38492774Y-50416364D02*
X38540660Y-50511468D01*
X38540660Y-50511468D02*
X38541329Y-50749562D01*
X38541329Y-50749562D02*
X38493978Y-50844933D01*
X38493978Y-50844933D02*
X38446493Y-50892686D01*
X38446493Y-50892686D02*
X38351389Y-50940572D01*
X38351389Y-50940572D02*
X38113294Y-50941241D01*
X38113294Y-50941241D02*
X38017923Y-50893890D01*
X38017923Y-50893890D02*
X37970170Y-50846405D01*
X37970170Y-50846405D02*
X37922284Y-50751301D01*
X37922284Y-50751301D02*
X37921615Y-50513207D01*
X37921615Y-50513207D02*
X37968966Y-50417835D01*
X37968966Y-50417835D02*
X38016452Y-50370082D01*
X38925223Y-51796107D02*
X38924688Y-51605631D01*
X38924688Y-51605631D02*
X38876801Y-51510527D01*
X38876801Y-51510527D02*
X38829049Y-51463042D01*
X38829049Y-51463042D02*
X38685925Y-51368206D01*
X38685925Y-51368206D02*
X38495315Y-51321122D01*
X38495315Y-51321122D02*
X38114365Y-51322192D01*
X38114365Y-51322192D02*
X38019261Y-51370079D01*
X38019261Y-51370079D02*
X37971775Y-51417831D01*
X37971775Y-51417831D02*
X37924424Y-51513203D01*
X37924424Y-51513203D02*
X37924959Y-51703678D01*
X37924959Y-51703678D02*
X37972846Y-51798782D01*
X37972846Y-51798782D02*
X38020598Y-51846267D01*
X38020598Y-51846267D02*
X38115970Y-51893618D01*
X38115970Y-51893618D02*
X38354064Y-51892950D01*
X38354064Y-51892950D02*
X38449168Y-51845063D01*
X38449168Y-51845063D02*
X38496653Y-51797311D01*
X38496653Y-51797311D02*
X38544004Y-51701939D01*
X38544004Y-51701939D02*
X38543469Y-51511464D01*
X38543469Y-51511464D02*
X38495583Y-51416360D01*
X38495583Y-51416360D02*
X38447830Y-51368875D01*
X38447830Y-51368875D02*
X38352459Y-51321523D01*
X38927229Y-52510390D02*
X38927497Y-52605628D01*
X38927497Y-52605628D02*
X38880145Y-52700999D01*
X38880145Y-52700999D02*
X38832660Y-52748752D01*
X38832660Y-52748752D02*
X38737556Y-52796638D01*
X38737556Y-52796638D02*
X38547215Y-52844792D01*
X38547215Y-52844792D02*
X38309120Y-52845461D01*
X38309120Y-52845461D02*
X38118511Y-52798377D01*
X38118511Y-52798377D02*
X38023140Y-52751026D01*
X38023140Y-52751026D02*
X37975387Y-52703540D01*
X37975387Y-52703540D02*
X37927501Y-52608436D01*
X37927501Y-52608436D02*
X37927233Y-52513199D01*
X37927233Y-52513199D02*
X37974584Y-52417827D01*
X37974584Y-52417827D02*
X38022070Y-52370075D01*
X38022070Y-52370075D02*
X38117174Y-52322188D01*
X38117174Y-52322188D02*
X38307515Y-52274034D01*
X38307515Y-52274034D02*
X38545609Y-52273366D01*
X38545609Y-52273366D02*
X38736219Y-52320449D01*
X38736219Y-52320449D02*
X38831590Y-52367801D01*
X38831590Y-52367801D02*
X38879343Y-52415286D01*
X38879343Y-52415286D02*
X38927229Y-52510390D01*
X38929904Y-53462767D02*
X38930172Y-53558005D01*
X38930172Y-53558005D02*
X38882821Y-53653376D01*
X38882821Y-53653376D02*
X38835335Y-53701129D01*
X38835335Y-53701129D02*
X38740232Y-53749015D01*
X38740232Y-53749015D02*
X38549890Y-53797169D01*
X38549890Y-53797169D02*
X38311796Y-53797838D01*
X38311796Y-53797838D02*
X38121186Y-53750754D01*
X38121186Y-53750754D02*
X38025815Y-53703403D01*
X38025815Y-53703403D02*
X37978062Y-53655918D01*
X37978062Y-53655918D02*
X37930176Y-53560814D01*
X37930176Y-53560814D02*
X37929908Y-53465576D01*
X37929908Y-53465576D02*
X37977260Y-53370205D01*
X37977260Y-53370205D02*
X38024745Y-53322452D01*
X38024745Y-53322452D02*
X38119849Y-53274566D01*
X38119849Y-53274566D02*
X38310190Y-53226412D01*
X38310190Y-53226412D02*
X38548285Y-53225743D01*
X38548285Y-53225743D02*
X38738894Y-53272827D01*
X38738894Y-53272827D02*
X38834265Y-53320178D01*
X38834265Y-53320178D02*
X38882018Y-53367663D01*
X38882018Y-53367663D02*
X38929904Y-53462767D01*
X37934189Y-54989380D02*
X38600853Y-54987507D01*
X38505615Y-54987775D02*
X38553368Y-55035260D01*
X38553368Y-55035260D02*
X38601254Y-55130364D01*
X38601254Y-55130364D02*
X38601655Y-55273220D01*
X38601655Y-55273220D02*
X38554304Y-55368592D01*
X38554304Y-55368592D02*
X38459200Y-55416478D01*
X38459200Y-55416478D02*
X37935393Y-55417950D01*
X38459200Y-55416478D02*
X38554571Y-55463830D01*
X38554571Y-55463830D02*
X38602458Y-55558933D01*
X38602458Y-55558933D02*
X38602859Y-55701790D01*
X38602859Y-55701790D02*
X38555508Y-55797162D01*
X38555508Y-55797162D02*
X38460404Y-55845048D01*
X38460404Y-55845048D02*
X37936596Y-55846519D01*
X37937934Y-56322708D02*
X38604598Y-56320835D01*
X38509360Y-56321102D02*
X38557113Y-56368588D01*
X38557113Y-56368588D02*
X38604999Y-56463691D01*
X38604999Y-56463691D02*
X38605401Y-56606548D01*
X38605401Y-56606548D02*
X38558049Y-56701920D01*
X38558049Y-56701920D02*
X38462945Y-56749806D01*
X38462945Y-56749806D02*
X37939138Y-56751277D01*
X38462945Y-56749806D02*
X38558317Y-56797157D01*
X38558317Y-56797157D02*
X38606203Y-56892261D01*
X38606203Y-56892261D02*
X38606604Y-57035118D01*
X38606604Y-57035118D02*
X38559253Y-57130489D01*
X38559253Y-57130489D02*
X38464149Y-57178376D01*
X38464149Y-57178376D02*
X37940342Y-57179847D01*
D10*
X44420002Y-54846405D02*
X36652244Y-54868225D01*
X44410002Y-51286405D02*
X36642244Y-51308225D01*
X37238661Y-54866578D02*
X37228661Y-51306578D01*
X37238661Y-54866578D02*
X37228661Y-51306578D01*
X37238661Y-54866578D02*
X36649078Y-53741726D01*
X37238661Y-54866578D02*
X37821915Y-53738431D01*
X37228661Y-51306578D02*
X37818244Y-52431430D01*
X37228661Y-51306578D02*
X36645407Y-52434725D01*
D11*
X38488211Y-44388463D02*
X38012024Y-44390179D01*
X38012024Y-44390179D02*
X37966121Y-44866538D01*
X37966121Y-44866538D02*
X38013568Y-44818747D01*
X38013568Y-44818747D02*
X38108634Y-44770785D01*
X38108634Y-44770785D02*
X38346728Y-44769927D01*
X38346728Y-44769927D02*
X38442137Y-44817203D01*
X38442137Y-44817203D02*
X38489927Y-44864650D01*
X38489927Y-44864650D02*
X38537889Y-44959716D01*
X38537889Y-44959716D02*
X38538747Y-45197810D01*
X38538747Y-45197810D02*
X38491471Y-45293219D01*
X38491471Y-45293219D02*
X38444024Y-45341009D01*
X38444024Y-45341009D02*
X38348958Y-45388971D01*
X38348958Y-45388971D02*
X38110865Y-45389829D01*
X38110865Y-45389829D02*
X38015456Y-45342553D01*
X38015456Y-45342553D02*
X37967665Y-45295106D01*
X38967659Y-45291503D02*
X39015449Y-45338950D01*
X39015449Y-45338950D02*
X38968002Y-45386740D01*
X38968002Y-45386740D02*
X38920212Y-45339293D01*
X38920212Y-45339293D02*
X38967659Y-45291503D01*
X38967659Y-45291503D02*
X38968002Y-45386740D01*
X39916773Y-44383315D02*
X39440585Y-44385031D01*
X39440585Y-44385031D02*
X39394683Y-44861390D01*
X39394683Y-44861390D02*
X39442130Y-44813599D01*
X39442130Y-44813599D02*
X39537196Y-44765637D01*
X39537196Y-44765637D02*
X39775289Y-44764779D01*
X39775289Y-44764779D02*
X39870698Y-44812055D01*
X39870698Y-44812055D02*
X39918489Y-44859502D01*
X39918489Y-44859502D02*
X39966451Y-44954568D01*
X39966451Y-44954568D02*
X39967309Y-45192662D01*
X39967309Y-45192662D02*
X39920033Y-45288071D01*
X39920033Y-45288071D02*
X39872586Y-45335861D01*
X39872586Y-45335861D02*
X39777520Y-45383823D01*
X39777520Y-45383823D02*
X39539427Y-45384681D01*
X39539427Y-45384681D02*
X39444017Y-45337405D01*
X39444017Y-45337405D02*
X39396227Y-45289958D01*
X40869148Y-44379883D02*
X40392960Y-44381599D01*
X40392960Y-44381599D02*
X40347058Y-44857958D01*
X40347058Y-44857958D02*
X40394505Y-44810167D01*
X40394505Y-44810167D02*
X40489571Y-44762205D01*
X40489571Y-44762205D02*
X40727664Y-44761347D01*
X40727664Y-44761347D02*
X40823073Y-44808623D01*
X40823073Y-44808623D02*
X40870864Y-44856070D01*
X40870864Y-44856070D02*
X40918826Y-44951136D01*
X40918826Y-44951136D02*
X40919684Y-45189230D01*
X40919684Y-45189230D02*
X40872408Y-45284639D01*
X40872408Y-45284639D02*
X40824961Y-45332429D01*
X40824961Y-45332429D02*
X40729895Y-45380391D01*
X40729895Y-45380391D02*
X40491801Y-45381249D01*
X40491801Y-45381249D02*
X40396392Y-45333973D01*
X40396392Y-45333973D02*
X40348602Y-45286526D01*
X41535810Y-44377480D02*
X41631048Y-44377137D01*
X41631048Y-44377137D02*
X41726457Y-44424413D01*
X41726457Y-44424413D02*
X41774247Y-44471860D01*
X41774247Y-44471860D02*
X41822209Y-44566926D01*
X41822209Y-44566926D02*
X41870514Y-44757229D01*
X41870514Y-44757229D02*
X41871372Y-44995323D01*
X41871372Y-44995323D02*
X41824440Y-45185969D01*
X41824440Y-45185969D02*
X41777164Y-45281378D01*
X41777164Y-45281378D02*
X41729717Y-45329169D01*
X41729717Y-45329169D02*
X41634651Y-45377131D01*
X41634651Y-45377131D02*
X41539414Y-45377474D01*
X41539414Y-45377474D02*
X41444005Y-45330198D01*
X41444005Y-45330198D02*
X41396214Y-45282751D01*
X41396214Y-45282751D02*
X41348252Y-45187685D01*
X41348252Y-45187685D02*
X41299947Y-44997382D01*
X41299947Y-44997382D02*
X41299089Y-44759288D01*
X41299089Y-44759288D02*
X41346021Y-44568642D01*
X41346021Y-44568642D02*
X41393297Y-44473233D01*
X41393297Y-44473233D02*
X41440744Y-44425442D01*
X41440744Y-44425442D02*
X41535810Y-44377480D01*
X42488185Y-44374048D02*
X42583422Y-44373705D01*
X42583422Y-44373705D02*
X42678831Y-44420981D01*
X42678831Y-44420981D02*
X42726622Y-44468428D01*
X42726622Y-44468428D02*
X42774584Y-44563494D01*
X42774584Y-44563494D02*
X42822889Y-44753797D01*
X42822889Y-44753797D02*
X42823747Y-44991891D01*
X42823747Y-44991891D02*
X42776814Y-45182537D01*
X42776814Y-45182537D02*
X42729539Y-45277946D01*
X42729539Y-45277946D02*
X42682092Y-45325737D01*
X42682092Y-45325737D02*
X42587026Y-45373699D01*
X42587026Y-45373699D02*
X42491788Y-45374042D01*
X42491788Y-45374042D02*
X42396379Y-45326766D01*
X42396379Y-45326766D02*
X42348589Y-45279319D01*
X42348589Y-45279319D02*
X42300627Y-45184253D01*
X42300627Y-45184253D02*
X42252322Y-44993950D01*
X42252322Y-44993950D02*
X42251464Y-44755856D01*
X42251464Y-44755856D02*
X42298396Y-44565210D01*
X42298396Y-44565210D02*
X42345672Y-44469801D01*
X42345672Y-44469801D02*
X42393119Y-44422010D01*
X42393119Y-44422010D02*
X42488185Y-44374048D01*
X44015588Y-45368551D02*
X44013186Y-44701888D01*
X44013529Y-44797126D02*
X44060976Y-44749335D01*
X44060976Y-44749335D02*
X44156042Y-44701373D01*
X44156042Y-44701373D02*
X44298898Y-44700859D01*
X44298898Y-44700859D02*
X44394307Y-44748134D01*
X44394307Y-44748134D02*
X44442269Y-44843200D01*
X44442269Y-44843200D02*
X44444157Y-45367006D01*
X44442269Y-44843200D02*
X44489545Y-44747791D01*
X44489545Y-44747791D02*
X44584611Y-44699829D01*
X44584611Y-44699829D02*
X44727467Y-44699314D01*
X44727467Y-44699314D02*
X44822876Y-44746590D01*
X44822876Y-44746590D02*
X44870838Y-44841656D01*
X44870838Y-44841656D02*
X44872726Y-45365462D01*
X45348913Y-45363746D02*
X45346510Y-44697084D01*
X45346854Y-44792321D02*
X45394301Y-44744531D01*
X45394301Y-44744531D02*
X45489367Y-44696569D01*
X45489367Y-44696569D02*
X45632223Y-44696054D01*
X45632223Y-44696054D02*
X45727632Y-44743329D01*
X45727632Y-44743329D02*
X45775594Y-44838395D01*
X45775594Y-44838395D02*
X45777481Y-45362201D01*
X45775594Y-44838395D02*
X45822869Y-44742986D01*
X45822869Y-44742986D02*
X45917935Y-44695024D01*
X45917935Y-44695024D02*
X46060791Y-44694510D01*
X46060791Y-44694510D02*
X46156200Y-44741785D01*
X46156200Y-44741785D02*
X46204162Y-44836851D01*
X46204162Y-44836851D02*
X46206050Y-45360657D01*
D10*
X44918198Y-54345004D02*
X44886231Y-45474176D01*
X39368198Y-54365004D02*
X39336231Y-45494176D01*
X44888344Y-46060592D02*
X39338344Y-46080592D01*
X44888344Y-46060592D02*
X39338344Y-46080592D01*
X44888344Y-46060592D02*
X43763961Y-46651068D01*
X44888344Y-46060592D02*
X43759734Y-45478235D01*
X39338344Y-46080592D02*
X40462727Y-45490116D01*
X39338344Y-46080592D02*
X40466954Y-46662949D01*
D11*
X84846190Y-167669819D02*
X84274762Y-167669819D01*
X84560476Y-167669819D02*
X84560476Y-166669819D01*
X84560476Y-166669819D02*
X84465238Y-166812676D01*
X84465238Y-166812676D02*
X84370000Y-166907914D01*
X84370000Y-166907914D02*
X84274762Y-166955533D01*
X85465238Y-166669819D02*
X85560476Y-166669819D01*
X85560476Y-166669819D02*
X85655714Y-166717438D01*
X85655714Y-166717438D02*
X85703333Y-166765057D01*
X85703333Y-166765057D02*
X85750952Y-166860295D01*
X85750952Y-166860295D02*
X85798571Y-167050771D01*
X85798571Y-167050771D02*
X85798571Y-167288866D01*
X85798571Y-167288866D02*
X85750952Y-167479342D01*
X85750952Y-167479342D02*
X85703333Y-167574580D01*
X85703333Y-167574580D02*
X85655714Y-167622200D01*
X85655714Y-167622200D02*
X85560476Y-167669819D01*
X85560476Y-167669819D02*
X85465238Y-167669819D01*
X85465238Y-167669819D02*
X85370000Y-167622200D01*
X85370000Y-167622200D02*
X85322381Y-167574580D01*
X85322381Y-167574580D02*
X85274762Y-167479342D01*
X85274762Y-167479342D02*
X85227143Y-167288866D01*
X85227143Y-167288866D02*
X85227143Y-167050771D01*
X85227143Y-167050771D02*
X85274762Y-166860295D01*
X85274762Y-166860295D02*
X85322381Y-166765057D01*
X85322381Y-166765057D02*
X85370000Y-166717438D01*
X85370000Y-166717438D02*
X85465238Y-166669819D01*
X86417619Y-166669819D02*
X86512857Y-166669819D01*
X86512857Y-166669819D02*
X86608095Y-166717438D01*
X86608095Y-166717438D02*
X86655714Y-166765057D01*
X86655714Y-166765057D02*
X86703333Y-166860295D01*
X86703333Y-166860295D02*
X86750952Y-167050771D01*
X86750952Y-167050771D02*
X86750952Y-167288866D01*
X86750952Y-167288866D02*
X86703333Y-167479342D01*
X86703333Y-167479342D02*
X86655714Y-167574580D01*
X86655714Y-167574580D02*
X86608095Y-167622200D01*
X86608095Y-167622200D02*
X86512857Y-167669819D01*
X86512857Y-167669819D02*
X86417619Y-167669819D01*
X86417619Y-167669819D02*
X86322381Y-167622200D01*
X86322381Y-167622200D02*
X86274762Y-167574580D01*
X86274762Y-167574580D02*
X86227143Y-167479342D01*
X86227143Y-167479342D02*
X86179524Y-167288866D01*
X86179524Y-167288866D02*
X86179524Y-167050771D01*
X86179524Y-167050771D02*
X86227143Y-166860295D01*
X86227143Y-166860295D02*
X86274762Y-166765057D01*
X86274762Y-166765057D02*
X86322381Y-166717438D01*
X86322381Y-166717438D02*
X86417619Y-166669819D01*
X87179524Y-167574580D02*
X87227143Y-167622200D01*
X87227143Y-167622200D02*
X87179524Y-167669819D01*
X87179524Y-167669819D02*
X87131905Y-167622200D01*
X87131905Y-167622200D02*
X87179524Y-167574580D01*
X87179524Y-167574580D02*
X87179524Y-167669819D01*
X87846190Y-166669819D02*
X87941428Y-166669819D01*
X87941428Y-166669819D02*
X88036666Y-166717438D01*
X88036666Y-166717438D02*
X88084285Y-166765057D01*
X88084285Y-166765057D02*
X88131904Y-166860295D01*
X88131904Y-166860295D02*
X88179523Y-167050771D01*
X88179523Y-167050771D02*
X88179523Y-167288866D01*
X88179523Y-167288866D02*
X88131904Y-167479342D01*
X88131904Y-167479342D02*
X88084285Y-167574580D01*
X88084285Y-167574580D02*
X88036666Y-167622200D01*
X88036666Y-167622200D02*
X87941428Y-167669819D01*
X87941428Y-167669819D02*
X87846190Y-167669819D01*
X87846190Y-167669819D02*
X87750952Y-167622200D01*
X87750952Y-167622200D02*
X87703333Y-167574580D01*
X87703333Y-167574580D02*
X87655714Y-167479342D01*
X87655714Y-167479342D02*
X87608095Y-167288866D01*
X87608095Y-167288866D02*
X87608095Y-167050771D01*
X87608095Y-167050771D02*
X87655714Y-166860295D01*
X87655714Y-166860295D02*
X87703333Y-166765057D01*
X87703333Y-166765057D02*
X87750952Y-166717438D01*
X87750952Y-166717438D02*
X87846190Y-166669819D01*
X88798571Y-166669819D02*
X88893809Y-166669819D01*
X88893809Y-166669819D02*
X88989047Y-166717438D01*
X88989047Y-166717438D02*
X89036666Y-166765057D01*
X89036666Y-166765057D02*
X89084285Y-166860295D01*
X89084285Y-166860295D02*
X89131904Y-167050771D01*
X89131904Y-167050771D02*
X89131904Y-167288866D01*
X89131904Y-167288866D02*
X89084285Y-167479342D01*
X89084285Y-167479342D02*
X89036666Y-167574580D01*
X89036666Y-167574580D02*
X88989047Y-167622200D01*
X88989047Y-167622200D02*
X88893809Y-167669819D01*
X88893809Y-167669819D02*
X88798571Y-167669819D01*
X88798571Y-167669819D02*
X88703333Y-167622200D01*
X88703333Y-167622200D02*
X88655714Y-167574580D01*
X88655714Y-167574580D02*
X88608095Y-167479342D01*
X88608095Y-167479342D02*
X88560476Y-167288866D01*
X88560476Y-167288866D02*
X88560476Y-167050771D01*
X88560476Y-167050771D02*
X88608095Y-166860295D01*
X88608095Y-166860295D02*
X88655714Y-166765057D01*
X88655714Y-166765057D02*
X88703333Y-166717438D01*
X88703333Y-166717438D02*
X88798571Y-166669819D01*
X89750952Y-166669819D02*
X89846190Y-166669819D01*
X89846190Y-166669819D02*
X89941428Y-166717438D01*
X89941428Y-166717438D02*
X89989047Y-166765057D01*
X89989047Y-166765057D02*
X90036666Y-166860295D01*
X90036666Y-166860295D02*
X90084285Y-167050771D01*
X90084285Y-167050771D02*
X90084285Y-167288866D01*
X90084285Y-167288866D02*
X90036666Y-167479342D01*
X90036666Y-167479342D02*
X89989047Y-167574580D01*
X89989047Y-167574580D02*
X89941428Y-167622200D01*
X89941428Y-167622200D02*
X89846190Y-167669819D01*
X89846190Y-167669819D02*
X89750952Y-167669819D01*
X89750952Y-167669819D02*
X89655714Y-167622200D01*
X89655714Y-167622200D02*
X89608095Y-167574580D01*
X89608095Y-167574580D02*
X89560476Y-167479342D01*
X89560476Y-167479342D02*
X89512857Y-167288866D01*
X89512857Y-167288866D02*
X89512857Y-167050771D01*
X89512857Y-167050771D02*
X89560476Y-166860295D01*
X89560476Y-166860295D02*
X89608095Y-166765057D01*
X89608095Y-166765057D02*
X89655714Y-166717438D01*
X89655714Y-166717438D02*
X89750952Y-166669819D01*
X90703333Y-166669819D02*
X90798571Y-166669819D01*
X90798571Y-166669819D02*
X90893809Y-166717438D01*
X90893809Y-166717438D02*
X90941428Y-166765057D01*
X90941428Y-166765057D02*
X90989047Y-166860295D01*
X90989047Y-166860295D02*
X91036666Y-167050771D01*
X91036666Y-167050771D02*
X91036666Y-167288866D01*
X91036666Y-167288866D02*
X90989047Y-167479342D01*
X90989047Y-167479342D02*
X90941428Y-167574580D01*
X90941428Y-167574580D02*
X90893809Y-167622200D01*
X90893809Y-167622200D02*
X90798571Y-167669819D01*
X90798571Y-167669819D02*
X90703333Y-167669819D01*
X90703333Y-167669819D02*
X90608095Y-167622200D01*
X90608095Y-167622200D02*
X90560476Y-167574580D01*
X90560476Y-167574580D02*
X90512857Y-167479342D01*
X90512857Y-167479342D02*
X90465238Y-167288866D01*
X90465238Y-167288866D02*
X90465238Y-167050771D01*
X90465238Y-167050771D02*
X90512857Y-166860295D01*
X90512857Y-166860295D02*
X90560476Y-166765057D01*
X90560476Y-166765057D02*
X90608095Y-166717438D01*
X90608095Y-166717438D02*
X90703333Y-166669819D01*
X92227143Y-167669819D02*
X92227143Y-167003152D01*
X92227143Y-167098390D02*
X92274762Y-167050771D01*
X92274762Y-167050771D02*
X92370000Y-167003152D01*
X92370000Y-167003152D02*
X92512857Y-167003152D01*
X92512857Y-167003152D02*
X92608095Y-167050771D01*
X92608095Y-167050771D02*
X92655714Y-167146009D01*
X92655714Y-167146009D02*
X92655714Y-167669819D01*
X92655714Y-167146009D02*
X92703333Y-167050771D01*
X92703333Y-167050771D02*
X92798571Y-167003152D01*
X92798571Y-167003152D02*
X92941428Y-167003152D01*
X92941428Y-167003152D02*
X93036667Y-167050771D01*
X93036667Y-167050771D02*
X93084286Y-167146009D01*
X93084286Y-167146009D02*
X93084286Y-167669819D01*
X93560476Y-167669819D02*
X93560476Y-167003152D01*
X93560476Y-167098390D02*
X93608095Y-167050771D01*
X93608095Y-167050771D02*
X93703333Y-167003152D01*
X93703333Y-167003152D02*
X93846190Y-167003152D01*
X93846190Y-167003152D02*
X93941428Y-167050771D01*
X93941428Y-167050771D02*
X93989047Y-167146009D01*
X93989047Y-167146009D02*
X93989047Y-167669819D01*
X93989047Y-167146009D02*
X94036666Y-167050771D01*
X94036666Y-167050771D02*
X94131904Y-167003152D01*
X94131904Y-167003152D02*
X94274761Y-167003152D01*
X94274761Y-167003152D02*
X94370000Y-167050771D01*
X94370000Y-167050771D02*
X94417619Y-167146009D01*
X94417619Y-167146009D02*
X94417619Y-167669819D01*
D10*
X39370000Y-151785001D02*
X39370000Y-168951420D01*
X139370000Y-151785001D02*
X139370000Y-168951420D01*
X39370000Y-168365000D02*
X139370000Y-168365000D01*
X39370000Y-168365000D02*
X139370000Y-168365000D01*
X39370000Y-168365000D02*
X40496504Y-167778579D01*
X39370000Y-168365000D02*
X40496504Y-168951421D01*
X139370000Y-168365000D02*
X138243496Y-168951421D01*
X139370000Y-168365000D02*
X138243496Y-167778579D01*
D11*
X139984819Y-57255476D02*
X139984819Y-56636429D01*
X139984819Y-56636429D02*
X140365771Y-56969762D01*
X140365771Y-56969762D02*
X140365771Y-56826905D01*
X140365771Y-56826905D02*
X140413390Y-56731667D01*
X140413390Y-56731667D02*
X140461009Y-56684048D01*
X140461009Y-56684048D02*
X140556247Y-56636429D01*
X140556247Y-56636429D02*
X140794342Y-56636429D01*
X140794342Y-56636429D02*
X140889580Y-56684048D01*
X140889580Y-56684048D02*
X140937200Y-56731667D01*
X140937200Y-56731667D02*
X140984819Y-56826905D01*
X140984819Y-56826905D02*
X140984819Y-57112619D01*
X140984819Y-57112619D02*
X140937200Y-57207857D01*
X140937200Y-57207857D02*
X140889580Y-57255476D01*
X140889580Y-56207857D02*
X140937200Y-56160238D01*
X140937200Y-56160238D02*
X140984819Y-56207857D01*
X140984819Y-56207857D02*
X140937200Y-56255476D01*
X140937200Y-56255476D02*
X140889580Y-56207857D01*
X140889580Y-56207857D02*
X140984819Y-56207857D01*
X139984819Y-55255477D02*
X139984819Y-55731667D01*
X139984819Y-55731667D02*
X140461009Y-55779286D01*
X140461009Y-55779286D02*
X140413390Y-55731667D01*
X140413390Y-55731667D02*
X140365771Y-55636429D01*
X140365771Y-55636429D02*
X140365771Y-55398334D01*
X140365771Y-55398334D02*
X140413390Y-55303096D01*
X140413390Y-55303096D02*
X140461009Y-55255477D01*
X140461009Y-55255477D02*
X140556247Y-55207858D01*
X140556247Y-55207858D02*
X140794342Y-55207858D01*
X140794342Y-55207858D02*
X140889580Y-55255477D01*
X140889580Y-55255477D02*
X140937200Y-55303096D01*
X140937200Y-55303096D02*
X140984819Y-55398334D01*
X140984819Y-55398334D02*
X140984819Y-55636429D01*
X140984819Y-55636429D02*
X140937200Y-55731667D01*
X140937200Y-55731667D02*
X140889580Y-55779286D01*
X139984819Y-54350715D02*
X139984819Y-54541191D01*
X139984819Y-54541191D02*
X140032438Y-54636429D01*
X140032438Y-54636429D02*
X140080057Y-54684048D01*
X140080057Y-54684048D02*
X140222914Y-54779286D01*
X140222914Y-54779286D02*
X140413390Y-54826905D01*
X140413390Y-54826905D02*
X140794342Y-54826905D01*
X140794342Y-54826905D02*
X140889580Y-54779286D01*
X140889580Y-54779286D02*
X140937200Y-54731667D01*
X140937200Y-54731667D02*
X140984819Y-54636429D01*
X140984819Y-54636429D02*
X140984819Y-54445953D01*
X140984819Y-54445953D02*
X140937200Y-54350715D01*
X140937200Y-54350715D02*
X140889580Y-54303096D01*
X140889580Y-54303096D02*
X140794342Y-54255477D01*
X140794342Y-54255477D02*
X140556247Y-54255477D01*
X140556247Y-54255477D02*
X140461009Y-54303096D01*
X140461009Y-54303096D02*
X140413390Y-54350715D01*
X140413390Y-54350715D02*
X140365771Y-54445953D01*
X140365771Y-54445953D02*
X140365771Y-54636429D01*
X140365771Y-54636429D02*
X140413390Y-54731667D01*
X140413390Y-54731667D02*
X140461009Y-54779286D01*
X140461009Y-54779286D02*
X140556247Y-54826905D01*
X139984819Y-53636429D02*
X139984819Y-53541191D01*
X139984819Y-53541191D02*
X140032438Y-53445953D01*
X140032438Y-53445953D02*
X140080057Y-53398334D01*
X140080057Y-53398334D02*
X140175295Y-53350715D01*
X140175295Y-53350715D02*
X140365771Y-53303096D01*
X140365771Y-53303096D02*
X140603866Y-53303096D01*
X140603866Y-53303096D02*
X140794342Y-53350715D01*
X140794342Y-53350715D02*
X140889580Y-53398334D01*
X140889580Y-53398334D02*
X140937200Y-53445953D01*
X140937200Y-53445953D02*
X140984819Y-53541191D01*
X140984819Y-53541191D02*
X140984819Y-53636429D01*
X140984819Y-53636429D02*
X140937200Y-53731667D01*
X140937200Y-53731667D02*
X140889580Y-53779286D01*
X140889580Y-53779286D02*
X140794342Y-53826905D01*
X140794342Y-53826905D02*
X140603866Y-53874524D01*
X140603866Y-53874524D02*
X140365771Y-53874524D01*
X140365771Y-53874524D02*
X140175295Y-53826905D01*
X140175295Y-53826905D02*
X140080057Y-53779286D01*
X140080057Y-53779286D02*
X140032438Y-53731667D01*
X140032438Y-53731667D02*
X139984819Y-53636429D01*
X139984819Y-52684048D02*
X139984819Y-52588810D01*
X139984819Y-52588810D02*
X140032438Y-52493572D01*
X140032438Y-52493572D02*
X140080057Y-52445953D01*
X140080057Y-52445953D02*
X140175295Y-52398334D01*
X140175295Y-52398334D02*
X140365771Y-52350715D01*
X140365771Y-52350715D02*
X140603866Y-52350715D01*
X140603866Y-52350715D02*
X140794342Y-52398334D01*
X140794342Y-52398334D02*
X140889580Y-52445953D01*
X140889580Y-52445953D02*
X140937200Y-52493572D01*
X140937200Y-52493572D02*
X140984819Y-52588810D01*
X140984819Y-52588810D02*
X140984819Y-52684048D01*
X140984819Y-52684048D02*
X140937200Y-52779286D01*
X140937200Y-52779286D02*
X140889580Y-52826905D01*
X140889580Y-52826905D02*
X140794342Y-52874524D01*
X140794342Y-52874524D02*
X140603866Y-52922143D01*
X140603866Y-52922143D02*
X140365771Y-52922143D01*
X140365771Y-52922143D02*
X140175295Y-52874524D01*
X140175295Y-52874524D02*
X140080057Y-52826905D01*
X140080057Y-52826905D02*
X140032438Y-52779286D01*
X140032438Y-52779286D02*
X139984819Y-52684048D01*
X140984819Y-51160238D02*
X140318152Y-51160238D01*
X140413390Y-51160238D02*
X140365771Y-51112619D01*
X140365771Y-51112619D02*
X140318152Y-51017381D01*
X140318152Y-51017381D02*
X140318152Y-50874524D01*
X140318152Y-50874524D02*
X140365771Y-50779286D01*
X140365771Y-50779286D02*
X140461009Y-50731667D01*
X140461009Y-50731667D02*
X140984819Y-50731667D01*
X140461009Y-50731667D02*
X140365771Y-50684048D01*
X140365771Y-50684048D02*
X140318152Y-50588810D01*
X140318152Y-50588810D02*
X140318152Y-50445953D01*
X140318152Y-50445953D02*
X140365771Y-50350714D01*
X140365771Y-50350714D02*
X140461009Y-50303095D01*
X140461009Y-50303095D02*
X140984819Y-50303095D01*
X140984819Y-49826905D02*
X140318152Y-49826905D01*
X140413390Y-49826905D02*
X140365771Y-49779286D01*
X140365771Y-49779286D02*
X140318152Y-49684048D01*
X140318152Y-49684048D02*
X140318152Y-49541191D01*
X140318152Y-49541191D02*
X140365771Y-49445953D01*
X140365771Y-49445953D02*
X140461009Y-49398334D01*
X140461009Y-49398334D02*
X140984819Y-49398334D01*
X140461009Y-49398334D02*
X140365771Y-49350715D01*
X140365771Y-49350715D02*
X140318152Y-49255477D01*
X140318152Y-49255477D02*
X140318152Y-49112620D01*
X140318152Y-49112620D02*
X140365771Y-49017381D01*
X140365771Y-49017381D02*
X140461009Y-48969762D01*
X140461009Y-48969762D02*
X140984819Y-48969762D01*
D10*
X134320000Y-54845001D02*
X142266420Y-54845001D01*
X134320000Y-51285001D02*
X142266420Y-51285001D01*
X141680000Y-54845001D02*
X141680000Y-51285001D01*
X141680000Y-54845001D02*
X141680000Y-51285001D01*
X141680000Y-54845001D02*
X141093579Y-53718497D01*
X141680000Y-54845001D02*
X142266421Y-53718497D01*
X141680000Y-51285001D02*
X142266421Y-52411505D01*
X141680000Y-51285001D02*
X141093579Y-52411505D01*
D11*
X32834819Y-103288810D02*
X32834819Y-103860238D01*
X32834819Y-103574524D02*
X31834819Y-103574524D01*
X31834819Y-103574524D02*
X31977676Y-103669762D01*
X31977676Y-103669762D02*
X32072914Y-103765000D01*
X32072914Y-103765000D02*
X32120533Y-103860238D01*
X31834819Y-102669762D02*
X31834819Y-102574524D01*
X31834819Y-102574524D02*
X31882438Y-102479286D01*
X31882438Y-102479286D02*
X31930057Y-102431667D01*
X31930057Y-102431667D02*
X32025295Y-102384048D01*
X32025295Y-102384048D02*
X32215771Y-102336429D01*
X32215771Y-102336429D02*
X32453866Y-102336429D01*
X32453866Y-102336429D02*
X32644342Y-102384048D01*
X32644342Y-102384048D02*
X32739580Y-102431667D01*
X32739580Y-102431667D02*
X32787200Y-102479286D01*
X32787200Y-102479286D02*
X32834819Y-102574524D01*
X32834819Y-102574524D02*
X32834819Y-102669762D01*
X32834819Y-102669762D02*
X32787200Y-102765000D01*
X32787200Y-102765000D02*
X32739580Y-102812619D01*
X32739580Y-102812619D02*
X32644342Y-102860238D01*
X32644342Y-102860238D02*
X32453866Y-102907857D01*
X32453866Y-102907857D02*
X32215771Y-102907857D01*
X32215771Y-102907857D02*
X32025295Y-102860238D01*
X32025295Y-102860238D02*
X31930057Y-102812619D01*
X31930057Y-102812619D02*
X31882438Y-102765000D01*
X31882438Y-102765000D02*
X31834819Y-102669762D01*
X31834819Y-101717381D02*
X31834819Y-101622143D01*
X31834819Y-101622143D02*
X31882438Y-101526905D01*
X31882438Y-101526905D02*
X31930057Y-101479286D01*
X31930057Y-101479286D02*
X32025295Y-101431667D01*
X32025295Y-101431667D02*
X32215771Y-101384048D01*
X32215771Y-101384048D02*
X32453866Y-101384048D01*
X32453866Y-101384048D02*
X32644342Y-101431667D01*
X32644342Y-101431667D02*
X32739580Y-101479286D01*
X32739580Y-101479286D02*
X32787200Y-101526905D01*
X32787200Y-101526905D02*
X32834819Y-101622143D01*
X32834819Y-101622143D02*
X32834819Y-101717381D01*
X32834819Y-101717381D02*
X32787200Y-101812619D01*
X32787200Y-101812619D02*
X32739580Y-101860238D01*
X32739580Y-101860238D02*
X32644342Y-101907857D01*
X32644342Y-101907857D02*
X32453866Y-101955476D01*
X32453866Y-101955476D02*
X32215771Y-101955476D01*
X32215771Y-101955476D02*
X32025295Y-101907857D01*
X32025295Y-101907857D02*
X31930057Y-101860238D01*
X31930057Y-101860238D02*
X31882438Y-101812619D01*
X31882438Y-101812619D02*
X31834819Y-101717381D01*
X32739580Y-100955476D02*
X32787200Y-100907857D01*
X32787200Y-100907857D02*
X32834819Y-100955476D01*
X32834819Y-100955476D02*
X32787200Y-101003095D01*
X32787200Y-101003095D02*
X32739580Y-100955476D01*
X32739580Y-100955476D02*
X32834819Y-100955476D01*
X31834819Y-100288810D02*
X31834819Y-100193572D01*
X31834819Y-100193572D02*
X31882438Y-100098334D01*
X31882438Y-100098334D02*
X31930057Y-100050715D01*
X31930057Y-100050715D02*
X32025295Y-100003096D01*
X32025295Y-100003096D02*
X32215771Y-99955477D01*
X32215771Y-99955477D02*
X32453866Y-99955477D01*
X32453866Y-99955477D02*
X32644342Y-100003096D01*
X32644342Y-100003096D02*
X32739580Y-100050715D01*
X32739580Y-100050715D02*
X32787200Y-100098334D01*
X32787200Y-100098334D02*
X32834819Y-100193572D01*
X32834819Y-100193572D02*
X32834819Y-100288810D01*
X32834819Y-100288810D02*
X32787200Y-100384048D01*
X32787200Y-100384048D02*
X32739580Y-100431667D01*
X32739580Y-100431667D02*
X32644342Y-100479286D01*
X32644342Y-100479286D02*
X32453866Y-100526905D01*
X32453866Y-100526905D02*
X32215771Y-100526905D01*
X32215771Y-100526905D02*
X32025295Y-100479286D01*
X32025295Y-100479286D02*
X31930057Y-100431667D01*
X31930057Y-100431667D02*
X31882438Y-100384048D01*
X31882438Y-100384048D02*
X31834819Y-100288810D01*
X31834819Y-99336429D02*
X31834819Y-99241191D01*
X31834819Y-99241191D02*
X31882438Y-99145953D01*
X31882438Y-99145953D02*
X31930057Y-99098334D01*
X31930057Y-99098334D02*
X32025295Y-99050715D01*
X32025295Y-99050715D02*
X32215771Y-99003096D01*
X32215771Y-99003096D02*
X32453866Y-99003096D01*
X32453866Y-99003096D02*
X32644342Y-99050715D01*
X32644342Y-99050715D02*
X32739580Y-99098334D01*
X32739580Y-99098334D02*
X32787200Y-99145953D01*
X32787200Y-99145953D02*
X32834819Y-99241191D01*
X32834819Y-99241191D02*
X32834819Y-99336429D01*
X32834819Y-99336429D02*
X32787200Y-99431667D01*
X32787200Y-99431667D02*
X32739580Y-99479286D01*
X32739580Y-99479286D02*
X32644342Y-99526905D01*
X32644342Y-99526905D02*
X32453866Y-99574524D01*
X32453866Y-99574524D02*
X32215771Y-99574524D01*
X32215771Y-99574524D02*
X32025295Y-99526905D01*
X32025295Y-99526905D02*
X31930057Y-99479286D01*
X31930057Y-99479286D02*
X31882438Y-99431667D01*
X31882438Y-99431667D02*
X31834819Y-99336429D01*
X31834819Y-98384048D02*
X31834819Y-98288810D01*
X31834819Y-98288810D02*
X31882438Y-98193572D01*
X31882438Y-98193572D02*
X31930057Y-98145953D01*
X31930057Y-98145953D02*
X32025295Y-98098334D01*
X32025295Y-98098334D02*
X32215771Y-98050715D01*
X32215771Y-98050715D02*
X32453866Y-98050715D01*
X32453866Y-98050715D02*
X32644342Y-98098334D01*
X32644342Y-98098334D02*
X32739580Y-98145953D01*
X32739580Y-98145953D02*
X32787200Y-98193572D01*
X32787200Y-98193572D02*
X32834819Y-98288810D01*
X32834819Y-98288810D02*
X32834819Y-98384048D01*
X32834819Y-98384048D02*
X32787200Y-98479286D01*
X32787200Y-98479286D02*
X32739580Y-98526905D01*
X32739580Y-98526905D02*
X32644342Y-98574524D01*
X32644342Y-98574524D02*
X32453866Y-98622143D01*
X32453866Y-98622143D02*
X32215771Y-98622143D01*
X32215771Y-98622143D02*
X32025295Y-98574524D01*
X32025295Y-98574524D02*
X31930057Y-98526905D01*
X31930057Y-98526905D02*
X31882438Y-98479286D01*
X31882438Y-98479286D02*
X31834819Y-98384048D01*
X31834819Y-97431667D02*
X31834819Y-97336429D01*
X31834819Y-97336429D02*
X31882438Y-97241191D01*
X31882438Y-97241191D02*
X31930057Y-97193572D01*
X31930057Y-97193572D02*
X32025295Y-97145953D01*
X32025295Y-97145953D02*
X32215771Y-97098334D01*
X32215771Y-97098334D02*
X32453866Y-97098334D01*
X32453866Y-97098334D02*
X32644342Y-97145953D01*
X32644342Y-97145953D02*
X32739580Y-97193572D01*
X32739580Y-97193572D02*
X32787200Y-97241191D01*
X32787200Y-97241191D02*
X32834819Y-97336429D01*
X32834819Y-97336429D02*
X32834819Y-97431667D01*
X32834819Y-97431667D02*
X32787200Y-97526905D01*
X32787200Y-97526905D02*
X32739580Y-97574524D01*
X32739580Y-97574524D02*
X32644342Y-97622143D01*
X32644342Y-97622143D02*
X32453866Y-97669762D01*
X32453866Y-97669762D02*
X32215771Y-97669762D01*
X32215771Y-97669762D02*
X32025295Y-97622143D01*
X32025295Y-97622143D02*
X31930057Y-97574524D01*
X31930057Y-97574524D02*
X31882438Y-97526905D01*
X31882438Y-97526905D02*
X31834819Y-97431667D01*
X32834819Y-95907857D02*
X32168152Y-95907857D01*
X32263390Y-95907857D02*
X32215771Y-95860238D01*
X32215771Y-95860238D02*
X32168152Y-95765000D01*
X32168152Y-95765000D02*
X32168152Y-95622143D01*
X32168152Y-95622143D02*
X32215771Y-95526905D01*
X32215771Y-95526905D02*
X32311009Y-95479286D01*
X32311009Y-95479286D02*
X32834819Y-95479286D01*
X32311009Y-95479286D02*
X32215771Y-95431667D01*
X32215771Y-95431667D02*
X32168152Y-95336429D01*
X32168152Y-95336429D02*
X32168152Y-95193572D01*
X32168152Y-95193572D02*
X32215771Y-95098333D01*
X32215771Y-95098333D02*
X32311009Y-95050714D01*
X32311009Y-95050714D02*
X32834819Y-95050714D01*
X32834819Y-94574524D02*
X32168152Y-94574524D01*
X32263390Y-94574524D02*
X32215771Y-94526905D01*
X32215771Y-94526905D02*
X32168152Y-94431667D01*
X32168152Y-94431667D02*
X32168152Y-94288810D01*
X32168152Y-94288810D02*
X32215771Y-94193572D01*
X32215771Y-94193572D02*
X32311009Y-94145953D01*
X32311009Y-94145953D02*
X32834819Y-94145953D01*
X32311009Y-94145953D02*
X32215771Y-94098334D01*
X32215771Y-94098334D02*
X32168152Y-94003096D01*
X32168152Y-94003096D02*
X32168152Y-93860239D01*
X32168152Y-93860239D02*
X32215771Y-93765000D01*
X32215771Y-93765000D02*
X32311009Y-93717381D01*
X32311009Y-93717381D02*
X32834819Y-93717381D01*
D10*
X38870000Y-151285001D02*
X33113580Y-151285001D01*
X38870000Y-51285001D02*
X33113580Y-51285001D01*
X33700000Y-151285001D02*
X33700000Y-51285001D01*
X33700000Y-151285001D02*
X33700000Y-51285001D01*
X33700000Y-151285001D02*
X33113579Y-150158497D01*
X33700000Y-151285001D02*
X34286421Y-150158497D01*
X33700000Y-51285001D02*
X34286421Y-52411505D01*
X33700000Y-51285001D02*
X33113579Y-52411505D01*
D11*
X132957045Y-44349459D02*
X132480855Y-44350317D01*
X132480855Y-44350317D02*
X132434094Y-44826593D01*
X132434094Y-44826593D02*
X132481627Y-44778888D01*
X132481627Y-44778888D02*
X132576779Y-44731097D01*
X132576779Y-44731097D02*
X132814874Y-44730668D01*
X132814874Y-44730668D02*
X132910198Y-44778116D01*
X132910198Y-44778116D02*
X132957903Y-44825649D01*
X132957903Y-44825649D02*
X133005693Y-44920801D01*
X133005693Y-44920801D02*
X133006122Y-45158896D01*
X133006122Y-45158896D02*
X132958675Y-45254220D01*
X132958675Y-45254220D02*
X132911142Y-45301924D01*
X132911142Y-45301924D02*
X132815990Y-45349715D01*
X132815990Y-45349715D02*
X132577895Y-45350144D01*
X132577895Y-45350144D02*
X132482571Y-45302697D01*
X132482571Y-45302697D02*
X132434866Y-45255163D01*
X133434865Y-45253362D02*
X133482570Y-45300895D01*
X133482570Y-45300895D02*
X133435036Y-45348600D01*
X133435036Y-45348600D02*
X133387332Y-45301066D01*
X133387332Y-45301066D02*
X133434865Y-45253362D01*
X133434865Y-45253362D02*
X133435036Y-45348600D01*
X134385613Y-44346885D02*
X133909424Y-44347743D01*
X133909424Y-44347743D02*
X133862663Y-44824019D01*
X133862663Y-44824019D02*
X133910196Y-44776314D01*
X133910196Y-44776314D02*
X134005348Y-44728523D01*
X134005348Y-44728523D02*
X134243443Y-44728094D01*
X134243443Y-44728094D02*
X134338767Y-44775542D01*
X134338767Y-44775542D02*
X134386471Y-44823075D01*
X134386471Y-44823075D02*
X134434262Y-44918227D01*
X134434262Y-44918227D02*
X134434691Y-45156322D01*
X134434691Y-45156322D02*
X134387244Y-45251646D01*
X134387244Y-45251646D02*
X134339710Y-45299350D01*
X134339710Y-45299350D02*
X134244558Y-45347141D01*
X134244558Y-45347141D02*
X134006463Y-45347570D01*
X134006463Y-45347570D02*
X133911140Y-45300123D01*
X133911140Y-45300123D02*
X133863435Y-45252589D01*
X135337993Y-44345169D02*
X134861803Y-44346027D01*
X134861803Y-44346027D02*
X134815042Y-44822303D01*
X134815042Y-44822303D02*
X134862575Y-44774598D01*
X134862575Y-44774598D02*
X134957728Y-44726807D01*
X134957728Y-44726807D02*
X135195822Y-44726378D01*
X135195822Y-44726378D02*
X135291146Y-44773826D01*
X135291146Y-44773826D02*
X135338851Y-44821359D01*
X135338851Y-44821359D02*
X135386641Y-44916511D01*
X135386641Y-44916511D02*
X135387070Y-45154606D01*
X135387070Y-45154606D02*
X135339623Y-45249930D01*
X135339623Y-45249930D02*
X135292090Y-45297634D01*
X135292090Y-45297634D02*
X135196938Y-45345425D01*
X135196938Y-45345425D02*
X134958843Y-45345854D01*
X134958843Y-45345854D02*
X134863519Y-45298407D01*
X134863519Y-45298407D02*
X134815814Y-45250873D01*
X136004659Y-44343968D02*
X136099896Y-44343796D01*
X136099896Y-44343796D02*
X136195220Y-44391244D01*
X136195220Y-44391244D02*
X136242925Y-44438777D01*
X136242925Y-44438777D02*
X136290716Y-44533929D01*
X136290716Y-44533929D02*
X136338678Y-44724319D01*
X136338678Y-44724319D02*
X136339107Y-44962414D01*
X136339107Y-44962414D02*
X136291831Y-45152976D01*
X136291831Y-45152976D02*
X136244384Y-45248299D01*
X136244384Y-45248299D02*
X136196850Y-45296004D01*
X136196850Y-45296004D02*
X136101698Y-45343795D01*
X136101698Y-45343795D02*
X136006460Y-45343966D01*
X136006460Y-45343966D02*
X135911137Y-45296519D01*
X135911137Y-45296519D02*
X135863432Y-45248986D01*
X135863432Y-45248986D02*
X135815641Y-45153834D01*
X135815641Y-45153834D02*
X135767679Y-44963444D01*
X135767679Y-44963444D02*
X135767250Y-44725349D01*
X135767250Y-44725349D02*
X135814526Y-44534787D01*
X135814526Y-44534787D02*
X135861973Y-44439463D01*
X135861973Y-44439463D02*
X135909506Y-44391759D01*
X135909506Y-44391759D02*
X136004659Y-44343968D01*
X136957038Y-44342252D02*
X137052276Y-44342080D01*
X137052276Y-44342080D02*
X137147600Y-44389528D01*
X137147600Y-44389528D02*
X137195304Y-44437061D01*
X137195304Y-44437061D02*
X137243095Y-44532213D01*
X137243095Y-44532213D02*
X137291057Y-44722603D01*
X137291057Y-44722603D02*
X137291486Y-44960698D01*
X137291486Y-44960698D02*
X137244210Y-45151260D01*
X137244210Y-45151260D02*
X137196763Y-45246583D01*
X137196763Y-45246583D02*
X137149230Y-45294288D01*
X137149230Y-45294288D02*
X137054078Y-45342079D01*
X137054078Y-45342079D02*
X136958840Y-45342250D01*
X136958840Y-45342250D02*
X136863516Y-45294803D01*
X136863516Y-45294803D02*
X136815811Y-45247270D01*
X136815811Y-45247270D02*
X136768021Y-45152118D01*
X136768021Y-45152118D02*
X136720059Y-44961728D01*
X136720059Y-44961728D02*
X136719630Y-44723633D01*
X136719630Y-44723633D02*
X136766905Y-44533071D01*
X136766905Y-44533071D02*
X136814353Y-44437747D01*
X136814353Y-44437747D02*
X136861886Y-44390043D01*
X136861886Y-44390043D02*
X136957038Y-44342252D01*
X138482647Y-45339505D02*
X138481446Y-44672839D01*
X138481618Y-44768077D02*
X138529151Y-44720372D01*
X138529151Y-44720372D02*
X138624303Y-44672582D01*
X138624303Y-44672582D02*
X138767160Y-44672324D01*
X138767160Y-44672324D02*
X138862484Y-44719772D01*
X138862484Y-44719772D02*
X138910274Y-44814924D01*
X138910274Y-44814924D02*
X138911218Y-45338733D01*
X138910274Y-44814924D02*
X138957721Y-44719600D01*
X138957721Y-44719600D02*
X139052874Y-44671810D01*
X139052874Y-44671810D02*
X139195730Y-44671552D01*
X139195730Y-44671552D02*
X139291054Y-44719000D01*
X139291054Y-44719000D02*
X139338845Y-44814152D01*
X139338845Y-44814152D02*
X139339789Y-45337960D01*
X139815978Y-45337102D02*
X139814777Y-44670437D01*
X139814948Y-44765675D02*
X139862482Y-44717970D01*
X139862482Y-44717970D02*
X139957634Y-44670179D01*
X139957634Y-44670179D02*
X140100491Y-44669922D01*
X140100491Y-44669922D02*
X140195814Y-44717369D01*
X140195814Y-44717369D02*
X140243605Y-44812522D01*
X140243605Y-44812522D02*
X140244549Y-45336330D01*
X140243605Y-44812522D02*
X140291052Y-44717198D01*
X140291052Y-44717198D02*
X140386204Y-44669407D01*
X140386204Y-44669407D02*
X140529061Y-44669150D01*
X140529061Y-44669150D02*
X140624385Y-44716597D01*
X140624385Y-44716597D02*
X140672176Y-44811749D01*
X140672176Y-44811749D02*
X140673119Y-45335558D01*
D10*
X133819099Y-54345002D02*
X133803084Y-45456698D01*
X139369099Y-54335002D02*
X139353084Y-45446698D01*
X133804141Y-46043117D02*
X139354141Y-46033117D01*
X133804141Y-46043117D02*
X139354141Y-46033117D01*
X133804141Y-46043117D02*
X134929586Y-45454667D01*
X133804141Y-46043117D02*
X134931700Y-46627507D01*
X139354141Y-46033117D02*
X138228696Y-46621567D01*
X139354141Y-46033117D02*
X138226582Y-45448727D01*
X86753335Y-153226966D02*
X86853335Y-153260300D01*
X86853335Y-153260300D02*
X86886668Y-153293633D01*
X86886668Y-153293633D02*
X86920001Y-153360300D01*
X86920001Y-153360300D02*
X86920001Y-153460300D01*
X86920001Y-153460300D02*
X86886668Y-153526966D01*
X86886668Y-153526966D02*
X86853335Y-153560300D01*
X86853335Y-153560300D02*
X86786668Y-153593633D01*
X86786668Y-153593633D02*
X86520001Y-153593633D01*
X86520001Y-153593633D02*
X86520001Y-152893633D01*
X86520001Y-152893633D02*
X86753335Y-152893633D01*
X86753335Y-152893633D02*
X86820001Y-152926966D01*
X86820001Y-152926966D02*
X86853335Y-152960300D01*
X86853335Y-152960300D02*
X86886668Y-153026966D01*
X86886668Y-153026966D02*
X86886668Y-153093633D01*
X86886668Y-153093633D02*
X86853335Y-153160300D01*
X86853335Y-153160300D02*
X86820001Y-153193633D01*
X86820001Y-153193633D02*
X86753335Y-153226966D01*
X86753335Y-153226966D02*
X86520001Y-153226966D01*
X87320001Y-153593633D02*
X87253335Y-153560300D01*
X87253335Y-153560300D02*
X87220001Y-153526966D01*
X87220001Y-153526966D02*
X87186668Y-153460300D01*
X87186668Y-153460300D02*
X87186668Y-153260300D01*
X87186668Y-153260300D02*
X87220001Y-153193633D01*
X87220001Y-153193633D02*
X87253335Y-153160300D01*
X87253335Y-153160300D02*
X87320001Y-153126966D01*
X87320001Y-153126966D02*
X87420001Y-153126966D01*
X87420001Y-153126966D02*
X87486668Y-153160300D01*
X87486668Y-153160300D02*
X87520001Y-153193633D01*
X87520001Y-153193633D02*
X87553335Y-153260300D01*
X87553335Y-153260300D02*
X87553335Y-153460300D01*
X87553335Y-153460300D02*
X87520001Y-153526966D01*
X87520001Y-153526966D02*
X87486668Y-153560300D01*
X87486668Y-153560300D02*
X87420001Y-153593633D01*
X87420001Y-153593633D02*
X87320001Y-153593633D01*
X88153334Y-153593633D02*
X88153334Y-153226966D01*
X88153334Y-153226966D02*
X88120001Y-153160300D01*
X88120001Y-153160300D02*
X88053334Y-153126966D01*
X88053334Y-153126966D02*
X87920001Y-153126966D01*
X87920001Y-153126966D02*
X87853334Y-153160300D01*
X88153334Y-153560300D02*
X88086668Y-153593633D01*
X88086668Y-153593633D02*
X87920001Y-153593633D01*
X87920001Y-153593633D02*
X87853334Y-153560300D01*
X87853334Y-153560300D02*
X87820001Y-153493633D01*
X87820001Y-153493633D02*
X87820001Y-153426966D01*
X87820001Y-153426966D02*
X87853334Y-153360300D01*
X87853334Y-153360300D02*
X87920001Y-153326966D01*
X87920001Y-153326966D02*
X88086668Y-153326966D01*
X88086668Y-153326966D02*
X88153334Y-153293633D01*
X88486667Y-153593633D02*
X88486667Y-153126966D01*
X88486667Y-153260300D02*
X88520001Y-153193633D01*
X88520001Y-153193633D02*
X88553334Y-153160300D01*
X88553334Y-153160300D02*
X88620001Y-153126966D01*
X88620001Y-153126966D02*
X88686667Y-153126966D01*
X89220000Y-153593633D02*
X89220000Y-152893633D01*
X89220000Y-153560300D02*
X89153334Y-153593633D01*
X89153334Y-153593633D02*
X89020000Y-153593633D01*
X89020000Y-153593633D02*
X88953334Y-153560300D01*
X88953334Y-153560300D02*
X88920000Y-153526966D01*
X88920000Y-153526966D02*
X88886667Y-153460300D01*
X88886667Y-153460300D02*
X88886667Y-153260300D01*
X88886667Y-153260300D02*
X88920000Y-153193633D01*
X88920000Y-153193633D02*
X88953334Y-153160300D01*
X88953334Y-153160300D02*
X89020000Y-153126966D01*
X89020000Y-153126966D02*
X89153334Y-153126966D01*
X89153334Y-153126966D02*
X89220000Y-153160300D01*
X90353333Y-153560300D02*
X90286666Y-153593633D01*
X90286666Y-153593633D02*
X90153333Y-153593633D01*
X90153333Y-153593633D02*
X90086666Y-153560300D01*
X90086666Y-153560300D02*
X90053333Y-153493633D01*
X90053333Y-153493633D02*
X90053333Y-153226966D01*
X90053333Y-153226966D02*
X90086666Y-153160300D01*
X90086666Y-153160300D02*
X90153333Y-153126966D01*
X90153333Y-153126966D02*
X90286666Y-153126966D01*
X90286666Y-153126966D02*
X90353333Y-153160300D01*
X90353333Y-153160300D02*
X90386666Y-153226966D01*
X90386666Y-153226966D02*
X90386666Y-153293633D01*
X90386666Y-153293633D02*
X90053333Y-153360300D01*
X90986666Y-153593633D02*
X90986666Y-152893633D01*
X90986666Y-153560300D02*
X90920000Y-153593633D01*
X90920000Y-153593633D02*
X90786666Y-153593633D01*
X90786666Y-153593633D02*
X90720000Y-153560300D01*
X90720000Y-153560300D02*
X90686666Y-153526966D01*
X90686666Y-153526966D02*
X90653333Y-153460300D01*
X90653333Y-153460300D02*
X90653333Y-153260300D01*
X90653333Y-153260300D02*
X90686666Y-153193633D01*
X90686666Y-153193633D02*
X90720000Y-153160300D01*
X90720000Y-153160300D02*
X90786666Y-153126966D01*
X90786666Y-153126966D02*
X90920000Y-153126966D01*
X90920000Y-153126966D02*
X90986666Y-153160300D01*
X91619999Y-153126966D02*
X91619999Y-153693633D01*
X91619999Y-153693633D02*
X91586666Y-153760300D01*
X91586666Y-153760300D02*
X91553333Y-153793633D01*
X91553333Y-153793633D02*
X91486666Y-153826966D01*
X91486666Y-153826966D02*
X91386666Y-153826966D01*
X91386666Y-153826966D02*
X91319999Y-153793633D01*
X91619999Y-153560300D02*
X91553333Y-153593633D01*
X91553333Y-153593633D02*
X91419999Y-153593633D01*
X91419999Y-153593633D02*
X91353333Y-153560300D01*
X91353333Y-153560300D02*
X91319999Y-153526966D01*
X91319999Y-153526966D02*
X91286666Y-153460300D01*
X91286666Y-153460300D02*
X91286666Y-153260300D01*
X91286666Y-153260300D02*
X91319999Y-153193633D01*
X91319999Y-153193633D02*
X91353333Y-153160300D01*
X91353333Y-153160300D02*
X91419999Y-153126966D01*
X91419999Y-153126966D02*
X91553333Y-153126966D01*
X91553333Y-153126966D02*
X91619999Y-153160300D01*
X92219999Y-153560300D02*
X92153332Y-153593633D01*
X92153332Y-153593633D02*
X92019999Y-153593633D01*
X92019999Y-153593633D02*
X91953332Y-153560300D01*
X91953332Y-153560300D02*
X91919999Y-153493633D01*
X91919999Y-153493633D02*
X91919999Y-153226966D01*
X91919999Y-153226966D02*
X91953332Y-153160300D01*
X91953332Y-153160300D02*
X92019999Y-153126966D01*
X92019999Y-153126966D02*
X92153332Y-153126966D01*
X92153332Y-153126966D02*
X92219999Y-153160300D01*
X92219999Y-153160300D02*
X92253332Y-153226966D01*
X92253332Y-153226966D02*
X92253332Y-153293633D01*
X92253332Y-153293633D02*
X91919999Y-153360300D01*
%TO.C,J200*%
X89370000Y-151375000D02*
X89170000Y-151875000D01*
X89370000Y-151375000D02*
X89370000Y-152675000D01*
X89570000Y-151875000D02*
X89370000Y-151375000D01*
%TD*%
M02*
