%TF.GenerationSoftware,KiCad,Pcbnew,8.0.9-8.0.9-0~ubuntu24.04.1*%
%TF.CreationDate,2025-02-19T21:33:28+00:00*%
%TF.ProjectId,base-module,62617365-2d6d-46f6-9475-6c652e6b6963,1.0.0*%
%TF.SameCoordinates,Original*%
%TF.FileFunction,Legend,Bot*%
%TF.FilePolarity,Positive*%
%FSLAX46Y46*%
G04 Gerber Fmt 4.6, Leading zero omitted, Abs format (unit mm)*
G04 Created by KiCad (PCBNEW 8.0.9-8.0.9-0~ubuntu24.04.1) date 2025-02-19 21:33:28*
%MOMM*%
%LPD*%
G01*
G04 APERTURE LIST*
%ADD10C,0.100000*%
%ADD11C,0.200000*%
%ADD12C,0.400000*%
%ADD13C,0.000000*%
%ADD14C,0.120000*%
%ADD15C,0.010000*%
G04 APERTURE END LIST*
D10*
X110673167Y-122082759D02*
X109403167Y-122082759D01*
X111431119Y-124475403D02*
G75*
G02*
X111243977Y-124475403I-93571J0D01*
G01*
X111243977Y-124475403D02*
G75*
G02*
X111431119Y-124475403I93571J0D01*
G01*
X105720167Y-121574759D02*
X105339167Y-122336759D01*
X104069167Y-121594858D02*
X104829887Y-123584610D01*
X101223250Y-114237001D02*
X103763250Y-120841001D01*
X110419167Y-121574759D02*
X110673167Y-122082759D01*
X107371167Y-121574759D02*
X108133167Y-123098759D01*
X109911167Y-123098759D02*
X111181167Y-123098759D01*
X114302033Y-122089869D02*
X112959167Y-122082759D01*
D11*
X121445151Y-114097059D02*
G75*
G02*
X120541969Y-114452681I-880051J910359D01*
G01*
D10*
X113467835Y-123100168D02*
X114739629Y-123098118D01*
X114036777Y-121574883D02*
X114302033Y-122089869D01*
X110766738Y-122082759D02*
G75*
G02*
X110579596Y-122082759I-93571J0D01*
G01*
X110579596Y-122082759D02*
G75*
G02*
X110766738Y-122082759I93571J0D01*
G01*
X107752167Y-122336759D02*
X106635880Y-122336759D01*
X104059878Y-121576282D02*
X114036777Y-121574883D01*
X115247629Y-123953689D02*
G75*
G02*
X115060487Y-123953689I-93571J0D01*
G01*
X115060487Y-123953689D02*
G75*
G02*
X115247629Y-123953689I93571J0D01*
G01*
X108133167Y-121574759D02*
X108895167Y-123098759D01*
X115870000Y-107385001D02*
X116870000Y-106385001D01*
X102810750Y-117285001D02*
X111129250Y-117285001D01*
X108843250Y-120841001D02*
X110113250Y-120841001D01*
X112959167Y-122082759D02*
X113467835Y-123100168D01*
D11*
X121464552Y-117306878D02*
G75*
G02*
X122568255Y-117273806I578348J-867722D01*
G01*
D10*
X111595596Y-123954330D02*
X111181167Y-123098759D01*
D11*
X122553110Y-117273028D02*
G75*
G02*
X123656836Y-117306079I525390J-900572D01*
G01*
X122553110Y-117273028D02*
X122570000Y-114085001D01*
X121434629Y-114097246D02*
G75*
G02*
X122538346Y-114064148I578371J-867554D01*
G01*
D10*
X109097250Y-120841001D02*
X108843250Y-120333001D01*
D11*
X124534310Y-117654027D02*
X124544936Y-114470564D01*
D10*
X101109026Y-106391940D02*
X116909025Y-106391940D01*
X116909025Y-113391940D01*
X101109026Y-113391940D01*
X101109026Y-106391940D01*
X112145250Y-120841001D02*
X111764250Y-120841001D01*
X108641167Y-123606759D02*
X108387167Y-124114759D01*
X112186119Y-118561051D02*
X111691028Y-118558852D01*
X112907250Y-120841001D02*
X112653250Y-120333001D01*
X102109026Y-107391940D02*
X101109026Y-106391940D01*
X107573250Y-120841001D02*
X107319250Y-120333001D01*
X111383250Y-120841001D02*
X111129250Y-120333001D01*
X111689167Y-123098759D02*
X112705167Y-123098759D01*
X112145250Y-120841001D02*
X113415250Y-120841001D01*
D11*
X124544936Y-114470564D02*
G75*
G02*
X123646333Y-114111467I-10436J1277764D01*
G01*
D10*
X115154058Y-123953689D02*
X114739629Y-123098118D01*
X108133167Y-123098759D02*
X106482167Y-123098759D01*
D11*
X121476113Y-117307766D02*
G75*
G02*
X120529419Y-117662263I-880913J911166D01*
G01*
D10*
X111591548Y-123967403D02*
X111337548Y-124475403D01*
D11*
X122570000Y-114085001D02*
G75*
G02*
X123646321Y-114111473I516700J-885799D01*
G01*
D10*
X104525250Y-120841001D02*
X104271250Y-120333001D01*
X113669250Y-120841001D02*
X114036777Y-121574883D01*
X102227663Y-116003414D02*
X102722754Y-116005613D01*
X105287250Y-120841001D02*
X105033250Y-120333001D01*
X104829887Y-123584610D02*
X105591887Y-123838610D01*
X104059878Y-121576282D02*
X103763250Y-120841001D01*
X102109585Y-112391381D02*
X101109026Y-113391940D01*
X107065250Y-120841001D02*
X105795250Y-120841001D01*
X112324167Y-122082759D02*
X111181167Y-122082759D01*
X110621250Y-120841001D02*
X110367250Y-120333001D01*
X105339167Y-122336759D02*
X104069167Y-121594858D01*
X108589250Y-120841001D02*
X107065250Y-120841001D01*
X115870000Y-112385001D02*
X116870000Y-113385001D01*
X108988738Y-125130759D02*
G75*
G02*
X108801596Y-125130759I-93571J0D01*
G01*
X108801596Y-125130759D02*
G75*
G02*
X108988738Y-125130759I93571J0D01*
G01*
D11*
X120529418Y-117662875D02*
X120541970Y-114452649D01*
D10*
X106193458Y-124600610D02*
G75*
G02*
X106006316Y-124600610I-93571J0D01*
G01*
X106006316Y-124600610D02*
G75*
G02*
X106193458Y-124600610I93571J0D01*
G01*
X112145250Y-120841001D02*
X111891250Y-120333001D01*
X112070167Y-121574759D02*
X112324167Y-122082759D01*
X109403167Y-122082759D02*
X109909373Y-123100809D01*
X109859250Y-120841001D02*
X109605250Y-120333001D01*
X108895167Y-123098759D02*
X109149167Y-123606759D01*
X113669250Y-120841001D02*
X110875250Y-114237001D01*
X108843250Y-120841001D02*
X108589250Y-120841001D01*
X109149167Y-123606759D02*
X108641167Y-123606759D01*
X106729451Y-122336759D02*
G75*
G02*
X106542309Y-122336759I-93571J0D01*
G01*
X106542309Y-122336759D02*
G75*
G02*
X106729451Y-122336759I93571J0D01*
G01*
X108387167Y-124114759D02*
X108895167Y-125130759D01*
X108335250Y-120841001D02*
X108081250Y-120333001D01*
X106049250Y-120841001D02*
X105795250Y-120333001D01*
X106811250Y-120841001D02*
X106557250Y-120333001D01*
X111181167Y-123098759D02*
X111689167Y-123098759D01*
X111181167Y-122082759D02*
X111687373Y-123100809D01*
X105591887Y-123838610D02*
X106099887Y-124600610D01*
X110875250Y-114237001D02*
X101223250Y-114237001D01*
X102227663Y-116003414D02*
X102747250Y-117285001D01*
X110927167Y-121574759D02*
X111181167Y-122082759D01*
X112186119Y-118561051D02*
X111666532Y-117279464D01*
X105720167Y-121574759D02*
X106482167Y-123098759D01*
X111129250Y-117285001D02*
X111666532Y-117279464D01*
D11*
X124534310Y-117654027D02*
G75*
G02*
X123651633Y-117300399I-8010J1258427D01*
G01*
D10*
X103763250Y-120841001D02*
X113669250Y-120841001D01*
D11*
G36*
X109954905Y-118672160D02*
G01*
X109454695Y-118829941D01*
X109500964Y-118925741D01*
X109551721Y-119014388D01*
X109606966Y-119095883D01*
X109675598Y-119180261D01*
X109702846Y-119209495D01*
X109778897Y-119280813D01*
X109860016Y-119342851D01*
X109946204Y-119395608D01*
X110037459Y-119439083D01*
X110135858Y-119472849D01*
X110243966Y-119496968D01*
X110346525Y-119510158D01*
X110456517Y-119515962D01*
X110489308Y-119516264D01*
X110604850Y-119512949D01*
X110710775Y-119503006D01*
X110807083Y-119486434D01*
X110907288Y-119458721D01*
X110994402Y-119421986D01*
X111081109Y-119365657D01*
X111157068Y-119291438D01*
X111214717Y-119211820D01*
X111264138Y-119118505D01*
X111276747Y-119089327D01*
X111307401Y-118995263D01*
X111325725Y-118891857D01*
X111331719Y-118779108D01*
X111327294Y-118678015D01*
X111314307Y-118570433D01*
X111297752Y-118479697D01*
X111268786Y-118359568D01*
X111233180Y-118246598D01*
X111190934Y-118140787D01*
X111142047Y-118042136D01*
X111086520Y-117950644D01*
X111024353Y-117866312D01*
X110955545Y-117789138D01*
X110880097Y-117719125D01*
X110798703Y-117656728D01*
X110712302Y-117602651D01*
X110620894Y-117556894D01*
X110524479Y-117519456D01*
X110423057Y-117490338D01*
X110316628Y-117469539D01*
X110205193Y-117457060D01*
X110088750Y-117452900D01*
X109977104Y-117456669D01*
X109874808Y-117467974D01*
X109764395Y-117491490D01*
X109667446Y-117525860D01*
X109571356Y-117579675D01*
X109535784Y-117607261D01*
X109463583Y-117682719D01*
X109405126Y-117774024D01*
X109365959Y-117864900D01*
X109336890Y-117967419D01*
X109317919Y-118081581D01*
X109880166Y-118203214D01*
X109898249Y-118104359D01*
X109911918Y-118069369D01*
X109972195Y-117990499D01*
X110014012Y-117960437D01*
X110106366Y-117927273D01*
X110171304Y-117921846D01*
X110270986Y-117932257D01*
X110373858Y-117968858D01*
X110457061Y-118023515D01*
X110523502Y-118088420D01*
X110580290Y-118169104D01*
X110623697Y-118259574D01*
X110656218Y-118353210D01*
X110683643Y-118460356D01*
X110687145Y-118476766D01*
X110704905Y-118574022D01*
X110717087Y-118677474D01*
X110718709Y-118779892D01*
X110700875Y-118882653D01*
X110681283Y-118925684D01*
X110610689Y-118999804D01*
X110519788Y-119037696D01*
X110426782Y-119047317D01*
X110323876Y-119037967D01*
X110225445Y-119006084D01*
X110142483Y-118951574D01*
X110070951Y-118875140D01*
X110012332Y-118787824D01*
X109964797Y-118694718D01*
X109954905Y-118672160D01*
G37*
G36*
X108354397Y-117986420D02*
G01*
X108454643Y-117994486D01*
X108559790Y-118010262D01*
X108593297Y-118017078D01*
X108691020Y-118043974D01*
X108782539Y-118084024D01*
X108818548Y-118105075D01*
X108902014Y-118165391D01*
X108975491Y-118239362D01*
X109020657Y-118301720D01*
X109071581Y-118393678D01*
X109111290Y-118484582D01*
X108601799Y-118547108D01*
X108560606Y-118479376D01*
X108487982Y-118407401D01*
X108473009Y-118398846D01*
X108376181Y-118367430D01*
X108276468Y-118359529D01*
X108228474Y-118362155D01*
X108138715Y-118401539D01*
X108121072Y-118445595D01*
X108127480Y-118547108D01*
X108141224Y-118551995D01*
X108234336Y-118582890D01*
X108334109Y-118611100D01*
X108340343Y-118612662D01*
X108437813Y-118634570D01*
X108541983Y-118655941D01*
X108638503Y-118674975D01*
X108750788Y-118696585D01*
X108860679Y-118721121D01*
X108956125Y-118750707D01*
X109047518Y-118790702D01*
X109135226Y-118849969D01*
X109205620Y-118927526D01*
X109256273Y-119018474D01*
X109285191Y-119112774D01*
X109293196Y-119214288D01*
X109269713Y-119313611D01*
X109212407Y-119400004D01*
X109149178Y-119450868D01*
X109055931Y-119490718D01*
X108953387Y-119510700D01*
X108848485Y-119516264D01*
X108801033Y-119515317D01*
X108698229Y-119506267D01*
X108600912Y-119487634D01*
X108499217Y-119455691D01*
X108418009Y-119417023D01*
X108333567Y-119364156D01*
X108253998Y-119303772D01*
X108254486Y-119398050D01*
X108232016Y-119485001D01*
X107719106Y-119485001D01*
X107730715Y-119436207D01*
X107743530Y-119335035D01*
X107739158Y-119270206D01*
X107722525Y-119172858D01*
X107650898Y-118828476D01*
X108186098Y-118828476D01*
X108202707Y-118909076D01*
X108221002Y-118975136D01*
X108267675Y-119062949D01*
X108315133Y-119110874D01*
X108400055Y-119162600D01*
X108476978Y-119190650D01*
X108578352Y-119203633D01*
X108609373Y-119202310D01*
X108702916Y-119166019D01*
X108705188Y-119163617D01*
X108727829Y-119068322D01*
X108723268Y-119052263D01*
X108662372Y-118975021D01*
X108628544Y-118955146D01*
X108532320Y-118919924D01*
X108434737Y-118894421D01*
X108386852Y-118883322D01*
X108285105Y-118857269D01*
X108186098Y-118828476D01*
X107650898Y-118828476D01*
X107587703Y-118524638D01*
X107584008Y-118505130D01*
X107575579Y-118404888D01*
X107582818Y-118307261D01*
X107605111Y-118217248D01*
X107656580Y-118130918D01*
X107694667Y-118094540D01*
X107781525Y-118042609D01*
X107880306Y-118012705D01*
X107958311Y-118000309D01*
X108061467Y-117990598D01*
X108166850Y-117985728D01*
X108269629Y-117984372D01*
X108354397Y-117986420D01*
G37*
G36*
X107118757Y-118015636D02*
G01*
X106606335Y-118015636D01*
X106656649Y-118257924D01*
X106598024Y-118177725D01*
X106529834Y-118100693D01*
X106459790Y-118042991D01*
X106369136Y-118000916D01*
X106267534Y-117984601D01*
X106253160Y-117984372D01*
X106153918Y-117996868D01*
X106060163Y-118030585D01*
X106004521Y-118060088D01*
X106257068Y-118463577D01*
X106350696Y-118428908D01*
X106401660Y-118422056D01*
X106502044Y-118444892D01*
X106582400Y-118507782D01*
X106587284Y-118513402D01*
X106646919Y-118603129D01*
X106689134Y-118697439D01*
X106722416Y-118795356D01*
X106753018Y-118909038D01*
X106771932Y-118993584D01*
X106874025Y-119485001D01*
X107424060Y-119485001D01*
X107118757Y-118015636D01*
G37*
G36*
X104888820Y-118142153D02*
G01*
X104961116Y-118073033D01*
X105049043Y-118023940D01*
X105073482Y-118014666D01*
X105174104Y-117990903D01*
X105272769Y-117984372D01*
X105369135Y-117991173D01*
X105476959Y-118016298D01*
X105579828Y-118059935D01*
X105664058Y-118112073D01*
X105744647Y-118177813D01*
X105807007Y-118242296D01*
X105873182Y-118330727D01*
X105929911Y-118431214D01*
X105969970Y-118524162D01*
X106003470Y-118625483D01*
X106030411Y-118735175D01*
X106038217Y-118775519D01*
X106051772Y-118873023D01*
X106056798Y-118983699D01*
X106049562Y-119087472D01*
X106030065Y-119184341D01*
X105991820Y-119288629D01*
X105954022Y-119354208D01*
X105885918Y-119427344D01*
X105800096Y-119478695D01*
X105696556Y-119508261D01*
X105593704Y-119516264D01*
X105522111Y-119512630D01*
X105418269Y-119493557D01*
X105318687Y-119458134D01*
X105246971Y-119418212D01*
X105166827Y-119358895D01*
X105086656Y-119288141D01*
X105127689Y-119485001D01*
X104615756Y-119485001D01*
X104440102Y-118640543D01*
X104993720Y-118640543D01*
X105008987Y-118741037D01*
X105014721Y-118767135D01*
X105041206Y-118862252D01*
X105082298Y-118960283D01*
X105143321Y-119047317D01*
X105154554Y-119058675D01*
X105236499Y-119117659D01*
X105337250Y-119141107D01*
X105413345Y-119123342D01*
X105482330Y-119048294D01*
X105505067Y-118963275D01*
X105504065Y-118858909D01*
X105487703Y-118754714D01*
X105481996Y-118728510D01*
X105456152Y-118633270D01*
X105417063Y-118535774D01*
X105360208Y-118450388D01*
X105279322Y-118385172D01*
X105181423Y-118359529D01*
X105091857Y-118380352D01*
X105020711Y-118454296D01*
X104994790Y-118538811D01*
X104993720Y-118640543D01*
X104440102Y-118640543D01*
X104199566Y-117484163D01*
X104752044Y-117484163D01*
X104888820Y-118142153D01*
G37*
D10*
X114490855Y-112660263D02*
X114109902Y-112660263D01*
X114567045Y-112888835D02*
X114300378Y-112088835D01*
X114300378Y-112088835D02*
X114033712Y-112888835D01*
X113805141Y-112850740D02*
X113690855Y-112888835D01*
X113690855Y-112888835D02*
X113500379Y-112888835D01*
X113500379Y-112888835D02*
X113424188Y-112850740D01*
X113424188Y-112850740D02*
X113386093Y-112812644D01*
X113386093Y-112812644D02*
X113347998Y-112736454D01*
X113347998Y-112736454D02*
X113347998Y-112660263D01*
X113347998Y-112660263D02*
X113386093Y-112584073D01*
X113386093Y-112584073D02*
X113424188Y-112545978D01*
X113424188Y-112545978D02*
X113500379Y-112507882D01*
X113500379Y-112507882D02*
X113652760Y-112469787D01*
X113652760Y-112469787D02*
X113728950Y-112431692D01*
X113728950Y-112431692D02*
X113767045Y-112393597D01*
X113767045Y-112393597D02*
X113805141Y-112317406D01*
X113805141Y-112317406D02*
X113805141Y-112241216D01*
X113805141Y-112241216D02*
X113767045Y-112165025D01*
X113767045Y-112165025D02*
X113728950Y-112126930D01*
X113728950Y-112126930D02*
X113652760Y-112088835D01*
X113652760Y-112088835D02*
X113462283Y-112088835D01*
X113462283Y-112088835D02*
X113347998Y-112126930D01*
X113043236Y-112850740D02*
X112928950Y-112888835D01*
X112928950Y-112888835D02*
X112738474Y-112888835D01*
X112738474Y-112888835D02*
X112662283Y-112850740D01*
X112662283Y-112850740D02*
X112624188Y-112812644D01*
X112624188Y-112812644D02*
X112586093Y-112736454D01*
X112586093Y-112736454D02*
X112586093Y-112660263D01*
X112586093Y-112660263D02*
X112624188Y-112584073D01*
X112624188Y-112584073D02*
X112662283Y-112545978D01*
X112662283Y-112545978D02*
X112738474Y-112507882D01*
X112738474Y-112507882D02*
X112890855Y-112469787D01*
X112890855Y-112469787D02*
X112967045Y-112431692D01*
X112967045Y-112431692D02*
X113005140Y-112393597D01*
X113005140Y-112393597D02*
X113043236Y-112317406D01*
X113043236Y-112317406D02*
X113043236Y-112241216D01*
X113043236Y-112241216D02*
X113005140Y-112165025D01*
X113005140Y-112165025D02*
X112967045Y-112126930D01*
X112967045Y-112126930D02*
X112890855Y-112088835D01*
X112890855Y-112088835D02*
X112700378Y-112088835D01*
X112700378Y-112088835D02*
X112586093Y-112126930D01*
X112243235Y-112469787D02*
X111976569Y-112469787D01*
X111862283Y-112888835D02*
X112243235Y-112888835D01*
X112243235Y-112888835D02*
X112243235Y-112088835D01*
X112243235Y-112088835D02*
X111862283Y-112088835D01*
X111519425Y-112888835D02*
X111519425Y-112088835D01*
X111519425Y-112088835D02*
X111252759Y-112660263D01*
X111252759Y-112660263D02*
X110986092Y-112088835D01*
X110986092Y-112088835D02*
X110986092Y-112888835D01*
X110338473Y-112469787D02*
X110224187Y-112507882D01*
X110224187Y-112507882D02*
X110186092Y-112545978D01*
X110186092Y-112545978D02*
X110147996Y-112622168D01*
X110147996Y-112622168D02*
X110147996Y-112736454D01*
X110147996Y-112736454D02*
X110186092Y-112812644D01*
X110186092Y-112812644D02*
X110224187Y-112850740D01*
X110224187Y-112850740D02*
X110300377Y-112888835D01*
X110300377Y-112888835D02*
X110605139Y-112888835D01*
X110605139Y-112888835D02*
X110605139Y-112088835D01*
X110605139Y-112088835D02*
X110338473Y-112088835D01*
X110338473Y-112088835D02*
X110262282Y-112126930D01*
X110262282Y-112126930D02*
X110224187Y-112165025D01*
X110224187Y-112165025D02*
X110186092Y-112241216D01*
X110186092Y-112241216D02*
X110186092Y-112317406D01*
X110186092Y-112317406D02*
X110224187Y-112393597D01*
X110224187Y-112393597D02*
X110262282Y-112431692D01*
X110262282Y-112431692D02*
X110338473Y-112469787D01*
X110338473Y-112469787D02*
X110605139Y-112469787D01*
X109424187Y-112888835D02*
X109805139Y-112888835D01*
X109805139Y-112888835D02*
X109805139Y-112088835D01*
X109005139Y-112507882D02*
X109005139Y-112888835D01*
X109271806Y-112088835D02*
X109005139Y-112507882D01*
X109005139Y-112507882D02*
X108738473Y-112088835D01*
X107900378Y-112850740D02*
X107786092Y-112888835D01*
X107786092Y-112888835D02*
X107595616Y-112888835D01*
X107595616Y-112888835D02*
X107519425Y-112850740D01*
X107519425Y-112850740D02*
X107481330Y-112812644D01*
X107481330Y-112812644D02*
X107443235Y-112736454D01*
X107443235Y-112736454D02*
X107443235Y-112660263D01*
X107443235Y-112660263D02*
X107481330Y-112584073D01*
X107481330Y-112584073D02*
X107519425Y-112545978D01*
X107519425Y-112545978D02*
X107595616Y-112507882D01*
X107595616Y-112507882D02*
X107747997Y-112469787D01*
X107747997Y-112469787D02*
X107824187Y-112431692D01*
X107824187Y-112431692D02*
X107862282Y-112393597D01*
X107862282Y-112393597D02*
X107900378Y-112317406D01*
X107900378Y-112317406D02*
X107900378Y-112241216D01*
X107900378Y-112241216D02*
X107862282Y-112165025D01*
X107862282Y-112165025D02*
X107824187Y-112126930D01*
X107824187Y-112126930D02*
X107747997Y-112088835D01*
X107747997Y-112088835D02*
X107557520Y-112088835D01*
X107557520Y-112088835D02*
X107443235Y-112126930D01*
X107214663Y-112088835D02*
X106757520Y-112088835D01*
X106986092Y-112888835D02*
X106986092Y-112088835D01*
X106490853Y-112888835D02*
X106490853Y-112088835D01*
X105652758Y-112812644D02*
X105690854Y-112850740D01*
X105690854Y-112850740D02*
X105805139Y-112888835D01*
X105805139Y-112888835D02*
X105881330Y-112888835D01*
X105881330Y-112888835D02*
X105995616Y-112850740D01*
X105995616Y-112850740D02*
X106071806Y-112774549D01*
X106071806Y-112774549D02*
X106109901Y-112698359D01*
X106109901Y-112698359D02*
X106147997Y-112545978D01*
X106147997Y-112545978D02*
X106147997Y-112431692D01*
X106147997Y-112431692D02*
X106109901Y-112279311D01*
X106109901Y-112279311D02*
X106071806Y-112203120D01*
X106071806Y-112203120D02*
X105995616Y-112126930D01*
X105995616Y-112126930D02*
X105881330Y-112088835D01*
X105881330Y-112088835D02*
X105805139Y-112088835D01*
X105805139Y-112088835D02*
X105690854Y-112126930D01*
X105690854Y-112126930D02*
X105652758Y-112165025D01*
X105309901Y-112888835D02*
X105309901Y-112088835D01*
X104852758Y-112888835D02*
X105195616Y-112431692D01*
X104852758Y-112088835D02*
X105309901Y-112545978D01*
X104509901Y-112469787D02*
X104243235Y-112469787D01*
X104128949Y-112888835D02*
X104509901Y-112888835D01*
X104509901Y-112888835D02*
X104509901Y-112088835D01*
X104509901Y-112088835D02*
X104128949Y-112088835D01*
X103328948Y-112888835D02*
X103595615Y-112507882D01*
X103786091Y-112888835D02*
X103786091Y-112088835D01*
X103786091Y-112088835D02*
X103481329Y-112088835D01*
X103481329Y-112088835D02*
X103405139Y-112126930D01*
X103405139Y-112126930D02*
X103367044Y-112165025D01*
X103367044Y-112165025D02*
X103328948Y-112241216D01*
X103328948Y-112241216D02*
X103328948Y-112355501D01*
X103328948Y-112355501D02*
X103367044Y-112431692D01*
X103367044Y-112431692D02*
X103405139Y-112469787D01*
X103405139Y-112469787D02*
X103481329Y-112507882D01*
X103481329Y-112507882D02*
X103786091Y-112507882D01*
D11*
G36*
X110518154Y-114690163D02*
G01*
X109717526Y-114690163D01*
X109660373Y-115902585D01*
X109100568Y-114690163D01*
X108301894Y-114690163D01*
X108718084Y-116691001D01*
X109215851Y-116691001D01*
X108896381Y-115155201D01*
X109601266Y-116691001D01*
X110051162Y-116691001D01*
X110116619Y-115155201D01*
X110436088Y-116691001D01*
X110934344Y-116691001D01*
X110518154Y-114690163D01*
G37*
G36*
X107307887Y-115191222D02*
G01*
X107420315Y-115200774D01*
X107527400Y-115220941D01*
X107629143Y-115251722D01*
X107725542Y-115293117D01*
X107816599Y-115345126D01*
X107902313Y-115407749D01*
X107934706Y-115435380D01*
X108009009Y-115508484D01*
X108073771Y-115587336D01*
X108128993Y-115671936D01*
X108174674Y-115762284D01*
X108210815Y-115858381D01*
X108237414Y-115960226D01*
X108248886Y-116026605D01*
X108256709Y-116131837D01*
X108247459Y-116249205D01*
X108217875Y-116356853D01*
X108167958Y-116454781D01*
X108097707Y-116542989D01*
X108075187Y-116564698D01*
X107985969Y-116629650D01*
X107896622Y-116671668D01*
X107795391Y-116701080D01*
X107682276Y-116717887D01*
X107578935Y-116722264D01*
X107531178Y-116721420D01*
X107415993Y-116711932D01*
X107306818Y-116691901D01*
X107203654Y-116661328D01*
X107106501Y-116620212D01*
X107015358Y-116568554D01*
X106930226Y-116506353D01*
X106898068Y-116478887D01*
X106824268Y-116406048D01*
X106759890Y-116327247D01*
X106704933Y-116242482D01*
X106659397Y-116151754D01*
X106623283Y-116055064D01*
X106596591Y-115952410D01*
X106581822Y-115860702D01*
X106581219Y-115848491D01*
X107130570Y-115848491D01*
X107145649Y-115949968D01*
X107151228Y-115975594D01*
X107181436Y-116079862D01*
X107224789Y-116174506D01*
X107284379Y-116252829D01*
X107308665Y-116274925D01*
X107399199Y-116329061D01*
X107498335Y-116347107D01*
X107505604Y-116347013D01*
X107600551Y-116323171D01*
X107672725Y-116251363D01*
X107701713Y-116164924D01*
X107703907Y-116059981D01*
X107688356Y-115955830D01*
X107683006Y-115931556D01*
X107653451Y-115832101D01*
X107610097Y-115740357D01*
X107549626Y-115662250D01*
X107518419Y-115634386D01*
X107432367Y-115584042D01*
X107331762Y-115565529D01*
X107232965Y-115589343D01*
X107162257Y-115660784D01*
X107133131Y-115745872D01*
X107130570Y-115848491D01*
X106581219Y-115848491D01*
X106576693Y-115756792D01*
X106588073Y-115644029D01*
X106618153Y-115540382D01*
X106666933Y-115445850D01*
X106677540Y-115430133D01*
X106751980Y-115346304D01*
X106844934Y-115280438D01*
X106936537Y-115239273D01*
X107040996Y-115210581D01*
X107158311Y-115194364D01*
X107261420Y-115190372D01*
X107307887Y-115191222D01*
G37*
G36*
X105226877Y-115348153D02*
G01*
X105299173Y-115279033D01*
X105387100Y-115229940D01*
X105411540Y-115220666D01*
X105512161Y-115196903D01*
X105610827Y-115190372D01*
X105707192Y-115197173D01*
X105815016Y-115222298D01*
X105917886Y-115265935D01*
X106002115Y-115318073D01*
X106082704Y-115383813D01*
X106145064Y-115448296D01*
X106211239Y-115536727D01*
X106267968Y-115637214D01*
X106308027Y-115730162D01*
X106341527Y-115831483D01*
X106368468Y-115941175D01*
X106376274Y-115981519D01*
X106389829Y-116079023D01*
X106394855Y-116189699D01*
X106387620Y-116293472D01*
X106368122Y-116390341D01*
X106329878Y-116494629D01*
X106292080Y-116560208D01*
X106223975Y-116633344D01*
X106138153Y-116684695D01*
X106034613Y-116714261D01*
X105931762Y-116722264D01*
X105860168Y-116718630D01*
X105756327Y-116699557D01*
X105656744Y-116664134D01*
X105585028Y-116624212D01*
X105504884Y-116564895D01*
X105424714Y-116494141D01*
X105465746Y-116691001D01*
X104953813Y-116691001D01*
X104778160Y-115846543D01*
X105331777Y-115846543D01*
X105347044Y-115947037D01*
X105352778Y-115973135D01*
X105379263Y-116068252D01*
X105420355Y-116166283D01*
X105481378Y-116253317D01*
X105492611Y-116264675D01*
X105574557Y-116323659D01*
X105675307Y-116347107D01*
X105751402Y-116329342D01*
X105820387Y-116254294D01*
X105843124Y-116169275D01*
X105842122Y-116064909D01*
X105825760Y-115960714D01*
X105820053Y-115934510D01*
X105794209Y-115839270D01*
X105755121Y-115741774D01*
X105698266Y-115656388D01*
X105617379Y-115591172D01*
X105519480Y-115565529D01*
X105429914Y-115586352D01*
X105358768Y-115660296D01*
X105332848Y-115744811D01*
X105331777Y-115846543D01*
X104778160Y-115846543D01*
X104537624Y-114690163D01*
X105090101Y-114690163D01*
X105226877Y-115348153D01*
G37*
G36*
X103086333Y-116691001D02*
G01*
X103597289Y-116691001D01*
X103547952Y-116453108D01*
X103619270Y-116520672D01*
X103697169Y-116584200D01*
X103780822Y-116639288D01*
X103821504Y-116660714D01*
X103914676Y-116695757D01*
X104017547Y-116716253D01*
X104119480Y-116722264D01*
X104224443Y-116713593D01*
X104323696Y-116683110D01*
X104410593Y-116623500D01*
X104444811Y-116583534D01*
X104487994Y-116493399D01*
X104505228Y-116393428D01*
X104503979Y-116290625D01*
X104490779Y-116191123D01*
X104483890Y-116155620D01*
X104289961Y-115221636D01*
X103740415Y-115221636D01*
X103908454Y-116030079D01*
X103920907Y-116129179D01*
X103899661Y-116226451D01*
X103813840Y-116280947D01*
X103772166Y-116284580D01*
X103673359Y-116262798D01*
X103595335Y-116207400D01*
X103537562Y-116123977D01*
X103501460Y-116032157D01*
X103475167Y-115928963D01*
X103328133Y-115221636D01*
X102781029Y-115221636D01*
X103086333Y-116691001D01*
G37*
D12*
G36*
X121589185Y-115061829D02*
G01*
X121589185Y-116111829D01*
X121580392Y-116245186D01*
X121552548Y-116306002D01*
X121502723Y-116325053D01*
X121397210Y-116327984D01*
X121397210Y-116421774D01*
X122058131Y-116421774D01*
X122058131Y-116327984D01*
X121941627Y-116319924D01*
X121892534Y-116290615D01*
X121872018Y-116224670D01*
X121866889Y-116107433D01*
X121866889Y-115607712D01*
X121869160Y-115458687D01*
X121871285Y-115415004D01*
X121883741Y-115316086D01*
X121904258Y-115281648D01*
X121942360Y-115275786D01*
X121979729Y-115280915D01*
X122047140Y-115302164D01*
X122086707Y-115212771D01*
X121678577Y-115061829D01*
X121589185Y-115061829D01*
G37*
G36*
X121727670Y-114405305D02*
G01*
X121611899Y-114452932D01*
X121564272Y-114569436D01*
X121611166Y-114685207D01*
X121727670Y-114733567D01*
X121844907Y-114685207D01*
X121891801Y-114569436D01*
X121844907Y-114452932D01*
X121727670Y-114405305D01*
G37*
D10*
X114047068Y-107162848D02*
X113932782Y-107200943D01*
X113932782Y-107200943D02*
X113894687Y-107239039D01*
X113894687Y-107239039D02*
X113856591Y-107315229D01*
X113856591Y-107315229D02*
X113856591Y-107429515D01*
X113856591Y-107429515D02*
X113894687Y-107505705D01*
X113894687Y-107505705D02*
X113932782Y-107543801D01*
X113932782Y-107543801D02*
X114008972Y-107581896D01*
X114008972Y-107581896D02*
X114313734Y-107581896D01*
X114313734Y-107581896D02*
X114313734Y-106781896D01*
X114313734Y-106781896D02*
X114047068Y-106781896D01*
X114047068Y-106781896D02*
X113970877Y-106819991D01*
X113970877Y-106819991D02*
X113932782Y-106858086D01*
X113932782Y-106858086D02*
X113894687Y-106934277D01*
X113894687Y-106934277D02*
X113894687Y-107010467D01*
X113894687Y-107010467D02*
X113932782Y-107086658D01*
X113932782Y-107086658D02*
X113970877Y-107124753D01*
X113970877Y-107124753D02*
X114047068Y-107162848D01*
X114047068Y-107162848D02*
X114313734Y-107162848D01*
X113361353Y-106781896D02*
X113208972Y-106781896D01*
X113208972Y-106781896D02*
X113132782Y-106819991D01*
X113132782Y-106819991D02*
X113056591Y-106896181D01*
X113056591Y-106896181D02*
X113018496Y-107048562D01*
X113018496Y-107048562D02*
X113018496Y-107315229D01*
X113018496Y-107315229D02*
X113056591Y-107467610D01*
X113056591Y-107467610D02*
X113132782Y-107543801D01*
X113132782Y-107543801D02*
X113208972Y-107581896D01*
X113208972Y-107581896D02*
X113361353Y-107581896D01*
X113361353Y-107581896D02*
X113437544Y-107543801D01*
X113437544Y-107543801D02*
X113513734Y-107467610D01*
X113513734Y-107467610D02*
X113551830Y-107315229D01*
X113551830Y-107315229D02*
X113551830Y-107048562D01*
X113551830Y-107048562D02*
X113513734Y-106896181D01*
X113513734Y-106896181D02*
X113437544Y-106819991D01*
X113437544Y-106819991D02*
X113361353Y-106781896D01*
X112713735Y-107353324D02*
X112332782Y-107353324D01*
X112789925Y-107581896D02*
X112523258Y-106781896D01*
X112523258Y-106781896D02*
X112256592Y-107581896D01*
X111532782Y-107581896D02*
X111799449Y-107200943D01*
X111989925Y-107581896D02*
X111989925Y-106781896D01*
X111989925Y-106781896D02*
X111685163Y-106781896D01*
X111685163Y-106781896D02*
X111608973Y-106819991D01*
X111608973Y-106819991D02*
X111570878Y-106858086D01*
X111570878Y-106858086D02*
X111532782Y-106934277D01*
X111532782Y-106934277D02*
X111532782Y-107048562D01*
X111532782Y-107048562D02*
X111570878Y-107124753D01*
X111570878Y-107124753D02*
X111608973Y-107162848D01*
X111608973Y-107162848D02*
X111685163Y-107200943D01*
X111685163Y-107200943D02*
X111989925Y-107200943D01*
X111189925Y-107581896D02*
X111189925Y-106781896D01*
X111189925Y-106781896D02*
X110999449Y-106781896D01*
X110999449Y-106781896D02*
X110885163Y-106819991D01*
X110885163Y-106819991D02*
X110808973Y-106896181D01*
X110808973Y-106896181D02*
X110770878Y-106972372D01*
X110770878Y-106972372D02*
X110732782Y-107124753D01*
X110732782Y-107124753D02*
X110732782Y-107239039D01*
X110732782Y-107239039D02*
X110770878Y-107391420D01*
X110770878Y-107391420D02*
X110808973Y-107467610D01*
X110808973Y-107467610D02*
X110885163Y-107543801D01*
X110885163Y-107543801D02*
X110999449Y-107581896D01*
X110999449Y-107581896D02*
X111189925Y-107581896D01*
X110389925Y-107581896D02*
X110389925Y-106781896D01*
X110389925Y-107162848D02*
X109932782Y-107162848D01*
X109932782Y-107581896D02*
X109932782Y-106781896D01*
X109399449Y-106781896D02*
X109247068Y-106781896D01*
X109247068Y-106781896D02*
X109170878Y-106819991D01*
X109170878Y-106819991D02*
X109094687Y-106896181D01*
X109094687Y-106896181D02*
X109056592Y-107048562D01*
X109056592Y-107048562D02*
X109056592Y-107315229D01*
X109056592Y-107315229D02*
X109094687Y-107467610D01*
X109094687Y-107467610D02*
X109170878Y-107543801D01*
X109170878Y-107543801D02*
X109247068Y-107581896D01*
X109247068Y-107581896D02*
X109399449Y-107581896D01*
X109399449Y-107581896D02*
X109475640Y-107543801D01*
X109475640Y-107543801D02*
X109551830Y-107467610D01*
X109551830Y-107467610D02*
X109589926Y-107315229D01*
X109589926Y-107315229D02*
X109589926Y-107048562D01*
X109589926Y-107048562D02*
X109551830Y-106896181D01*
X109551830Y-106896181D02*
X109475640Y-106819991D01*
X109475640Y-106819991D02*
X109399449Y-106781896D01*
X108713735Y-106781896D02*
X108713735Y-107429515D01*
X108713735Y-107429515D02*
X108675640Y-107505705D01*
X108675640Y-107505705D02*
X108637545Y-107543801D01*
X108637545Y-107543801D02*
X108561354Y-107581896D01*
X108561354Y-107581896D02*
X108408973Y-107581896D01*
X108408973Y-107581896D02*
X108332783Y-107543801D01*
X108332783Y-107543801D02*
X108294688Y-107505705D01*
X108294688Y-107505705D02*
X108256592Y-107429515D01*
X108256592Y-107429515D02*
X108256592Y-106781896D01*
X107913736Y-107543801D02*
X107799450Y-107581896D01*
X107799450Y-107581896D02*
X107608974Y-107581896D01*
X107608974Y-107581896D02*
X107532783Y-107543801D01*
X107532783Y-107543801D02*
X107494688Y-107505705D01*
X107494688Y-107505705D02*
X107456593Y-107429515D01*
X107456593Y-107429515D02*
X107456593Y-107353324D01*
X107456593Y-107353324D02*
X107494688Y-107277134D01*
X107494688Y-107277134D02*
X107532783Y-107239039D01*
X107532783Y-107239039D02*
X107608974Y-107200943D01*
X107608974Y-107200943D02*
X107761355Y-107162848D01*
X107761355Y-107162848D02*
X107837545Y-107124753D01*
X107837545Y-107124753D02*
X107875640Y-107086658D01*
X107875640Y-107086658D02*
X107913736Y-107010467D01*
X107913736Y-107010467D02*
X107913736Y-106934277D01*
X107913736Y-106934277D02*
X107875640Y-106858086D01*
X107875640Y-106858086D02*
X107837545Y-106819991D01*
X107837545Y-106819991D02*
X107761355Y-106781896D01*
X107761355Y-106781896D02*
X107570878Y-106781896D01*
X107570878Y-106781896D02*
X107456593Y-106819991D01*
X107113735Y-107162848D02*
X106847069Y-107162848D01*
X106732783Y-107581896D02*
X107113735Y-107581896D01*
X107113735Y-107581896D02*
X107113735Y-106781896D01*
X107113735Y-106781896D02*
X106732783Y-106781896D01*
X105780401Y-107581896D02*
X105780401Y-106781896D01*
X105399449Y-107581896D02*
X105399449Y-106781896D01*
X105399449Y-106781896D02*
X104942306Y-107581896D01*
X104942306Y-107581896D02*
X104942306Y-106781896D01*
X104294688Y-107162848D02*
X104561354Y-107162848D01*
X104561354Y-107581896D02*
X104561354Y-106781896D01*
X104561354Y-106781896D02*
X104180402Y-106781896D01*
X103723259Y-106781896D02*
X103570878Y-106781896D01*
X103570878Y-106781896D02*
X103494688Y-106819991D01*
X103494688Y-106819991D02*
X103418497Y-106896181D01*
X103418497Y-106896181D02*
X103380402Y-107048562D01*
X103380402Y-107048562D02*
X103380402Y-107315229D01*
X103380402Y-107315229D02*
X103418497Y-107467610D01*
X103418497Y-107467610D02*
X103494688Y-107543801D01*
X103494688Y-107543801D02*
X103570878Y-107581896D01*
X103570878Y-107581896D02*
X103723259Y-107581896D01*
X103723259Y-107581896D02*
X103799450Y-107543801D01*
X103799450Y-107543801D02*
X103875640Y-107467610D01*
X103875640Y-107467610D02*
X103913736Y-107315229D01*
X103913736Y-107315229D02*
X103913736Y-107048562D01*
X103913736Y-107048562D02*
X103875640Y-106896181D01*
X103875640Y-106896181D02*
X103799450Y-106819991D01*
X103799450Y-106819991D02*
X103723259Y-106781896D01*
X124561353Y-119040406D02*
X124561353Y-118440406D01*
X124561353Y-118440406D02*
X124418496Y-118440406D01*
X124418496Y-118440406D02*
X124332782Y-118468977D01*
X124332782Y-118468977D02*
X124275639Y-118526120D01*
X124275639Y-118526120D02*
X124247068Y-118583263D01*
X124247068Y-118583263D02*
X124218496Y-118697549D01*
X124218496Y-118697549D02*
X124218496Y-118783263D01*
X124218496Y-118783263D02*
X124247068Y-118897549D01*
X124247068Y-118897549D02*
X124275639Y-118954692D01*
X124275639Y-118954692D02*
X124332782Y-119011835D01*
X124332782Y-119011835D02*
X124418496Y-119040406D01*
X124418496Y-119040406D02*
X124561353Y-119040406D01*
X123961353Y-118726120D02*
X123761353Y-118726120D01*
X123675639Y-119040406D02*
X123961353Y-119040406D01*
X123961353Y-119040406D02*
X123961353Y-118440406D01*
X123961353Y-118440406D02*
X123675639Y-118440406D01*
X123447068Y-119011835D02*
X123361354Y-119040406D01*
X123361354Y-119040406D02*
X123218496Y-119040406D01*
X123218496Y-119040406D02*
X123161354Y-119011835D01*
X123161354Y-119011835D02*
X123132782Y-118983263D01*
X123132782Y-118983263D02*
X123104211Y-118926120D01*
X123104211Y-118926120D02*
X123104211Y-118868977D01*
X123104211Y-118868977D02*
X123132782Y-118811835D01*
X123132782Y-118811835D02*
X123161354Y-118783263D01*
X123161354Y-118783263D02*
X123218496Y-118754692D01*
X123218496Y-118754692D02*
X123332782Y-118726120D01*
X123332782Y-118726120D02*
X123389925Y-118697549D01*
X123389925Y-118697549D02*
X123418496Y-118668977D01*
X123418496Y-118668977D02*
X123447068Y-118611835D01*
X123447068Y-118611835D02*
X123447068Y-118554692D01*
X123447068Y-118554692D02*
X123418496Y-118497549D01*
X123418496Y-118497549D02*
X123389925Y-118468977D01*
X123389925Y-118468977D02*
X123332782Y-118440406D01*
X123332782Y-118440406D02*
X123189925Y-118440406D01*
X123189925Y-118440406D02*
X123104211Y-118468977D01*
X122847067Y-119040406D02*
X122847067Y-118440406D01*
X122247068Y-118468977D02*
X122304211Y-118440406D01*
X122304211Y-118440406D02*
X122389925Y-118440406D01*
X122389925Y-118440406D02*
X122475639Y-118468977D01*
X122475639Y-118468977D02*
X122532782Y-118526120D01*
X122532782Y-118526120D02*
X122561353Y-118583263D01*
X122561353Y-118583263D02*
X122589925Y-118697549D01*
X122589925Y-118697549D02*
X122589925Y-118783263D01*
X122589925Y-118783263D02*
X122561353Y-118897549D01*
X122561353Y-118897549D02*
X122532782Y-118954692D01*
X122532782Y-118954692D02*
X122475639Y-119011835D01*
X122475639Y-119011835D02*
X122389925Y-119040406D01*
X122389925Y-119040406D02*
X122332782Y-119040406D01*
X122332782Y-119040406D02*
X122247068Y-119011835D01*
X122247068Y-119011835D02*
X122218496Y-118983263D01*
X122218496Y-118983263D02*
X122218496Y-118783263D01*
X122218496Y-118783263D02*
X122332782Y-118783263D01*
X121961353Y-119040406D02*
X121961353Y-118440406D01*
X121961353Y-118440406D02*
X121618496Y-119040406D01*
X121618496Y-119040406D02*
X121618496Y-118440406D01*
X121332782Y-118726120D02*
X121132782Y-118726120D01*
X121047068Y-119040406D02*
X121332782Y-119040406D01*
X121332782Y-119040406D02*
X121332782Y-118440406D01*
X121332782Y-118440406D02*
X121047068Y-118440406D01*
X120789925Y-119040406D02*
X120789925Y-118440406D01*
X120789925Y-118440406D02*
X120647068Y-118440406D01*
X120647068Y-118440406D02*
X120561354Y-118468977D01*
X120561354Y-118468977D02*
X120504211Y-118526120D01*
X120504211Y-118526120D02*
X120475640Y-118583263D01*
X120475640Y-118583263D02*
X120447068Y-118697549D01*
X120447068Y-118697549D02*
X120447068Y-118783263D01*
X120447068Y-118783263D02*
X120475640Y-118897549D01*
X120475640Y-118897549D02*
X120504211Y-118954692D01*
X120504211Y-118954692D02*
X120561354Y-119011835D01*
X120561354Y-119011835D02*
X120647068Y-119040406D01*
X120647068Y-119040406D02*
X120789925Y-119040406D01*
X124561353Y-120006372D02*
X124561353Y-119406372D01*
X124275639Y-120006372D02*
X124275639Y-119406372D01*
X124275639Y-119406372D02*
X123932782Y-120006372D01*
X123932782Y-120006372D02*
X123932782Y-119406372D01*
X123189925Y-120006372D02*
X123189925Y-119406372D01*
X123189925Y-119406372D02*
X122961354Y-119406372D01*
X122961354Y-119406372D02*
X122904211Y-119434943D01*
X122904211Y-119434943D02*
X122875640Y-119463515D01*
X122875640Y-119463515D02*
X122847068Y-119520658D01*
X122847068Y-119520658D02*
X122847068Y-119606372D01*
X122847068Y-119606372D02*
X122875640Y-119663515D01*
X122875640Y-119663515D02*
X122904211Y-119692086D01*
X122904211Y-119692086D02*
X122961354Y-119720658D01*
X122961354Y-119720658D02*
X123189925Y-119720658D01*
X122475640Y-119406372D02*
X122361354Y-119406372D01*
X122361354Y-119406372D02*
X122304211Y-119434943D01*
X122304211Y-119434943D02*
X122247068Y-119492086D01*
X122247068Y-119492086D02*
X122218497Y-119606372D01*
X122218497Y-119606372D02*
X122218497Y-119806372D01*
X122218497Y-119806372D02*
X122247068Y-119920658D01*
X122247068Y-119920658D02*
X122304211Y-119977801D01*
X122304211Y-119977801D02*
X122361354Y-120006372D01*
X122361354Y-120006372D02*
X122475640Y-120006372D01*
X122475640Y-120006372D02*
X122532783Y-119977801D01*
X122532783Y-119977801D02*
X122589925Y-119920658D01*
X122589925Y-119920658D02*
X122618497Y-119806372D01*
X122618497Y-119806372D02*
X122618497Y-119606372D01*
X122618497Y-119606372D02*
X122589925Y-119492086D01*
X122589925Y-119492086D02*
X122532783Y-119434943D01*
X122532783Y-119434943D02*
X122475640Y-119406372D01*
X121675640Y-120006372D02*
X121961354Y-120006372D01*
X121961354Y-120006372D02*
X121961354Y-119406372D01*
X121504212Y-119834943D02*
X121218498Y-119834943D01*
X121561355Y-120006372D02*
X121361355Y-119406372D01*
X121361355Y-119406372D02*
X121161355Y-120006372D01*
X120961354Y-120006372D02*
X120961354Y-119406372D01*
X120961354Y-119406372D02*
X120618497Y-120006372D01*
X120618497Y-120006372D02*
X120618497Y-119406372D01*
X120332783Y-120006372D02*
X120332783Y-119406372D01*
X120332783Y-119406372D02*
X120189926Y-119406372D01*
X120189926Y-119406372D02*
X120104212Y-119434943D01*
X120104212Y-119434943D02*
X120047069Y-119492086D01*
X120047069Y-119492086D02*
X120018498Y-119549229D01*
X120018498Y-119549229D02*
X119989926Y-119663515D01*
X119989926Y-119663515D02*
X119989926Y-119749229D01*
X119989926Y-119749229D02*
X120018498Y-119863515D01*
X120018498Y-119863515D02*
X120047069Y-119920658D01*
X120047069Y-119920658D02*
X120104212Y-119977801D01*
X120104212Y-119977801D02*
X120189926Y-120006372D01*
X120189926Y-120006372D02*
X120332783Y-120006372D01*
D13*
%TO.C,kibuzzard-67B624A4*%
G36*
X127875535Y-119698902D02*
G01*
X127925341Y-119730430D01*
X127958240Y-119815420D01*
X127906149Y-119903152D01*
X127845834Y-119963467D01*
X127692304Y-119809937D01*
X127715608Y-119781151D01*
X127742567Y-119752363D01*
X127783234Y-119718094D01*
X127827557Y-119697531D01*
X127875535Y-119698902D01*
G37*
G36*
X128140100Y-119996366D02*
G01*
X128166145Y-120035205D01*
X128167973Y-120071761D01*
X128151524Y-120106488D01*
X128123650Y-120138930D01*
X128096235Y-120164518D01*
X128068818Y-120186451D01*
X127939049Y-120056682D01*
X127982915Y-120012816D01*
X128066534Y-119966666D01*
X128140100Y-119996366D01*
G37*
G36*
X128785292Y-118800111D02*
G01*
X128837789Y-118825699D01*
X128895362Y-118867128D01*
X128958014Y-118924397D01*
X129014775Y-118986541D01*
X129055899Y-119043809D01*
X129081386Y-119096204D01*
X129089611Y-119164060D01*
X129061281Y-119217750D01*
X129008162Y-119245509D01*
X128940193Y-119237397D01*
X128887544Y-119212164D01*
X128830123Y-119171193D01*
X128767928Y-119114482D01*
X128710710Y-119051780D01*
X128689873Y-119022638D01*
X128793060Y-119022638D01*
X128821847Y-119078841D01*
X128878507Y-119108085D01*
X128934253Y-119088894D01*
X128952074Y-119034519D01*
X128923286Y-118977401D01*
X128866627Y-118949072D01*
X128812709Y-118967349D01*
X128793060Y-119022638D01*
X128689873Y-119022638D01*
X128669434Y-118994054D01*
X128644099Y-118941304D01*
X128635989Y-118873335D01*
X128663748Y-118820216D01*
X128664944Y-118819584D01*
X128717437Y-118791886D01*
X128785292Y-118800111D01*
G37*
G36*
X129131202Y-118084984D02*
G01*
X129203090Y-118095648D01*
X129273585Y-118113306D01*
X129342011Y-118137789D01*
X129407708Y-118168861D01*
X129470042Y-118206224D01*
X129528415Y-118249515D01*
X129582263Y-118298320D01*
X129631068Y-118352168D01*
X129674359Y-118410541D01*
X129711722Y-118472875D01*
X129742794Y-118538572D01*
X129767277Y-118606998D01*
X129784935Y-118677493D01*
X129795599Y-118749381D01*
X129799164Y-118821967D01*
X129795599Y-118894554D01*
X129784935Y-118966441D01*
X129767277Y-119036938D01*
X129742794Y-119105363D01*
X129711722Y-119171059D01*
X129674360Y-119233394D01*
X129631067Y-119291767D01*
X129582263Y-119345614D01*
X129582187Y-119345691D01*
X128292716Y-120635162D01*
X127645391Y-121282486D01*
X127591544Y-121331290D01*
X127533171Y-121374583D01*
X127470836Y-121411945D01*
X127405140Y-121443017D01*
X127336715Y-121467500D01*
X127266218Y-121485158D01*
X127194331Y-121495822D01*
X127121744Y-121499387D01*
X127049158Y-121495822D01*
X126977270Y-121485158D01*
X126906775Y-121467500D01*
X126838349Y-121443017D01*
X126772652Y-121411945D01*
X126710318Y-121374582D01*
X126651945Y-121331291D01*
X126598097Y-121282486D01*
X126549292Y-121228638D01*
X126506001Y-121170265D01*
X126468638Y-121107931D01*
X126437566Y-121042234D01*
X126413083Y-120973808D01*
X126395425Y-120903313D01*
X126384761Y-120831425D01*
X126381196Y-120758839D01*
X126384761Y-120686252D01*
X126395425Y-120614365D01*
X126413083Y-120543868D01*
X126437566Y-120475443D01*
X126468638Y-120409747D01*
X126506000Y-120347412D01*
X126549293Y-120289039D01*
X126598097Y-120235192D01*
X126995935Y-119837353D01*
X127494908Y-119837353D01*
X128044144Y-120386589D01*
X128124108Y-120325816D01*
X128204072Y-120254078D01*
X128258789Y-120192735D01*
X128295001Y-120136646D01*
X128323331Y-120038861D01*
X128306425Y-119959812D01*
X128261645Y-119898582D01*
X128218807Y-119865568D01*
X128170715Y-119846949D01*
X128068818Y-119850148D01*
X128092465Y-119777153D01*
X128090294Y-119715351D01*
X128069161Y-119663375D01*
X128035919Y-119619852D01*
X127984628Y-119577244D01*
X127933109Y-119551769D01*
X127831212Y-119544000D01*
X127781178Y-119558852D01*
X127731600Y-119585125D01*
X127682937Y-119620766D01*
X127635644Y-119663718D01*
X127598517Y-119702900D01*
X127562077Y-119745509D01*
X127527236Y-119790631D01*
X127494908Y-119837353D01*
X126995935Y-119837353D01*
X127245421Y-119587867D01*
X127402607Y-119430682D01*
X127584468Y-119248821D01*
X128065163Y-119248821D01*
X128537634Y-119721291D01*
X128388672Y-119870252D01*
X128481887Y-119963467D01*
X128893129Y-119552226D01*
X128799914Y-119459011D01*
X128650953Y-119607972D01*
X128178483Y-119135501D01*
X128065163Y-119248821D01*
X127584468Y-119248821D01*
X127938135Y-118895153D01*
X127969816Y-118863472D01*
X128491737Y-118863472D01*
X128493768Y-118942675D01*
X128513130Y-119006017D01*
X128548371Y-119072673D01*
X128599491Y-119142641D01*
X128666489Y-119215921D01*
X128739028Y-119282063D01*
X128808596Y-119332440D01*
X128875194Y-119367053D01*
X128938823Y-119385901D01*
X129018329Y-119387627D01*
X129091133Y-119363562D01*
X129157237Y-119313706D01*
X129208059Y-119246739D01*
X129232580Y-119173782D01*
X129230804Y-119094833D01*
X129211698Y-119031748D01*
X129176771Y-118965407D01*
X129126023Y-118895810D01*
X129059453Y-118822957D01*
X128986172Y-118755960D01*
X128916204Y-118704840D01*
X128849548Y-118669598D01*
X128786206Y-118650236D01*
X128707004Y-118648206D01*
X128633895Y-118672575D01*
X128566877Y-118723346D01*
X128516107Y-118790363D01*
X128491737Y-118863472D01*
X127969816Y-118863472D01*
X128338410Y-118494879D01*
X128534892Y-118298396D01*
X128534969Y-118298320D01*
X128588816Y-118249516D01*
X128647189Y-118206223D01*
X128709524Y-118168861D01*
X128775220Y-118137789D01*
X128843645Y-118113306D01*
X128914142Y-118095648D01*
X128986029Y-118084984D01*
X129058616Y-118081419D01*
X129131202Y-118084984D01*
G37*
%TO.C,kibuzzard-67B62521*%
G36*
X134030313Y-117988705D02*
G01*
X134115875Y-118001397D01*
X134199782Y-118022414D01*
X134281224Y-118051556D01*
X134359418Y-118088538D01*
X134433610Y-118133007D01*
X134503087Y-118184535D01*
X134567178Y-118242623D01*
X134625266Y-118306714D01*
X134676794Y-118376191D01*
X134721263Y-118450383D01*
X134758245Y-118528577D01*
X134787387Y-118610019D01*
X134808404Y-118693926D01*
X134821096Y-118779488D01*
X134825340Y-118865882D01*
X134821096Y-118952277D01*
X134808404Y-119037839D01*
X134787386Y-119121745D01*
X134758245Y-119203188D01*
X134721263Y-119281382D01*
X134676794Y-119355574D01*
X134625266Y-119425050D01*
X134567178Y-119489142D01*
X134567102Y-119489218D01*
X133266665Y-120789655D01*
X132619341Y-121436979D01*
X132555249Y-121495067D01*
X132485773Y-121546595D01*
X132411581Y-121591064D01*
X132333387Y-121628046D01*
X132251944Y-121657187D01*
X132168038Y-121678205D01*
X132082476Y-121690897D01*
X131996081Y-121695141D01*
X131909687Y-121690897D01*
X131824125Y-121678205D01*
X131740218Y-121657188D01*
X131658776Y-121628046D01*
X131580582Y-121591064D01*
X131506390Y-121546595D01*
X131436913Y-121495067D01*
X131372822Y-121436979D01*
X131314734Y-121372888D01*
X131263206Y-121303411D01*
X131218737Y-121229219D01*
X131181755Y-121151025D01*
X131152613Y-121069583D01*
X131131596Y-120985676D01*
X131118904Y-120900114D01*
X131114660Y-120813720D01*
X131118904Y-120727325D01*
X131131596Y-120641763D01*
X131152614Y-120557857D01*
X131181755Y-120476414D01*
X131218737Y-120398220D01*
X131263206Y-120324028D01*
X131314734Y-120254552D01*
X131372822Y-120190460D01*
X131640890Y-119922392D01*
X132399402Y-119922392D01*
X132965088Y-120488077D01*
X133055561Y-120397604D01*
X133039226Y-120330092D01*
X133019463Y-120259153D01*
X132997759Y-120186957D01*
X132975597Y-120115676D01*
X132952979Y-120046449D01*
X132929904Y-119980423D01*
X132907857Y-119920222D01*
X132888323Y-119868473D01*
X133236507Y-120216658D01*
X133337947Y-120115218D01*
X132772261Y-119549533D01*
X132681788Y-119640006D01*
X132718140Y-119729058D01*
X132752867Y-119819531D01*
X132785970Y-119911425D01*
X132817548Y-120004843D01*
X132847707Y-120099885D01*
X132876443Y-120196553D01*
X132500842Y-119820952D01*
X132399402Y-119922392D01*
X131640890Y-119922392D01*
X132020146Y-119543136D01*
X132249527Y-119313755D01*
X132706463Y-119313755D01*
X133751930Y-119847455D01*
X133867077Y-119732307D01*
X132823438Y-119196779D01*
X132706463Y-119313755D01*
X132249527Y-119313755D01*
X132302532Y-119260750D01*
X132535568Y-119027714D01*
X133423850Y-119027714D01*
X133438701Y-119097738D01*
X133469544Y-119167993D01*
X133516380Y-119238475D01*
X133579209Y-119309186D01*
X133650491Y-119370871D01*
X133723600Y-119415194D01*
X133797166Y-119442838D01*
X133869820Y-119454491D01*
X133940643Y-119450378D01*
X134008727Y-119430730D01*
X134072698Y-119396232D01*
X134131186Y-119347568D01*
X134180535Y-119288166D01*
X134211607Y-119234248D01*
X134228514Y-119189925D01*
X134236281Y-119160225D01*
X134117478Y-119099909D01*
X134090061Y-119173933D01*
X134031574Y-119251611D01*
X133970345Y-119293649D01*
X133893580Y-119306444D01*
X133801736Y-119278570D01*
X133750445Y-119245786D01*
X133696184Y-119197694D01*
X133640337Y-119134433D01*
X133601953Y-119073813D01*
X133581036Y-119015834D01*
X133586291Y-118933128D01*
X133638610Y-118854992D01*
X133721315Y-118792392D01*
X133787571Y-118766346D01*
X133727256Y-118649372D01*
X133635869Y-118686840D01*
X133582864Y-118721338D01*
X133529860Y-118768174D01*
X133464873Y-118850219D01*
X133429537Y-118936733D01*
X133423850Y-119027714D01*
X132535568Y-119027714D01*
X132594970Y-118968312D01*
X133162484Y-118400798D01*
X133320583Y-118242699D01*
X133320659Y-118242623D01*
X133384751Y-118184535D01*
X133454227Y-118133007D01*
X133528419Y-118088538D01*
X133606613Y-118051556D01*
X133688056Y-118022415D01*
X133771962Y-118001397D01*
X133857524Y-117988705D01*
X133943919Y-117984461D01*
X134030313Y-117988705D01*
G37*
D14*
%TO.C,TP704*%
X127800000Y-122975000D02*
G75*
G02*
X126400000Y-122975000I-700000J0D01*
G01*
X126400000Y-122975000D02*
G75*
G02*
X127800000Y-122975000I700000J0D01*
G01*
D15*
%TO.C,REF\u002A\u002A*%
X117087925Y-114553932D02*
X117171745Y-114998556D01*
X117790317Y-115253552D01*
X118161357Y-115001247D01*
X118234794Y-114951507D01*
X118332149Y-114886219D01*
X118416437Y-114830455D01*
X118483281Y-114787079D01*
X118528304Y-114758954D01*
X118547128Y-114748943D01*
X118558689Y-114756062D01*
X118593246Y-114785895D01*
X118645544Y-114834853D01*
X118711150Y-114898441D01*
X118785633Y-114972164D01*
X118864563Y-115051526D01*
X118943506Y-115132032D01*
X119018034Y-115209186D01*
X119083713Y-115278494D01*
X119136113Y-115335458D01*
X119170803Y-115375585D01*
X119183351Y-115394378D01*
X119180432Y-115402452D01*
X119160221Y-115438470D01*
X119123313Y-115497745D01*
X119072700Y-115575631D01*
X119011375Y-115667482D01*
X118942329Y-115768651D01*
X118904437Y-115823827D01*
X118839256Y-115919885D01*
X118783373Y-116003718D01*
X118739767Y-116070778D01*
X118711419Y-116116520D01*
X118701307Y-116136397D01*
X118701473Y-116137498D01*
X118710393Y-116162695D01*
X118730856Y-116214148D01*
X118760010Y-116285136D01*
X118795003Y-116368936D01*
X118832982Y-116458829D01*
X118871095Y-116548092D01*
X118906489Y-116630004D01*
X118936312Y-116697844D01*
X118957711Y-116744891D01*
X118967834Y-116764423D01*
X118973824Y-116766156D01*
X119010216Y-116773970D01*
X119075077Y-116786916D01*
X119163215Y-116803980D01*
X119269437Y-116824152D01*
X119388552Y-116846419D01*
X119451333Y-116858224D01*
X119566562Y-116880749D01*
X119667312Y-116901551D01*
X119748076Y-116919436D01*
X119803348Y-116933209D01*
X119827621Y-116941675D01*
X119831981Y-116950067D01*
X119839213Y-116991073D01*
X119844896Y-117059369D01*
X119849032Y-117148530D01*
X119851627Y-117252129D01*
X119852686Y-117363741D01*
X119852211Y-117476939D01*
X119850209Y-117585297D01*
X119846683Y-117682390D01*
X119841637Y-117761791D01*
X119835077Y-117817073D01*
X119827006Y-117841811D01*
X119822108Y-117844601D01*
X119785580Y-117856570D01*
X119722215Y-117872406D01*
X119639336Y-117890375D01*
X119544268Y-117908742D01*
X119512192Y-117914592D01*
X119364043Y-117941799D01*
X119247611Y-117963664D01*
X119158859Y-117981094D01*
X119093753Y-117994997D01*
X119048256Y-118006278D01*
X119018332Y-118015844D01*
X118999944Y-118024602D01*
X118989057Y-118033458D01*
X118987792Y-118034944D01*
X118969988Y-118065932D01*
X118943644Y-118122635D01*
X118911311Y-118198400D01*
X118875543Y-118286575D01*
X118838894Y-118380508D01*
X118803916Y-118473548D01*
X118773163Y-118559042D01*
X118749188Y-118630337D01*
X118734545Y-118680783D01*
X118731786Y-118703727D01*
X118733631Y-118706704D01*
X118752725Y-118735494D01*
X118788634Y-118788596D01*
X118838028Y-118861118D01*
X118897577Y-118948168D01*
X118963953Y-119044855D01*
X118982170Y-119071457D01*
X119046227Y-119166876D01*
X119101587Y-119252213D01*
X119145089Y-119322406D01*
X119173574Y-119372395D01*
X119183882Y-119397117D01*
X119181661Y-119403617D01*
X119158508Y-119435645D01*
X119112827Y-119487946D01*
X119047891Y-119557000D01*
X118966969Y-119639287D01*
X118873335Y-119731287D01*
X118819815Y-119782782D01*
X118735192Y-119862984D01*
X118661125Y-119931679D01*
X118601591Y-119985253D01*
X118560567Y-120020086D01*
X118542031Y-120032564D01*
X118529296Y-120027939D01*
X118490086Y-120006058D01*
X118433145Y-119970274D01*
X118365900Y-119925118D01*
X118318088Y-119892166D01*
X118222635Y-119826728D01*
X118120775Y-119757229D01*
X118027738Y-119694076D01*
X117845482Y-119570801D01*
X117692491Y-119653521D01*
X117656467Y-119672614D01*
X117590953Y-119705273D01*
X117540290Y-119727820D01*
X117513214Y-119736227D01*
X117504353Y-119725431D01*
X117482349Y-119684324D01*
X117449849Y-119616550D01*
X117408660Y-119526410D01*
X117360592Y-119418206D01*
X117307452Y-119296238D01*
X117251049Y-119164809D01*
X117193192Y-119028219D01*
X117135688Y-118890768D01*
X117080347Y-118756759D01*
X117028976Y-118630492D01*
X116983385Y-118516269D01*
X116945382Y-118418391D01*
X116916774Y-118341158D01*
X116899371Y-118288872D01*
X116894981Y-118265834D01*
X116895278Y-118265161D01*
X116915727Y-118243864D01*
X116958500Y-118210509D01*
X117014767Y-118172012D01*
X117032527Y-118160257D01*
X117167664Y-118048736D01*
X117279506Y-117915907D01*
X117365405Y-117767299D01*
X117422712Y-117608441D01*
X117448781Y-117444861D01*
X117440963Y-117282089D01*
X117409294Y-117137316D01*
X117352432Y-116991125D01*
X117269538Y-116860704D01*
X117155781Y-116736814D01*
X117111083Y-116697236D01*
X116966585Y-116599724D01*
X116810488Y-116534051D01*
X116647317Y-116499631D01*
X116481593Y-116495875D01*
X116317842Y-116522195D01*
X116160586Y-116578004D01*
X116014348Y-116662715D01*
X115883654Y-116775738D01*
X115773024Y-116916488D01*
X115751755Y-116951343D01*
X115679460Y-117110656D01*
X115641065Y-117276553D01*
X115635564Y-117444738D01*
X115661951Y-117610914D01*
X115719220Y-117770785D01*
X115806367Y-117920054D01*
X115922386Y-118054424D01*
X116066272Y-118169600D01*
X116070944Y-118172703D01*
X116126614Y-118211934D01*
X116168339Y-118245287D01*
X116187396Y-118265834D01*
X116184992Y-118281942D01*
X116170041Y-118328845D01*
X116143531Y-118401540D01*
X116107270Y-118495726D01*
X116063066Y-118607099D01*
X116012726Y-118731359D01*
X115958057Y-118864203D01*
X115900868Y-119001328D01*
X115842966Y-119138433D01*
X115786160Y-119271216D01*
X115732256Y-119395375D01*
X115683062Y-119506607D01*
X115640387Y-119600610D01*
X115606037Y-119673083D01*
X115581821Y-119719723D01*
X115569547Y-119736227D01*
X115559339Y-119733992D01*
X115519236Y-119717927D01*
X115459968Y-119689760D01*
X115390269Y-119653521D01*
X115237279Y-119570801D01*
X115055023Y-119694076D01*
X115001177Y-119730580D01*
X114901024Y-119798785D01*
X114801175Y-119867099D01*
X114716861Y-119925118D01*
X114670329Y-119956737D01*
X114609850Y-119996021D01*
X114565007Y-120022913D01*
X114543105Y-120032884D01*
X114533695Y-120028651D01*
X114499681Y-120002722D01*
X114447245Y-119957071D01*
X114380951Y-119896187D01*
X114305363Y-119824562D01*
X114225046Y-119746684D01*
X114144563Y-119667046D01*
X114068479Y-119590136D01*
X114001357Y-119520446D01*
X113947762Y-119462465D01*
X113912258Y-119420685D01*
X113899409Y-119399594D01*
X113900150Y-119395582D01*
X113915443Y-119362921D01*
X113948112Y-119306413D01*
X113995000Y-119231164D01*
X114052951Y-119142276D01*
X114118807Y-119044855D01*
X114137277Y-119017983D01*
X114202132Y-118923424D01*
X114259259Y-118839828D01*
X114305328Y-118772085D01*
X114337009Y-118725087D01*
X114350974Y-118703727D01*
X114351318Y-118702812D01*
X114347196Y-118676679D01*
X114331457Y-118623741D01*
X114306654Y-118550648D01*
X114275339Y-118464053D01*
X114240067Y-118370609D01*
X114203390Y-118276966D01*
X114167862Y-118189778D01*
X114136036Y-118115696D01*
X114110466Y-118061372D01*
X114093703Y-118033458D01*
X114092024Y-118031725D01*
X114080022Y-118022957D01*
X114059753Y-118014116D01*
X114027179Y-118004293D01*
X113978266Y-117992584D01*
X113908977Y-117978081D01*
X113815275Y-117959877D01*
X113693126Y-117937067D01*
X113538492Y-117908742D01*
X113506420Y-117902781D01*
X113414543Y-117884353D01*
X113337257Y-117866893D01*
X113281886Y-117852134D01*
X113255755Y-117841811D01*
X113251383Y-117833198D01*
X113244095Y-117791827D01*
X113238319Y-117723242D01*
X113234060Y-117633869D01*
X113231323Y-117530136D01*
X113230112Y-117418466D01*
X113230432Y-117305288D01*
X113232286Y-117197027D01*
X113235680Y-117100109D01*
X113240617Y-117020960D01*
X113247102Y-116966007D01*
X113255139Y-116941675D01*
X113263346Y-116938080D01*
X113304169Y-116926749D01*
X113373174Y-116910723D01*
X113464853Y-116891196D01*
X113573700Y-116869363D01*
X113694208Y-116846419D01*
X113760007Y-116834160D01*
X113872785Y-116812902D01*
X113969857Y-116794288D01*
X114046032Y-116779329D01*
X114096119Y-116769037D01*
X114114926Y-116764423D01*
X114115633Y-116763472D01*
X114127611Y-116739311D01*
X114150444Y-116688695D01*
X114181280Y-116618339D01*
X114217263Y-116534959D01*
X114255541Y-116445271D01*
X114293259Y-116355990D01*
X114327563Y-116273833D01*
X114355599Y-116205514D01*
X114374514Y-116157749D01*
X114381453Y-116137255D01*
X114378392Y-116130044D01*
X114358022Y-116095729D01*
X114321072Y-116037971D01*
X114270510Y-115961300D01*
X114209307Y-115870249D01*
X114140431Y-115769351D01*
X114102644Y-115714094D01*
X114037432Y-115617216D01*
X113981521Y-115532194D01*
X113937891Y-115463663D01*
X113909527Y-115416261D01*
X113899409Y-115394624D01*
X113906440Y-115382888D01*
X113935847Y-115347819D01*
X113984091Y-115294746D01*
X114046743Y-115228165D01*
X114119375Y-115152575D01*
X114197558Y-115072473D01*
X114276864Y-114992355D01*
X114352863Y-114916719D01*
X114421128Y-114850063D01*
X114477230Y-114796883D01*
X114516740Y-114761677D01*
X114535229Y-114748943D01*
X114545493Y-114753894D01*
X114583180Y-114776858D01*
X114643998Y-114815939D01*
X114723563Y-114868273D01*
X114817493Y-114930997D01*
X114921404Y-115001247D01*
X115292444Y-115253552D01*
X115601730Y-115126054D01*
X115911015Y-114998556D01*
X115994836Y-114553932D01*
X116078656Y-114109308D01*
X117004104Y-114109308D01*
X117087925Y-114553932D01*
G36*
X117087925Y-114553932D02*
G01*
X117171745Y-114998556D01*
X117790317Y-115253552D01*
X118161357Y-115001247D01*
X118234794Y-114951507D01*
X118332149Y-114886219D01*
X118416437Y-114830455D01*
X118483281Y-114787079D01*
X118528304Y-114758954D01*
X118547128Y-114748943D01*
X118558689Y-114756062D01*
X118593246Y-114785895D01*
X118645544Y-114834853D01*
X118711150Y-114898441D01*
X118785633Y-114972164D01*
X118864563Y-115051526D01*
X118943506Y-115132032D01*
X119018034Y-115209186D01*
X119083713Y-115278494D01*
X119136113Y-115335458D01*
X119170803Y-115375585D01*
X119183351Y-115394378D01*
X119180432Y-115402452D01*
X119160221Y-115438470D01*
X119123313Y-115497745D01*
X119072700Y-115575631D01*
X119011375Y-115667482D01*
X118942329Y-115768651D01*
X118904437Y-115823827D01*
X118839256Y-115919885D01*
X118783373Y-116003718D01*
X118739767Y-116070778D01*
X118711419Y-116116520D01*
X118701307Y-116136397D01*
X118701473Y-116137498D01*
X118710393Y-116162695D01*
X118730856Y-116214148D01*
X118760010Y-116285136D01*
X118795003Y-116368936D01*
X118832982Y-116458829D01*
X118871095Y-116548092D01*
X118906489Y-116630004D01*
X118936312Y-116697844D01*
X118957711Y-116744891D01*
X118967834Y-116764423D01*
X118973824Y-116766156D01*
X119010216Y-116773970D01*
X119075077Y-116786916D01*
X119163215Y-116803980D01*
X119269437Y-116824152D01*
X119388552Y-116846419D01*
X119451333Y-116858224D01*
X119566562Y-116880749D01*
X119667312Y-116901551D01*
X119748076Y-116919436D01*
X119803348Y-116933209D01*
X119827621Y-116941675D01*
X119831981Y-116950067D01*
X119839213Y-116991073D01*
X119844896Y-117059369D01*
X119849032Y-117148530D01*
X119851627Y-117252129D01*
X119852686Y-117363741D01*
X119852211Y-117476939D01*
X119850209Y-117585297D01*
X119846683Y-117682390D01*
X119841637Y-117761791D01*
X119835077Y-117817073D01*
X119827006Y-117841811D01*
X119822108Y-117844601D01*
X119785580Y-117856570D01*
X119722215Y-117872406D01*
X119639336Y-117890375D01*
X119544268Y-117908742D01*
X119512192Y-117914592D01*
X119364043Y-117941799D01*
X119247611Y-117963664D01*
X119158859Y-117981094D01*
X119093753Y-117994997D01*
X119048256Y-118006278D01*
X119018332Y-118015844D01*
X118999944Y-118024602D01*
X118989057Y-118033458D01*
X118987792Y-118034944D01*
X118969988Y-118065932D01*
X118943644Y-118122635D01*
X118911311Y-118198400D01*
X118875543Y-118286575D01*
X118838894Y-118380508D01*
X118803916Y-118473548D01*
X118773163Y-118559042D01*
X118749188Y-118630337D01*
X118734545Y-118680783D01*
X118731786Y-118703727D01*
X118733631Y-118706704D01*
X118752725Y-118735494D01*
X118788634Y-118788596D01*
X118838028Y-118861118D01*
X118897577Y-118948168D01*
X118963953Y-119044855D01*
X118982170Y-119071457D01*
X119046227Y-119166876D01*
X119101587Y-119252213D01*
X119145089Y-119322406D01*
X119173574Y-119372395D01*
X119183882Y-119397117D01*
X119181661Y-119403617D01*
X119158508Y-119435645D01*
X119112827Y-119487946D01*
X119047891Y-119557000D01*
X118966969Y-119639287D01*
X118873335Y-119731287D01*
X118819815Y-119782782D01*
X118735192Y-119862984D01*
X118661125Y-119931679D01*
X118601591Y-119985253D01*
X118560567Y-120020086D01*
X118542031Y-120032564D01*
X118529296Y-120027939D01*
X118490086Y-120006058D01*
X118433145Y-119970274D01*
X118365900Y-119925118D01*
X118318088Y-119892166D01*
X118222635Y-119826728D01*
X118120775Y-119757229D01*
X118027738Y-119694076D01*
X117845482Y-119570801D01*
X117692491Y-119653521D01*
X117656467Y-119672614D01*
X117590953Y-119705273D01*
X117540290Y-119727820D01*
X117513214Y-119736227D01*
X117504353Y-119725431D01*
X117482349Y-119684324D01*
X117449849Y-119616550D01*
X117408660Y-119526410D01*
X117360592Y-119418206D01*
X117307452Y-119296238D01*
X117251049Y-119164809D01*
X117193192Y-119028219D01*
X117135688Y-118890768D01*
X117080347Y-118756759D01*
X117028976Y-118630492D01*
X116983385Y-118516269D01*
X116945382Y-118418391D01*
X116916774Y-118341158D01*
X116899371Y-118288872D01*
X116894981Y-118265834D01*
X116895278Y-118265161D01*
X116915727Y-118243864D01*
X116958500Y-118210509D01*
X117014767Y-118172012D01*
X117032527Y-118160257D01*
X117167664Y-118048736D01*
X117279506Y-117915907D01*
X117365405Y-117767299D01*
X117422712Y-117608441D01*
X117448781Y-117444861D01*
X117440963Y-117282089D01*
X117409294Y-117137316D01*
X117352432Y-116991125D01*
X117269538Y-116860704D01*
X117155781Y-116736814D01*
X117111083Y-116697236D01*
X116966585Y-116599724D01*
X116810488Y-116534051D01*
X116647317Y-116499631D01*
X116481593Y-116495875D01*
X116317842Y-116522195D01*
X116160586Y-116578004D01*
X116014348Y-116662715D01*
X115883654Y-116775738D01*
X115773024Y-116916488D01*
X115751755Y-116951343D01*
X115679460Y-117110656D01*
X115641065Y-117276553D01*
X115635564Y-117444738D01*
X115661951Y-117610914D01*
X115719220Y-117770785D01*
X115806367Y-117920054D01*
X115922386Y-118054424D01*
X116066272Y-118169600D01*
X116070944Y-118172703D01*
X116126614Y-118211934D01*
X116168339Y-118245287D01*
X116187396Y-118265834D01*
X116184992Y-118281942D01*
X116170041Y-118328845D01*
X116143531Y-118401540D01*
X116107270Y-118495726D01*
X116063066Y-118607099D01*
X116012726Y-118731359D01*
X115958057Y-118864203D01*
X115900868Y-119001328D01*
X115842966Y-119138433D01*
X115786160Y-119271216D01*
X115732256Y-119395375D01*
X115683062Y-119506607D01*
X115640387Y-119600610D01*
X115606037Y-119673083D01*
X115581821Y-119719723D01*
X115569547Y-119736227D01*
X115559339Y-119733992D01*
X115519236Y-119717927D01*
X115459968Y-119689760D01*
X115390269Y-119653521D01*
X115237279Y-119570801D01*
X115055023Y-119694076D01*
X115001177Y-119730580D01*
X114901024Y-119798785D01*
X114801175Y-119867099D01*
X114716861Y-119925118D01*
X114670329Y-119956737D01*
X114609850Y-119996021D01*
X114565007Y-120022913D01*
X114543105Y-120032884D01*
X114533695Y-120028651D01*
X114499681Y-120002722D01*
X114447245Y-119957071D01*
X114380951Y-119896187D01*
X114305363Y-119824562D01*
X114225046Y-119746684D01*
X114144563Y-119667046D01*
X114068479Y-119590136D01*
X114001357Y-119520446D01*
X113947762Y-119462465D01*
X113912258Y-119420685D01*
X113899409Y-119399594D01*
X113900150Y-119395582D01*
X113915443Y-119362921D01*
X113948112Y-119306413D01*
X113995000Y-119231164D01*
X114052951Y-119142276D01*
X114118807Y-119044855D01*
X114137277Y-119017983D01*
X114202132Y-118923424D01*
X114259259Y-118839828D01*
X114305328Y-118772085D01*
X114337009Y-118725087D01*
X114350974Y-118703727D01*
X114351318Y-118702812D01*
X114347196Y-118676679D01*
X114331457Y-118623741D01*
X114306654Y-118550648D01*
X114275339Y-118464053D01*
X114240067Y-118370609D01*
X114203390Y-118276966D01*
X114167862Y-118189778D01*
X114136036Y-118115696D01*
X114110466Y-118061372D01*
X114093703Y-118033458D01*
X114092024Y-118031725D01*
X114080022Y-118022957D01*
X114059753Y-118014116D01*
X114027179Y-118004293D01*
X113978266Y-117992584D01*
X113908977Y-117978081D01*
X113815275Y-117959877D01*
X113693126Y-117937067D01*
X113538492Y-117908742D01*
X113506420Y-117902781D01*
X113414543Y-117884353D01*
X113337257Y-117866893D01*
X113281886Y-117852134D01*
X113255755Y-117841811D01*
X113251383Y-117833198D01*
X113244095Y-117791827D01*
X113238319Y-117723242D01*
X113234060Y-117633869D01*
X113231323Y-117530136D01*
X113230112Y-117418466D01*
X113230432Y-117305288D01*
X113232286Y-117197027D01*
X113235680Y-117100109D01*
X113240617Y-117020960D01*
X113247102Y-116966007D01*
X113255139Y-116941675D01*
X113263346Y-116938080D01*
X113304169Y-116926749D01*
X113373174Y-116910723D01*
X113464853Y-116891196D01*
X113573700Y-116869363D01*
X113694208Y-116846419D01*
X113760007Y-116834160D01*
X113872785Y-116812902D01*
X113969857Y-116794288D01*
X114046032Y-116779329D01*
X114096119Y-116769037D01*
X114114926Y-116764423D01*
X114115633Y-116763472D01*
X114127611Y-116739311D01*
X114150444Y-116688695D01*
X114181280Y-116618339D01*
X114217263Y-116534959D01*
X114255541Y-116445271D01*
X114293259Y-116355990D01*
X114327563Y-116273833D01*
X114355599Y-116205514D01*
X114374514Y-116157749D01*
X114381453Y-116137255D01*
X114378392Y-116130044D01*
X114358022Y-116095729D01*
X114321072Y-116037971D01*
X114270510Y-115961300D01*
X114209307Y-115870249D01*
X114140431Y-115769351D01*
X114102644Y-115714094D01*
X114037432Y-115617216D01*
X113981521Y-115532194D01*
X113937891Y-115463663D01*
X113909527Y-115416261D01*
X113899409Y-115394624D01*
X113906440Y-115382888D01*
X113935847Y-115347819D01*
X113984091Y-115294746D01*
X114046743Y-115228165D01*
X114119375Y-115152575D01*
X114197558Y-115072473D01*
X114276864Y-114992355D01*
X114352863Y-114916719D01*
X114421128Y-114850063D01*
X114477230Y-114796883D01*
X114516740Y-114761677D01*
X114535229Y-114748943D01*
X114545493Y-114753894D01*
X114583180Y-114776858D01*
X114643998Y-114815939D01*
X114723563Y-114868273D01*
X114817493Y-114930997D01*
X114921404Y-115001247D01*
X115292444Y-115253552D01*
X115601730Y-115126054D01*
X115911015Y-114998556D01*
X115994836Y-114553932D01*
X116078656Y-114109308D01*
X117004104Y-114109308D01*
X117087925Y-114553932D01*
G37*
D14*
%TO.C,TP706*%
X132600000Y-122975000D02*
G75*
G02*
X131200000Y-122975000I-700000J0D01*
G01*
X131200000Y-122975000D02*
G75*
G02*
X132600000Y-122975000I700000J0D01*
G01*
D13*
%TO.C,G\u002A\u002A\u002A*%
G36*
X118683027Y-107233085D02*
G01*
X118683027Y-107598028D01*
X118318085Y-107598028D01*
X117953142Y-107598028D01*
X117953142Y-107233085D01*
X117953142Y-106868143D01*
X118318085Y-106868143D01*
X118683027Y-106868143D01*
X118683027Y-107233085D01*
G37*
G36*
X123986858Y-107233085D02*
G01*
X123986858Y-107598028D01*
X123621916Y-107598028D01*
X123256973Y-107598028D01*
X123256973Y-107233085D01*
X123256973Y-106868143D01*
X123621916Y-106868143D01*
X123986858Y-106868143D01*
X123986858Y-107233085D01*
G37*
G36*
X123986858Y-112536916D02*
G01*
X123986858Y-112901859D01*
X123621916Y-112901859D01*
X123256973Y-112901859D01*
X123256973Y-112536916D01*
X123256973Y-112171974D01*
X123621916Y-112171974D01*
X123986858Y-112171974D01*
X123986858Y-112536916D01*
G37*
G36*
X119070387Y-111685898D02*
G01*
X119149520Y-111714433D01*
X119169617Y-111807031D01*
X119169103Y-111829449D01*
X119140568Y-111908582D01*
X119047970Y-111928679D01*
X119025552Y-111928165D01*
X118946419Y-111899630D01*
X118926322Y-111807031D01*
X118926836Y-111784614D01*
X118955371Y-111705481D01*
X119047970Y-111685384D01*
X119070387Y-111685898D01*
G37*
G36*
X119556977Y-107841836D02*
G01*
X119636110Y-107870371D01*
X119656207Y-107962970D01*
X119655693Y-107985388D01*
X119627158Y-108064520D01*
X119534560Y-108084618D01*
X119512142Y-108084104D01*
X119433009Y-108055569D01*
X119412912Y-107962970D01*
X119413426Y-107940552D01*
X119441961Y-107861420D01*
X119534560Y-107841323D01*
X119556977Y-107841836D01*
G37*
G36*
X120286862Y-110712718D02*
G01*
X120365995Y-110741253D01*
X120386092Y-110833851D01*
X120385578Y-110856269D01*
X120357043Y-110935401D01*
X120264445Y-110955499D01*
X120242027Y-110954985D01*
X120162895Y-110926450D01*
X120142797Y-110833851D01*
X120143311Y-110811434D01*
X120171846Y-110732301D01*
X120264445Y-110712204D01*
X120286862Y-110712718D01*
G37*
G36*
X122184564Y-109982833D02*
G01*
X122263696Y-110011368D01*
X122283793Y-110103966D01*
X122283280Y-110126384D01*
X122254745Y-110205516D01*
X122162146Y-110225614D01*
X122139728Y-110225100D01*
X122060596Y-110196565D01*
X122040498Y-110103966D01*
X122041012Y-110081549D01*
X122069547Y-110002416D01*
X122162146Y-109982319D01*
X122184564Y-109982833D01*
G37*
G36*
X122427859Y-107841836D02*
G01*
X122506991Y-107870371D01*
X122527088Y-107962970D01*
X122526575Y-107985388D01*
X122498040Y-108064520D01*
X122405441Y-108084618D01*
X122383023Y-108084104D01*
X122303891Y-108055569D01*
X122283793Y-107962970D01*
X122284307Y-107940552D01*
X122312842Y-107861420D01*
X122405441Y-107841323D01*
X122427859Y-107841836D01*
G37*
G36*
X124374219Y-109058311D02*
G01*
X124453351Y-109086847D01*
X124473448Y-109179445D01*
X124472935Y-109201863D01*
X124444400Y-109280995D01*
X124351801Y-109301093D01*
X124329383Y-109300579D01*
X124250251Y-109272044D01*
X124230153Y-109179445D01*
X124230667Y-109157027D01*
X124259202Y-109077895D01*
X124351801Y-109057798D01*
X124374219Y-109058311D01*
G37*
G36*
X124473448Y-108571208D02*
G01*
X124473448Y-108814503D01*
X123865211Y-108814503D01*
X123256973Y-108814503D01*
X123256973Y-108692855D01*
X123257487Y-108670437D01*
X123286022Y-108591305D01*
X123378621Y-108571208D01*
X123401039Y-108570694D01*
X123480171Y-108542159D01*
X123500268Y-108449560D01*
X123500268Y-108327913D01*
X123986858Y-108327913D01*
X124473448Y-108327913D01*
X124473448Y-108571208D01*
G37*
G36*
X124473448Y-108084618D02*
G01*
X123621916Y-108084618D01*
X122770383Y-108084618D01*
X122770383Y-107233085D01*
X122770383Y-106624848D01*
X123013678Y-106624848D01*
X123013678Y-107233085D01*
X123013678Y-107841323D01*
X123621916Y-107841323D01*
X124230153Y-107841323D01*
X124230153Y-107233085D01*
X124230153Y-106624848D01*
X123621916Y-106624848D01*
X123013678Y-106624848D01*
X122770383Y-106624848D01*
X122770383Y-106381553D01*
X123621916Y-106381553D01*
X124473448Y-106381553D01*
X124473448Y-107233085D01*
X124473448Y-108084618D01*
G37*
G36*
X124473448Y-113388449D02*
G01*
X123621916Y-113388449D01*
X122770383Y-113388449D01*
X122770383Y-112536916D01*
X122770383Y-111928679D01*
X123013678Y-111928679D01*
X123013678Y-112536916D01*
X123013678Y-113145154D01*
X123621916Y-113145154D01*
X124230153Y-113145154D01*
X124230153Y-112536916D01*
X124230153Y-111928679D01*
X123621916Y-111928679D01*
X123013678Y-111928679D01*
X122770383Y-111928679D01*
X122770383Y-111685384D01*
X123621916Y-111685384D01*
X124473448Y-111685384D01*
X124473448Y-112536916D01*
X124473448Y-113388449D01*
G37*
G36*
X119313682Y-110226128D02*
G01*
X119392815Y-110254663D01*
X119412912Y-110347261D01*
X119413426Y-110369679D01*
X119441961Y-110448811D01*
X119534560Y-110468909D01*
X119556977Y-110469423D01*
X119636110Y-110497958D01*
X119656207Y-110590556D01*
X119656207Y-110712204D01*
X119169617Y-110712204D01*
X118683027Y-110712204D01*
X118683027Y-110590556D01*
X118685332Y-110541736D01*
X118709895Y-110492981D01*
X118781929Y-110472853D01*
X118926322Y-110468909D01*
X119023962Y-110467756D01*
X119121473Y-110455475D01*
X119161729Y-110419458D01*
X119169617Y-110347261D01*
X119170131Y-110324844D01*
X119198666Y-110245711D01*
X119291265Y-110225614D01*
X119313682Y-110226128D01*
G37*
G36*
X119169617Y-107233085D02*
G01*
X119169617Y-108084618D01*
X118318085Y-108084618D01*
X117466552Y-108084618D01*
X117466552Y-107233085D01*
X117466552Y-106624848D01*
X117709847Y-106624848D01*
X117709847Y-107233085D01*
X117709847Y-107841323D01*
X118285645Y-107841323D01*
X118507287Y-107838867D01*
X118699489Y-107831918D01*
X118835149Y-107821561D01*
X118893883Y-107808883D01*
X118906231Y-107752943D01*
X118916668Y-107619164D01*
X118923727Y-107428270D01*
X118926322Y-107200646D01*
X118926322Y-106624848D01*
X118318085Y-106624848D01*
X117709847Y-106624848D01*
X117466552Y-106624848D01*
X117466552Y-106381553D01*
X118318085Y-106381553D01*
X119169617Y-106381553D01*
X119169617Y-107200646D01*
X119169617Y-107233085D01*
G37*
G36*
X123887629Y-110956013D02*
G01*
X123966761Y-110984548D01*
X123986858Y-111077146D01*
X123987372Y-111099564D01*
X124015907Y-111178696D01*
X124108506Y-111198794D01*
X124130924Y-111199308D01*
X124210056Y-111227843D01*
X124230153Y-111320441D01*
X124229640Y-111342859D01*
X124201105Y-111421992D01*
X124108506Y-111442089D01*
X124086088Y-111441575D01*
X124006956Y-111413040D01*
X123986858Y-111320441D01*
X123986345Y-111298024D01*
X123957810Y-111218891D01*
X123865211Y-111198794D01*
X123842793Y-111199308D01*
X123763661Y-111227843D01*
X123743563Y-111320441D01*
X123743050Y-111342859D01*
X123714515Y-111421992D01*
X123621916Y-111442089D01*
X123599498Y-111441575D01*
X123520366Y-111413040D01*
X123500268Y-111320441D01*
X123500782Y-111298024D01*
X123529317Y-111218891D01*
X123621916Y-111198794D01*
X123644334Y-111198280D01*
X123723466Y-111169745D01*
X123743563Y-111077146D01*
X123744077Y-111054729D01*
X123772612Y-110975596D01*
X123865211Y-110955499D01*
X123887629Y-110956013D01*
G37*
G36*
X121115977Y-107354733D02*
G01*
X121116394Y-107411006D01*
X121125811Y-107530849D01*
X121154923Y-107585218D01*
X121213295Y-107598028D01*
X121287805Y-107624284D01*
X121310613Y-107719675D01*
X121289608Y-107812812D01*
X121213295Y-107841323D01*
X121138786Y-107867579D01*
X121115977Y-107962970D01*
X121115464Y-107985388D01*
X121086928Y-108064520D01*
X120994330Y-108084618D01*
X120971912Y-108084104D01*
X120892780Y-108055569D01*
X120872682Y-107962970D01*
X120873196Y-107940552D01*
X120901731Y-107861420D01*
X120994330Y-107841323D01*
X121016747Y-107840809D01*
X121095880Y-107812274D01*
X121115977Y-107719675D01*
X121115464Y-107697257D01*
X121086928Y-107618125D01*
X120994330Y-107598028D01*
X120971912Y-107597514D01*
X120892780Y-107568979D01*
X120872682Y-107476380D01*
X120872168Y-107453962D01*
X120843633Y-107374830D01*
X120751035Y-107354733D01*
X120728617Y-107354219D01*
X120649485Y-107325684D01*
X120629387Y-107233085D01*
X120631692Y-107184265D01*
X120656255Y-107135510D01*
X120728289Y-107115382D01*
X120872682Y-107111438D01*
X121115977Y-107111438D01*
X121115977Y-107354733D01*
G37*
G36*
X122448168Y-106869484D02*
G01*
X122492945Y-106886159D01*
X122516469Y-106938651D01*
X122525572Y-107047460D01*
X122527088Y-107233085D01*
X122526641Y-107361265D01*
X122521083Y-107495597D01*
X122503586Y-107566169D01*
X122467316Y-107593480D01*
X122405441Y-107598028D01*
X122383023Y-107597514D01*
X122303891Y-107568979D01*
X122283793Y-107476380D01*
X122281489Y-107427560D01*
X122256926Y-107378805D01*
X122184891Y-107358677D01*
X122040498Y-107354733D01*
X121942858Y-107355885D01*
X121845347Y-107368166D01*
X121805091Y-107404184D01*
X121797203Y-107476380D01*
X121797717Y-107498798D01*
X121826252Y-107577930D01*
X121918851Y-107598028D01*
X122040498Y-107598028D01*
X122040498Y-108206265D01*
X122040498Y-108692855D01*
X122040498Y-108814503D01*
X122283793Y-108814503D01*
X122381433Y-108813350D01*
X122478944Y-108801069D01*
X122519200Y-108765052D01*
X122527088Y-108692855D01*
X122526575Y-108670437D01*
X122498040Y-108591305D01*
X122405441Y-108571208D01*
X122383023Y-108570694D01*
X122303891Y-108542159D01*
X122283793Y-108449560D01*
X122284307Y-108427142D01*
X122312842Y-108348010D01*
X122405441Y-108327913D01*
X122427859Y-108328426D01*
X122506991Y-108356961D01*
X122527088Y-108449560D01*
X122527602Y-108471978D01*
X122556137Y-108551110D01*
X122648736Y-108571208D01*
X122671154Y-108570694D01*
X122750286Y-108542159D01*
X122770383Y-108449560D01*
X122770897Y-108427142D01*
X122799432Y-108348010D01*
X122892031Y-108327913D01*
X122914449Y-108328426D01*
X122993581Y-108356961D01*
X123013678Y-108449560D01*
X123013165Y-108471978D01*
X122984630Y-108551110D01*
X122892031Y-108571208D01*
X122869613Y-108571721D01*
X122790481Y-108600256D01*
X122770383Y-108692855D01*
X122770897Y-108715273D01*
X122799432Y-108794405D01*
X122892031Y-108814503D01*
X122914449Y-108815016D01*
X122993581Y-108843552D01*
X123013678Y-108936150D01*
X123013678Y-109057798D01*
X123500268Y-109057798D01*
X123986858Y-109057798D01*
X123986858Y-109179445D01*
X123986858Y-109301093D01*
X123986858Y-109544388D01*
X123743563Y-109544388D01*
X123687290Y-109544804D01*
X123567447Y-109554222D01*
X123513078Y-109583334D01*
X123500268Y-109641706D01*
X123500841Y-109659224D01*
X123516603Y-109702203D01*
X123569140Y-109726244D01*
X123678620Y-109736725D01*
X123865211Y-109739024D01*
X123930903Y-109738871D01*
X124092076Y-109734668D01*
X124182231Y-109720658D01*
X124221534Y-109691463D01*
X124230153Y-109641706D01*
X124256410Y-109567196D01*
X124351801Y-109544388D01*
X124444938Y-109565393D01*
X124473448Y-109641706D01*
X124447192Y-109716215D01*
X124351801Y-109739024D01*
X124329383Y-109739537D01*
X124250251Y-109768073D01*
X124230153Y-109860671D01*
X124230667Y-109883089D01*
X124259202Y-109962221D01*
X124351801Y-109982319D01*
X124374219Y-109982833D01*
X124453351Y-110011368D01*
X124473448Y-110103966D01*
X124472935Y-110126384D01*
X124444400Y-110205516D01*
X124351801Y-110225614D01*
X124329383Y-110225100D01*
X124250251Y-110196565D01*
X124230153Y-110103966D01*
X124227849Y-110055146D01*
X124203286Y-110006391D01*
X124131252Y-109986263D01*
X123986858Y-109982319D01*
X123889218Y-109983471D01*
X123791707Y-109995753D01*
X123751452Y-110031770D01*
X123743563Y-110103966D01*
X123744077Y-110126384D01*
X123772612Y-110205516D01*
X123865211Y-110225614D01*
X123887629Y-110226128D01*
X123966761Y-110254663D01*
X123986858Y-110347261D01*
X123987372Y-110369679D01*
X124015907Y-110448811D01*
X124108506Y-110468909D01*
X124130924Y-110469423D01*
X124210056Y-110497958D01*
X124230153Y-110590556D01*
X124230667Y-110612974D01*
X124259202Y-110692106D01*
X124351801Y-110712204D01*
X124374219Y-110712718D01*
X124453351Y-110741253D01*
X124473448Y-110833851D01*
X124472935Y-110856269D01*
X124444400Y-110935401D01*
X124351801Y-110955499D01*
X124329383Y-110954985D01*
X124250251Y-110926450D01*
X124230153Y-110833851D01*
X124227849Y-110785031D01*
X124203286Y-110736276D01*
X124131252Y-110716148D01*
X123986858Y-110712204D01*
X123889218Y-110711051D01*
X123791707Y-110698770D01*
X123751452Y-110662753D01*
X123743563Y-110590556D01*
X123743050Y-110568139D01*
X123714515Y-110489006D01*
X123621916Y-110468909D01*
X123599498Y-110468395D01*
X123520366Y-110439860D01*
X123500268Y-110347261D01*
X123499755Y-110324844D01*
X123471220Y-110245711D01*
X123378621Y-110225614D01*
X123356203Y-110226128D01*
X123277071Y-110254663D01*
X123256973Y-110347261D01*
X123254669Y-110396081D01*
X123230106Y-110444837D01*
X123158072Y-110464965D01*
X123013678Y-110468909D01*
X122916038Y-110470061D01*
X122818527Y-110482343D01*
X122778271Y-110518360D01*
X122770383Y-110590556D01*
X122771725Y-110633283D01*
X122788399Y-110678060D01*
X122840892Y-110701584D01*
X122949701Y-110710688D01*
X123135326Y-110712204D01*
X123263506Y-110712651D01*
X123397838Y-110718209D01*
X123468410Y-110735707D01*
X123495720Y-110771976D01*
X123500268Y-110833851D01*
X123499755Y-110856269D01*
X123471220Y-110935401D01*
X123378621Y-110955499D01*
X123356203Y-110956013D01*
X123277071Y-110984548D01*
X123256973Y-111077146D01*
X123256460Y-111099564D01*
X123227925Y-111178696D01*
X123135326Y-111198794D01*
X123112908Y-111199308D01*
X123033776Y-111227843D01*
X123013678Y-111320441D01*
X123011374Y-111369261D01*
X122986811Y-111418017D01*
X122914777Y-111438145D01*
X122770383Y-111442089D01*
X122672743Y-111443241D01*
X122575232Y-111455523D01*
X122534976Y-111491540D01*
X122527088Y-111563736D01*
X122525747Y-111606463D01*
X122509072Y-111651241D01*
X122456580Y-111674764D01*
X122347771Y-111683868D01*
X122162146Y-111685384D01*
X122033966Y-111684937D01*
X121899633Y-111679379D01*
X121829062Y-111661881D01*
X121801751Y-111625611D01*
X121797203Y-111563736D01*
X121798545Y-111521010D01*
X121815219Y-111476232D01*
X121867712Y-111452708D01*
X121976521Y-111443605D01*
X122162146Y-111442089D01*
X122290326Y-111441642D01*
X122424658Y-111436084D01*
X122495230Y-111418586D01*
X122522540Y-111382316D01*
X122527088Y-111320441D01*
X122527088Y-111198794D01*
X122040498Y-111198794D01*
X121553908Y-111198794D01*
X121553908Y-111077146D01*
X121554422Y-111054729D01*
X121582957Y-110975596D01*
X121675556Y-110955499D01*
X121718282Y-110954157D01*
X121763060Y-110937483D01*
X121786584Y-110884990D01*
X121790862Y-110833851D01*
X122040498Y-110833851D01*
X122041012Y-110856269D01*
X122069547Y-110935401D01*
X122162146Y-110955499D01*
X122184564Y-110954985D01*
X122263696Y-110926450D01*
X122283793Y-110833851D01*
X122527088Y-110833851D01*
X122527602Y-110856269D01*
X122556137Y-110935401D01*
X122648736Y-110955499D01*
X122671154Y-110956013D01*
X122750286Y-110984548D01*
X122770383Y-111077146D01*
X122770897Y-111099564D01*
X122799432Y-111178696D01*
X122892031Y-111198794D01*
X122914449Y-111198280D01*
X122993581Y-111169745D01*
X123013678Y-111077146D01*
X123013165Y-111054729D01*
X122984630Y-110975596D01*
X122892031Y-110955499D01*
X122869613Y-110954985D01*
X122790481Y-110926450D01*
X122770383Y-110833851D01*
X122769870Y-110811434D01*
X122741335Y-110732301D01*
X122648736Y-110712204D01*
X122626318Y-110712718D01*
X122547186Y-110741253D01*
X122527088Y-110833851D01*
X122283793Y-110833851D01*
X122283280Y-110811434D01*
X122254745Y-110732301D01*
X122162146Y-110712204D01*
X122139728Y-110712718D01*
X122060596Y-110741253D01*
X122040498Y-110833851D01*
X121790862Y-110833851D01*
X121795687Y-110776181D01*
X121797203Y-110590556D01*
X121796756Y-110462376D01*
X121791198Y-110328044D01*
X121773701Y-110257472D01*
X121737431Y-110230162D01*
X121675556Y-110225614D01*
X121653138Y-110226128D01*
X121574006Y-110254663D01*
X121553908Y-110347261D01*
X121553395Y-110369679D01*
X121524859Y-110448811D01*
X121432261Y-110468909D01*
X121409843Y-110468395D01*
X121330711Y-110439860D01*
X121310613Y-110347261D01*
X121311127Y-110324844D01*
X121339662Y-110245711D01*
X121432261Y-110225614D01*
X121481081Y-110223309D01*
X121529836Y-110198746D01*
X121549964Y-110126712D01*
X121553908Y-109982319D01*
X121552756Y-109884679D01*
X121540474Y-109787168D01*
X121504457Y-109746912D01*
X121432261Y-109739024D01*
X121409843Y-109739537D01*
X121330711Y-109768073D01*
X121310613Y-109860671D01*
X121289608Y-109953808D01*
X121213295Y-109982319D01*
X121195777Y-109982891D01*
X121152798Y-109998653D01*
X121128757Y-110051190D01*
X121118276Y-110160671D01*
X121115977Y-110347261D01*
X121116130Y-110412953D01*
X121120333Y-110574127D01*
X121134343Y-110664281D01*
X121163538Y-110703584D01*
X121213295Y-110712204D01*
X121230813Y-110712776D01*
X121273793Y-110728538D01*
X121297834Y-110781076D01*
X121308315Y-110890556D01*
X121310613Y-111077146D01*
X121310613Y-111442089D01*
X121091648Y-111442089D01*
X121032588Y-111442554D01*
X120926368Y-111453105D01*
X120881758Y-111488670D01*
X120872682Y-111563736D01*
X120873196Y-111586154D01*
X120901731Y-111665287D01*
X120994330Y-111685384D01*
X121016747Y-111685898D01*
X121095880Y-111714433D01*
X121115977Y-111807031D01*
X121116597Y-111839469D01*
X121129848Y-111889859D01*
X121176793Y-111916475D01*
X121278639Y-111926890D01*
X121456590Y-111928679D01*
X121547415Y-111928900D01*
X121688506Y-111933633D01*
X121763031Y-111950399D01*
X121792195Y-111986772D01*
X121797203Y-112050326D01*
X121797717Y-112072744D01*
X121826252Y-112151877D01*
X121918851Y-112171974D01*
X121941269Y-112171460D01*
X122020401Y-112142925D01*
X122040498Y-112050326D01*
X122041012Y-112027909D01*
X122069547Y-111948776D01*
X122162146Y-111928679D01*
X122184564Y-111929193D01*
X122263696Y-111957728D01*
X122283793Y-112050326D01*
X122283280Y-112072744D01*
X122254745Y-112151877D01*
X122162146Y-112171974D01*
X122139728Y-112172488D01*
X122060596Y-112201023D01*
X122040498Y-112293621D01*
X122039985Y-112316039D01*
X122011449Y-112395172D01*
X121918851Y-112415269D01*
X121896433Y-112415783D01*
X121817301Y-112444318D01*
X121797203Y-112536916D01*
X121796690Y-112559334D01*
X121768154Y-112638467D01*
X121675556Y-112658564D01*
X121626736Y-112660869D01*
X121577980Y-112685432D01*
X121557852Y-112757466D01*
X121557231Y-112780212D01*
X121553908Y-112901859D01*
X121555061Y-112999499D01*
X121567342Y-113097010D01*
X121603359Y-113137266D01*
X121675556Y-113145154D01*
X121697974Y-113144640D01*
X121777106Y-113116105D01*
X121797203Y-113023507D01*
X121799508Y-112974687D01*
X121824071Y-112925931D01*
X121896105Y-112905803D01*
X122040498Y-112901859D01*
X122283793Y-112901859D01*
X122283793Y-112658564D01*
X122284946Y-112560924D01*
X122297227Y-112463413D01*
X122333244Y-112423157D01*
X122405441Y-112415269D01*
X122527088Y-112415269D01*
X122527088Y-112901859D01*
X122527088Y-113388449D01*
X122405441Y-113388449D01*
X122383023Y-113387935D01*
X122303891Y-113359400D01*
X122283793Y-113266802D01*
X122281489Y-113217982D01*
X122256926Y-113169226D01*
X122184891Y-113149098D01*
X122040498Y-113145154D01*
X121942858Y-113146306D01*
X121845347Y-113158588D01*
X121805091Y-113194605D01*
X121797203Y-113266802D01*
X121796690Y-113289219D01*
X121768154Y-113368352D01*
X121675556Y-113388449D01*
X121653138Y-113387935D01*
X121574006Y-113359400D01*
X121553908Y-113266802D01*
X121553072Y-113233991D01*
X121534080Y-113174980D01*
X121470062Y-113150196D01*
X121334943Y-113145154D01*
X121275883Y-113144689D01*
X121169663Y-113134138D01*
X121125053Y-113098573D01*
X121115977Y-113023507D01*
X121115464Y-113001089D01*
X121086928Y-112921956D01*
X120994330Y-112901859D01*
X120971912Y-112901345D01*
X120892780Y-112872810D01*
X120872682Y-112780212D01*
X121115977Y-112780212D01*
X121136982Y-112873348D01*
X121213295Y-112901859D01*
X121287805Y-112875603D01*
X121310613Y-112780212D01*
X121289608Y-112687075D01*
X121213295Y-112658564D01*
X121138786Y-112684820D01*
X121115977Y-112780212D01*
X120872682Y-112780212D01*
X120873196Y-112757794D01*
X120901731Y-112678661D01*
X120994330Y-112658564D01*
X121016747Y-112658050D01*
X121095880Y-112629515D01*
X121115977Y-112536916D01*
X121136982Y-112443780D01*
X121213295Y-112415269D01*
X121287805Y-112441525D01*
X121310613Y-112536916D01*
X121311127Y-112559334D01*
X121339662Y-112638467D01*
X121432261Y-112658564D01*
X121481081Y-112656259D01*
X121529836Y-112631696D01*
X121549964Y-112559662D01*
X121553908Y-112415269D01*
X121553908Y-112171974D01*
X121213295Y-112171974D01*
X121122470Y-112172195D01*
X120981379Y-112176928D01*
X120906855Y-112193694D01*
X120877691Y-112230067D01*
X120872682Y-112293621D01*
X120872168Y-112316039D01*
X120843633Y-112395172D01*
X120751035Y-112415269D01*
X120728617Y-112415783D01*
X120649485Y-112444318D01*
X120629387Y-112536916D01*
X120628873Y-112559334D01*
X120600338Y-112638467D01*
X120507740Y-112658564D01*
X120485322Y-112659078D01*
X120406190Y-112687613D01*
X120386092Y-112780212D01*
X120386606Y-112802629D01*
X120415141Y-112881762D01*
X120507740Y-112901859D01*
X120556560Y-112904164D01*
X120605315Y-112928727D01*
X120625443Y-113000761D01*
X120629387Y-113145154D01*
X120628235Y-113242794D01*
X120615953Y-113340305D01*
X120579936Y-113380561D01*
X120507740Y-113388449D01*
X120485322Y-113387935D01*
X120406190Y-113359400D01*
X120386092Y-113266802D01*
X120385578Y-113244384D01*
X120357043Y-113165251D01*
X120264445Y-113145154D01*
X120242027Y-113145668D01*
X120162895Y-113174203D01*
X120142797Y-113266802D01*
X120140492Y-113315622D01*
X120115930Y-113364377D01*
X120043895Y-113384505D01*
X119899502Y-113388449D01*
X119801862Y-113387297D01*
X119704351Y-113375015D01*
X119664095Y-113338998D01*
X119656207Y-113266802D01*
X119653902Y-113217982D01*
X119629340Y-113169226D01*
X119557305Y-113149098D01*
X119412912Y-113145154D01*
X119315272Y-113146306D01*
X119217761Y-113158588D01*
X119177505Y-113194605D01*
X119169617Y-113266802D01*
X119167312Y-113315622D01*
X119142750Y-113364377D01*
X119070715Y-113384505D01*
X118926322Y-113388449D01*
X118828682Y-113387297D01*
X118731171Y-113375015D01*
X118690915Y-113338998D01*
X118683027Y-113266802D01*
X118685332Y-113217982D01*
X118709895Y-113169226D01*
X118781929Y-113149098D01*
X118926322Y-113145154D01*
X119023962Y-113144002D01*
X119121473Y-113131720D01*
X119161729Y-113095703D01*
X119169617Y-113023507D01*
X119171922Y-112974687D01*
X119196485Y-112925931D01*
X119268519Y-112905803D01*
X119412912Y-112901859D01*
X119510552Y-112903011D01*
X119608063Y-112915293D01*
X119648319Y-112951310D01*
X119656207Y-113023507D01*
X119656721Y-113045924D01*
X119685256Y-113125057D01*
X119777855Y-113145154D01*
X119826675Y-113142849D01*
X119875430Y-113118286D01*
X119895558Y-113046252D01*
X119899502Y-112901859D01*
X119900654Y-112804219D01*
X119912936Y-112706708D01*
X119948953Y-112666452D01*
X120021150Y-112658564D01*
X120043567Y-112658050D01*
X120122700Y-112629515D01*
X120142797Y-112536916D01*
X120142283Y-112514499D01*
X120113748Y-112435366D01*
X120021150Y-112415269D01*
X119998732Y-112414755D01*
X119919600Y-112386220D01*
X119899502Y-112293621D01*
X119898988Y-112271204D01*
X119870453Y-112192071D01*
X119777855Y-112171974D01*
X119755437Y-112172488D01*
X119676305Y-112201023D01*
X119656207Y-112293621D01*
X119656207Y-112415269D01*
X119169617Y-112415269D01*
X118683027Y-112415269D01*
X118683027Y-112536916D01*
X118683541Y-112559334D01*
X118712076Y-112638467D01*
X118804675Y-112658564D01*
X118827092Y-112659078D01*
X118906225Y-112687613D01*
X118926322Y-112780212D01*
X118924017Y-112829032D01*
X118899455Y-112877787D01*
X118827420Y-112897915D01*
X118683027Y-112901859D01*
X118439732Y-112901859D01*
X118439732Y-113145154D01*
X118438580Y-113242794D01*
X118426298Y-113340305D01*
X118390281Y-113380561D01*
X118318085Y-113388449D01*
X118295667Y-113387935D01*
X118216534Y-113359400D01*
X118196437Y-113266802D01*
X118195923Y-113244384D01*
X118167388Y-113165251D01*
X118074789Y-113145154D01*
X118052372Y-113145668D01*
X117973239Y-113174203D01*
X117953142Y-113266802D01*
X117952628Y-113289219D01*
X117924093Y-113368352D01*
X117831494Y-113388449D01*
X117809077Y-113387935D01*
X117729944Y-113359400D01*
X117709847Y-113266802D01*
X117709333Y-113244384D01*
X117680798Y-113165251D01*
X117588199Y-113145154D01*
X117539379Y-113142849D01*
X117490624Y-113118286D01*
X117470496Y-113046252D01*
X117466552Y-112901859D01*
X117709847Y-112901859D01*
X117710999Y-112999499D01*
X117723281Y-113097010D01*
X117759298Y-113137266D01*
X117831494Y-113145154D01*
X117880314Y-113142849D01*
X117929070Y-113118286D01*
X117949198Y-113046252D01*
X117953142Y-112901859D01*
X117951990Y-112804219D01*
X117939708Y-112706708D01*
X117903691Y-112666452D01*
X117831494Y-112658564D01*
X117782674Y-112660869D01*
X117733919Y-112685432D01*
X117713791Y-112757466D01*
X117709847Y-112901859D01*
X117466552Y-112901859D01*
X117467704Y-112804219D01*
X117479986Y-112706708D01*
X117516003Y-112666452D01*
X117588199Y-112658564D01*
X117610617Y-112658050D01*
X117689750Y-112629515D01*
X117709847Y-112536916D01*
X117709333Y-112514499D01*
X117680798Y-112435366D01*
X117588199Y-112415269D01*
X118196437Y-112415269D01*
X118197589Y-112512909D01*
X118209871Y-112610420D01*
X118245888Y-112650676D01*
X118318085Y-112658564D01*
X118366905Y-112656259D01*
X118415660Y-112631696D01*
X118435788Y-112559662D01*
X118439732Y-112415269D01*
X118438580Y-112317629D01*
X118426298Y-112220118D01*
X118390281Y-112179862D01*
X118318085Y-112171974D01*
X118269265Y-112174279D01*
X118220509Y-112198842D01*
X118200381Y-112270876D01*
X118196437Y-112415269D01*
X117588199Y-112415269D01*
X117565782Y-112414755D01*
X117486649Y-112386220D01*
X117466552Y-112293621D01*
X117468857Y-112244801D01*
X117493419Y-112196046D01*
X117565454Y-112175918D01*
X117709847Y-112171974D01*
X117807487Y-112170822D01*
X117904998Y-112158540D01*
X117945254Y-112122523D01*
X117953142Y-112050326D01*
X117952628Y-112027909D01*
X117924093Y-111948776D01*
X117831494Y-111928679D01*
X117782674Y-111926374D01*
X117733919Y-111901811D01*
X117713791Y-111829777D01*
X117709847Y-111685384D01*
X117708695Y-111587744D01*
X117696413Y-111490233D01*
X117660396Y-111449977D01*
X117588199Y-111442089D01*
X117539379Y-111439784D01*
X117490624Y-111415221D01*
X117470496Y-111343187D01*
X117466552Y-111198794D01*
X117467704Y-111101154D01*
X117479986Y-111003643D01*
X117516003Y-110963387D01*
X117588199Y-110955499D01*
X117610617Y-110954985D01*
X117689750Y-110926450D01*
X117709847Y-110833851D01*
X117709333Y-110811434D01*
X117680798Y-110732301D01*
X117588199Y-110712204D01*
X117565782Y-110711690D01*
X117486649Y-110683155D01*
X117466552Y-110590556D01*
X117709847Y-110590556D01*
X117711189Y-110633283D01*
X117727863Y-110678060D01*
X117780355Y-110701584D01*
X117889164Y-110710688D01*
X118074789Y-110712204D01*
X118202970Y-110712651D01*
X118337302Y-110718209D01*
X118407874Y-110735707D01*
X118435184Y-110771976D01*
X118439732Y-110833851D01*
X118439218Y-110856269D01*
X118410683Y-110935401D01*
X118318085Y-110955499D01*
X118269265Y-110957804D01*
X118220509Y-110982366D01*
X118200381Y-111054401D01*
X118196437Y-111198794D01*
X118195285Y-111296434D01*
X118183003Y-111393945D01*
X118146986Y-111434201D01*
X118074789Y-111442089D01*
X118025969Y-111439784D01*
X117977214Y-111415221D01*
X117957086Y-111343187D01*
X117953142Y-111198794D01*
X117951990Y-111101154D01*
X117939708Y-111003643D01*
X117903691Y-110963387D01*
X117831494Y-110955499D01*
X117782674Y-110957804D01*
X117733919Y-110982366D01*
X117713791Y-111054401D01*
X117709847Y-111198794D01*
X117710999Y-111296434D01*
X117723281Y-111393945D01*
X117759298Y-111434201D01*
X117831494Y-111442089D01*
X117880314Y-111444394D01*
X117929070Y-111468956D01*
X117949198Y-111540991D01*
X117953142Y-111685384D01*
X117954294Y-111783024D01*
X117966576Y-111880535D01*
X118002593Y-111920791D01*
X118074789Y-111928679D01*
X118097207Y-111928165D01*
X118176340Y-111899630D01*
X118196437Y-111807031D01*
X118196951Y-111784614D01*
X118225486Y-111705481D01*
X118318085Y-111685384D01*
X118366905Y-111683079D01*
X118415660Y-111658516D01*
X118435788Y-111586482D01*
X118439732Y-111442089D01*
X118683027Y-111442089D01*
X118683027Y-111807031D01*
X118683027Y-112171974D01*
X119047970Y-112171974D01*
X119412912Y-112171974D01*
X119412912Y-111807031D01*
X119412912Y-111442089D01*
X119047970Y-111442089D01*
X118683027Y-111442089D01*
X118439732Y-111442089D01*
X118439732Y-111198794D01*
X118683027Y-111198794D01*
X118780667Y-111197642D01*
X118878178Y-111185360D01*
X118918434Y-111149343D01*
X118926322Y-111077146D01*
X118926836Y-111054729D01*
X118955371Y-110975596D01*
X119047970Y-110955499D01*
X119070387Y-110956013D01*
X119149520Y-110984548D01*
X119169617Y-111077146D01*
X119171922Y-111125966D01*
X119196485Y-111174722D01*
X119268519Y-111194850D01*
X119412912Y-111198794D01*
X119656207Y-111198794D01*
X119656207Y-110955499D01*
X119657359Y-110857859D01*
X119669641Y-110760348D01*
X119705658Y-110720092D01*
X119777855Y-110712204D01*
X119826675Y-110714509D01*
X119875430Y-110739071D01*
X119895558Y-110811106D01*
X119899502Y-110955499D01*
X119899502Y-111198794D01*
X120142797Y-111198794D01*
X120240437Y-111199946D01*
X120337948Y-111212228D01*
X120378204Y-111248245D01*
X120386092Y-111320441D01*
X120383787Y-111369261D01*
X120359225Y-111418017D01*
X120287190Y-111438145D01*
X120142797Y-111442089D01*
X120045157Y-111443241D01*
X119947646Y-111455523D01*
X119907390Y-111491540D01*
X119899502Y-111563736D01*
X119900016Y-111586154D01*
X119928551Y-111665287D01*
X120021150Y-111685384D01*
X120043567Y-111685898D01*
X120122700Y-111714433D01*
X120142797Y-111807031D01*
X120142283Y-111829449D01*
X120113748Y-111908582D01*
X120021150Y-111928679D01*
X119998732Y-111929193D01*
X119919600Y-111957728D01*
X119899502Y-112050326D01*
X119901807Y-112099146D01*
X119926370Y-112147902D01*
X119998404Y-112168030D01*
X120142797Y-112171974D01*
X120240437Y-112173126D01*
X120337948Y-112185408D01*
X120378204Y-112221425D01*
X120386092Y-112293621D01*
X120386606Y-112316039D01*
X120415141Y-112395172D01*
X120507740Y-112415269D01*
X120629387Y-112415269D01*
X120629387Y-111928679D01*
X120629387Y-111442089D01*
X120751035Y-111442089D01*
X120773452Y-111441575D01*
X120852585Y-111413040D01*
X120872682Y-111320441D01*
X120870378Y-111271621D01*
X120845815Y-111222866D01*
X120773780Y-111202738D01*
X120629387Y-111198794D01*
X120531747Y-111197642D01*
X120434236Y-111185360D01*
X120393980Y-111149343D01*
X120386092Y-111077146D01*
X120386606Y-111054729D01*
X120415141Y-110975596D01*
X120507740Y-110955499D01*
X120530157Y-110954985D01*
X120609290Y-110926450D01*
X120629387Y-110833851D01*
X120628873Y-110811434D01*
X120600338Y-110732301D01*
X120507740Y-110712204D01*
X120465013Y-110710862D01*
X120420236Y-110694188D01*
X120396712Y-110641695D01*
X120387608Y-110532886D01*
X120386092Y-110347261D01*
X120386539Y-110219081D01*
X120392098Y-110084749D01*
X120409595Y-110014177D01*
X120445865Y-109986867D01*
X120507740Y-109982319D01*
X120556560Y-109984623D01*
X120605315Y-110009186D01*
X120625443Y-110081221D01*
X120629387Y-110225614D01*
X120630540Y-110323254D01*
X120642821Y-110420765D01*
X120678838Y-110461021D01*
X120751035Y-110468909D01*
X120799855Y-110466604D01*
X120848610Y-110442041D01*
X120868738Y-110370007D01*
X120872682Y-110225614D01*
X120873835Y-110127974D01*
X120886116Y-110030463D01*
X120922133Y-109990207D01*
X120994330Y-109982319D01*
X121016747Y-109981805D01*
X121095880Y-109953270D01*
X121115977Y-109860671D01*
X121113673Y-109811851D01*
X121089110Y-109763096D01*
X121017075Y-109742968D01*
X120872682Y-109739024D01*
X120816408Y-109738607D01*
X120696566Y-109729190D01*
X120642196Y-109700078D01*
X120629387Y-109641706D01*
X120603131Y-109567196D01*
X120507740Y-109544388D01*
X120414603Y-109565393D01*
X120386092Y-109641706D01*
X120359836Y-109716215D01*
X120264445Y-109739024D01*
X120242027Y-109739537D01*
X120162895Y-109768073D01*
X120142797Y-109860671D01*
X120142283Y-109883089D01*
X120113748Y-109962221D01*
X120021150Y-109982319D01*
X119998732Y-109982833D01*
X119919600Y-110011368D01*
X119899502Y-110103966D01*
X119897197Y-110152786D01*
X119872635Y-110201542D01*
X119800600Y-110221670D01*
X119656207Y-110225614D01*
X119558567Y-110224461D01*
X119461056Y-110212180D01*
X119420800Y-110176163D01*
X119412912Y-110103966D01*
X119412398Y-110081549D01*
X119383863Y-110002416D01*
X119291265Y-109982319D01*
X119268847Y-109982833D01*
X119189714Y-110011368D01*
X119169617Y-110103966D01*
X119167312Y-110152786D01*
X119142750Y-110201542D01*
X119070715Y-110221670D01*
X118926322Y-110225614D01*
X118828682Y-110226766D01*
X118731171Y-110239048D01*
X118690915Y-110275065D01*
X118683027Y-110347261D01*
X118682513Y-110369679D01*
X118653978Y-110448811D01*
X118561380Y-110468909D01*
X118518653Y-110467567D01*
X118473875Y-110450893D01*
X118450352Y-110398400D01*
X118441248Y-110289591D01*
X118439732Y-110103966D01*
X118439285Y-109975786D01*
X118434522Y-109860671D01*
X118683027Y-109860671D01*
X118683541Y-109883089D01*
X118712076Y-109962221D01*
X118804675Y-109982319D01*
X118827092Y-109981805D01*
X118906225Y-109953270D01*
X118926322Y-109860671D01*
X118925808Y-109838254D01*
X118897273Y-109759121D01*
X118804675Y-109739024D01*
X118782257Y-109739537D01*
X118703124Y-109768073D01*
X118683027Y-109860671D01*
X118434522Y-109860671D01*
X118433727Y-109841454D01*
X118416229Y-109770882D01*
X118379960Y-109743572D01*
X118318085Y-109739024D01*
X118295667Y-109739537D01*
X118216534Y-109768073D01*
X118196437Y-109860671D01*
X118195923Y-109883089D01*
X118167388Y-109962221D01*
X118074789Y-109982319D01*
X118052372Y-109982833D01*
X117973239Y-110011368D01*
X117953142Y-110103966D01*
X117953656Y-110126384D01*
X117982191Y-110205516D01*
X118074789Y-110225614D01*
X118097207Y-110226128D01*
X118176340Y-110254663D01*
X118196437Y-110347261D01*
X118194132Y-110396081D01*
X118169569Y-110444837D01*
X118097535Y-110464965D01*
X117953142Y-110468909D01*
X117855502Y-110470061D01*
X117757991Y-110482343D01*
X117717735Y-110518360D01*
X117709847Y-110590556D01*
X117466552Y-110590556D01*
X117467066Y-110568139D01*
X117495601Y-110489006D01*
X117588199Y-110468909D01*
X117610617Y-110468395D01*
X117689750Y-110439860D01*
X117709847Y-110347261D01*
X117709333Y-110324844D01*
X117680798Y-110245711D01*
X117588199Y-110225614D01*
X117565782Y-110225100D01*
X117486649Y-110196565D01*
X117466552Y-110103966D01*
X117468857Y-110055146D01*
X117493419Y-110006391D01*
X117565454Y-109986263D01*
X117709847Y-109982319D01*
X117953142Y-109982319D01*
X117953142Y-109763353D01*
X117953142Y-109544388D01*
X118196437Y-109544388D01*
X118294077Y-109543235D01*
X118391588Y-109530954D01*
X118431844Y-109494937D01*
X118439732Y-109422740D01*
X118440246Y-109400323D01*
X118468781Y-109321190D01*
X118561380Y-109301093D01*
X118583797Y-109300579D01*
X118662930Y-109272044D01*
X118683027Y-109179445D01*
X118680722Y-109130625D01*
X118656159Y-109081870D01*
X118584125Y-109061742D01*
X118439732Y-109057798D01*
X118196437Y-109057798D01*
X118196437Y-108814503D01*
X118195285Y-108716863D01*
X118183003Y-108619352D01*
X118146986Y-108579096D01*
X118074789Y-108571208D01*
X118032063Y-108572549D01*
X117987285Y-108589224D01*
X117963761Y-108641716D01*
X117954658Y-108750525D01*
X117953142Y-108936150D01*
X117952695Y-109064330D01*
X117947137Y-109198663D01*
X117929639Y-109269234D01*
X117893369Y-109296545D01*
X117831494Y-109301093D01*
X117788768Y-109299751D01*
X117743990Y-109283077D01*
X117720466Y-109230584D01*
X117711363Y-109121775D01*
X117709847Y-108936150D01*
X117709400Y-108807970D01*
X117703842Y-108673638D01*
X117686344Y-108603066D01*
X117650074Y-108575756D01*
X117588199Y-108571208D01*
X117565782Y-108570694D01*
X117486649Y-108542159D01*
X117466552Y-108449560D01*
X117467066Y-108427142D01*
X117495601Y-108348010D01*
X117588199Y-108327913D01*
X117610617Y-108328426D01*
X117689750Y-108356961D01*
X117709847Y-108449560D01*
X117710361Y-108471978D01*
X117738896Y-108551110D01*
X117831494Y-108571208D01*
X117853912Y-108570694D01*
X117933045Y-108542159D01*
X117953142Y-108449560D01*
X117954484Y-108406833D01*
X117971158Y-108362056D01*
X118023650Y-108338532D01*
X118132459Y-108329429D01*
X118318085Y-108327913D01*
X118446265Y-108328360D01*
X118580597Y-108333918D01*
X118651169Y-108351415D01*
X118678479Y-108387685D01*
X118683027Y-108449560D01*
X118683541Y-108471978D01*
X118712076Y-108551110D01*
X118804675Y-108571208D01*
X118827092Y-108571721D01*
X118906225Y-108600256D01*
X118926322Y-108692855D01*
X118925808Y-108715273D01*
X118897273Y-108794405D01*
X118804675Y-108814503D01*
X118782257Y-108815016D01*
X118703124Y-108843552D01*
X118683027Y-108936150D01*
X118683541Y-108958568D01*
X118712076Y-109037700D01*
X118804675Y-109057798D01*
X118827092Y-109058311D01*
X118906225Y-109086847D01*
X118926322Y-109179445D01*
X118927664Y-109222172D01*
X118944338Y-109266949D01*
X118996830Y-109290473D01*
X119105640Y-109299577D01*
X119291265Y-109301093D01*
X119419445Y-109301540D01*
X119553777Y-109307098D01*
X119624349Y-109324596D01*
X119651659Y-109360865D01*
X119656207Y-109422740D01*
X119654866Y-109465467D01*
X119638191Y-109510244D01*
X119585699Y-109533768D01*
X119476890Y-109542872D01*
X119291265Y-109544388D01*
X119225572Y-109544540D01*
X119064399Y-109548744D01*
X118974245Y-109562754D01*
X118934942Y-109591948D01*
X118926322Y-109641706D01*
X118927363Y-109664215D01*
X118950907Y-109712152D01*
X119023688Y-109733900D01*
X119169617Y-109739024D01*
X119267257Y-109740176D01*
X119364768Y-109752458D01*
X119405024Y-109788475D01*
X119412912Y-109860671D01*
X119415217Y-109909491D01*
X119439780Y-109958247D01*
X119511814Y-109978375D01*
X119656207Y-109982319D01*
X119753847Y-109981166D01*
X119851358Y-109968885D01*
X119891614Y-109932868D01*
X119899502Y-109860671D01*
X119900016Y-109838254D01*
X119928551Y-109759121D01*
X120021150Y-109739024D01*
X120114286Y-109718019D01*
X120142797Y-109641706D01*
X120116541Y-109567196D01*
X120021150Y-109544388D01*
X119972330Y-109542083D01*
X119923574Y-109517520D01*
X119903446Y-109445486D01*
X119899502Y-109301093D01*
X119899502Y-109057798D01*
X119534560Y-109057798D01*
X119169617Y-109057798D01*
X119169617Y-108692855D01*
X119169617Y-108327913D01*
X119534560Y-108327913D01*
X119899502Y-108327913D01*
X119899502Y-108571208D01*
X119900654Y-108668848D01*
X119912936Y-108766359D01*
X119948953Y-108806615D01*
X120021150Y-108814503D01*
X120069970Y-108816807D01*
X120118725Y-108841370D01*
X120138853Y-108913405D01*
X120142797Y-109057798D01*
X120143950Y-109155438D01*
X120156231Y-109252949D01*
X120192248Y-109293205D01*
X120264445Y-109301093D01*
X120286862Y-109300579D01*
X120365995Y-109272044D01*
X120386092Y-109179445D01*
X120386606Y-109157027D01*
X120415141Y-109077895D01*
X120507740Y-109057798D01*
X120530157Y-109058311D01*
X120609290Y-109086847D01*
X120629387Y-109179445D01*
X120631692Y-109228265D01*
X120656255Y-109277021D01*
X120728289Y-109297149D01*
X120872682Y-109301093D01*
X121115977Y-109301093D01*
X121115977Y-109520058D01*
X121116014Y-109535788D01*
X121123721Y-109665207D01*
X121152479Y-109724697D01*
X121213295Y-109739024D01*
X121220286Y-109738940D01*
X121277806Y-109721600D01*
X121304246Y-109656894D01*
X121304953Y-109641706D01*
X121797203Y-109641706D01*
X121823459Y-109716215D01*
X121918851Y-109739024D01*
X121941269Y-109739537D01*
X122020401Y-109768073D01*
X122040498Y-109860671D01*
X122039985Y-109883089D01*
X122011449Y-109962221D01*
X121918851Y-109982319D01*
X121896433Y-109982833D01*
X121817301Y-110011368D01*
X121797203Y-110103966D01*
X121797717Y-110126384D01*
X121826252Y-110205516D01*
X121918851Y-110225614D01*
X121941269Y-110226128D01*
X122020401Y-110254663D01*
X122040498Y-110347261D01*
X122042803Y-110396081D01*
X122067366Y-110444837D01*
X122139400Y-110464965D01*
X122283793Y-110468909D01*
X122527088Y-110468909D01*
X122527088Y-110225614D01*
X122528241Y-110127974D01*
X122540522Y-110030463D01*
X122576539Y-109990207D01*
X122648736Y-109982319D01*
X122671154Y-109982833D01*
X122750286Y-110011368D01*
X122770383Y-110103966D01*
X122770897Y-110126384D01*
X122799432Y-110205516D01*
X122892031Y-110225614D01*
X122914449Y-110225100D01*
X122993581Y-110196565D01*
X123013678Y-110103966D01*
X123013165Y-110081549D01*
X122984630Y-110002416D01*
X122892031Y-109982319D01*
X122869613Y-109981805D01*
X122790481Y-109953270D01*
X122770383Y-109860671D01*
X122770897Y-109838254D01*
X122799432Y-109759121D01*
X122892031Y-109739024D01*
X122985168Y-109718019D01*
X123013678Y-109641706D01*
X123012637Y-109619196D01*
X122989093Y-109571259D01*
X122916313Y-109549511D01*
X122770383Y-109544388D01*
X122714110Y-109544804D01*
X122594267Y-109554222D01*
X122539898Y-109583334D01*
X122527088Y-109641706D01*
X122526047Y-109664215D01*
X122502503Y-109712152D01*
X122429723Y-109733900D01*
X122283793Y-109739024D01*
X122227519Y-109738607D01*
X122107677Y-109729190D01*
X122053308Y-109700078D01*
X122040498Y-109641706D01*
X122014242Y-109567196D01*
X121918851Y-109544388D01*
X121825714Y-109565393D01*
X121797203Y-109641706D01*
X121304953Y-109641706D01*
X121310613Y-109520058D01*
X121311078Y-109460999D01*
X121321629Y-109354779D01*
X121357195Y-109310168D01*
X121432261Y-109301093D01*
X121454678Y-109301606D01*
X121533811Y-109330142D01*
X121553908Y-109422740D01*
X121554422Y-109445158D01*
X121582957Y-109524290D01*
X121675556Y-109544388D01*
X121724376Y-109542083D01*
X121773131Y-109517520D01*
X121793259Y-109445486D01*
X121797203Y-109301093D01*
X121797203Y-109179445D01*
X122283793Y-109179445D01*
X122285135Y-109222172D01*
X122301809Y-109266949D01*
X122354302Y-109290473D01*
X122463111Y-109299577D01*
X122648736Y-109301093D01*
X122776916Y-109300646D01*
X122911248Y-109295087D01*
X122981820Y-109277590D01*
X123009130Y-109241320D01*
X123013678Y-109179445D01*
X123012337Y-109136719D01*
X122995662Y-109091941D01*
X122943170Y-109068417D01*
X122834361Y-109059314D01*
X122648736Y-109057798D01*
X122520556Y-109058245D01*
X122386224Y-109063803D01*
X122315652Y-109081300D01*
X122288341Y-109117570D01*
X122283793Y-109179445D01*
X121797203Y-109179445D01*
X121797203Y-109057798D01*
X121456590Y-109057798D01*
X121365765Y-109057576D01*
X121224674Y-109052844D01*
X121150150Y-109036078D01*
X121120986Y-108999704D01*
X121115977Y-108936150D01*
X121113673Y-108887330D01*
X121089110Y-108838575D01*
X121017075Y-108818447D01*
X120872682Y-108814503D01*
X120775042Y-108813350D01*
X120677531Y-108801069D01*
X120637275Y-108765052D01*
X120629387Y-108692855D01*
X121553908Y-108692855D01*
X121554422Y-108715273D01*
X121582957Y-108794405D01*
X121675556Y-108814503D01*
X121697974Y-108813989D01*
X121777106Y-108785454D01*
X121797203Y-108692855D01*
X121796690Y-108670437D01*
X121768154Y-108591305D01*
X121675556Y-108571208D01*
X121653138Y-108571721D01*
X121574006Y-108600256D01*
X121553908Y-108692855D01*
X120629387Y-108692855D01*
X120628873Y-108670437D01*
X120600338Y-108591305D01*
X120507740Y-108571208D01*
X120485322Y-108570694D01*
X120406190Y-108542159D01*
X120386092Y-108449560D01*
X120385578Y-108427142D01*
X120357043Y-108348010D01*
X120264445Y-108327913D01*
X120242027Y-108327399D01*
X120162895Y-108298864D01*
X120142797Y-108206265D01*
X120142283Y-108183847D01*
X120113748Y-108104715D01*
X120021150Y-108084618D01*
X119972330Y-108082313D01*
X119923574Y-108057750D01*
X119903446Y-107985716D01*
X119902825Y-107962970D01*
X120142797Y-107962970D01*
X120143311Y-107985388D01*
X120171846Y-108064520D01*
X120264445Y-108084618D01*
X120286862Y-108084104D01*
X120365995Y-108055569D01*
X120386092Y-107962970D01*
X120385578Y-107940552D01*
X120357043Y-107861420D01*
X120264445Y-107841323D01*
X120242027Y-107841836D01*
X120162895Y-107870371D01*
X120142797Y-107962970D01*
X119902825Y-107962970D01*
X119899502Y-107841323D01*
X119899502Y-107598028D01*
X119656207Y-107598028D01*
X119412912Y-107598028D01*
X119412912Y-106989790D01*
X119412912Y-106868143D01*
X119656207Y-106868143D01*
X119656207Y-107111438D01*
X119657359Y-107209078D01*
X119669641Y-107306589D01*
X119705658Y-107346844D01*
X119777855Y-107354733D01*
X119800272Y-107355246D01*
X119879405Y-107383781D01*
X119899502Y-107476380D01*
X119900016Y-107498798D01*
X119928551Y-107577930D01*
X120021150Y-107598028D01*
X120063876Y-107596686D01*
X120108654Y-107580011D01*
X120132178Y-107527519D01*
X120141281Y-107418710D01*
X120142797Y-107233085D01*
X120386092Y-107233085D01*
X120386606Y-107255503D01*
X120415141Y-107334635D01*
X120507740Y-107354733D01*
X120530157Y-107355246D01*
X120609290Y-107383781D01*
X120629387Y-107476380D01*
X120629901Y-107498798D01*
X120658436Y-107577930D01*
X120751035Y-107598028D01*
X120773452Y-107598541D01*
X120852585Y-107627076D01*
X120872682Y-107719675D01*
X120872168Y-107742093D01*
X120843633Y-107821225D01*
X120751035Y-107841323D01*
X120728617Y-107841836D01*
X120649485Y-107870371D01*
X120629387Y-107962970D01*
X120629901Y-107985388D01*
X120658436Y-108064520D01*
X120751035Y-108084618D01*
X120799855Y-108086922D01*
X120848610Y-108111485D01*
X120868738Y-108183520D01*
X120872682Y-108327913D01*
X120873835Y-108425553D01*
X120886116Y-108523064D01*
X120922133Y-108563320D01*
X120994330Y-108571208D01*
X121016747Y-108570694D01*
X121095880Y-108542159D01*
X121115977Y-108449560D01*
X121136982Y-108356423D01*
X121213295Y-108327913D01*
X121235805Y-108326872D01*
X121283742Y-108303327D01*
X121305490Y-108230547D01*
X121310613Y-108084618D01*
X121311766Y-107986978D01*
X121324047Y-107889467D01*
X121360064Y-107849211D01*
X121432261Y-107841323D01*
X121481081Y-107843627D01*
X121529836Y-107868190D01*
X121549964Y-107940224D01*
X121553908Y-108084618D01*
X121555061Y-108182258D01*
X121567342Y-108279769D01*
X121603359Y-108320025D01*
X121675556Y-108327913D01*
X121724376Y-108325608D01*
X121773131Y-108301045D01*
X121793259Y-108229011D01*
X121797203Y-108084618D01*
X121796051Y-107986978D01*
X121783770Y-107889467D01*
X121747752Y-107849211D01*
X121675556Y-107841323D01*
X121653138Y-107840809D01*
X121574006Y-107812274D01*
X121553908Y-107719675D01*
X121553395Y-107697257D01*
X121524859Y-107618125D01*
X121432261Y-107598028D01*
X121383441Y-107595723D01*
X121334685Y-107571160D01*
X121314557Y-107499126D01*
X121310613Y-107354733D01*
X121311766Y-107257093D01*
X121324047Y-107159582D01*
X121360064Y-107119326D01*
X121432261Y-107111438D01*
X121454678Y-107111951D01*
X121533811Y-107140486D01*
X121553908Y-107233085D01*
X121554422Y-107255503D01*
X121582957Y-107334635D01*
X121675556Y-107354733D01*
X121724376Y-107352428D01*
X121773131Y-107327865D01*
X121793259Y-107255831D01*
X121797203Y-107111438D01*
X121797203Y-106868143D01*
X121456590Y-106868143D01*
X121365765Y-106867921D01*
X121224674Y-106863189D01*
X121150150Y-106846423D01*
X121120986Y-106810049D01*
X121115977Y-106746495D01*
X121113673Y-106697675D01*
X121089110Y-106648920D01*
X121017075Y-106628792D01*
X120872682Y-106624848D01*
X120629387Y-106624848D01*
X120629387Y-106868143D01*
X120628235Y-106965783D01*
X120615953Y-107063294D01*
X120579936Y-107103549D01*
X120507740Y-107111438D01*
X120485322Y-107111951D01*
X120406190Y-107140486D01*
X120386092Y-107233085D01*
X120142797Y-107233085D01*
X120142797Y-106868143D01*
X119899502Y-106868143D01*
X119656207Y-106868143D01*
X119412912Y-106868143D01*
X119412912Y-106381553D01*
X119656207Y-106381553D01*
X119753847Y-106382705D01*
X119851358Y-106394986D01*
X119891614Y-106431003D01*
X119899502Y-106503200D01*
X119900844Y-106545927D01*
X119917518Y-106590704D01*
X119970011Y-106614228D01*
X120078820Y-106623331D01*
X120264445Y-106624848D01*
X120392625Y-106624400D01*
X120526957Y-106618842D01*
X120597529Y-106601345D01*
X120624839Y-106565075D01*
X120629387Y-106503200D01*
X120629504Y-106482623D01*
X120636671Y-106433446D01*
X120668240Y-106403547D01*
X120742439Y-106388130D01*
X120877499Y-106382397D01*
X121091648Y-106381553D01*
X121169839Y-106381583D01*
X121356715Y-106383469D01*
X121470330Y-106391777D01*
X121528915Y-106411303D01*
X121550698Y-106446845D01*
X121553908Y-106503200D01*
X121554422Y-106525618D01*
X121582957Y-106604750D01*
X121675556Y-106624848D01*
X121697974Y-106624334D01*
X121777106Y-106595799D01*
X121797203Y-106503200D01*
X121797717Y-106480782D01*
X121826252Y-106401650D01*
X121918851Y-106381553D01*
X121941269Y-106382066D01*
X122020401Y-106410601D01*
X122040498Y-106503200D01*
X122041012Y-106525618D01*
X122069547Y-106604750D01*
X122162146Y-106624848D01*
X122184564Y-106624334D01*
X122263696Y-106595799D01*
X122283793Y-106503200D01*
X122284307Y-106480782D01*
X122312842Y-106401650D01*
X122405441Y-106381553D01*
X122427859Y-106382066D01*
X122506991Y-106410601D01*
X122527088Y-106503200D01*
X122526575Y-106525618D01*
X122498040Y-106604750D01*
X122405441Y-106624848D01*
X122383023Y-106625361D01*
X122303891Y-106653896D01*
X122283793Y-106746495D01*
X122284307Y-106768913D01*
X122312842Y-106848045D01*
X122405441Y-106868143D01*
X122448168Y-106869484D01*
G37*
%TO.C,kibuzzard-67B6249A*%
G36*
X130368028Y-124872349D02*
G01*
X130358890Y-124883316D01*
X130348838Y-124893368D01*
X130269788Y-124943174D01*
X130187539Y-124945002D01*
X130103920Y-124907076D01*
X130061882Y-124875319D01*
X130019845Y-124836708D01*
X129954046Y-124759943D01*
X129912008Y-124679523D01*
X129906982Y-124599559D01*
X129952218Y-124522337D01*
X129969125Y-124506344D01*
X129987859Y-124492180D01*
X130368028Y-124872349D01*
G37*
G36*
X131946978Y-122245179D02*
G01*
X132018865Y-122255842D01*
X132089361Y-122273500D01*
X132157787Y-122297983D01*
X132223484Y-122329056D01*
X132285819Y-122366417D01*
X132344190Y-122409709D01*
X132398039Y-122458514D01*
X132446844Y-122512363D01*
X132490136Y-122570734D01*
X132527497Y-122633069D01*
X132558570Y-122698766D01*
X132583053Y-122767192D01*
X132600711Y-122837688D01*
X132611374Y-122909575D01*
X132614940Y-122982162D01*
X132611374Y-123054748D01*
X132600711Y-123126636D01*
X132583052Y-123197132D01*
X132558570Y-123265557D01*
X132527497Y-123331254D01*
X132490136Y-123393589D01*
X132446843Y-123451961D01*
X132398039Y-123505809D01*
X131750714Y-124153133D01*
X131519505Y-124384342D01*
X130994030Y-124909817D01*
X130691539Y-125212309D01*
X130429258Y-125474589D01*
X130429182Y-125474666D01*
X130375334Y-125523470D01*
X130316962Y-125566763D01*
X130254627Y-125604124D01*
X130188930Y-125635197D01*
X130120505Y-125659679D01*
X130050009Y-125677338D01*
X129978121Y-125688001D01*
X129905535Y-125691567D01*
X129832948Y-125688001D01*
X129761061Y-125677338D01*
X129690565Y-125659680D01*
X129622139Y-125635197D01*
X129556442Y-125604124D01*
X129494107Y-125566763D01*
X129435736Y-125523471D01*
X129381887Y-125474666D01*
X129333082Y-125420817D01*
X129289790Y-125362446D01*
X129252429Y-125300111D01*
X129221356Y-125234414D01*
X129196873Y-125165988D01*
X129179215Y-125095492D01*
X129168552Y-125023605D01*
X129164986Y-124951018D01*
X129168552Y-124878432D01*
X129179215Y-124806544D01*
X129196874Y-124736048D01*
X129221356Y-124667623D01*
X129223724Y-124662616D01*
X129752538Y-124662616D01*
X129764075Y-124731042D01*
X129792291Y-124801982D01*
X129838898Y-124875320D01*
X129905611Y-124950942D01*
X129983290Y-125018797D01*
X130059142Y-125065176D01*
X130132707Y-125091906D01*
X130203533Y-125100817D01*
X130271616Y-125092821D01*
X130336957Y-125068831D01*
X130399329Y-125030448D01*
X130458502Y-124979272D01*
X130514248Y-124917129D01*
X130565425Y-124844933D01*
X130013448Y-124292955D01*
X129930285Y-124354186D01*
X129864486Y-124414500D01*
X129815252Y-124471960D01*
X129779040Y-124532847D01*
X129757564Y-124596590D01*
X129752538Y-124662616D01*
X129223724Y-124662616D01*
X129252429Y-124601926D01*
X129289790Y-124539591D01*
X129333083Y-124481219D01*
X129381887Y-124427371D01*
X129381964Y-124427295D01*
X129615001Y-124194258D01*
X130097523Y-124194258D01*
X130663209Y-124759943D01*
X130753682Y-124669470D01*
X130717331Y-124580419D01*
X130682603Y-124489946D01*
X130649501Y-124398051D01*
X130617921Y-124304633D01*
X130587764Y-124209590D01*
X130559028Y-124112924D01*
X130934628Y-124488524D01*
X131036068Y-124387084D01*
X130470382Y-123821399D01*
X130379909Y-123911872D01*
X130396245Y-123979384D01*
X130416007Y-124050323D01*
X130437712Y-124122518D01*
X130459873Y-124193801D01*
X130482491Y-124263026D01*
X130505566Y-124329054D01*
X130527613Y-124389255D01*
X130547147Y-124441003D01*
X130198963Y-124092818D01*
X130097523Y-124194258D01*
X129615001Y-124194258D01*
X130034467Y-123774792D01*
X130573650Y-123774792D01*
X130692453Y-123835107D01*
X130718956Y-123762911D01*
X130769218Y-123692543D01*
X130851467Y-123639539D01*
X130937370Y-123634970D01*
X131025101Y-123671524D01*
X131068967Y-123703739D01*
X131112833Y-123743720D01*
X131170965Y-123808960D01*
X131210110Y-123869428D01*
X131230266Y-123925123D01*
X131226724Y-124000632D01*
X131184115Y-124067230D01*
X131161269Y-124088249D01*
X131136593Y-124107440D01*
X130930059Y-123900905D01*
X130817653Y-124013311D01*
X131100039Y-124295697D01*
X131179088Y-124249547D01*
X131232892Y-124209451D01*
X131291038Y-124155875D01*
X131336731Y-124100814D01*
X131367802Y-124041642D01*
X131383910Y-123978928D01*
X131384709Y-123913242D01*
X131369859Y-123844932D01*
X131339015Y-123774335D01*
X131291609Y-123702253D01*
X131227067Y-123629486D01*
X131154300Y-123566315D01*
X131080390Y-123521193D01*
X131006938Y-123492977D01*
X130935542Y-123480526D01*
X130866888Y-123483610D01*
X130801660Y-123502002D01*
X130741231Y-123534329D01*
X130686970Y-123579223D01*
X130633051Y-123643195D01*
X130599238Y-123699854D01*
X130581418Y-123745091D01*
X130573650Y-123774792D01*
X130034467Y-123774792D01*
X130703420Y-123105839D01*
X131350744Y-122458514D01*
X131404592Y-122409710D01*
X131462964Y-122366417D01*
X131525299Y-122329056D01*
X131590996Y-122297983D01*
X131659421Y-122273501D01*
X131729917Y-122255842D01*
X131801805Y-122245179D01*
X131874391Y-122241613D01*
X131946978Y-122245179D01*
G37*
D14*
%TO.C,TP703*%
X130200000Y-120775000D02*
G75*
G02*
X128800000Y-120775000I-700000J0D01*
G01*
X128800000Y-120775000D02*
G75*
G02*
X130200000Y-120775000I700000J0D01*
G01*
D13*
%TO.C,kibuzzard-67B62451*%
G36*
X131485760Y-118104182D02*
G01*
X131557647Y-118114845D01*
X131628143Y-118132503D01*
X131696569Y-118156987D01*
X131762265Y-118188059D01*
X131824600Y-118225421D01*
X131882972Y-118268713D01*
X131936820Y-118317518D01*
X131985625Y-118371366D01*
X132028917Y-118429738D01*
X132066279Y-118492073D01*
X132097351Y-118557769D01*
X132121835Y-118626195D01*
X132139493Y-118696691D01*
X132150156Y-118768578D01*
X132153722Y-118841165D01*
X132150156Y-118913752D01*
X132139493Y-118985639D01*
X132121834Y-119056135D01*
X132097350Y-119124561D01*
X132066278Y-119190258D01*
X132028917Y-119252593D01*
X131985625Y-119310965D01*
X131936819Y-119364813D01*
X131936744Y-119364889D01*
X130648187Y-120653445D01*
X130000863Y-121300769D01*
X129947015Y-121349575D01*
X129888643Y-121392867D01*
X129826308Y-121430228D01*
X129760611Y-121461300D01*
X129692185Y-121485784D01*
X129621689Y-121503443D01*
X129549802Y-121514106D01*
X129477215Y-121517672D01*
X129404628Y-121514106D01*
X129332741Y-121503443D01*
X129262245Y-121485785D01*
X129193819Y-121461301D01*
X129128123Y-121430229D01*
X129065788Y-121392867D01*
X129007416Y-121349575D01*
X128953568Y-121300770D01*
X128904763Y-121246922D01*
X128861471Y-121188550D01*
X128824109Y-121126215D01*
X128793037Y-121060519D01*
X128768553Y-120992093D01*
X128750895Y-120921597D01*
X128740232Y-120849710D01*
X128736666Y-120777123D01*
X128740232Y-120704536D01*
X128750895Y-120632649D01*
X128768554Y-120562153D01*
X128793038Y-120493727D01*
X128824110Y-120428030D01*
X128861471Y-120365695D01*
X128904763Y-120307323D01*
X128953569Y-120253475D01*
X129341355Y-119865689D01*
X129860432Y-119865689D01*
X129976493Y-119937886D01*
X130011677Y-119864319D01*
X130040806Y-119820111D01*
X130081588Y-119774303D01*
X130136763Y-119731465D01*
X130187140Y-119718100D01*
X130271674Y-119756025D01*
X130300803Y-119802975D01*
X130298632Y-119854266D01*
X130271559Y-119908070D01*
X130225980Y-119962559D01*
X130191252Y-119997287D01*
X130284467Y-120090502D01*
X130326505Y-120048464D01*
X130364887Y-120017392D01*
X130407840Y-119998201D01*
X130452163Y-119997744D01*
X130495571Y-120023789D01*
X130525729Y-120091415D01*
X130491916Y-120160870D01*
X130417892Y-120213874D01*
X130337471Y-120242204D01*
X130379509Y-120364663D01*
X130478207Y-120332677D01*
X130534182Y-120302062D01*
X130586958Y-120257740D01*
X130628424Y-120210333D01*
X130657783Y-120163154D01*
X130682457Y-120071767D01*
X130665551Y-119987234D01*
X130613461Y-119913211D01*
X130529384Y-119867518D01*
X130430686Y-119871174D01*
X130447022Y-119809601D01*
X130444852Y-119749171D01*
X130423946Y-119691940D01*
X130384079Y-119639964D01*
X130299089Y-119580563D01*
X130202675Y-119562742D01*
X130151043Y-119571424D01*
X130097580Y-119592899D01*
X130042634Y-119627969D01*
X129986546Y-119677433D01*
X129945422Y-119724954D01*
X129908409Y-119777501D01*
X129878709Y-119827307D01*
X129860432Y-119865689D01*
X129341355Y-119865689D01*
X129600893Y-119606151D01*
X129758079Y-119448965D01*
X129949991Y-119257053D01*
X130430686Y-119257053D01*
X130475238Y-119346840D01*
X130526642Y-119446224D01*
X130563451Y-119515322D01*
X130600767Y-119583710D01*
X130638592Y-119651387D01*
X130676213Y-119717237D01*
X130712920Y-119780141D01*
X130748713Y-119840102D01*
X130797605Y-119919151D01*
X130838273Y-119980837D01*
X130957076Y-119862034D01*
X130916522Y-119807773D01*
X130871628Y-119743688D01*
X130824222Y-119673206D01*
X130776129Y-119599753D01*
X130728608Y-119524816D01*
X130682914Y-119449879D01*
X130641105Y-119378140D01*
X130605236Y-119312798D01*
X130669777Y-119348097D01*
X130740946Y-119390021D01*
X130815425Y-119436171D01*
X130889906Y-119484149D01*
X130963129Y-119532698D01*
X131033841Y-119580562D01*
X131098725Y-119625342D01*
X131154472Y-119664638D01*
X131272360Y-119546749D01*
X131202107Y-119500942D01*
X131122942Y-119451250D01*
X131036468Y-119399045D01*
X130944281Y-119345698D01*
X130880158Y-119309904D01*
X130814512Y-119274416D01*
X130747342Y-119239231D01*
X130679767Y-119204962D01*
X130612901Y-119172215D01*
X130546748Y-119140991D01*
X130430686Y-119257053D01*
X129949991Y-119257053D01*
X130190339Y-119016705D01*
X130255225Y-118951819D01*
X130774301Y-118951819D01*
X130890363Y-119024015D01*
X130925547Y-118950449D01*
X130954676Y-118906240D01*
X130995457Y-118860433D01*
X131050633Y-118817595D01*
X131101009Y-118804230D01*
X131185543Y-118842156D01*
X131214673Y-118889105D01*
X131212502Y-118940396D01*
X131185429Y-118994201D01*
X131139849Y-119048690D01*
X131105122Y-119083417D01*
X131198337Y-119176632D01*
X131240375Y-119134594D01*
X131278757Y-119103522D01*
X131321709Y-119084331D01*
X131366032Y-119083874D01*
X131409441Y-119109919D01*
X131439599Y-119177546D01*
X131405786Y-119247000D01*
X131331762Y-119300004D01*
X131251341Y-119328334D01*
X131293379Y-119450793D01*
X131392077Y-119418808D01*
X131448052Y-119388193D01*
X131500827Y-119343870D01*
X131542295Y-119296463D01*
X131571653Y-119249284D01*
X131596327Y-119157897D01*
X131579421Y-119073365D01*
X131527330Y-118999341D01*
X131443254Y-118953648D01*
X131344557Y-118957303D01*
X131360892Y-118895732D01*
X131358722Y-118835302D01*
X131337816Y-118778071D01*
X131297949Y-118726094D01*
X131212959Y-118666693D01*
X131116545Y-118648872D01*
X131064912Y-118657554D01*
X131011450Y-118679030D01*
X130956504Y-118714099D01*
X130900416Y-118763563D01*
X130859291Y-118811084D01*
X130822279Y-118863631D01*
X130792579Y-118913438D01*
X130774301Y-118951819D01*
X130255225Y-118951819D01*
X130671948Y-118535095D01*
X130889449Y-118317594D01*
X130889525Y-118317519D01*
X130943373Y-118268713D01*
X131001745Y-118225421D01*
X131064080Y-118188060D01*
X131129777Y-118156988D01*
X131198203Y-118132504D01*
X131268699Y-118114845D01*
X131340586Y-118104182D01*
X131413173Y-118100616D01*
X131485760Y-118104182D01*
G37*
D14*
%TO.C,TP702*%
X127800000Y-120775000D02*
G75*
G02*
X126400000Y-120775000I-700000J0D01*
G01*
X126400000Y-120775000D02*
G75*
G02*
X127800000Y-120775000I700000J0D01*
G01*
D13*
%TO.C,kibuzzard-67B6248A*%
G36*
X129581424Y-122226956D02*
G01*
X129653311Y-122237619D01*
X129723807Y-122255277D01*
X129792233Y-122279761D01*
X129857929Y-122310833D01*
X129920264Y-122348194D01*
X129978636Y-122391486D01*
X130032484Y-122440292D01*
X130081290Y-122494140D01*
X130124582Y-122552512D01*
X130161943Y-122614847D01*
X130193015Y-122680543D01*
X130217499Y-122748969D01*
X130235157Y-122819465D01*
X130245820Y-122891352D01*
X130249386Y-122963939D01*
X130245820Y-123036525D01*
X130235157Y-123108413D01*
X130217498Y-123178909D01*
X130193015Y-123247334D01*
X130161943Y-123313031D01*
X130124582Y-123375366D01*
X130081289Y-123433738D01*
X130032484Y-123487586D01*
X129385160Y-124134910D01*
X129139329Y-124380742D01*
X128532519Y-124987551D01*
X128176110Y-125343961D01*
X128049082Y-125470988D01*
X128049006Y-125471064D01*
X127995158Y-125519869D01*
X127936786Y-125563162D01*
X127874451Y-125600523D01*
X127808754Y-125631595D01*
X127740329Y-125656078D01*
X127669833Y-125673737D01*
X127597945Y-125684400D01*
X127525359Y-125687966D01*
X127452772Y-125684400D01*
X127380885Y-125673737D01*
X127310389Y-125656079D01*
X127241963Y-125631595D01*
X127176267Y-125600523D01*
X127113932Y-125563162D01*
X127055560Y-125519870D01*
X127001712Y-125471064D01*
X126952906Y-125417216D01*
X126909614Y-125358844D01*
X126872253Y-125296509D01*
X126841181Y-125230813D01*
X126816697Y-125162387D01*
X126799039Y-125091891D01*
X126788376Y-125020004D01*
X126784810Y-124947417D01*
X126788376Y-124874831D01*
X126799039Y-124802943D01*
X126816698Y-124732447D01*
X126841181Y-124664022D01*
X126849816Y-124645764D01*
X127262240Y-124645764D01*
X127349058Y-124671352D01*
X127400349Y-124684489D01*
X127455524Y-124696484D01*
X127513783Y-124707450D01*
X127574327Y-124717503D01*
X127635899Y-124725842D01*
X127697242Y-124731668D01*
X127698156Y-124789698D01*
X127702725Y-124852299D01*
X127711179Y-124917640D01*
X127723745Y-124983895D01*
X127740080Y-125049809D01*
X127759842Y-125114122D01*
X127782804Y-125175009D01*
X127808735Y-125230640D01*
X127935762Y-125103613D01*
X127895552Y-125005828D01*
X127878759Y-124949512D01*
X127864938Y-124892051D01*
X127854314Y-124834592D01*
X127847117Y-124778275D01*
X127843461Y-124678664D01*
X128102086Y-124937289D01*
X128214492Y-124824883D01*
X127648807Y-124259197D01*
X127536401Y-124371603D01*
X127771266Y-124606468D01*
X127672569Y-124591846D01*
X127568844Y-124571284D01*
X127471517Y-124546152D01*
X127389268Y-124518736D01*
X127262240Y-124645764D01*
X126849816Y-124645764D01*
X126872253Y-124598325D01*
X126909614Y-124535990D01*
X126952907Y-124477618D01*
X127001712Y-124423770D01*
X127001788Y-124423694D01*
X127486140Y-123939342D01*
X127968662Y-123939342D01*
X128441133Y-124411813D01*
X128198957Y-124653989D01*
X128292172Y-124747203D01*
X128647667Y-124391708D01*
X128081981Y-123826023D01*
X127968662Y-123939342D01*
X127486140Y-123939342D01*
X127665258Y-123760224D01*
X128204440Y-123760224D01*
X128323243Y-123820540D01*
X128350659Y-123746516D01*
X128409147Y-123668837D01*
X128470376Y-123626799D01*
X128547142Y-123614005D01*
X128638986Y-123641877D01*
X128690276Y-123674663D01*
X128744537Y-123722756D01*
X128800385Y-123786016D01*
X128838767Y-123846636D01*
X128859685Y-123904616D01*
X128854430Y-123987321D01*
X128802112Y-124065456D01*
X128719405Y-124128056D01*
X128653151Y-124154102D01*
X128713466Y-124271077D01*
X128804853Y-124233608D01*
X128857858Y-124199110D01*
X128910861Y-124152274D01*
X128975848Y-124070229D01*
X129011185Y-123983716D01*
X129016870Y-123892735D01*
X129002020Y-123822710D01*
X128971177Y-123752456D01*
X128924341Y-123681974D01*
X128861513Y-123611263D01*
X128790231Y-123549577D01*
X128717121Y-123505255D01*
X128643555Y-123477609D01*
X128570902Y-123465958D01*
X128500077Y-123470070D01*
X128431993Y-123489719D01*
X128368023Y-123524217D01*
X128309536Y-123572881D01*
X128260186Y-123632283D01*
X128229115Y-123686201D01*
X128212208Y-123730523D01*
X128204440Y-123760224D01*
X127665258Y-123760224D01*
X128337866Y-123087616D01*
X128985190Y-122440292D01*
X129039038Y-122391487D01*
X129097410Y-122348194D01*
X129159745Y-122310833D01*
X129225442Y-122279761D01*
X129293867Y-122255278D01*
X129364363Y-122237619D01*
X129436251Y-122226956D01*
X129508837Y-122223390D01*
X129581424Y-122226956D01*
G37*
%TO.C,kibuzzard-67B62470*%
G36*
X126539818Y-123924100D02*
G01*
X126530680Y-123935066D01*
X126520627Y-123945119D01*
X126441577Y-123994925D01*
X126359329Y-123996752D01*
X126275710Y-123958827D01*
X126233672Y-123927070D01*
X126191633Y-123888460D01*
X126125835Y-123811694D01*
X126083797Y-123731274D01*
X126078771Y-123651310D01*
X126124007Y-123574088D01*
X126140914Y-123558095D01*
X126159648Y-123543930D01*
X126539818Y-123924100D01*
G37*
G36*
X125301525Y-124499838D02*
G01*
X125376919Y-124549644D01*
X125416329Y-124584257D01*
X125456882Y-124623211D01*
X125495950Y-124663878D01*
X125530906Y-124703631D01*
X125580712Y-124779025D01*
X125595791Y-124848023D01*
X125564719Y-124910166D01*
X125503033Y-124940780D01*
X125433122Y-124925701D01*
X125357728Y-124875895D01*
X125318317Y-124841283D01*
X125277764Y-124802329D01*
X125238696Y-124761662D01*
X125203741Y-124721909D01*
X125153935Y-124646514D01*
X125138856Y-124577517D01*
X125169927Y-124515374D01*
X125232070Y-124484302D01*
X125301525Y-124499838D01*
G37*
G36*
X127180223Y-122235474D02*
G01*
X127252110Y-122246138D01*
X127322605Y-122263795D01*
X127391032Y-122288278D01*
X127456729Y-122319351D01*
X127519063Y-122356713D01*
X127577435Y-122400004D01*
X127631283Y-122448810D01*
X127680089Y-122502658D01*
X127723380Y-122561030D01*
X127760742Y-122623364D01*
X127791815Y-122689061D01*
X127816298Y-122757488D01*
X127833955Y-122827983D01*
X127844619Y-122899870D01*
X127848185Y-122972456D01*
X127844619Y-123045043D01*
X127833955Y-123116931D01*
X127816298Y-123187427D01*
X127791814Y-123255853D01*
X127760742Y-123321549D01*
X127723380Y-123383884D01*
X127680088Y-123442256D01*
X127631283Y-123496104D01*
X126983959Y-124143429D01*
X126863328Y-124264060D01*
X126527024Y-124600363D01*
X125890057Y-125237331D01*
X125687177Y-125440210D01*
X125687101Y-125440286D01*
X125633253Y-125489091D01*
X125574881Y-125532383D01*
X125512546Y-125569745D01*
X125446850Y-125600817D01*
X125378424Y-125625301D01*
X125307928Y-125642958D01*
X125236040Y-125653622D01*
X125163453Y-125657188D01*
X125090867Y-125653622D01*
X125018980Y-125642958D01*
X124948485Y-125625301D01*
X124880058Y-125600818D01*
X124814361Y-125569745D01*
X124752027Y-125532383D01*
X124693655Y-125489092D01*
X124639807Y-125440286D01*
X124591001Y-125386438D01*
X124547710Y-125328066D01*
X124510348Y-125265732D01*
X124479275Y-125200035D01*
X124454792Y-125131608D01*
X124437135Y-125061113D01*
X124426471Y-124989226D01*
X124422905Y-124916640D01*
X124426471Y-124844053D01*
X124437135Y-124772165D01*
X124454792Y-124701669D01*
X124479276Y-124633243D01*
X124510348Y-124567547D01*
X124513441Y-124562387D01*
X124993550Y-124562387D01*
X124994922Y-124643773D01*
X125013855Y-124708286D01*
X125048268Y-124775256D01*
X125098160Y-124844681D01*
X125163530Y-124916563D01*
X125235469Y-124981876D01*
X125305066Y-125031597D01*
X125372321Y-125065724D01*
X125437234Y-125084258D01*
X125518823Y-125085426D01*
X125593608Y-125060294D01*
X125661589Y-125008863D01*
X125714492Y-124939410D01*
X125740385Y-124863863D01*
X125739268Y-124782223D01*
X125720534Y-124717510D01*
X125686264Y-124650398D01*
X125636458Y-124580888D01*
X125571116Y-124508977D01*
X125499120Y-124443721D01*
X125429352Y-124394172D01*
X125361811Y-124360330D01*
X125296498Y-124342196D01*
X125214504Y-124341434D01*
X125139719Y-124366566D01*
X125072143Y-124417590D01*
X125019291Y-124486993D01*
X124993550Y-124562387D01*
X124513441Y-124562387D01*
X124547710Y-124505212D01*
X124591002Y-124446840D01*
X124639807Y-124392992D01*
X124639883Y-124392916D01*
X124879318Y-124153481D01*
X125361840Y-124153481D01*
X125455055Y-124246696D01*
X125577513Y-124124238D01*
X125956769Y-124503494D01*
X125834311Y-124625952D01*
X125927525Y-124719167D01*
X126286676Y-124360016D01*
X126193462Y-124266801D01*
X126070090Y-124390174D01*
X125690834Y-124010918D01*
X125814206Y-123887545D01*
X125720991Y-123794330D01*
X125361840Y-124153481D01*
X124879318Y-124153481D01*
X125318432Y-123714367D01*
X125924327Y-123714367D01*
X125935864Y-123782792D01*
X125964081Y-123853732D01*
X126010688Y-123927070D01*
X126077400Y-124002693D01*
X126155079Y-124070548D01*
X126230930Y-124116927D01*
X126304496Y-124143657D01*
X126375322Y-124152568D01*
X126443405Y-124144572D01*
X126508746Y-124120582D01*
X126571118Y-124082200D01*
X126630291Y-124031023D01*
X126686038Y-123968880D01*
X126737214Y-123896684D01*
X126185236Y-123344706D01*
X126102075Y-123405936D01*
X126036276Y-123466251D01*
X125987041Y-123523711D01*
X125950830Y-123584597D01*
X125929353Y-123648340D01*
X125924327Y-123714367D01*
X125318432Y-123714367D01*
X125936664Y-123096134D01*
X126583989Y-122448810D01*
X126637837Y-122400005D01*
X126696209Y-122356713D01*
X126758544Y-122319351D01*
X126824240Y-122288279D01*
X126892666Y-122263795D01*
X126963162Y-122246138D01*
X127035050Y-122235474D01*
X127107637Y-122231908D01*
X127180223Y-122235474D01*
G37*
D14*
%TO.C,TP705*%
X130200000Y-122975000D02*
G75*
G02*
X128800000Y-122975000I-700000J0D01*
G01*
X128800000Y-122975000D02*
G75*
G02*
X130200000Y-122975000I700000J0D01*
G01*
%TD*%
M02*
