%TF.GenerationSoftware,KiCad,Pcbnew,8.0.8-8.0.8-0~ubuntu24.04.1*%
%TF.CreationDate,2025-02-17T20:41:45+00:00*%
%TF.ProjectId,base-module,62617365-2d6d-46f6-9475-6c652e6b6963,1.0.0*%
%TF.SameCoordinates,Original*%
%TF.FileFunction,AssemblyDrawing,Bot*%
%FSLAX46Y46*%
G04 Gerber Fmt 4.6, Leading zero omitted, Abs format (unit mm)*
G04 Created by KiCad (PCBNEW 8.0.8-8.0.8-0~ubuntu24.04.1) date 2025-02-17 20:41:45*
%MOMM*%
%LPD*%
G01*
G04 APERTURE LIST*
%ADD10C,0.150000*%
G04 APERTURE END LIST*
D10*
X127361904Y-121498866D02*
X127314285Y-121451247D01*
X127314285Y-121451247D02*
X127219047Y-121403628D01*
X127219047Y-121403628D02*
X127028571Y-121498866D01*
X127028571Y-121498866D02*
X126933333Y-121451247D01*
X126933333Y-121451247D02*
X126885714Y-121403628D01*
X129314285Y-123879819D02*
X128742857Y-123879819D01*
X129028571Y-124879819D02*
X129028571Y-123879819D01*
X128409523Y-124879819D02*
X128409523Y-123879819D01*
X128409523Y-123879819D02*
X128028571Y-123879819D01*
X128028571Y-123879819D02*
X127933333Y-123927438D01*
X127933333Y-123927438D02*
X127885714Y-123975057D01*
X127885714Y-123975057D02*
X127838095Y-124070295D01*
X127838095Y-124070295D02*
X127838095Y-124213152D01*
X127838095Y-124213152D02*
X127885714Y-124308390D01*
X127885714Y-124308390D02*
X127933333Y-124356009D01*
X127933333Y-124356009D02*
X128028571Y-124403628D01*
X128028571Y-124403628D02*
X128409523Y-124403628D01*
X127504761Y-123879819D02*
X126838095Y-123879819D01*
X126838095Y-123879819D02*
X127266666Y-124879819D01*
X126266666Y-123879819D02*
X126171428Y-123879819D01*
X126171428Y-123879819D02*
X126076190Y-123927438D01*
X126076190Y-123927438D02*
X126028571Y-123975057D01*
X126028571Y-123975057D02*
X125980952Y-124070295D01*
X125980952Y-124070295D02*
X125933333Y-124260771D01*
X125933333Y-124260771D02*
X125933333Y-124498866D01*
X125933333Y-124498866D02*
X125980952Y-124689342D01*
X125980952Y-124689342D02*
X126028571Y-124784580D01*
X126028571Y-124784580D02*
X126076190Y-124832200D01*
X126076190Y-124832200D02*
X126171428Y-124879819D01*
X126171428Y-124879819D02*
X126266666Y-124879819D01*
X126266666Y-124879819D02*
X126361904Y-124832200D01*
X126361904Y-124832200D02*
X126409523Y-124784580D01*
X126409523Y-124784580D02*
X126457142Y-124689342D01*
X126457142Y-124689342D02*
X126504761Y-124498866D01*
X126504761Y-124498866D02*
X126504761Y-124260771D01*
X126504761Y-124260771D02*
X126457142Y-124070295D01*
X126457142Y-124070295D02*
X126409523Y-123975057D01*
X126409523Y-123975057D02*
X126361904Y-123927438D01*
X126361904Y-123927438D02*
X126266666Y-123879819D01*
X125076190Y-124213152D02*
X125076190Y-124879819D01*
X125314285Y-123832200D02*
X125552380Y-124546485D01*
X125552380Y-124546485D02*
X124933333Y-124546485D01*
X132161904Y-121498866D02*
X132114285Y-121451247D01*
X132114285Y-121451247D02*
X132019047Y-121403628D01*
X132019047Y-121403628D02*
X131828571Y-121498866D01*
X131828571Y-121498866D02*
X131733333Y-121451247D01*
X131733333Y-121451247D02*
X131685714Y-121403628D01*
X134114285Y-123879819D02*
X133542857Y-123879819D01*
X133828571Y-124879819D02*
X133828571Y-123879819D01*
X133209523Y-124879819D02*
X133209523Y-123879819D01*
X133209523Y-123879819D02*
X132828571Y-123879819D01*
X132828571Y-123879819D02*
X132733333Y-123927438D01*
X132733333Y-123927438D02*
X132685714Y-123975057D01*
X132685714Y-123975057D02*
X132638095Y-124070295D01*
X132638095Y-124070295D02*
X132638095Y-124213152D01*
X132638095Y-124213152D02*
X132685714Y-124308390D01*
X132685714Y-124308390D02*
X132733333Y-124356009D01*
X132733333Y-124356009D02*
X132828571Y-124403628D01*
X132828571Y-124403628D02*
X133209523Y-124403628D01*
X132304761Y-123879819D02*
X131638095Y-123879819D01*
X131638095Y-123879819D02*
X132066666Y-124879819D01*
X131066666Y-123879819D02*
X130971428Y-123879819D01*
X130971428Y-123879819D02*
X130876190Y-123927438D01*
X130876190Y-123927438D02*
X130828571Y-123975057D01*
X130828571Y-123975057D02*
X130780952Y-124070295D01*
X130780952Y-124070295D02*
X130733333Y-124260771D01*
X130733333Y-124260771D02*
X130733333Y-124498866D01*
X130733333Y-124498866D02*
X130780952Y-124689342D01*
X130780952Y-124689342D02*
X130828571Y-124784580D01*
X130828571Y-124784580D02*
X130876190Y-124832200D01*
X130876190Y-124832200D02*
X130971428Y-124879819D01*
X130971428Y-124879819D02*
X131066666Y-124879819D01*
X131066666Y-124879819D02*
X131161904Y-124832200D01*
X131161904Y-124832200D02*
X131209523Y-124784580D01*
X131209523Y-124784580D02*
X131257142Y-124689342D01*
X131257142Y-124689342D02*
X131304761Y-124498866D01*
X131304761Y-124498866D02*
X131304761Y-124260771D01*
X131304761Y-124260771D02*
X131257142Y-124070295D01*
X131257142Y-124070295D02*
X131209523Y-123975057D01*
X131209523Y-123975057D02*
X131161904Y-123927438D01*
X131161904Y-123927438D02*
X131066666Y-123879819D01*
X129876190Y-123879819D02*
X130066666Y-123879819D01*
X130066666Y-123879819D02*
X130161904Y-123927438D01*
X130161904Y-123927438D02*
X130209523Y-123975057D01*
X130209523Y-123975057D02*
X130304761Y-124117914D01*
X130304761Y-124117914D02*
X130352380Y-124308390D01*
X130352380Y-124308390D02*
X130352380Y-124689342D01*
X130352380Y-124689342D02*
X130304761Y-124784580D01*
X130304761Y-124784580D02*
X130257142Y-124832200D01*
X130257142Y-124832200D02*
X130161904Y-124879819D01*
X130161904Y-124879819D02*
X129971428Y-124879819D01*
X129971428Y-124879819D02*
X129876190Y-124832200D01*
X129876190Y-124832200D02*
X129828571Y-124784580D01*
X129828571Y-124784580D02*
X129780952Y-124689342D01*
X129780952Y-124689342D02*
X129780952Y-124451247D01*
X129780952Y-124451247D02*
X129828571Y-124356009D01*
X129828571Y-124356009D02*
X129876190Y-124308390D01*
X129876190Y-124308390D02*
X129971428Y-124260771D01*
X129971428Y-124260771D02*
X130161904Y-124260771D01*
X130161904Y-124260771D02*
X130257142Y-124308390D01*
X130257142Y-124308390D02*
X130304761Y-124356009D01*
X130304761Y-124356009D02*
X130352380Y-124451247D01*
X129761904Y-119298866D02*
X129714285Y-119251247D01*
X129714285Y-119251247D02*
X129619047Y-119203628D01*
X129619047Y-119203628D02*
X129428571Y-119298866D01*
X129428571Y-119298866D02*
X129333333Y-119251247D01*
X129333333Y-119251247D02*
X129285714Y-119203628D01*
X131714285Y-121679819D02*
X131142857Y-121679819D01*
X131428571Y-122679819D02*
X131428571Y-121679819D01*
X130809523Y-122679819D02*
X130809523Y-121679819D01*
X130809523Y-121679819D02*
X130428571Y-121679819D01*
X130428571Y-121679819D02*
X130333333Y-121727438D01*
X130333333Y-121727438D02*
X130285714Y-121775057D01*
X130285714Y-121775057D02*
X130238095Y-121870295D01*
X130238095Y-121870295D02*
X130238095Y-122013152D01*
X130238095Y-122013152D02*
X130285714Y-122108390D01*
X130285714Y-122108390D02*
X130333333Y-122156009D01*
X130333333Y-122156009D02*
X130428571Y-122203628D01*
X130428571Y-122203628D02*
X130809523Y-122203628D01*
X129904761Y-121679819D02*
X129238095Y-121679819D01*
X129238095Y-121679819D02*
X129666666Y-122679819D01*
X128666666Y-121679819D02*
X128571428Y-121679819D01*
X128571428Y-121679819D02*
X128476190Y-121727438D01*
X128476190Y-121727438D02*
X128428571Y-121775057D01*
X128428571Y-121775057D02*
X128380952Y-121870295D01*
X128380952Y-121870295D02*
X128333333Y-122060771D01*
X128333333Y-122060771D02*
X128333333Y-122298866D01*
X128333333Y-122298866D02*
X128380952Y-122489342D01*
X128380952Y-122489342D02*
X128428571Y-122584580D01*
X128428571Y-122584580D02*
X128476190Y-122632200D01*
X128476190Y-122632200D02*
X128571428Y-122679819D01*
X128571428Y-122679819D02*
X128666666Y-122679819D01*
X128666666Y-122679819D02*
X128761904Y-122632200D01*
X128761904Y-122632200D02*
X128809523Y-122584580D01*
X128809523Y-122584580D02*
X128857142Y-122489342D01*
X128857142Y-122489342D02*
X128904761Y-122298866D01*
X128904761Y-122298866D02*
X128904761Y-122060771D01*
X128904761Y-122060771D02*
X128857142Y-121870295D01*
X128857142Y-121870295D02*
X128809523Y-121775057D01*
X128809523Y-121775057D02*
X128761904Y-121727438D01*
X128761904Y-121727438D02*
X128666666Y-121679819D01*
X127999999Y-121679819D02*
X127380952Y-121679819D01*
X127380952Y-121679819D02*
X127714285Y-122060771D01*
X127714285Y-122060771D02*
X127571428Y-122060771D01*
X127571428Y-122060771D02*
X127476190Y-122108390D01*
X127476190Y-122108390D02*
X127428571Y-122156009D01*
X127428571Y-122156009D02*
X127380952Y-122251247D01*
X127380952Y-122251247D02*
X127380952Y-122489342D01*
X127380952Y-122489342D02*
X127428571Y-122584580D01*
X127428571Y-122584580D02*
X127476190Y-122632200D01*
X127476190Y-122632200D02*
X127571428Y-122679819D01*
X127571428Y-122679819D02*
X127857142Y-122679819D01*
X127857142Y-122679819D02*
X127952380Y-122632200D01*
X127952380Y-122632200D02*
X127999999Y-122584580D01*
X127361904Y-119298866D02*
X127314285Y-119251247D01*
X127314285Y-119251247D02*
X127219047Y-119203628D01*
X127219047Y-119203628D02*
X127028571Y-119298866D01*
X127028571Y-119298866D02*
X126933333Y-119251247D01*
X126933333Y-119251247D02*
X126885714Y-119203628D01*
X129314285Y-121679819D02*
X128742857Y-121679819D01*
X129028571Y-122679819D02*
X129028571Y-121679819D01*
X128409523Y-122679819D02*
X128409523Y-121679819D01*
X128409523Y-121679819D02*
X128028571Y-121679819D01*
X128028571Y-121679819D02*
X127933333Y-121727438D01*
X127933333Y-121727438D02*
X127885714Y-121775057D01*
X127885714Y-121775057D02*
X127838095Y-121870295D01*
X127838095Y-121870295D02*
X127838095Y-122013152D01*
X127838095Y-122013152D02*
X127885714Y-122108390D01*
X127885714Y-122108390D02*
X127933333Y-122156009D01*
X127933333Y-122156009D02*
X128028571Y-122203628D01*
X128028571Y-122203628D02*
X128409523Y-122203628D01*
X127504761Y-121679819D02*
X126838095Y-121679819D01*
X126838095Y-121679819D02*
X127266666Y-122679819D01*
X126266666Y-121679819D02*
X126171428Y-121679819D01*
X126171428Y-121679819D02*
X126076190Y-121727438D01*
X126076190Y-121727438D02*
X126028571Y-121775057D01*
X126028571Y-121775057D02*
X125980952Y-121870295D01*
X125980952Y-121870295D02*
X125933333Y-122060771D01*
X125933333Y-122060771D02*
X125933333Y-122298866D01*
X125933333Y-122298866D02*
X125980952Y-122489342D01*
X125980952Y-122489342D02*
X126028571Y-122584580D01*
X126028571Y-122584580D02*
X126076190Y-122632200D01*
X126076190Y-122632200D02*
X126171428Y-122679819D01*
X126171428Y-122679819D02*
X126266666Y-122679819D01*
X126266666Y-122679819D02*
X126361904Y-122632200D01*
X126361904Y-122632200D02*
X126409523Y-122584580D01*
X126409523Y-122584580D02*
X126457142Y-122489342D01*
X126457142Y-122489342D02*
X126504761Y-122298866D01*
X126504761Y-122298866D02*
X126504761Y-122060771D01*
X126504761Y-122060771D02*
X126457142Y-121870295D01*
X126457142Y-121870295D02*
X126409523Y-121775057D01*
X126409523Y-121775057D02*
X126361904Y-121727438D01*
X126361904Y-121727438D02*
X126266666Y-121679819D01*
X125552380Y-121775057D02*
X125504761Y-121727438D01*
X125504761Y-121727438D02*
X125409523Y-121679819D01*
X125409523Y-121679819D02*
X125171428Y-121679819D01*
X125171428Y-121679819D02*
X125076190Y-121727438D01*
X125076190Y-121727438D02*
X125028571Y-121775057D01*
X125028571Y-121775057D02*
X124980952Y-121870295D01*
X124980952Y-121870295D02*
X124980952Y-121965533D01*
X124980952Y-121965533D02*
X125028571Y-122108390D01*
X125028571Y-122108390D02*
X125599999Y-122679819D01*
X125599999Y-122679819D02*
X124980952Y-122679819D01*
X129761904Y-121498866D02*
X129714285Y-121451247D01*
X129714285Y-121451247D02*
X129619047Y-121403628D01*
X129619047Y-121403628D02*
X129428571Y-121498866D01*
X129428571Y-121498866D02*
X129333333Y-121451247D01*
X129333333Y-121451247D02*
X129285714Y-121403628D01*
X131714285Y-123879819D02*
X131142857Y-123879819D01*
X131428571Y-124879819D02*
X131428571Y-123879819D01*
X130809523Y-124879819D02*
X130809523Y-123879819D01*
X130809523Y-123879819D02*
X130428571Y-123879819D01*
X130428571Y-123879819D02*
X130333333Y-123927438D01*
X130333333Y-123927438D02*
X130285714Y-123975057D01*
X130285714Y-123975057D02*
X130238095Y-124070295D01*
X130238095Y-124070295D02*
X130238095Y-124213152D01*
X130238095Y-124213152D02*
X130285714Y-124308390D01*
X130285714Y-124308390D02*
X130333333Y-124356009D01*
X130333333Y-124356009D02*
X130428571Y-124403628D01*
X130428571Y-124403628D02*
X130809523Y-124403628D01*
X129904761Y-123879819D02*
X129238095Y-123879819D01*
X129238095Y-123879819D02*
X129666666Y-124879819D01*
X128666666Y-123879819D02*
X128571428Y-123879819D01*
X128571428Y-123879819D02*
X128476190Y-123927438D01*
X128476190Y-123927438D02*
X128428571Y-123975057D01*
X128428571Y-123975057D02*
X128380952Y-124070295D01*
X128380952Y-124070295D02*
X128333333Y-124260771D01*
X128333333Y-124260771D02*
X128333333Y-124498866D01*
X128333333Y-124498866D02*
X128380952Y-124689342D01*
X128380952Y-124689342D02*
X128428571Y-124784580D01*
X128428571Y-124784580D02*
X128476190Y-124832200D01*
X128476190Y-124832200D02*
X128571428Y-124879819D01*
X128571428Y-124879819D02*
X128666666Y-124879819D01*
X128666666Y-124879819D02*
X128761904Y-124832200D01*
X128761904Y-124832200D02*
X128809523Y-124784580D01*
X128809523Y-124784580D02*
X128857142Y-124689342D01*
X128857142Y-124689342D02*
X128904761Y-124498866D01*
X128904761Y-124498866D02*
X128904761Y-124260771D01*
X128904761Y-124260771D02*
X128857142Y-124070295D01*
X128857142Y-124070295D02*
X128809523Y-123975057D01*
X128809523Y-123975057D02*
X128761904Y-123927438D01*
X128761904Y-123927438D02*
X128666666Y-123879819D01*
X127428571Y-123879819D02*
X127904761Y-123879819D01*
X127904761Y-123879819D02*
X127952380Y-124356009D01*
X127952380Y-124356009D02*
X127904761Y-124308390D01*
X127904761Y-124308390D02*
X127809523Y-124260771D01*
X127809523Y-124260771D02*
X127571428Y-124260771D01*
X127571428Y-124260771D02*
X127476190Y-124308390D01*
X127476190Y-124308390D02*
X127428571Y-124356009D01*
X127428571Y-124356009D02*
X127380952Y-124451247D01*
X127380952Y-124451247D02*
X127380952Y-124689342D01*
X127380952Y-124689342D02*
X127428571Y-124784580D01*
X127428571Y-124784580D02*
X127476190Y-124832200D01*
X127476190Y-124832200D02*
X127571428Y-124879819D01*
X127571428Y-124879819D02*
X127809523Y-124879819D01*
X127809523Y-124879819D02*
X127904761Y-124832200D01*
X127904761Y-124832200D02*
X127952380Y-124784580D01*
M02*
