M48
; DRILL file {KiCad 9.0.1-9.0.1-0~ubuntu24.04.1} date 2025-04-23T18:17:09+0000
; FORMAT={-:-/ absolute / metric / decimal}
; #@! TF.CreationDate,2025-04-23T18:17:09+00:00
; #@! TF.GenerationSoftware,Kicad,Pcbnew,9.0.1-9.0.1-0~ubuntu24.04.1
; #@! TF.FileFunction,MixedPlating,1,4
FMAT,2
METRIC
; #@! TA.AperFunction,Plated,PTH,ViaDrill
T1C0.300
; #@! TA.AperFunction,Plated,PTH,ComponentDrill
T2C0.600
; #@! TA.AperFunction,Plated,PTH,ComponentDrill
T3C0.800
; #@! TA.AperFunction,Plated,PTH,ComponentDrill
T4C1.000
; #@! TA.AperFunction,Plated,PTH,ComponentDrill
T5C1.190
; #@! TA.AperFunction,Plated,PTH,ComponentDrill
T6C1.300
; #@! TA.AperFunction,Plated,PTH,ComponentDrill
T7C1.500
; #@! TA.AperFunction,Plated,PTH,ComponentDrill
T8C1.700
; #@! TA.AperFunction,NonPlated,NPTH,ComponentDrill
T9C0.650
; #@! TA.AperFunction,NonPlated,NPTH,ComponentDrill
T10C2.850
; #@! TA.AperFunction,NonPlated,NPTH,ComponentDrill
T11C3.500
%
G90
G05
T1
X47.07Y-77.385
X49.17Y-70.375
X52.27Y-72.285
X52.27Y-73.385
X54.47Y-69.125
X54.47Y-71.275
X54.47Y-73.375
X54.47Y-75.475
X54.47Y-77.575
X54.47Y-79.675
X55.27Y-94.285
X55.27Y-96.785
X55.37Y-95.285
X55.97Y-108.485
X56.57Y-69.125
X56.57Y-71.275
X56.57Y-73.375
X56.57Y-75.475
X56.57Y-77.575
X56.57Y-79.675
X57.17Y-93.685
X57.67Y-92.385
X57.87Y-99.285
X58.57Y-108.385
X58.77Y-69.125
X58.77Y-71.275
X58.77Y-73.375
X58.77Y-75.475
X58.77Y-77.575
X58.77Y-79.675
X58.87Y-83.085
X58.87Y-86.285
X59.17Y-91.685
X59.37Y-52.285
X59.37Y-54.285
X59.37Y-56.285
X59.37Y-58.285
X59.37Y-60.285
X59.37Y-62.285
X59.37Y-64.285
X59.67Y-83.085
X59.87Y-98.685
X59.97Y-85.285
X60.37Y-83.085
X60.57Y-94.085
X60.67Y-92.385
X60.77Y-69.125
X60.77Y-71.275
X60.77Y-73.375
X60.77Y-75.475
X60.77Y-77.575
X60.77Y-79.675
X61.07Y-83.085
X61.17Y-94.985
X61.37Y-52.285
X61.37Y-54.285
X61.37Y-56.285
X61.37Y-58.285
X61.37Y-60.285
X61.37Y-62.085
X61.37Y-64.285
X61.37Y-96.085
X61.87Y-83.085
X62.37Y-65.285
X62.77Y-94.285
X62.97Y-69.125
X62.97Y-71.275
X62.97Y-73.375
X62.97Y-75.475
X62.97Y-77.575
X62.97Y-79.675
X63.27Y-96.785
X63.37Y-60.285
X63.37Y-61.985
X63.37Y-65.285
X63.57Y-82.885
X63.67Y-99.485
X63.97Y-97.185
X64.24Y-83.885
X64.37Y-65.285
X64.87Y-84.885
X64.97Y-69.125
X64.97Y-71.275
X64.97Y-73.375
X64.97Y-75.475
X64.97Y-77.575
X64.97Y-79.675
X65.17Y-85.785
X65.17Y-98.685
X65.37Y-60.285
X65.37Y-62.085
X65.37Y-65.285
X65.37Y-94.985
X65.97Y-96.385
X67.17Y-69.125
X67.17Y-71.275
X67.17Y-73.375
X67.17Y-75.475
X67.17Y-77.575
X67.17Y-79.675
X68.27Y-85.785
X69.37Y-60.285
X69.37Y-62.285
X69.37Y-64.285
X69.37Y-66.285
X69.47Y-68.975
X71.37Y-52.285
X71.37Y-54.285
X71.37Y-56.285
X71.37Y-58.285
X71.37Y-60.285
X71.37Y-62.285
X71.37Y-64.285
X71.37Y-66.285
X71.96Y-78.884
X71.97Y-71.085
X72.77Y-77.685
X73.47Y-82.185
X73.67Y-78.785
X74.67Y-72.175
X74.67Y-73.275
X74.67Y-75.475
X75.07Y-74.485
X75.77Y-76.285
X78.47Y-81.785
X79.07Y-80.785
X80.37Y-93.185
X81.128Y-93.196
X81.878Y-93.196
X82.57Y-93.185
X86.37Y-58.485
X86.37Y-60.185
X87.57Y-58.485
X87.57Y-59.335
X87.57Y-60.185
X88.77Y-58.485
X88.77Y-60.185
X94.45Y-138.675
X94.451Y-135.361
X94.95Y-134.875
X95.2Y-138.675
X95.3Y-128.625
X95.3Y-129.825
X95.3Y-131.025
X95.3Y-132.225
X95.3Y-133.425
X95.375Y-135.375
X95.953Y-138.663
X96.5Y-128.625
X97.7Y-128.625
X97.87Y-111.485
X98.9Y-128.625
X99.539Y-56.899
X99.598Y-57.785
X99.598Y-58.685
X99.85Y-134.672
X99.85Y-135.322
X99.85Y-135.972
X100.1Y-128.625
X101.3Y-128.625
X101.7Y-122.285
X102.134Y-111.641
X102.17Y-110.885
X102.225Y-122.85
X102.5Y-128.625
X102.624Y-106.327
X102.624Y-107.343
X102.85Y-119.275
X102.869Y-114.435
X103.325Y-124.4
X103.363Y-117.285
X103.7Y-128.625
X103.7Y-129.825
X103.7Y-131.025
X103.7Y-132.225
X103.7Y-133.425
X104.124Y-106.922
X104.325Y-124.4
X104.9Y-128.625
X105.19Y-125.459
X105.863Y-119.526
X105.97Y-118.885
X106.1Y-128.625
X106.125Y-136.325
X106.125Y-137.025
X106.125Y-138.325
X106.125Y-139.025
X106.575Y-123.4
X106.775Y-136.325
X106.775Y-137.025
X106.775Y-138.325
X106.775Y-139.025
X106.87Y-110.485
X107.3Y-128.625
X107.442Y-104.549
X107.442Y-105.565
X107.442Y-106.581
X107.442Y-107.343
X107.67Y-110.485
X108.5Y-128.625
X108.65Y-136.275
X109.048Y-117.756
X109.07Y-118.485
X109.7Y-128.625
X109.728Y-107.851
X109.871Y-132.522
X110.521Y-132.522
X110.9Y-128.625
X111.171Y-132.522
X112.1Y-128.625
X112.525Y-106.025
X112.65Y-62.375
X112.825Y-106.875
X112.97Y-110.375
X113.3Y-128.625
X113.37Y-120.785
X113.55Y-62.925
X113.825Y-106.875
X113.85Y-136.425
X113.85Y-137.075
X113.85Y-137.675
X113.87Y-120.285
X114.314Y-119.743
X114.45Y-62.375
X114.5Y-128.625
X114.65Y-131.5
X114.72Y-119.235
X115.05Y-136.625
X115.3Y-138.075
X115.35Y-62.925
X115.35Y-130.625
X115.35Y-131.5
X115.425Y-134.25
X115.542Y-118.12
X115.575Y-107.05
X115.944Y-117.61
X115.975Y-110.35
X116.025Y-131.5
X116.25Y-62.375
X116.3Y-133.425
X116.413Y-117.159
X116.575Y-107.05
X116.675Y-110.35
X116.81Y-116.645
X116.825Y-106.025
X117.15Y-62.375
X117.27Y-116.185
X117.3Y-107.625
X117.3Y-133.425
X117.7Y-120.375
X117.85Y-107.125
X118.05Y-62.925
X118.175Y-134.25
X118.364Y-111.407
X118.377Y-107.645
X118.55Y-119.85
X118.75Y-126.325
X118.85Y-59.675
X119.1Y-134.275
X119.126Y-108.867
X119.126Y-109.883
X119.625Y-124.6
X119.625Y-125.6
X119.65Y-136.625
X119.67Y-61.785
X119.9Y-138.075
X120.025Y-134.25
X120.425Y-127.65
X120.59Y-105.865
X120.59Y-106.765
X120.9Y-133.425
X121.325Y-115.325
X121.35Y-123.927
X121.35Y-124.927
X121.662Y-109.14
X121.9Y-120.045
X121.9Y-133.425
X122.174Y-110.375
X122.2Y-115.275
X122.225Y-109.375
X122.775Y-134.25
X122.936Y-111.325
X123.1Y-115.275
X123.2Y-136.625
X123.3Y-57.725
X123.55Y-125.325
X123.705Y-135.75
X124.0Y-115.3
X124.235Y-135.22
X124.35Y-61.225
X124.35Y-62.025
X124.7Y-120.175
X124.95Y-114.8
X125.35Y-61.225
X125.35Y-62.025
X125.7Y-115.575
X126.075Y-114.45
X126.1Y-119.5
X126.2Y-137.025
X126.375Y-109.375
X126.7Y-115.575
X126.9Y-113.525
X126.95Y-106.725
X127.25Y-134.775
X127.25Y-135.825
X127.4Y-124.95
X127.9Y-121.575
X127.9Y-138.925
X128.35Y-134.775
X128.35Y-135.825
X128.875Y-124.675
X129.225Y-118.925
X129.6Y-136.625
X129.8Y-133.725
X129.9Y-124.961
X130.1Y-118.925
X130.325Y-129.675
X130.35Y-124.175
X130.675Y-121.175
X131.1Y-135.525
X131.1Y-136.425
X131.15Y-115.125
X131.15Y-116.225
X131.35Y-118.275
X131.35Y-125.625
X131.4Y-128.975
X131.8Y-106.175
X131.9Y-133.925
X131.95Y-116.775
X131.95Y-139.425
X132.05Y-135.775
X132.2Y-111.725
X132.2Y-113.725
X132.35Y-118.275
X132.35Y-125.625
X132.7Y-132.175
X132.9Y-116.775
X133.3Y-110.375
X133.3Y-122.825
X133.85Y-136.575
X133.85Y-138.925
X133.95Y-109.925
X133.95Y-118.922
X133.95Y-119.922
X134.05Y-132.625
X134.1Y-133.525
X134.15Y-128.175
X134.15Y-129.075
X134.3Y-135.775
X134.47Y-142.163
X136.15Y-138.925
T3
X98.079Y-54.584
X99.709Y-54.584
X101.449Y-54.584
X103.079Y-54.584
T4
X50.0Y-140.895
X50.0Y-143.435
X50.0Y-145.975
X52.54Y-140.895
X52.54Y-143.435
X52.54Y-145.975
X55.08Y-140.895
X55.08Y-143.435
X55.08Y-145.975
X57.62Y-140.895
X57.62Y-143.435
X57.62Y-145.975
X60.16Y-140.895
X60.16Y-143.435
X60.16Y-145.975
X62.7Y-140.895
X62.7Y-143.435
X62.7Y-145.975
X65.24Y-140.895
X65.24Y-143.435
X65.24Y-145.975
X67.78Y-140.895
X67.78Y-143.435
X67.78Y-145.975
X70.32Y-140.895
X70.32Y-143.435
X70.32Y-145.975
X72.86Y-140.895
X72.86Y-143.435
X72.86Y-145.975
X75.4Y-140.895
X75.4Y-143.435
X75.4Y-145.975
X77.94Y-140.895
X77.94Y-143.435
X77.94Y-145.975
X80.48Y-140.895
X80.48Y-143.435
X80.48Y-145.975
X83.02Y-140.895
X83.02Y-143.435
X83.02Y-145.975
X85.56Y-140.895
X85.56Y-143.435
X85.56Y-145.975
X88.1Y-140.895
X88.1Y-143.435
X88.1Y-145.975
X90.64Y-140.895
X90.64Y-143.435
X90.64Y-145.975
X93.18Y-140.895
X93.18Y-143.435
X93.18Y-145.975
X95.72Y-140.895
X95.72Y-143.435
X95.72Y-145.975
X98.26Y-140.895
X98.26Y-143.435
X98.26Y-145.975
X100.8Y-140.895
X100.8Y-143.435
X100.8Y-145.975
X103.34Y-140.895
X103.34Y-143.435
X103.34Y-145.975
X105.88Y-140.895
X105.88Y-143.435
X105.88Y-145.975
X106.864Y-55.785
X106.864Y-58.325
X108.42Y-140.895
X108.42Y-143.435
X108.42Y-145.975
X109.404Y-55.785
X109.404Y-58.325
X110.96Y-140.895
X110.96Y-143.435
X110.96Y-145.975
X111.914Y-55.785
X111.914Y-58.325
X113.5Y-140.895
X113.5Y-143.435
X113.5Y-145.975
X114.454Y-55.785
X114.454Y-58.325
X116.04Y-140.895
X116.04Y-143.435
X116.04Y-145.975
X118.58Y-140.895
X118.58Y-143.435
X118.58Y-145.975
X121.12Y-140.895
X121.12Y-143.435
X121.12Y-145.975
X123.66Y-140.895
X123.66Y-143.435
X123.66Y-145.975
X126.2Y-140.895
X126.2Y-143.435
X126.2Y-145.975
X128.74Y-140.895
X128.74Y-143.435
X128.74Y-145.975
T5
X53.47Y-106.685
X56.01Y-106.685
X58.55Y-106.685
X61.09Y-106.685
X63.63Y-106.685
X66.17Y-106.685
T6
X97.079Y-56.834
X104.079Y-56.834
T7
X66.89Y-55.825
T8
X64.35Y-53.285
X64.35Y-58.365
X69.43Y-53.285
X69.43Y-58.365
T9
X119.16Y-57.64
X124.94Y-57.64
T10
X44.92Y-148.515
X133.82Y-148.515
T11
X51.37Y-117.285
X51.37Y-132.535
X71.62Y-117.285
X71.62Y-132.535
T2
X117.73Y-54.36G85X117.73Y-53.56
G05
X117.73Y-58.69G85X117.73Y-57.59
G05
X126.37Y-54.36G85X126.37Y-53.56
G05
X126.37Y-58.69G85X126.37Y-57.59
G05
M30
