%TF.GenerationSoftware,KiCad,Pcbnew,9.0.1-9.0.1-0~ubuntu24.04.1*%
%TF.CreationDate,2025-04-23T18:17:08+00:00*%
%TF.ProjectId,ModuCard-navigation-module,4d6f6475-4361-4726-942d-6e6176696761,2.0.0*%
%TF.SameCoordinates,Original*%
%TF.FileFunction,Copper,L4,Bot*%
%TF.FilePolarity,Positive*%
%FSLAX46Y46*%
G04 Gerber Fmt 4.6, Leading zero omitted, Abs format (unit mm)*
G04 Created by KiCad (PCBNEW 9.0.1-9.0.1-0~ubuntu24.04.1) date 2025-04-23 18:17:08*
%MOMM*%
%LPD*%
G01*
G04 APERTURE LIST*
G04 Aperture macros list*
%AMRoundRect*
0 Rectangle with rounded corners*
0 $1 Rounding radius*
0 $2 $3 $4 $5 $6 $7 $8 $9 X,Y pos of 4 corners*
0 Add a 4 corners polygon primitive as box body*
4,1,4,$2,$3,$4,$5,$6,$7,$8,$9,$2,$3,0*
0 Add four circle primitives for the rounded corners*
1,1,$1+$1,$2,$3*
1,1,$1+$1,$4,$5*
1,1,$1+$1,$6,$7*
1,1,$1+$1,$8,$9*
0 Add four rect primitives between the rounded corners*
20,1,$1+$1,$2,$3,$4,$5,0*
20,1,$1+$1,$4,$5,$6,$7,0*
20,1,$1+$1,$6,$7,$8,$9,0*
20,1,$1+$1,$8,$9,$2,$3,0*%
G04 Aperture macros list end*
%TA.AperFunction,ComponentPad*%
%ADD10C,1.600000*%
%TD*%
%TA.AperFunction,ComponentPad*%
%ADD11C,1.300000*%
%TD*%
%TA.AperFunction,ComponentPad*%
%ADD12C,2.286000*%
%TD*%
%TA.AperFunction,ComponentPad*%
%ADD13RoundRect,0.200100X-0.949900X-0.949900X0.949900X-0.949900X0.949900X0.949900X-0.949900X0.949900X0*%
%TD*%
%TA.AperFunction,ComponentPad*%
%ADD14C,2.500000*%
%TD*%
%TA.AperFunction,ComponentPad*%
%ADD15O,1.000000X2.100000*%
%TD*%
%TA.AperFunction,ComponentPad*%
%ADD16O,1.000000X1.800000*%
%TD*%
%TA.AperFunction,ComponentPad*%
%ADD17RoundRect,0.249999X0.525001X0.525001X-0.525001X0.525001X-0.525001X-0.525001X0.525001X-0.525001X0*%
%TD*%
%TA.AperFunction,ComponentPad*%
%ADD18C,1.550000*%
%TD*%
%TA.AperFunction,ComponentPad*%
%ADD19RoundRect,0.250000X-0.620000X-0.845000X0.620000X-0.845000X0.620000X0.845000X-0.620000X0.845000X0*%
%TD*%
%TA.AperFunction,ComponentPad*%
%ADD20O,1.740000X2.190000*%
%TD*%
%TA.AperFunction,SMDPad,CuDef*%
%ADD21C,1.000000*%
%TD*%
%TA.AperFunction,ViaPad*%
%ADD22C,0.500000*%
%TD*%
%TA.AperFunction,Conductor*%
%ADD23C,0.300000*%
%TD*%
%TA.AperFunction,Conductor*%
%ADD24C,0.150000*%
%TD*%
%TA.AperFunction,Conductor*%
%ADD25C,0.100000*%
%TD*%
%TA.AperFunction,Conductor*%
%ADD26C,0.200000*%
%TD*%
G04 APERTURE END LIST*
D10*
%TO.P,LED300,1*%
%TO.N,Net-(LED300-Pad1)*%
X106863600Y-55785000D03*
%TO.P,LED300,2*%
%TO.N,GND*%
X109403600Y-55785000D03*
%TO.P,LED300,3*%
%TO.N,Net-(LED300-Pad3)*%
X106863600Y-58325000D03*
%TO.P,LED300,4*%
%TO.N,GND*%
X109403600Y-58325000D03*
%TD*%
D11*
%TO.P,BTN400,1*%
%TO.N,GND*%
X103079415Y-54584163D03*
%TO.P,BTN400,2*%
X101449415Y-54584163D03*
%TO.P,BTN400,3*%
%TO.N,/MCU/SWD.~{RST}*%
X99709415Y-54584163D03*
%TO.P,BTN400,4*%
%TO.N,/MCU/USR_BUTTON*%
X98079415Y-54584163D03*
D12*
%TO.P,BTN400,5*%
%TO.N,N/C*%
X104079415Y-56834163D03*
%TO.P,BTN400,6*%
X97079415Y-56834163D03*
%TD*%
D13*
%TO.P,J1100,1,In*%
%TO.N,/GPS-RTK/RF_IN*%
X66890000Y-55825001D03*
D14*
%TO.P,J1100,2,Ext*%
%TO.N,GND*%
X64350000Y-53285001D03*
X64350000Y-58365001D03*
X69430000Y-53285001D03*
X69430000Y-58365001D03*
%TD*%
D15*
%TO.P,J800,S1,SHIELD*%
%TO.N,Net-(J800-SHIELD)*%
X126370000Y-58140000D03*
D16*
X126370000Y-53960000D03*
D15*
X117730000Y-58140000D03*
D16*
X117730000Y-53960000D03*
%TD*%
D17*
%TO.P,J200,a1,a1*%
%TO.N,GND*%
X128740000Y-145975000D03*
D18*
%TO.P,J200,a2,a2*%
%TO.N,/Backplane/BACKPLANE.D+*%
X126200000Y-145975000D03*
%TO.P,J200,a3,a3*%
%TO.N,+5V_STDBY*%
X123660000Y-145975000D03*
%TO.P,J200,a4,a4*%
%TO.N,GND*%
X121120000Y-145975000D03*
%TO.P,J200,a5,a5*%
%TO.N,/Backplane/CAN1.+*%
X118580000Y-145975000D03*
%TO.P,J200,a6,a6*%
%TO.N,/Backplane/CAN1.-*%
X116040000Y-145975000D03*
%TO.P,J200,a7,a7*%
%TO.N,GND*%
X113500000Y-145975000D03*
%TO.P,J200,a8,a8*%
%TO.N,/Backplane/CAN2.+*%
X110960000Y-145975000D03*
%TO.P,J200,a9,a9*%
%TO.N,/Backplane/CAN2.-*%
X108420000Y-145975000D03*
%TO.P,J200,a10,a10*%
%TO.N,GND*%
X105880000Y-145975000D03*
%TO.P,J200,a11,a11*%
%TO.N,+12V*%
X103340000Y-145975000D03*
%TO.P,J200,a12,a12*%
X100800000Y-145975000D03*
%TO.P,J200,a13,a13*%
%TO.N,GND*%
X98260000Y-145975000D03*
%TO.P,J200,a14,a14*%
%TO.N,+24V*%
X95720000Y-145975000D03*
%TO.P,J200,a15,a15*%
%TO.N,GND*%
X93180000Y-145975000D03*
%TO.P,J200,a16,a16*%
%TO.N,/Backplane/GPIOL0*%
X90640000Y-145975000D03*
%TO.P,J200,a17,a17*%
%TO.N,/Backplane/GPIOL1*%
X88100000Y-145975000D03*
%TO.P,J200,a18,a18*%
%TO.N,/Backplane/GPIOL2*%
X85560000Y-145975000D03*
%TO.P,J200,a19,a19*%
%TO.N,/Backplane/GPIOL3*%
X83020000Y-145975000D03*
%TO.P,J200,a20,a20*%
%TO.N,/Backplane/GPIOL4*%
X80480000Y-145975000D03*
%TO.P,J200,a21,a21*%
%TO.N,/Backplane/GPIOL5*%
X77940000Y-145975000D03*
%TO.P,J200,a22,a22*%
%TO.N,/Backplane/GPIOL6*%
X75400000Y-145975000D03*
%TO.P,J200,a23,a23*%
%TO.N,/Backplane/GPIOL7*%
X72860000Y-145975000D03*
%TO.P,J200,a24,a24*%
%TO.N,/Backplane/GPIOL8*%
X70320000Y-145975000D03*
%TO.P,J200,a25,a25*%
%TO.N,/Backplane/GPIOL9*%
X67780000Y-145975000D03*
%TO.P,J200,a26,a26*%
%TO.N,/Backplane/GPIOL10*%
X65240000Y-145975000D03*
%TO.P,J200,a27,a27*%
%TO.N,/Backplane/GPIOL11*%
X62700000Y-145975000D03*
%TO.P,J200,a28,a28*%
%TO.N,/Backplane/GPIOL12*%
X60160000Y-145975000D03*
%TO.P,J200,a29,a29*%
%TO.N,/Backplane/GPIOL13*%
X57620000Y-145975000D03*
%TO.P,J200,a30,a30*%
%TO.N,/Backplane/GPIOL14*%
X55080000Y-145975000D03*
%TO.P,J200,a31,a31*%
%TO.N,/Backplane/GPIOL15*%
X52540000Y-145975000D03*
%TO.P,J200,a32,a32*%
%TO.N,GND*%
X50000000Y-145975000D03*
%TO.P,J200,b1,b1*%
X128740000Y-143435000D03*
%TO.P,J200,b2,b2*%
X126200000Y-143435000D03*
%TO.P,J200,b3,b3*%
%TO.N,+5V_STDBY*%
X123660000Y-143435000D03*
%TO.P,J200,b4,b4*%
%TO.N,GND*%
X121120000Y-143435000D03*
%TO.P,J200,b5,b5*%
%TO.N,/Backplane/CAN1.+*%
X118580000Y-143435000D03*
%TO.P,J200,b6,b6*%
%TO.N,/Backplane/CAN1.-*%
X116040000Y-143435000D03*
%TO.P,J200,b7,b7*%
%TO.N,GND*%
X113500000Y-143435000D03*
%TO.P,J200,b8,b8*%
%TO.N,/Backplane/CAN2.+*%
X110960000Y-143435000D03*
%TO.P,J200,b9,b9*%
%TO.N,/Backplane/CAN2.-*%
X108420000Y-143435000D03*
%TO.P,J200,b10,b10*%
%TO.N,GND*%
X105880000Y-143435000D03*
%TO.P,J200,b11,b11*%
%TO.N,+12V*%
X103340000Y-143435000D03*
%TO.P,J200,b12,b12*%
X100800000Y-143435000D03*
%TO.P,J200,b13,b13*%
%TO.N,GND*%
X98260000Y-143435000D03*
%TO.P,J200,b14,b14*%
%TO.N,+24V*%
X95720000Y-143435000D03*
%TO.P,J200,b15,b15*%
%TO.N,GND*%
X93180000Y-143435000D03*
%TO.P,J200,b16,b16*%
%TO.N,/Backplane/GPIOC0*%
X90640000Y-143435000D03*
%TO.P,J200,b17,b17*%
%TO.N,/Backplane/GPIOC1*%
X88100000Y-143435000D03*
%TO.P,J200,b18,b18*%
%TO.N,/Backplane/GPIOC2*%
X85560000Y-143435000D03*
%TO.P,J200,b19,b19*%
%TO.N,/Backplane/GPIOC3*%
X83020000Y-143435000D03*
%TO.P,J200,b20,b20*%
%TO.N,/Backplane/GPIOC4*%
X80480000Y-143435000D03*
%TO.P,J200,b21,b21*%
%TO.N,/Backplane/GPIOC5*%
X77940000Y-143435000D03*
%TO.P,J200,b22,b22*%
%TO.N,/Backplane/GPIOC6*%
X75400000Y-143435000D03*
%TO.P,J200,b23,b23*%
%TO.N,/Backplane/GPIOC7*%
X72860000Y-143435000D03*
%TO.P,J200,b24,b24*%
%TO.N,/Backplane/GPIOC8*%
X70320000Y-143435000D03*
%TO.P,J200,b25,b25*%
%TO.N,/Backplane/GPIOC9*%
X67780000Y-143435000D03*
%TO.P,J200,b26,b26*%
%TO.N,/Backplane/GPIOC10*%
X65240000Y-143435000D03*
%TO.P,J200,b27,b27*%
%TO.N,/Backplane/GPIOC11*%
X62700000Y-143435000D03*
%TO.P,J200,b28,b28*%
%TO.N,/Backplane/GPIOC12*%
X60160000Y-143435000D03*
%TO.P,J200,b29,b29*%
%TO.N,/Backplane/GPIOC13*%
X57620000Y-143435000D03*
%TO.P,J200,b30,b30*%
%TO.N,/Backplane/GPIOC14*%
X55080000Y-143435000D03*
%TO.P,J200,b31,b31*%
%TO.N,/Backplane/GPIOC15*%
X52540000Y-143435000D03*
%TO.P,J200,b32,b32*%
%TO.N,GND*%
X50000000Y-143435000D03*
%TO.P,J200,c1,c1*%
X128740000Y-140895000D03*
%TO.P,J200,c2,c2*%
%TO.N,/Backplane/BACKPLANE.D-*%
X126200000Y-140895000D03*
%TO.P,J200,c3,c3*%
%TO.N,+5V_STDBY*%
X123660000Y-140895000D03*
%TO.P,J200,c4,c4*%
%TO.N,GND*%
X121120000Y-140895000D03*
%TO.P,J200,c5,c5*%
%TO.N,/Backplane/CAN1.+*%
X118580000Y-140895000D03*
%TO.P,J200,c6,c6*%
%TO.N,/Backplane/CAN1.-*%
X116040000Y-140895000D03*
%TO.P,J200,c7,c7*%
%TO.N,GND*%
X113500000Y-140895000D03*
%TO.P,J200,c8,c8*%
%TO.N,/Backplane/CAN2.+*%
X110960000Y-140895000D03*
%TO.P,J200,c9,c9*%
%TO.N,/Backplane/CAN2.-*%
X108420000Y-140895000D03*
%TO.P,J200,c10,c10*%
%TO.N,GND*%
X105880000Y-140895000D03*
%TO.P,J200,c11,c11*%
%TO.N,+12V*%
X103340000Y-140895000D03*
%TO.P,J200,c12,c12*%
X100800000Y-140895000D03*
%TO.P,J200,c13,c13*%
%TO.N,GND*%
X98260000Y-140895000D03*
%TO.P,J200,c14,c14*%
%TO.N,+24V*%
X95720000Y-140895000D03*
%TO.P,J200,c15,c15*%
%TO.N,GND*%
X93180000Y-140895000D03*
%TO.P,J200,c16,c16*%
%TO.N,/Backplane/GPIOR0*%
X90640000Y-140895000D03*
%TO.P,J200,c17,c17*%
%TO.N,/Backplane/GPIOR1*%
X88100000Y-140895000D03*
%TO.P,J200,c18,c18*%
%TO.N,/Backplane/GPIOR2*%
X85560000Y-140895000D03*
%TO.P,J200,c19,c19*%
%TO.N,/Backplane/GPIOR3*%
X83020000Y-140895000D03*
%TO.P,J200,c20,c20*%
%TO.N,/Backplane/GPIOR4*%
X80480000Y-140895000D03*
%TO.P,J200,c21,c21*%
%TO.N,/Backplane/GPIOR5*%
X77940000Y-140895000D03*
%TO.P,J200,c22,c22*%
%TO.N,/Backplane/GPIOR6*%
X75400000Y-140895000D03*
%TO.P,J200,c23,c23*%
%TO.N,/Backplane/GPIOR7*%
X72860000Y-140895000D03*
%TO.P,J200,c24,c24*%
%TO.N,/Backplane/GPIOR8*%
X70320000Y-140895000D03*
%TO.P,J200,c25,c25*%
%TO.N,/Backplane/GPIOR9*%
X67780000Y-140895000D03*
%TO.P,J200,c26,c26*%
%TO.N,/Backplane/GPIOR10*%
X65240000Y-140895000D03*
%TO.P,J200,c27,c27*%
%TO.N,/Backplane/GPIOR11*%
X62700000Y-140895000D03*
%TO.P,J200,c28,c28*%
%TO.N,/Backplane/GPIOR12*%
X60160000Y-140895000D03*
%TO.P,J200,c29,c29*%
%TO.N,/Backplane/GPIOR13*%
X57620000Y-140895000D03*
%TO.P,J200,c30,c30*%
%TO.N,/Backplane/GPIOR14*%
X55080000Y-140895000D03*
%TO.P,J200,c31,c31*%
%TO.N,/Backplane/GPIOR15*%
X52540000Y-140895000D03*
%TO.P,J200,c32,c32*%
%TO.N,GND*%
X50000000Y-140895000D03*
%TD*%
D19*
%TO.P,J400,1,Pin_1*%
%TO.N,+5V*%
X53470000Y-106685001D03*
D20*
%TO.P,J400,2,Pin_2*%
%TO.N,+3V3*%
X56010000Y-106685001D03*
%TO.P,J400,3,Pin_3*%
%TO.N,GND*%
X58550000Y-106685001D03*
%TO.P,J400,4,Pin_4*%
%TO.N,/Barometer/BAROMETR_I2C.SCL*%
X61090000Y-106685001D03*
%TO.P,J400,5,Pin_5*%
%TO.N,/Barometer/BAROMETR_I2C.SDA*%
X63630000Y-106685001D03*
%TO.P,J400,6,Pin_6*%
%TO.N,/IMU/IMU_EXT_NRESET*%
X66170000Y-106685001D03*
%TD*%
D10*
%TO.P,LED301,1*%
%TO.N,Net-(LED301-Pad1)*%
X111913600Y-55785000D03*
%TO.P,LED301,2*%
%TO.N,GND*%
X114453600Y-55785000D03*
%TO.P,LED301,3*%
%TO.N,Net-(LED301-Pad3)*%
X111913600Y-58325000D03*
%TO.P,LED301,4*%
%TO.N,GND*%
X114453600Y-58325000D03*
%TD*%
D21*
%TO.P,TP704,1,1*%
%TO.N,/ST-LINK/DIO*%
X127100000Y-123175000D03*
%TD*%
%TO.P,TP706,1,1*%
%TO.N,GND*%
X131900000Y-123175000D03*
%TD*%
%TO.P,TP703,1,1*%
%TO.N,/ST-LINK/STLINK-BOOT0*%
X129500000Y-120775000D03*
%TD*%
%TO.P,TP702,1,1*%
%TO.N,+3V3*%
X127100000Y-120775000D03*
%TD*%
%TO.P,TP705,1,1*%
%TO.N,/ST-LINK/CLK*%
X129500000Y-123175000D03*
%TD*%
D22*
%TO.N,+3V3*%
X115300000Y-138075000D03*
X61870000Y-83085001D03*
X99598400Y-58685001D03*
X61070000Y-83085001D03*
X131350000Y-125625000D03*
X65970000Y-96385001D03*
X74670000Y-75475001D03*
X121325000Y-115325000D03*
X59870000Y-98685001D03*
X55970000Y-108485001D03*
X121662040Y-109139790D03*
X59670000Y-83085001D03*
X104325000Y-124400000D03*
X120590000Y-106765000D03*
X115350000Y-131500000D03*
X132050000Y-135775000D03*
X131800000Y-106175000D03*
X131400000Y-128975000D03*
X60570000Y-94085001D03*
X133950000Y-118922500D03*
X114650000Y-131500000D03*
X115350000Y-130625000D03*
X107442000Y-107343001D03*
X59170000Y-91685001D03*
X60370000Y-83085001D03*
X121350000Y-124927500D03*
X62770000Y-94285001D03*
X127900000Y-121575000D03*
X125700000Y-115575000D03*
X131350000Y-118275000D03*
X124000000Y-115300000D03*
X55370000Y-95285001D03*
X122225000Y-109375000D03*
X115575000Y-107050000D03*
X101700000Y-122285001D03*
X107442000Y-104549001D03*
X119900000Y-138075000D03*
X74670000Y-72175001D03*
X116025000Y-131500000D03*
X112825000Y-106875000D03*
X119625000Y-124600000D03*
X58870000Y-83085001D03*
X114450000Y-62375000D03*
X122174000Y-110375000D03*
X102133531Y-111641425D03*
X102624000Y-106327001D03*
X63670000Y-99485001D03*
%TO.N,GND*%
X61370000Y-58285001D03*
X86370000Y-60185001D03*
X99598400Y-57785001D03*
X95300000Y-131025000D03*
X103700000Y-128625000D03*
X67170000Y-75475001D03*
X71370000Y-62285001D03*
X61170000Y-94985001D03*
X129900000Y-124961216D03*
X128350000Y-134775000D03*
X59370000Y-58285001D03*
X104900000Y-128625000D03*
X59370000Y-56285001D03*
X65370000Y-62085001D03*
X109870720Y-132521542D03*
X134470000Y-142162501D03*
X127250000Y-134775000D03*
X57670000Y-92385001D03*
X64870000Y-84885001D03*
X116250000Y-62375000D03*
X95300000Y-133425000D03*
X132350000Y-125625000D03*
X58770000Y-69125001D03*
X54470000Y-71275001D03*
X113850000Y-136425000D03*
X60770000Y-73375001D03*
X67170000Y-77575001D03*
X107442000Y-106581001D03*
X118364000Y-111407001D03*
X60770000Y-77575001D03*
X71370000Y-64285001D03*
X102624000Y-107343001D03*
X109700000Y-128625000D03*
X96500000Y-128625000D03*
X130325000Y-129675000D03*
X106100000Y-128625000D03*
X64970000Y-69125001D03*
X71370000Y-52285001D03*
X110520720Y-132521542D03*
X58770000Y-71275001D03*
X86370000Y-58485001D03*
X58770000Y-79675001D03*
X108650000Y-136275000D03*
X64970000Y-73375001D03*
X60770000Y-69125001D03*
X82570000Y-93185001D03*
X58870000Y-86285001D03*
X71370000Y-58285001D03*
X102850000Y-119275000D03*
X113300000Y-128625000D03*
X59370000Y-62285001D03*
X67170000Y-69125001D03*
X87570000Y-60185001D03*
X64970000Y-75475001D03*
X103700000Y-132225000D03*
X119126000Y-109883001D03*
X56570000Y-77575001D03*
X97700000Y-128625000D03*
X71370000Y-54285001D03*
X115050000Y-136625000D03*
X62970000Y-69125001D03*
X121350000Y-123927500D03*
X61370000Y-54285001D03*
X71370000Y-56285001D03*
X116825000Y-106025000D03*
X119625000Y-125600000D03*
X56570000Y-71275001D03*
X60670000Y-92385001D03*
X60770000Y-71275001D03*
X59370000Y-52285001D03*
X59370000Y-60285001D03*
X126375000Y-109375000D03*
X126900000Y-113525000D03*
X131150000Y-116225000D03*
X112525000Y-106025000D03*
X55270000Y-96785001D03*
X63370000Y-60285001D03*
X97870000Y-111485001D03*
X65170000Y-98685001D03*
X65370000Y-94985001D03*
X65370000Y-60285001D03*
X113850000Y-137675000D03*
X100100000Y-128625000D03*
X94450000Y-138675000D03*
X116575000Y-107050000D03*
X80370000Y-93185001D03*
X128350000Y-135825000D03*
X62970000Y-75475001D03*
X98900000Y-128625000D03*
X118750000Y-126325000D03*
X87570000Y-59335001D03*
X58770000Y-73375001D03*
X134150000Y-128175000D03*
X131900000Y-133925000D03*
X126950000Y-106725000D03*
X119100000Y-134275000D03*
X111170720Y-132521542D03*
X69370000Y-62285001D03*
X54470000Y-77575001D03*
X107442000Y-105565001D03*
X64370000Y-65285001D03*
X103700000Y-133425000D03*
X69370000Y-66285001D03*
X122200000Y-115275000D03*
X103700000Y-131025000D03*
X64240000Y-83885001D03*
X117150000Y-62375000D03*
X131150000Y-115125000D03*
X119670000Y-61785001D03*
X59970000Y-85285001D03*
X54470000Y-69125001D03*
X59370000Y-54285001D03*
X56570000Y-79675001D03*
X133300000Y-122825000D03*
X118050000Y-62925000D03*
X108500000Y-128625000D03*
X133950000Y-119922500D03*
X71370000Y-60285001D03*
X60770000Y-75475001D03*
X134100000Y-133525000D03*
X63970000Y-97185001D03*
X63270000Y-96785001D03*
X134300000Y-135775000D03*
X63370000Y-61985001D03*
X109728000Y-107851001D03*
X112100000Y-128625000D03*
X54470000Y-73375001D03*
X56570000Y-73375001D03*
X74670000Y-73275001D03*
X113825000Y-106875000D03*
X119126000Y-108867001D03*
X121900000Y-133425000D03*
X67170000Y-71275001D03*
X56570000Y-75475001D03*
X64970000Y-79675001D03*
X114500000Y-128625000D03*
X61370000Y-62085001D03*
X71370000Y-66285001D03*
X64970000Y-71275001D03*
X69370000Y-60285001D03*
X118850000Y-59675000D03*
X62970000Y-71275001D03*
X62970000Y-73375001D03*
X58770000Y-77575001D03*
X54470000Y-75475001D03*
X60770000Y-79675001D03*
X102868898Y-114435000D03*
X88770000Y-58485001D03*
X103325000Y-124400000D03*
X102170000Y-110885001D03*
X62970000Y-79675001D03*
X104124407Y-106922375D03*
X117300000Y-133425000D03*
X120590000Y-105865000D03*
X129800000Y-133725000D03*
X61370000Y-56285001D03*
X69370000Y-64285001D03*
X61370000Y-52285001D03*
X95953492Y-138663288D03*
X127250000Y-135825000D03*
X131100000Y-136425000D03*
X56570000Y-69125001D03*
X110900000Y-128625000D03*
X61370000Y-96085001D03*
X62370000Y-65285001D03*
X101300000Y-128625000D03*
X87570000Y-58485001D03*
X99850000Y-134671508D03*
X88770000Y-60185001D03*
X63570000Y-82885001D03*
X57870000Y-99285001D03*
X102500000Y-128625000D03*
X63370000Y-65285001D03*
X95300000Y-132225000D03*
X107300000Y-128625000D03*
X95200000Y-138675000D03*
X99850000Y-135971508D03*
X95300000Y-129825000D03*
X136150000Y-138925000D03*
X102225000Y-122850000D03*
X58770000Y-75475001D03*
X126700000Y-115575000D03*
X62970000Y-77575001D03*
X123200000Y-136625000D03*
X61370000Y-60285001D03*
X131950000Y-139425000D03*
X54470000Y-79675001D03*
X113850000Y-137075000D03*
X47070000Y-77385001D03*
X125350000Y-62025000D03*
X125350000Y-61225000D03*
X123550000Y-125325000D03*
X132700000Y-132175000D03*
X122936000Y-111325000D03*
X99850000Y-135321508D03*
X123100000Y-115275000D03*
X59370000Y-64285001D03*
X103700000Y-129825000D03*
X95300000Y-128625000D03*
X58570000Y-108385001D03*
X64970000Y-77575001D03*
X67170000Y-73375001D03*
X67170000Y-79675001D03*
X132350000Y-118275000D03*
X65370000Y-65285001D03*
X119650000Y-136625000D03*
%TO.N,+5V*%
X106125000Y-137025000D03*
X134150000Y-129075000D03*
X116300000Y-133425000D03*
X106775000Y-136325000D03*
X133300000Y-110375000D03*
X131100000Y-135525001D03*
X106775000Y-137025000D03*
X126200000Y-137025000D03*
X106125000Y-136325000D03*
X120900000Y-133425000D03*
%TO.N,/ST-LINK/LED*%
X124950000Y-114800000D03*
X127400000Y-124950000D03*
%TO.N,/ST-LINK/STLINK-BOOT0*%
X130675000Y-121175000D03*
%TO.N,/ST-LINK/DIO*%
X128875000Y-124675000D03*
%TO.N,/ST-LINK/CLK*%
X130350000Y-124175000D03*
%TO.N,+12V_FUSED*%
X94451270Y-135361059D03*
X133950000Y-109925000D03*
X106125000Y-139025000D03*
X106125000Y-138325000D03*
X106775000Y-138325000D03*
X95375000Y-135375000D03*
X106775000Y-139025000D03*
X94950000Y-134875000D03*
%TO.N,/ST-LINK/STLINK_RX*%
X126100000Y-119500000D03*
X132200000Y-113725000D03*
%TO.N,/USB/VBUS_IN*%
X124350000Y-61225000D03*
X134050000Y-132625000D03*
%TO.N,/ST-LINK/STLINK_TX*%
X132200000Y-111725000D03*
X126075000Y-114450000D03*
%TO.N,/MCU/USR_BUTTON*%
X115975000Y-110350000D03*
X99538600Y-56899202D03*
%TO.N,/MCU/SWD.~{RST}*%
X112970000Y-110375000D03*
X121900000Y-120045000D03*
X118377238Y-107645000D03*
%TO.N,Net-(U302-PGANG)*%
X129600000Y-136625000D03*
X127900000Y-138925000D03*
%TO.N,/GPS-RTK/V_BCKP*%
X68270000Y-85785001D03*
X65170000Y-85785001D03*
%TO.N,Net-(U700-PA5)*%
X124700000Y-120175000D03*
X120425000Y-127650000D03*
%TO.N,Net-(U700-PC13)*%
X130100000Y-118925000D03*
X132900000Y-116775000D03*
%TO.N,Net-(U700-PC14)*%
X129225000Y-118925000D03*
X131950000Y-116775000D03*
%TO.N,/CAN transceiver 1/CAN.TX*%
X122775000Y-134250000D03*
X118550000Y-119850000D03*
%TO.N,/CAN transceiver 1/CAN.RX*%
X117700000Y-120375000D03*
X120025000Y-134250000D03*
%TO.N,/CAN transceiver 2/CAN.TX*%
X118175000Y-134250000D03*
X106575000Y-123400000D03*
%TO.N,/CAN transceiver 2/CAN.RX*%
X105189838Y-125458838D03*
X115425000Y-134250000D03*
%TO.N,/USB/CC1*%
X123300000Y-57725000D03*
X124350000Y-62025000D03*
%TO.N,Net-(U801-~{OE})*%
X133850000Y-136575000D03*
X133850000Y-138925000D03*
%TO.N,/MCU/USER_LED_1*%
X113550000Y-62925000D03*
X117850000Y-107125000D03*
%TO.N,/MCU/USER_LED_2*%
X117300000Y-107625000D03*
X112650000Y-62375000D03*
%TO.N,/MCU/STATUS_LED*%
X115350000Y-62925000D03*
X116675000Y-110350000D03*
%TO.N,/GPS-RTK/GPS_GEOFENCE_STAT*%
X52270000Y-72285001D03*
X116810379Y-116644622D03*
%TO.N,/GPS-RTK/GPS_RTK_STAT*%
X52270000Y-73385001D03*
X116412874Y-117158910D03*
%TO.N,/GPS-RTK/TIMEPULSE*%
X69470000Y-68975001D03*
X49170000Y-70375001D03*
%TO.N,/IMU/IMU_EXT_NRESET*%
X103363232Y-117285001D03*
%TO.N,/Barometer/BAROMETR_I2C.SDA*%
X109048275Y-117756168D03*
%TO.N,/Barometer/BAROMETR_I2C.SCL*%
X109070000Y-118485001D03*
%TO.N,/GPS-RTK/GPS_SPI.MOSI*%
X73670000Y-78785001D03*
X114720000Y-119235001D03*
%TO.N,/GPS-RTK/GPS_UART.RX*%
X79070000Y-80785001D03*
X107670000Y-110485001D03*
%TO.N,/GPS-RTK/GPS_UART.TX*%
X78470000Y-81785001D03*
X106870000Y-110485001D03*
%TO.N,/GPS-RTK/GPS_SPI.MISO*%
X73470000Y-82185001D03*
X114313947Y-119742568D03*
%TO.N,/GPS-RTK/VCC_RF*%
X61370000Y-64285001D03*
%TO.N,/GPS-RTK/GPS_NRESET*%
X75070000Y-74485001D03*
X115542273Y-118120204D03*
%TO.N,/GPS-RTK/GPS_MODE_SELECT*%
X75770000Y-76285001D03*
X115944463Y-117609570D03*
%TO.N,/IMU/IMU_INT*%
X105863140Y-119526159D03*
X55270000Y-94285001D03*
%TO.N,/IMU/IMU_FSYNC*%
X57170000Y-93685001D03*
X105970000Y-118885001D03*
%TO.N,/GPS-RTK/GPS_SPI.CLK*%
X113870000Y-120285001D03*
X72770000Y-77685001D03*
%TO.N,/GPS-RTK/GPS_SPI.CS*%
X113370000Y-120785001D03*
X71960000Y-78884139D03*
%TO.N,/GPS-RTK/GPS_EXINTERUPT*%
X71970000Y-71085001D03*
X117270000Y-116185001D03*
%TO.N,/USB-hub/USB_GPS_.D-*%
X124235165Y-135219836D03*
X81127880Y-93196055D03*
%TO.N,/USB-hub/USB_GPS_.D+*%
X123704835Y-135750166D03*
X81877880Y-93196055D03*
%TD*%
D23*
%TO.N,+3V3*%
X127900000Y-121575000D02*
X127100000Y-120775000D01*
%TO.N,GND*%
X133300000Y-122825000D02*
X132950000Y-123175000D01*
X132950000Y-123175000D02*
X131900000Y-123175000D01*
%TO.N,+5V*%
X49709999Y-137025000D02*
X106775000Y-137025000D01*
X52930000Y-106685001D02*
X50170000Y-106685001D01*
D24*
X133300000Y-110375000D02*
X134650000Y-111725000D01*
D23*
X50170000Y-106685001D02*
X45870000Y-110985001D01*
X45870000Y-110985001D02*
X45870000Y-133185001D01*
D24*
X134650000Y-111725000D02*
X134650000Y-128575000D01*
X134650000Y-128575000D02*
X134150000Y-129075000D01*
D23*
X45870000Y-133185001D02*
X49709999Y-137025000D01*
D24*
%TO.N,/ST-LINK/LED*%
X124950000Y-116125000D02*
X125450000Y-116625000D01*
X125450000Y-123000000D02*
X127400000Y-124950000D01*
X124950000Y-114800000D02*
X124950000Y-116125000D01*
X125450000Y-116625000D02*
X125450000Y-123000000D01*
%TO.N,/ST-LINK/STLINK-BOOT0*%
X130275000Y-120775000D02*
X129500000Y-120775000D01*
X130675000Y-121175000D02*
X130275000Y-120775000D01*
%TO.N,/ST-LINK/DIO*%
X128875000Y-124675000D02*
X128600000Y-124675000D01*
X128600000Y-124675000D02*
X127100000Y-123175000D01*
%TO.N,/ST-LINK/CLK*%
X130350000Y-124175000D02*
X130350000Y-124025000D01*
X130350000Y-124025000D02*
X129500000Y-123175000D01*
%TO.N,+12V_FUSED*%
X127536541Y-139233293D02*
X106983293Y-139233293D01*
X133370000Y-132355000D02*
X133370000Y-133745000D01*
X134775000Y-135150000D02*
X134775000Y-135971752D01*
X133370000Y-133745000D02*
X134775000Y-135150000D01*
X134770000Y-135976752D02*
X134770000Y-139285001D01*
X135150000Y-130575000D02*
X133370000Y-132355000D01*
X105900000Y-139025000D02*
X106125000Y-139025000D01*
X134770000Y-139285001D02*
X134155001Y-139900000D01*
X128263459Y-139233293D02*
X128096752Y-139400000D01*
X128096752Y-139400000D02*
X127703248Y-139400000D01*
X133950000Y-109925000D02*
X135150000Y-111125000D01*
X134775000Y-135971752D02*
X134770000Y-135976752D01*
X135150000Y-111125000D02*
X135150000Y-130575000D01*
X127703248Y-139400000D02*
X127536541Y-139233293D01*
X130184999Y-139900000D02*
X129518292Y-139233293D01*
X134155001Y-139900000D02*
X130184999Y-139900000D01*
X129518292Y-139233293D02*
X128263459Y-139233293D01*
X106983293Y-139233293D02*
X106775000Y-139025000D01*
%TO.N,/ST-LINK/STLINK_RX*%
X131225000Y-113725000D02*
X126100000Y-118850000D01*
X126100000Y-118850000D02*
X126100000Y-119500000D01*
X132200000Y-113725000D02*
X131225000Y-113725000D01*
%TO.N,/USB/VBUS_IN*%
X125037500Y-60537500D02*
X124350000Y-61225000D01*
X133475000Y-61850000D02*
X127000000Y-61850000D01*
X135650000Y-131025000D02*
X135650000Y-64025000D01*
X134050000Y-132625000D02*
X135650000Y-131025000D01*
X135650000Y-64025000D02*
X133475000Y-61850000D01*
X125687500Y-60537500D02*
X125037500Y-60537500D01*
X127000000Y-61850000D02*
X125687500Y-60537500D01*
%TO.N,/ST-LINK/STLINK_TX*%
X132200000Y-111725000D02*
X132050000Y-111725000D01*
X129325000Y-114450000D02*
X126075000Y-114450000D01*
X132050000Y-111725000D02*
X129325000Y-114450000D01*
%TO.N,/MCU/USR_BUTTON*%
X100370000Y-59485001D02*
X100370000Y-57085001D01*
X134325000Y-64725000D02*
X132950000Y-63350000D01*
X134325000Y-107500000D02*
X134325000Y-64725000D01*
X121150000Y-60950000D02*
X116850000Y-60950000D01*
D25*
X99538600Y-56033600D02*
X98080000Y-54575000D01*
D24*
X100370000Y-57085001D02*
X100184201Y-56899202D01*
D25*
X99538600Y-56899202D02*
X99538600Y-56033600D01*
D24*
X101409999Y-60525000D02*
X100370000Y-59485001D01*
X132950000Y-63350000D02*
X123550000Y-63350000D01*
X123550000Y-63350000D02*
X121150000Y-60950000D01*
X115975000Y-110950000D02*
X116950000Y-111925000D01*
X116850000Y-60950000D02*
X116425000Y-60525000D01*
X116950000Y-111925000D02*
X129900000Y-111925000D01*
X100184201Y-56899202D02*
X99538600Y-56899202D01*
X129900000Y-111925000D02*
X134325000Y-107500000D01*
X115975000Y-110350000D02*
X115975000Y-110950000D01*
X116425000Y-60525000D02*
X101409999Y-60525000D01*
%TO.N,/MCU/SWD.~{RST}*%
X133300000Y-62725000D02*
X134925000Y-64350000D01*
X99710000Y-54575000D02*
X99710000Y-55260000D01*
X116700000Y-112625000D02*
X115100000Y-111025000D01*
X112970000Y-108980001D02*
X113125001Y-108825000D01*
X104375000Y-59925000D02*
X116700000Y-59925000D01*
X117150000Y-60375000D02*
X121375000Y-60375000D01*
X120420000Y-118565000D02*
X121900000Y-120045000D01*
X123725000Y-62725000D02*
X133300000Y-62725000D01*
X117830001Y-108825000D02*
X115100000Y-108825000D01*
X99710000Y-55260000D02*
X104375000Y-59925000D01*
X112970000Y-110375000D02*
X112970000Y-108980001D01*
X134925000Y-107725000D02*
X130025000Y-112625000D01*
X130025000Y-112625000D02*
X120420000Y-112625000D01*
X116700000Y-59925000D02*
X117150000Y-60375000D01*
X113125001Y-108825000D02*
X115100000Y-108825000D01*
X115100000Y-111025000D02*
X115100000Y-108825000D01*
X118377238Y-108277763D02*
X117830001Y-108825000D01*
X118377238Y-107645000D02*
X118377238Y-108277763D01*
X120420000Y-112625000D02*
X116700000Y-112625000D01*
X121375000Y-60375000D02*
X123725000Y-62725000D01*
X134925000Y-64350000D02*
X134925000Y-107725000D01*
X120420000Y-112625000D02*
X120420000Y-118565000D01*
D25*
%TO.N,Net-(U302-PGANG)*%
X127900000Y-138325000D02*
X129600000Y-136625000D01*
X127900000Y-138925000D02*
X127900000Y-138325000D01*
D26*
%TO.N,/GPS-RTK/V_BCKP*%
X68270000Y-85785001D02*
X65170000Y-85785001D01*
D24*
%TO.N,Net-(U700-PA5)*%
X120425000Y-127650000D02*
X122600000Y-125475000D01*
X122600000Y-125475000D02*
X122600000Y-122275000D01*
X122600000Y-122275000D02*
X124700000Y-120175000D01*
%TO.N,Net-(U700-PC13)*%
X130100000Y-118500000D02*
X130100000Y-118925000D01*
X132900000Y-116775000D02*
X132150000Y-117525000D01*
X132150000Y-117525000D02*
X131075000Y-117525000D01*
X131075000Y-117525000D02*
X130100000Y-118500000D01*
%TO.N,Net-(U700-PC14)*%
X131800000Y-116925000D02*
X130725736Y-116925000D01*
X129225000Y-118425736D02*
X129225000Y-118925000D01*
X131950000Y-116775000D02*
X131800000Y-116925000D01*
X130725736Y-116925000D02*
X129225000Y-118425736D01*
%TO.N,/CAN transceiver 1/CAN.TX*%
X122775000Y-132600000D02*
X122775000Y-134250000D01*
X118550000Y-125225000D02*
X118000000Y-125775000D01*
X118000000Y-127825000D02*
X122775000Y-132600000D01*
X118000000Y-125775000D02*
X118000000Y-127825000D01*
X118550000Y-119850000D02*
X118550000Y-125225000D01*
%TO.N,/CAN transceiver 1/CAN.RX*%
X117150000Y-125225000D02*
X117150000Y-128325000D01*
X117700000Y-124675000D02*
X117150000Y-125225000D01*
X117150000Y-128325000D02*
X120025000Y-131200000D01*
X117700000Y-120375000D02*
X117700000Y-124675000D01*
X120025000Y-131200000D02*
X120025000Y-134250000D01*
%TO.N,/CAN transceiver 2/CAN.TX*%
X116250000Y-127425000D02*
X114850000Y-126025000D01*
X108100000Y-126025000D02*
X106575000Y-124500000D01*
X118175000Y-134250000D02*
X118175000Y-130700000D01*
X116250000Y-128775000D02*
X116250000Y-127425000D01*
X118175000Y-130700000D02*
X116250000Y-128775000D01*
X106575000Y-124500000D02*
X106575000Y-123400000D01*
X114850000Y-126025000D02*
X108100000Y-126025000D01*
%TO.N,/CAN transceiver 2/CAN.RX*%
X105633838Y-125458838D02*
X107050000Y-126875000D01*
X107050000Y-126875000D02*
X114250000Y-126875000D01*
X114250000Y-126875000D02*
X115350000Y-127975000D01*
X115425000Y-133050000D02*
X115425000Y-134250000D01*
X105189838Y-125458838D02*
X105633838Y-125458838D01*
X116800000Y-130675000D02*
X116800000Y-131675000D01*
X116800000Y-131675000D02*
X115425000Y-133050000D01*
X115350000Y-129225000D02*
X116800000Y-130675000D01*
X115350000Y-127975000D02*
X115350000Y-129225000D01*
%TO.N,/USB/CC1*%
X123850000Y-62025000D02*
X123300000Y-61475000D01*
X123300000Y-61475000D02*
X123300000Y-57725000D01*
X124350000Y-62025000D02*
X123850000Y-62025000D01*
%TO.N,Net-(U801-~{OE})*%
X133850000Y-138925000D02*
X133850000Y-136575000D01*
%TO.N,/MCU/USER_LED_1*%
X122499999Y-64475000D02*
X132200000Y-64475000D01*
X113550000Y-62925000D02*
X114350000Y-63725000D01*
X121749999Y-63725000D02*
X122499999Y-64475000D01*
X129550000Y-110525000D02*
X123872000Y-110525000D01*
X132200000Y-64475000D02*
X133225000Y-65500000D01*
X123872000Y-110525000D02*
X123222000Y-109875000D01*
X133225000Y-65500000D02*
X133225000Y-106850000D01*
X121500000Y-109875000D02*
X118750000Y-107125000D01*
X114350000Y-63725000D02*
X121749999Y-63725000D01*
X123222000Y-109875000D02*
X121500000Y-109875000D01*
X133225000Y-106850000D02*
X129550000Y-110525000D01*
X118750000Y-107125000D02*
X117850000Y-107125000D01*
%TO.N,/MCU/USER_LED_2*%
X117767499Y-106285001D02*
X119370000Y-106285001D01*
X119370000Y-106285001D02*
X121759999Y-108675000D01*
X117300000Y-107625000D02*
X117300000Y-106752500D01*
X132650000Y-106600000D02*
X132650000Y-65925000D01*
X122079999Y-65075000D02*
X121429999Y-64425000D01*
X117300000Y-106752500D02*
X117767499Y-106285001D01*
X129400000Y-109850000D02*
X132650000Y-106600000D01*
X121759999Y-108675000D02*
X123257000Y-108675000D01*
X131800000Y-65075000D02*
X122079999Y-65075000D01*
X112650000Y-63100000D02*
X112650000Y-62375000D01*
X121429999Y-64425000D02*
X113975000Y-64425000D01*
X123257000Y-108675000D02*
X124432000Y-109850000D01*
X132650000Y-65925000D02*
X131800000Y-65075000D01*
X113975000Y-64425000D02*
X112650000Y-63100000D01*
X124432000Y-109850000D02*
X129400000Y-109850000D01*
%TO.N,/MCU/STATUS_LED*%
X129700000Y-111225000D02*
X123539000Y-111225000D01*
X117175000Y-110850000D02*
X116675000Y-110350000D01*
X133800000Y-65025000D02*
X133800000Y-107125000D01*
X115350000Y-62100000D02*
X115800000Y-61650000D01*
X123075000Y-63875000D02*
X132650000Y-63875000D01*
X123539000Y-111225000D02*
X123164000Y-110850000D01*
X121545001Y-62345001D02*
X123075000Y-63875000D01*
X132650000Y-63875000D02*
X133800000Y-65025000D01*
X115800000Y-61650000D02*
X117675000Y-61650000D01*
X133800000Y-107125000D02*
X129700000Y-111225000D01*
X117675000Y-61650000D02*
X118370001Y-62345001D01*
X118370001Y-62345001D02*
X121545001Y-62345001D01*
X115350000Y-62925000D02*
X115350000Y-62100000D01*
X123164000Y-110850000D02*
X117175000Y-110850000D01*
D26*
%TO.N,/GPS-RTK/GPS_GEOFENCE_STAT*%
X116810379Y-116644622D02*
X116729621Y-116644622D01*
X75861000Y-72676001D02*
X52661000Y-72676001D01*
X52661000Y-72676001D02*
X52270000Y-72285001D01*
X112370000Y-112285001D02*
X79870000Y-112285001D01*
X77070000Y-109485001D02*
X77070000Y-73885001D01*
X116729621Y-116644622D02*
X112370000Y-112285001D01*
X79870000Y-112285001D02*
X77070000Y-109485001D01*
X77070000Y-73885001D02*
X75861000Y-72676001D01*
%TO.N,/GPS-RTK/GPS_RTK_STAT*%
X79370000Y-112785001D02*
X76370000Y-109785001D01*
X76370000Y-74585001D02*
X75670000Y-73885001D01*
X75670000Y-73885001D02*
X52770000Y-73885001D01*
X76370000Y-109785001D02*
X76370000Y-74585001D01*
X116412874Y-117158910D02*
X112038965Y-112785001D01*
X112038965Y-112785001D02*
X79370000Y-112785001D01*
X52770000Y-73885001D02*
X52270000Y-73385001D01*
%TO.N,/GPS-RTK/TIMEPULSE*%
X49170000Y-70375001D02*
X68070000Y-70375001D01*
X68070000Y-70375001D02*
X69470000Y-68975001D01*
%TO.N,/IMU/IMU_EXT_NRESET*%
X66170000Y-121585001D02*
X66170000Y-106685001D01*
X103363232Y-117285001D02*
X99120000Y-117285001D01*
X99120000Y-117285001D02*
X94120000Y-122285001D01*
X66870000Y-122285001D02*
X66170000Y-121585001D01*
X94120000Y-122285001D02*
X66870000Y-122285001D01*
%TO.N,/Barometer/BAROMETR_I2C.SDA*%
X109065389Y-117984001D02*
X109015388Y-117934001D01*
X63620000Y-123535001D02*
X62870000Y-122785001D01*
X94620000Y-123535001D02*
X63620000Y-123535001D01*
X109048275Y-117756168D02*
X109276108Y-117984001D01*
X109015388Y-117934001D02*
X100221000Y-117934001D01*
X62870000Y-122785001D02*
X62870000Y-107445001D01*
X100221000Y-117934001D02*
X94620000Y-123535001D01*
X62870000Y-107445001D02*
X63630000Y-106685001D01*
X109276108Y-117984001D02*
X109065389Y-117984001D01*
%TO.N,/Barometer/BAROMETR_I2C.SCL*%
X63370000Y-124785001D02*
X61870000Y-123285001D01*
X109070000Y-118485001D02*
X108870000Y-118285001D01*
X61870000Y-123285001D02*
X61870000Y-107465001D01*
X108870000Y-118285001D02*
X101370000Y-118285001D01*
X94870000Y-124785001D02*
X63370000Y-124785001D01*
X101370000Y-118285001D02*
X94870000Y-124785001D01*
X61870000Y-107465001D02*
X61090000Y-106685001D01*
%TO.N,/GPS-RTK/GPS_SPI.MOSI*%
X73670000Y-78785001D02*
X74070000Y-79185001D01*
X78170000Y-114985001D02*
X110470000Y-114985001D01*
X74070000Y-79185001D02*
X74070000Y-110885001D01*
X110470000Y-114985001D02*
X114720000Y-119235001D01*
X74070000Y-110885001D02*
X78170000Y-114985001D01*
%TO.N,/GPS-RTK/GPS_UART.RX*%
X79070000Y-108185001D02*
X80002675Y-109117676D01*
X79070000Y-80785001D02*
X79070000Y-108185001D01*
X106302675Y-109117676D02*
X107670000Y-110485001D01*
X80002675Y-109117676D02*
X106302675Y-109117676D01*
%TO.N,/GPS-RTK/GPS_UART.TX*%
X79670000Y-109685001D02*
X78470000Y-108485001D01*
X78470000Y-108485001D02*
X78470000Y-81785001D01*
X106870000Y-110485001D02*
X106070000Y-109685001D01*
X106070000Y-109685001D02*
X79670000Y-109685001D01*
%TO.N,/GPS-RTK/GPS_SPI.MISO*%
X73470000Y-82185001D02*
X73470000Y-111285001D01*
X110070000Y-115485001D02*
X114313947Y-119728948D01*
X77670000Y-115485001D02*
X110070000Y-115485001D01*
X73470000Y-111285001D02*
X77670000Y-115485001D01*
X114313947Y-119728948D02*
X114313947Y-119742568D01*
%TO.N,/GPS-RTK/GPS_NRESET*%
X75070000Y-74485001D02*
X75171000Y-74586001D01*
X78770000Y-113885001D02*
X111307070Y-113885001D01*
X75171000Y-110286001D02*
X78770000Y-113885001D01*
X111307070Y-113885001D02*
X115542273Y-118120204D01*
X75171000Y-74586001D02*
X75171000Y-110286001D01*
%TO.N,/GPS-RTK/GPS_MODE_SELECT*%
X115894569Y-117609570D02*
X115944463Y-117609570D01*
X75770000Y-76285001D02*
X75770000Y-110085001D01*
X75770000Y-110085001D02*
X79070000Y-113385001D01*
X79070000Y-113385001D02*
X111670000Y-113385001D01*
X111670000Y-113385001D02*
X115894569Y-117609570D01*
%TO.N,/IMU/IMU_INT*%
X56170000Y-125835001D02*
X57620000Y-127285001D01*
X105863140Y-120291861D02*
X105863140Y-119526159D01*
X55270000Y-94285001D02*
X54770000Y-94785001D01*
X54770000Y-108635001D02*
X56170000Y-110035001D01*
X98870000Y-127285001D02*
X105863140Y-120291861D01*
X56170000Y-110035001D02*
X56170000Y-125835001D01*
X57620000Y-127285001D02*
X98870000Y-127285001D01*
X54770000Y-94785001D02*
X54770000Y-108635001D01*
%TO.N,/IMU/IMU_FSYNC*%
X56120000Y-103285001D02*
X57131000Y-104296001D01*
X57870000Y-126285001D02*
X96870000Y-126285001D01*
X57170000Y-93685001D02*
X56120000Y-94735001D01*
X104270000Y-118885001D02*
X105970000Y-118885001D01*
X57131000Y-104296001D02*
X57131000Y-125546001D01*
X96870000Y-126285001D02*
X104270000Y-118885001D01*
X56120000Y-94735001D02*
X56120000Y-103285001D01*
X57131000Y-125546001D02*
X57870000Y-126285001D01*
%TO.N,/GPS-RTK/GPS_SPI.CLK*%
X72770000Y-111585001D02*
X77319000Y-116134001D01*
X77319000Y-116134001D02*
X109719000Y-116134001D01*
X72770000Y-77685001D02*
X72770000Y-111585001D01*
X109719000Y-116134001D02*
X113870000Y-120285001D01*
%TO.N,/GPS-RTK/GPS_SPI.CS*%
X76870000Y-116785001D02*
X109370000Y-116785001D01*
X71970000Y-111885001D02*
X76870000Y-116785001D01*
X71970000Y-78894139D02*
X71970000Y-111885001D01*
X109370000Y-116785001D02*
X113370000Y-120785001D01*
X71960000Y-78884139D02*
X71970000Y-78894139D01*
%TO.N,/GPS-RTK/GPS_EXINTERUPT*%
X75870000Y-71085001D02*
X71970000Y-71085001D01*
X117059279Y-116185001D02*
X117017900Y-116143622D01*
X77870000Y-108985001D02*
X77870000Y-73085001D01*
X106119000Y-111934001D02*
X104570000Y-110385001D01*
X117017900Y-116143622D02*
X116725009Y-116143622D01*
X77870000Y-73085001D02*
X75870000Y-71085001D01*
X79270000Y-110385001D02*
X77870000Y-108985001D01*
X116725009Y-116143622D02*
X112515388Y-111934001D01*
X117270000Y-116185001D02*
X117059279Y-116185001D01*
X104570000Y-110385001D02*
X79270000Y-110385001D01*
X112515388Y-111934001D02*
X106119000Y-111934001D01*
%TO.N,/USB-hub/USB_GPS_.D-*%
X111495000Y-99091803D02*
X104363198Y-91960001D01*
X119895000Y-127991803D02*
X119895000Y-126884825D01*
X111935431Y-110960001D02*
X111495000Y-110519570D01*
X124023034Y-135219836D02*
X123895000Y-135091802D01*
X119895000Y-126884825D02*
X120595000Y-126184825D01*
X123895000Y-135091802D02*
X123895000Y-131991803D01*
X111495000Y-110519570D02*
X111495000Y-99091803D01*
X120595000Y-120091803D02*
X119695000Y-119191803D01*
X120595000Y-126184825D02*
X120595000Y-120091803D01*
X124235165Y-135219836D02*
X124023034Y-135219836D01*
X119695000Y-119191803D02*
X119695000Y-116491803D01*
X81277879Y-93046056D02*
X81127880Y-93196055D01*
X123895000Y-131991803D02*
X119895000Y-127991803D01*
X104363198Y-91960001D02*
X81776802Y-91960001D01*
X81277879Y-92458924D02*
X81277879Y-93046056D01*
X114163198Y-110960001D02*
X111935431Y-110960001D01*
X81776802Y-91960001D02*
X81277879Y-92458924D01*
X119695000Y-116491803D02*
X114163198Y-110960001D01*
%TO.N,/USB-hub/USB_GPS_.D+*%
X120145000Y-125998429D02*
X120145000Y-120278199D01*
X119445000Y-126698429D02*
X120145000Y-125998429D01*
X113976802Y-111410001D02*
X111749035Y-111410001D01*
X119245000Y-116678199D02*
X113976802Y-111410001D01*
X123445000Y-132178199D02*
X119445000Y-128178199D01*
X119245000Y-119378199D02*
X119245000Y-116678199D01*
X111045000Y-110705966D02*
X111045000Y-99278199D01*
X123704835Y-135538035D02*
X123445000Y-135278200D01*
X81963198Y-92410001D02*
X81727881Y-92645318D01*
X81727881Y-92645318D02*
X81727881Y-93046056D01*
X123704835Y-135750166D02*
X123704835Y-135538035D01*
X81727881Y-93046056D02*
X81877880Y-93196055D01*
X120145000Y-120278199D02*
X119245000Y-119378199D01*
X104176802Y-92410001D02*
X81963198Y-92410001D01*
X123445000Y-135278200D02*
X123445000Y-132178199D01*
X111045000Y-99278199D02*
X104176802Y-92410001D01*
X111749035Y-111410001D02*
X111045000Y-110705966D01*
X119445000Y-128178199D02*
X119445000Y-126698429D01*
%TD*%
%TA.AperFunction,Conductor*%
%TO.N,+12V_FUSED*%
G36*
X106791971Y-138027381D02*
G01*
X106870618Y-138043024D01*
X106915308Y-138061535D01*
X106971626Y-138099166D01*
X106977519Y-138105059D01*
X106982251Y-138107119D01*
X107005832Y-138133371D01*
X107043462Y-138189688D01*
X107061976Y-138234387D01*
X107077617Y-138313019D01*
X107080000Y-138337210D01*
X107080000Y-139012789D01*
X107077617Y-139036980D01*
X107061976Y-139115612D01*
X107058786Y-139123313D01*
X107058694Y-139128473D01*
X107043462Y-139160311D01*
X107005836Y-139216623D01*
X106971623Y-139250836D01*
X106915311Y-139288462D01*
X106870612Y-139306976D01*
X106791980Y-139322617D01*
X106767789Y-139325000D01*
X106142211Y-139325000D01*
X106118020Y-139322617D01*
X106039387Y-139306976D01*
X105994689Y-139288462D01*
X105938373Y-139250833D01*
X105904166Y-139216626D01*
X105866535Y-139160308D01*
X105848024Y-139115618D01*
X105832381Y-139036971D01*
X105830000Y-139012789D01*
X105830000Y-138337210D01*
X105832381Y-138313029D01*
X105848025Y-138234379D01*
X105866534Y-138189693D01*
X105904168Y-138133370D01*
X105938370Y-138099168D01*
X105994693Y-138061534D01*
X106039379Y-138043025D01*
X106118028Y-138027381D01*
X106142211Y-138025000D01*
X106767789Y-138025000D01*
X106791971Y-138027381D01*
G37*
%TD.AperFunction*%
%TD*%
%TA.AperFunction,Conductor*%
%TO.N,+5V*%
G36*
X131142497Y-128394685D02*
G01*
X131188252Y-128447489D01*
X131198196Y-128516647D01*
X131169171Y-128580203D01*
X131137461Y-128606385D01*
X131123387Y-128614511D01*
X131123384Y-128614513D01*
X131039513Y-128698384D01*
X131039511Y-128698387D01*
X130980201Y-128801114D01*
X130949500Y-128915691D01*
X130949500Y-129034309D01*
X130980201Y-129148886D01*
X131039511Y-129251613D01*
X131123387Y-129335489D01*
X131226114Y-129394799D01*
X131340691Y-129425500D01*
X131340694Y-129425500D01*
X131459306Y-129425500D01*
X131459309Y-129425500D01*
X131573886Y-129394799D01*
X131676613Y-129335489D01*
X131760489Y-129251613D01*
X131819799Y-129148886D01*
X131850500Y-129034309D01*
X131850500Y-128915691D01*
X131819799Y-128801114D01*
X131760489Y-128698387D01*
X131676613Y-128614511D01*
X131662539Y-128606385D01*
X131614326Y-128555820D01*
X131601104Y-128487212D01*
X131627072Y-128422348D01*
X131683986Y-128381820D01*
X131724542Y-128375000D01*
X133673687Y-128375000D01*
X133740726Y-128394685D01*
X133781072Y-128436997D01*
X133789511Y-128451613D01*
X133873387Y-128535489D01*
X133976114Y-128594799D01*
X134090691Y-128625500D01*
X134090694Y-128625500D01*
X134209307Y-128625500D01*
X134209309Y-128625500D01*
X134323886Y-128594799D01*
X134334182Y-128588854D01*
X134355525Y-128583675D01*
X134375259Y-128574017D01*
X134388817Y-128575597D01*
X134402080Y-128572379D01*
X134422838Y-128579562D01*
X134444659Y-128582106D01*
X134463962Y-128593793D01*
X134468107Y-128595228D01*
X134474840Y-128600378D01*
X134505450Y-128625499D01*
X134547666Y-128660145D01*
X134564854Y-128677333D01*
X134673722Y-128809989D01*
X134687227Y-128830201D01*
X134768121Y-128981543D01*
X134777424Y-129004001D01*
X134827240Y-129168224D01*
X134831982Y-129192065D01*
X134849403Y-129368938D01*
X134850000Y-129381092D01*
X134850000Y-129954693D01*
X134849403Y-129966847D01*
X134831982Y-130143721D01*
X134827240Y-130167562D01*
X134777424Y-130331785D01*
X134768121Y-130354243D01*
X134687227Y-130505585D01*
X134673722Y-130525797D01*
X134560969Y-130663186D01*
X134552797Y-130672202D01*
X133272165Y-131952834D01*
X133210842Y-131986319D01*
X133141150Y-131981335D01*
X133085217Y-131939463D01*
X133077097Y-131927153D01*
X133072851Y-131919799D01*
X133060489Y-131898387D01*
X132976613Y-131814511D01*
X132873886Y-131755201D01*
X132759309Y-131724500D01*
X132640691Y-131724500D01*
X132526114Y-131755201D01*
X132526112Y-131755201D01*
X132526112Y-131755202D01*
X132423387Y-131814511D01*
X132423384Y-131814513D01*
X132339513Y-131898384D01*
X132339511Y-131898387D01*
X132291621Y-131981335D01*
X132280201Y-132001114D01*
X132249500Y-132115691D01*
X132249500Y-132234309D01*
X132280201Y-132348886D01*
X132339511Y-132451613D01*
X132423387Y-132535489D01*
X132526114Y-132594799D01*
X132640691Y-132625500D01*
X132640694Y-132625500D01*
X132759306Y-132625500D01*
X132759309Y-132625500D01*
X132873886Y-132594799D01*
X132908499Y-132574814D01*
X132976397Y-132558341D01*
X133042425Y-132581192D01*
X133085617Y-132636112D01*
X133094500Y-132682201D01*
X133094500Y-133799800D01*
X133127247Y-133878856D01*
X133127247Y-133878857D01*
X133140561Y-133911000D01*
X133150000Y-133958453D01*
X133150000Y-137868907D01*
X133149403Y-137881061D01*
X133131982Y-138057934D01*
X133127240Y-138081775D01*
X133077424Y-138245998D01*
X133068121Y-138268456D01*
X132987227Y-138419798D01*
X132973722Y-138440010D01*
X132864854Y-138572666D01*
X132847666Y-138589854D01*
X132715010Y-138698722D01*
X132694798Y-138712227D01*
X132543456Y-138793121D01*
X132520998Y-138802424D01*
X132356775Y-138852240D01*
X132332934Y-138856982D01*
X132156061Y-138874403D01*
X132143907Y-138875000D01*
X128448142Y-138875000D01*
X128381103Y-138855315D01*
X128335348Y-138802511D01*
X128328369Y-138783097D01*
X128319799Y-138751114D01*
X128260489Y-138648387D01*
X128186818Y-138574716D01*
X128172113Y-138547785D01*
X128155523Y-138521970D01*
X128154631Y-138515767D01*
X128153334Y-138513392D01*
X128150500Y-138487035D01*
X128150500Y-138480122D01*
X128170185Y-138413083D01*
X128186814Y-138392446D01*
X129467441Y-137111818D01*
X129528764Y-137078334D01*
X129555122Y-137075500D01*
X129659306Y-137075500D01*
X129659309Y-137075500D01*
X129773886Y-137044799D01*
X129876613Y-136985489D01*
X129960489Y-136901613D01*
X130019799Y-136798886D01*
X130050500Y-136684309D01*
X130050500Y-136565691D01*
X130019799Y-136451114D01*
X130019797Y-136451110D01*
X130001585Y-136419566D01*
X130001584Y-136419565D01*
X129982590Y-136386667D01*
X129970479Y-136365691D01*
X130649500Y-136365691D01*
X130649500Y-136484309D01*
X130680201Y-136598886D01*
X130739511Y-136701613D01*
X130823387Y-136785489D01*
X130926114Y-136844799D01*
X131040691Y-136875500D01*
X131040694Y-136875500D01*
X131159306Y-136875500D01*
X131159309Y-136875500D01*
X131273886Y-136844799D01*
X131376613Y-136785489D01*
X131460489Y-136701613D01*
X131519799Y-136598886D01*
X131550500Y-136484309D01*
X131550500Y-136365691D01*
X131519799Y-136251114D01*
X131460489Y-136148387D01*
X131376613Y-136064511D01*
X131273886Y-136005201D01*
X131159309Y-135974500D01*
X131040691Y-135974500D01*
X130926114Y-136005201D01*
X130926112Y-136005201D01*
X130926112Y-136005202D01*
X130823387Y-136064511D01*
X130823384Y-136064513D01*
X130739513Y-136148384D01*
X130739511Y-136148387D01*
X130700652Y-136215693D01*
X130680201Y-136251114D01*
X130649500Y-136365691D01*
X129970479Y-136365691D01*
X129960489Y-136348387D01*
X129876613Y-136264511D01*
X129773886Y-136205201D01*
X129659309Y-136174500D01*
X129540691Y-136174500D01*
X129426114Y-136205201D01*
X129426112Y-136205201D01*
X129426112Y-136205202D01*
X129323387Y-136264511D01*
X129323384Y-136264513D01*
X129239513Y-136348384D01*
X129239511Y-136348387D01*
X129180201Y-136451114D01*
X129149500Y-136565691D01*
X129149500Y-136565693D01*
X129149500Y-136669876D01*
X129129815Y-136736915D01*
X129113181Y-136757557D01*
X127758103Y-138112636D01*
X127687637Y-138183101D01*
X127687636Y-138183102D01*
X127649500Y-138275170D01*
X127649500Y-138487035D01*
X127629815Y-138554074D01*
X127613182Y-138574716D01*
X127539511Y-138648387D01*
X127480201Y-138751113D01*
X127480201Y-138751114D01*
X127471632Y-138783093D01*
X127435269Y-138842753D01*
X127372422Y-138873283D01*
X127351858Y-138875000D01*
X107409500Y-138875000D01*
X107342461Y-138855315D01*
X107296706Y-138802511D01*
X107285500Y-138751000D01*
X107285500Y-138337221D01*
X107285500Y-138337210D01*
X107284510Y-138317064D01*
X107282127Y-138292873D01*
X107279168Y-138272928D01*
X107263527Y-138194296D01*
X107251835Y-138155749D01*
X107233321Y-138111050D01*
X107217673Y-138081775D01*
X107214334Y-138075527D01*
X107214330Y-138075520D01*
X107202579Y-138057934D01*
X107176699Y-138019201D01*
X107176698Y-138019200D01*
X107176693Y-138019192D01*
X107158727Y-137996065D01*
X107158725Y-137996063D01*
X107158719Y-137996056D01*
X107158711Y-137996046D01*
X107135130Y-137969794D01*
X107135126Y-137969791D01*
X107135118Y-137969783D01*
X107119979Y-137956899D01*
X107116935Y-137953855D01*
X107085804Y-137928306D01*
X107085797Y-137928300D01*
X107085784Y-137928291D01*
X107029497Y-137890680D01*
X107029483Y-137890672D01*
X107029479Y-137890669D01*
X107024655Y-137888090D01*
X106993960Y-137871682D01*
X106993946Y-137871676D01*
X106985693Y-137868257D01*
X106949267Y-137853169D01*
X106949264Y-137853168D01*
X106949259Y-137853166D01*
X106930532Y-137847485D01*
X106910709Y-137841472D01*
X106832062Y-137825829D01*
X106812126Y-137822872D01*
X106812094Y-137822868D01*
X106787948Y-137820491D01*
X106787917Y-137820488D01*
X106777698Y-137819986D01*
X106767789Y-137819500D01*
X106142211Y-137819500D01*
X106130704Y-137820065D01*
X106122066Y-137820489D01*
X106097909Y-137822868D01*
X106097896Y-137822869D01*
X106097892Y-137822870D01*
X106097886Y-137822870D01*
X106097861Y-137822874D01*
X106077929Y-137825830D01*
X106077921Y-137825831D01*
X105999307Y-137841468D01*
X105999295Y-137841471D01*
X105960742Y-137853166D01*
X105960734Y-137853169D01*
X105921450Y-137869440D01*
X105851980Y-137876907D01*
X105789502Y-137845631D01*
X105753851Y-137785541D01*
X105750000Y-137754878D01*
X105750000Y-136215691D01*
X108199500Y-136215691D01*
X108199500Y-136334309D01*
X108230201Y-136448886D01*
X108289511Y-136551613D01*
X108373387Y-136635489D01*
X108476114Y-136694799D01*
X108590691Y-136725500D01*
X108590694Y-136725500D01*
X108709306Y-136725500D01*
X108709309Y-136725500D01*
X108823886Y-136694799D01*
X108926613Y-136635489D01*
X109010489Y-136551613D01*
X109069799Y-136448886D01*
X109092091Y-136365691D01*
X113399500Y-136365691D01*
X113399500Y-136484309D01*
X113430201Y-136598886D01*
X113481651Y-136687999D01*
X113498124Y-136755900D01*
X113481651Y-136812000D01*
X113430201Y-136901114D01*
X113399500Y-137015691D01*
X113399500Y-137134309D01*
X113430201Y-137248886D01*
X113430202Y-137248889D01*
X113467217Y-137313000D01*
X113483690Y-137380900D01*
X113467217Y-137437000D01*
X113430202Y-137501110D01*
X113430201Y-137501114D01*
X113399500Y-137615691D01*
X113399500Y-137734309D01*
X113430201Y-137848886D01*
X113489511Y-137951613D01*
X113573387Y-138035489D01*
X113676114Y-138094799D01*
X113790691Y-138125500D01*
X113790694Y-138125500D01*
X113909306Y-138125500D01*
X113909309Y-138125500D01*
X114023886Y-138094799D01*
X114126613Y-138035489D01*
X114146411Y-138015691D01*
X114849500Y-138015691D01*
X114849500Y-138134309D01*
X114880201Y-138248886D01*
X114939511Y-138351613D01*
X115023387Y-138435489D01*
X115126114Y-138494799D01*
X115240691Y-138525500D01*
X115240694Y-138525500D01*
X115359306Y-138525500D01*
X115359309Y-138525500D01*
X115473886Y-138494799D01*
X115576613Y-138435489D01*
X115660489Y-138351613D01*
X115719799Y-138248886D01*
X115750500Y-138134309D01*
X115750500Y-138015691D01*
X119449500Y-138015691D01*
X119449500Y-138134309D01*
X119480201Y-138248886D01*
X119539511Y-138351613D01*
X119623387Y-138435489D01*
X119726114Y-138494799D01*
X119840691Y-138525500D01*
X119840694Y-138525500D01*
X119959306Y-138525500D01*
X119959309Y-138525500D01*
X120073886Y-138494799D01*
X120176613Y-138435489D01*
X120260489Y-138351613D01*
X120319799Y-138248886D01*
X120350500Y-138134309D01*
X120350500Y-138015691D01*
X120319799Y-137901114D01*
X120260489Y-137798387D01*
X120176613Y-137714511D01*
X120073886Y-137655201D01*
X119959309Y-137624500D01*
X119840691Y-137624500D01*
X119726114Y-137655201D01*
X119726112Y-137655201D01*
X119726112Y-137655202D01*
X119623387Y-137714511D01*
X119623384Y-137714513D01*
X119539513Y-137798384D01*
X119539511Y-137798387D01*
X119486233Y-137890667D01*
X119480201Y-137901114D01*
X119449500Y-138015691D01*
X115750500Y-138015691D01*
X115719799Y-137901114D01*
X115660489Y-137798387D01*
X115576613Y-137714511D01*
X115473886Y-137655201D01*
X115359309Y-137624500D01*
X115240691Y-137624500D01*
X115126114Y-137655201D01*
X115126112Y-137655201D01*
X115126112Y-137655202D01*
X115023387Y-137714511D01*
X115023384Y-137714513D01*
X114939513Y-137798384D01*
X114939511Y-137798387D01*
X114886233Y-137890667D01*
X114880201Y-137901114D01*
X114849500Y-138015691D01*
X114146411Y-138015691D01*
X114210489Y-137951613D01*
X114269799Y-137848886D01*
X114300500Y-137734309D01*
X114300500Y-137615691D01*
X114269799Y-137501114D01*
X114232782Y-137437000D01*
X114216309Y-137369102D01*
X114232782Y-137313000D01*
X114269799Y-137248886D01*
X114300500Y-137134309D01*
X114300500Y-137015691D01*
X114269799Y-136901114D01*
X114269797Y-136901111D01*
X114269797Y-136901109D01*
X114269796Y-136901108D01*
X114218349Y-136812001D01*
X114217199Y-136807264D01*
X114213938Y-136803641D01*
X114209043Y-136773645D01*
X114201875Y-136744101D01*
X114203254Y-136738170D01*
X114202685Y-136734683D01*
X114207183Y-136721274D01*
X114211984Y-136700636D01*
X114214801Y-136694144D01*
X114269799Y-136598886D01*
X114278694Y-136565691D01*
X114599500Y-136565691D01*
X114599500Y-136684309D01*
X114630201Y-136798886D01*
X114689511Y-136901613D01*
X114773387Y-136985489D01*
X114876114Y-137044799D01*
X114990691Y-137075500D01*
X114990694Y-137075500D01*
X115109306Y-137075500D01*
X115109309Y-137075500D01*
X115223886Y-137044799D01*
X115326613Y-136985489D01*
X115410489Y-136901613D01*
X115469799Y-136798886D01*
X115500500Y-136684309D01*
X115500500Y-136565691D01*
X119199500Y-136565691D01*
X119199500Y-136684309D01*
X119230201Y-136798886D01*
X119289511Y-136901613D01*
X119373387Y-136985489D01*
X119476114Y-137044799D01*
X119590691Y-137075500D01*
X119590694Y-137075500D01*
X119709306Y-137075500D01*
X119709309Y-137075500D01*
X119823886Y-137044799D01*
X119926613Y-136985489D01*
X120010489Y-136901613D01*
X120069799Y-136798886D01*
X120100500Y-136684309D01*
X120100500Y-136565691D01*
X120069799Y-136451114D01*
X120010489Y-136348387D01*
X119926613Y-136264511D01*
X119823886Y-136205201D01*
X119709309Y-136174500D01*
X119590691Y-136174500D01*
X119476114Y-136205201D01*
X119476112Y-136205201D01*
X119476112Y-136205202D01*
X119373387Y-136264511D01*
X119373384Y-136264513D01*
X119289513Y-136348384D01*
X119289511Y-136348387D01*
X119230201Y-136451114D01*
X119199500Y-136565691D01*
X115500500Y-136565691D01*
X115469799Y-136451114D01*
X115410489Y-136348387D01*
X115326613Y-136264511D01*
X115223886Y-136205201D01*
X115109309Y-136174500D01*
X114990691Y-136174500D01*
X114876114Y-136205201D01*
X114876112Y-136205201D01*
X114876112Y-136205202D01*
X114773387Y-136264511D01*
X114773384Y-136264513D01*
X114689513Y-136348384D01*
X114689511Y-136348387D01*
X114630201Y-136451114D01*
X114599500Y-136565691D01*
X114278694Y-136565691D01*
X114300500Y-136484309D01*
X114300500Y-136365691D01*
X114269799Y-136251114D01*
X114210489Y-136148387D01*
X114126613Y-136064511D01*
X114023886Y-136005201D01*
X113909309Y-135974500D01*
X113790691Y-135974500D01*
X113676114Y-136005201D01*
X113676112Y-136005201D01*
X113676112Y-136005202D01*
X113573387Y-136064511D01*
X113573384Y-136064513D01*
X113489513Y-136148384D01*
X113489511Y-136148387D01*
X113450652Y-136215693D01*
X113430201Y-136251114D01*
X113399500Y-136365691D01*
X109092091Y-136365691D01*
X109100500Y-136334309D01*
X109100500Y-136215691D01*
X109069799Y-136101114D01*
X109010489Y-135998387D01*
X108926613Y-135914511D01*
X108823886Y-135855201D01*
X108709309Y-135824500D01*
X108590691Y-135824500D01*
X108476114Y-135855201D01*
X108476112Y-135855201D01*
X108476112Y-135855202D01*
X108373387Y-135914511D01*
X108373384Y-135914513D01*
X108289513Y-135998384D01*
X108289511Y-135998387D01*
X108258780Y-136051615D01*
X108230201Y-136101114D01*
X108199500Y-136215691D01*
X105750000Y-136215691D01*
X105750000Y-134081092D01*
X105750597Y-134068938D01*
X105754094Y-134033430D01*
X105768018Y-133892056D01*
X105772757Y-133868232D01*
X105822577Y-133703994D01*
X105831875Y-133681549D01*
X105912775Y-133530195D01*
X105926272Y-133509995D01*
X106035149Y-133377328D01*
X106052328Y-133360149D01*
X106184995Y-133251272D01*
X106205195Y-133237775D01*
X106356549Y-133156875D01*
X106378994Y-133147577D01*
X106543232Y-133097757D01*
X106567056Y-133093018D01*
X106743939Y-133075597D01*
X106756093Y-133075000D01*
X115025500Y-133075000D01*
X115092539Y-133094685D01*
X115138294Y-133147489D01*
X115149500Y-133199000D01*
X115149500Y-133837036D01*
X115129815Y-133904075D01*
X115113181Y-133924717D01*
X115064513Y-133973384D01*
X115064511Y-133973387D01*
X115005201Y-134076114D01*
X114974500Y-134190691D01*
X114974500Y-134309309D01*
X115005201Y-134423886D01*
X115064511Y-134526613D01*
X115148387Y-134610489D01*
X115251114Y-134669799D01*
X115365691Y-134700500D01*
X115365694Y-134700500D01*
X115484306Y-134700500D01*
X115484309Y-134700500D01*
X115598886Y-134669799D01*
X115701613Y-134610489D01*
X115785489Y-134526613D01*
X115844799Y-134423886D01*
X115875500Y-134309309D01*
X115875500Y-134190691D01*
X115844799Y-134076114D01*
X115785489Y-133973387D01*
X115736819Y-133924717D01*
X115703334Y-133863394D01*
X115700500Y-133837036D01*
X115700500Y-133215477D01*
X115709144Y-133186036D01*
X115715668Y-133156050D01*
X115719422Y-133151034D01*
X115720185Y-133148438D01*
X115736819Y-133127796D01*
X115753296Y-133111319D01*
X115814619Y-133077834D01*
X115840977Y-133075000D01*
X116767570Y-133075000D01*
X116834609Y-133094685D01*
X116880364Y-133147489D01*
X116890308Y-133216647D01*
X116882134Y-133246445D01*
X116880203Y-133251105D01*
X116866866Y-133300879D01*
X116849500Y-133365691D01*
X116849500Y-133484309D01*
X116880201Y-133598886D01*
X116939511Y-133701613D01*
X117023387Y-133785489D01*
X117126114Y-133844799D01*
X117240691Y-133875500D01*
X117240694Y-133875500D01*
X117359306Y-133875500D01*
X117359309Y-133875500D01*
X117473886Y-133844799D01*
X117576613Y-133785489D01*
X117660489Y-133701613D01*
X117668113Y-133688408D01*
X117670324Y-133686299D01*
X117671185Y-133683369D01*
X117695435Y-133662355D01*
X117718680Y-133640192D01*
X117721681Y-133639613D01*
X117723989Y-133637614D01*
X117755765Y-133633044D01*
X117787288Y-133626970D01*
X117790122Y-133628104D01*
X117793147Y-133627670D01*
X117822356Y-133641009D01*
X117852152Y-133652938D01*
X117853923Y-133655425D01*
X117856703Y-133656695D01*
X117874062Y-133683707D01*
X117892680Y-133709852D01*
X117893323Y-133713677D01*
X117894477Y-133715473D01*
X117899500Y-133750408D01*
X117899500Y-133837036D01*
X117879815Y-133904075D01*
X117863181Y-133924717D01*
X117814513Y-133973384D01*
X117814511Y-133973387D01*
X117755201Y-134076114D01*
X117724500Y-134190691D01*
X117724500Y-134309309D01*
X117755201Y-134423886D01*
X117814511Y-134526613D01*
X117898387Y-134610489D01*
X118001114Y-134669799D01*
X118115691Y-134700500D01*
X118115694Y-134700500D01*
X118234306Y-134700500D01*
X118234309Y-134700500D01*
X118348886Y-134669799D01*
X118451613Y-134610489D01*
X118535489Y-134526613D01*
X118535489Y-134526612D01*
X118541236Y-134520866D01*
X118543762Y-134523392D01*
X118586730Y-134491792D01*
X118656461Y-134487399D01*
X118717498Y-134521402D01*
X118736461Y-134546331D01*
X118739508Y-134551609D01*
X118739510Y-134551611D01*
X118739511Y-134551613D01*
X118823387Y-134635489D01*
X118926114Y-134694799D01*
X119040691Y-134725500D01*
X119040694Y-134725500D01*
X119159306Y-134725500D01*
X119159309Y-134725500D01*
X119273886Y-134694799D01*
X119376613Y-134635489D01*
X119460489Y-134551613D01*
X119463535Y-134546336D01*
X119514101Y-134498122D01*
X119582708Y-134484898D01*
X119647573Y-134510866D01*
X119658103Y-134521526D01*
X119658764Y-134520866D01*
X119664510Y-134526612D01*
X119664511Y-134526613D01*
X119748387Y-134610489D01*
X119851114Y-134669799D01*
X119965691Y-134700500D01*
X119965694Y-134700500D01*
X120084306Y-134700500D01*
X120084309Y-134700500D01*
X120198886Y-134669799D01*
X120301613Y-134610489D01*
X120385489Y-134526613D01*
X120444799Y-134423886D01*
X120475500Y-134309309D01*
X120475500Y-134190691D01*
X120444799Y-134076114D01*
X120385489Y-133973387D01*
X120336819Y-133924717D01*
X120303334Y-133863394D01*
X120300500Y-133837036D01*
X120300500Y-133199000D01*
X120320185Y-133131961D01*
X120372989Y-133086206D01*
X120424500Y-133075000D01*
X121367570Y-133075000D01*
X121434609Y-133094685D01*
X121480364Y-133147489D01*
X121490308Y-133216647D01*
X121482134Y-133246445D01*
X121480203Y-133251105D01*
X121466866Y-133300879D01*
X121449500Y-133365691D01*
X121449500Y-133484309D01*
X121480201Y-133598886D01*
X121539511Y-133701613D01*
X121623387Y-133785489D01*
X121726114Y-133844799D01*
X121840691Y-133875500D01*
X121840694Y-133875500D01*
X121959306Y-133875500D01*
X121959309Y-133875500D01*
X122073886Y-133844799D01*
X122176613Y-133785489D01*
X122260489Y-133701613D01*
X122268113Y-133688408D01*
X122270324Y-133686299D01*
X122271185Y-133683369D01*
X122295435Y-133662355D01*
X122318680Y-133640192D01*
X122321681Y-133639613D01*
X122323989Y-133637614D01*
X122355765Y-133633044D01*
X122387288Y-133626970D01*
X122390122Y-133628104D01*
X122393147Y-133627670D01*
X122422356Y-133641009D01*
X122452152Y-133652938D01*
X122453923Y-133655425D01*
X122456703Y-133656695D01*
X122474062Y-133683707D01*
X122492680Y-133709852D01*
X122493323Y-133713677D01*
X122494477Y-133715473D01*
X122499500Y-133750408D01*
X122499500Y-133837036D01*
X122479815Y-133904075D01*
X122463181Y-133924717D01*
X122414513Y-133973384D01*
X122414511Y-133973387D01*
X122355201Y-134076114D01*
X122324500Y-134190691D01*
X122324500Y-134309309D01*
X122355201Y-134423886D01*
X122414511Y-134526613D01*
X122498387Y-134610489D01*
X122601114Y-134669799D01*
X122715691Y-134700500D01*
X122715694Y-134700500D01*
X122834306Y-134700500D01*
X122834309Y-134700500D01*
X122948886Y-134669799D01*
X122958495Y-134664250D01*
X123026395Y-134647775D01*
X123092423Y-134670624D01*
X123135616Y-134725544D01*
X123144500Y-134771635D01*
X123144500Y-135317762D01*
X123154532Y-135355201D01*
X123164979Y-135394191D01*
X123164981Y-135394194D01*
X123176713Y-135414513D01*
X123203146Y-135460296D01*
X123204540Y-135462711D01*
X123243903Y-135502074D01*
X123246246Y-135504700D01*
X123259770Y-135533211D01*
X123274887Y-135560896D01*
X123274792Y-135564881D01*
X123276190Y-135567828D01*
X123274389Y-135581781D01*
X123273496Y-135619347D01*
X123268060Y-135639635D01*
X123254335Y-135690857D01*
X123254335Y-135809475D01*
X123285036Y-135924052D01*
X123322245Y-135988499D01*
X123338718Y-136056399D01*
X123315866Y-136122426D01*
X123260945Y-136165617D01*
X123214858Y-136174500D01*
X123140691Y-136174500D01*
X123026114Y-136205201D01*
X123026112Y-136205201D01*
X123026112Y-136205202D01*
X122923387Y-136264511D01*
X122923384Y-136264513D01*
X122839513Y-136348384D01*
X122839511Y-136348387D01*
X122780201Y-136451114D01*
X122749500Y-136565691D01*
X122749500Y-136684309D01*
X122780201Y-136798886D01*
X122839511Y-136901613D01*
X122923387Y-136985489D01*
X123026114Y-137044799D01*
X123140691Y-137075500D01*
X123140694Y-137075500D01*
X123259306Y-137075500D01*
X123259309Y-137075500D01*
X123373886Y-137044799D01*
X123476613Y-136985489D01*
X123560489Y-136901613D01*
X123619799Y-136798886D01*
X123650500Y-136684309D01*
X123650500Y-136565691D01*
X123619799Y-136451114D01*
X123582589Y-136386666D01*
X123566117Y-136318767D01*
X123588969Y-136252740D01*
X123643890Y-136209549D01*
X123689977Y-136200666D01*
X123764141Y-136200666D01*
X123764144Y-136200666D01*
X123878721Y-136169965D01*
X123981448Y-136110655D01*
X124065324Y-136026779D01*
X124124634Y-135924052D01*
X124155335Y-135809475D01*
X124155335Y-135794336D01*
X124175020Y-135727297D01*
X124227824Y-135681542D01*
X124279335Y-135670336D01*
X124294471Y-135670336D01*
X124294474Y-135670336D01*
X124409051Y-135639635D01*
X124511778Y-135580325D01*
X124595654Y-135496449D01*
X124654964Y-135393722D01*
X124685665Y-135279145D01*
X124685665Y-135160527D01*
X124654964Y-135045950D01*
X124595654Y-134943223D01*
X124511778Y-134859347D01*
X124409051Y-134800037D01*
X124294474Y-134769336D01*
X124292226Y-134769336D01*
X124279829Y-134765150D01*
X124254332Y-134747282D01*
X124227745Y-134731076D01*
X124225958Y-134727397D01*
X124222611Y-134725052D01*
X124218781Y-134715691D01*
X126799500Y-134715691D01*
X126799500Y-134834309D01*
X126830201Y-134948886D01*
X126889511Y-135051613D01*
X126973387Y-135135489D01*
X126997440Y-135149376D01*
X127072327Y-135192614D01*
X127120542Y-135243181D01*
X127133764Y-135311788D01*
X127107796Y-135376653D01*
X127072327Y-135407386D01*
X126973393Y-135464507D01*
X126973384Y-135464513D01*
X126889513Y-135548384D01*
X126889511Y-135548387D01*
X126836830Y-135639633D01*
X126830201Y-135651114D01*
X126799500Y-135765691D01*
X126799500Y-135884309D01*
X126830201Y-135998886D01*
X126889511Y-136101613D01*
X126973387Y-136185489D01*
X127076114Y-136244799D01*
X127190691Y-136275500D01*
X127190694Y-136275500D01*
X127309306Y-136275500D01*
X127309309Y-136275500D01*
X127423886Y-136244799D01*
X127526613Y-136185489D01*
X127610489Y-136101613D01*
X127669799Y-135998886D01*
X127680225Y-135959972D01*
X127716590Y-135900313D01*
X127779437Y-135869784D01*
X127848812Y-135878079D01*
X127902690Y-135922564D01*
X127919773Y-135959971D01*
X127923667Y-135974500D01*
X127930201Y-135998887D01*
X127946305Y-136026779D01*
X127989511Y-136101613D01*
X128073387Y-136185489D01*
X128176114Y-136244799D01*
X128290691Y-136275500D01*
X128290694Y-136275500D01*
X128409306Y-136275500D01*
X128409309Y-136275500D01*
X128523886Y-136244799D01*
X128626613Y-136185489D01*
X128710489Y-136101613D01*
X128769799Y-135998886D01*
X128800500Y-135884309D01*
X128800500Y-135765691D01*
X128787102Y-135715691D01*
X131599500Y-135715691D01*
X131599500Y-135834309D01*
X131620991Y-135914513D01*
X131630202Y-135948889D01*
X131664651Y-136008557D01*
X131664683Y-136008610D01*
X131689511Y-136051613D01*
X131773387Y-136135489D01*
X131876114Y-136194799D01*
X131990691Y-136225500D01*
X131990694Y-136225500D01*
X132109306Y-136225500D01*
X132109309Y-136225500D01*
X132223886Y-136194799D01*
X132326613Y-136135489D01*
X132410489Y-136051613D01*
X132469799Y-135948886D01*
X132500500Y-135834309D01*
X132500500Y-135715691D01*
X132469799Y-135601114D01*
X132410489Y-135498387D01*
X132326613Y-135414511D01*
X132223886Y-135355201D01*
X132109309Y-135324500D01*
X131990691Y-135324500D01*
X131876114Y-135355201D01*
X131876112Y-135355201D01*
X131876112Y-135355202D01*
X131773387Y-135414511D01*
X131773384Y-135414513D01*
X131689513Y-135498384D01*
X131689511Y-135498387D01*
X131630201Y-135601114D01*
X131599500Y-135715691D01*
X128787102Y-135715691D01*
X128769799Y-135651114D01*
X128710489Y-135548387D01*
X128626613Y-135464511D01*
X128527671Y-135407386D01*
X128479457Y-135356819D01*
X128466235Y-135288212D01*
X128492203Y-135223348D01*
X128527672Y-135192613D01*
X128626613Y-135135489D01*
X128710489Y-135051613D01*
X128769799Y-134948886D01*
X128800500Y-134834309D01*
X128800500Y-134715691D01*
X128769799Y-134601114D01*
X128710489Y-134498387D01*
X128626613Y-134414511D01*
X128523886Y-134355201D01*
X128409309Y-134324500D01*
X128290691Y-134324500D01*
X128176114Y-134355201D01*
X128176112Y-134355201D01*
X128176112Y-134355202D01*
X128073387Y-134414511D01*
X128073384Y-134414513D01*
X127989513Y-134498384D01*
X127989511Y-134498387D01*
X127958780Y-134551615D01*
X127930201Y-134601114D01*
X127919774Y-134640027D01*
X127883410Y-134699686D01*
X127820563Y-134730215D01*
X127751187Y-134721920D01*
X127697309Y-134677435D01*
X127680226Y-134640028D01*
X127669799Y-134601114D01*
X127610489Y-134498387D01*
X127526613Y-134414511D01*
X127423886Y-134355201D01*
X127309309Y-134324500D01*
X127190691Y-134324500D01*
X127076114Y-134355201D01*
X127076112Y-134355201D01*
X127076112Y-134355202D01*
X126973387Y-134414511D01*
X126973384Y-134414513D01*
X126889513Y-134498384D01*
X126889511Y-134498387D01*
X126858780Y-134551615D01*
X126830201Y-134601114D01*
X126799500Y-134715691D01*
X124218781Y-134715691D01*
X124210821Y-134696235D01*
X124197217Y-134668229D01*
X124196666Y-134661639D01*
X124196154Y-134660386D01*
X124196435Y-134658865D01*
X124195500Y-134647667D01*
X124195500Y-133665691D01*
X129349500Y-133665691D01*
X129349500Y-133784309D01*
X129380201Y-133898886D01*
X129439511Y-134001613D01*
X129523387Y-134085489D01*
X129626114Y-134144799D01*
X129740691Y-134175500D01*
X129740694Y-134175500D01*
X129859306Y-134175500D01*
X129859309Y-134175500D01*
X129973886Y-134144799D01*
X130076613Y-134085489D01*
X130160489Y-134001613D01*
X130219799Y-133898886D01*
X130228694Y-133865691D01*
X131449500Y-133865691D01*
X131449500Y-133984309D01*
X131480201Y-134098886D01*
X131539511Y-134201613D01*
X131623387Y-134285489D01*
X131726114Y-134344799D01*
X131840691Y-134375500D01*
X131840694Y-134375500D01*
X131959306Y-134375500D01*
X131959309Y-134375500D01*
X132073886Y-134344799D01*
X132176613Y-134285489D01*
X132260489Y-134201613D01*
X132319799Y-134098886D01*
X132350500Y-133984309D01*
X132350500Y-133865691D01*
X132319799Y-133751114D01*
X132260489Y-133648387D01*
X132176613Y-133564511D01*
X132073886Y-133505201D01*
X131959309Y-133474500D01*
X131840691Y-133474500D01*
X131726114Y-133505201D01*
X131726112Y-133505201D01*
X131726112Y-133505202D01*
X131623387Y-133564511D01*
X131623384Y-133564513D01*
X131539513Y-133648384D01*
X131539511Y-133648387D01*
X131480609Y-133750408D01*
X131480201Y-133751114D01*
X131449500Y-133865691D01*
X130228694Y-133865691D01*
X130250500Y-133784309D01*
X130250500Y-133665691D01*
X130219799Y-133551114D01*
X130160489Y-133448387D01*
X130076613Y-133364511D01*
X129973886Y-133305201D01*
X129859309Y-133274500D01*
X129740691Y-133274500D01*
X129626114Y-133305201D01*
X129626112Y-133305201D01*
X129626112Y-133305202D01*
X129523387Y-133364511D01*
X129523384Y-133364513D01*
X129439513Y-133448384D01*
X129439511Y-133448387D01*
X129406709Y-133505202D01*
X129380201Y-133551114D01*
X129349500Y-133665691D01*
X124195500Y-133665691D01*
X124195500Y-133199000D01*
X124215185Y-133131961D01*
X124267989Y-133086206D01*
X124319500Y-133075000D01*
X125200000Y-133075000D01*
X128659308Y-129615691D01*
X129874500Y-129615691D01*
X129874500Y-129734309D01*
X129905201Y-129848886D01*
X129964511Y-129951613D01*
X130048387Y-130035489D01*
X130151114Y-130094799D01*
X130265691Y-130125500D01*
X130265694Y-130125500D01*
X130384306Y-130125500D01*
X130384309Y-130125500D01*
X130498886Y-130094799D01*
X130601613Y-130035489D01*
X130685489Y-129951613D01*
X130744799Y-129848886D01*
X130775500Y-129734309D01*
X130775500Y-129615691D01*
X130744799Y-129501114D01*
X130685489Y-129398387D01*
X130601613Y-129314511D01*
X130498886Y-129255201D01*
X130384309Y-129224500D01*
X130265691Y-129224500D01*
X130151114Y-129255201D01*
X130151112Y-129255201D01*
X130151112Y-129255202D01*
X130048387Y-129314511D01*
X130048384Y-129314513D01*
X129964513Y-129398384D01*
X129964511Y-129398387D01*
X129905201Y-129501114D01*
X129874500Y-129615691D01*
X128659308Y-129615691D01*
X129602807Y-128672192D01*
X129611802Y-128664039D01*
X129749208Y-128551272D01*
X129769408Y-128537775D01*
X129920762Y-128456875D01*
X129943207Y-128447577D01*
X130107445Y-128397757D01*
X130131269Y-128393018D01*
X130308153Y-128375597D01*
X130320307Y-128375000D01*
X131075458Y-128375000D01*
X131142497Y-128394685D01*
G37*
%TD.AperFunction*%
%TD*%
M02*
