%TF.GenerationSoftware,KiCad,Pcbnew,9.0.1-9.0.1-0~ubuntu24.04.1*%
%TF.CreationDate,2025-04-23T18:17:08+00:00*%
%TF.ProjectId,ModuCard-navigation-module,4d6f6475-4361-4726-942d-6e6176696761,2.0.0*%
%TF.SameCoordinates,Original*%
%TF.FileFunction,Paste,Top*%
%TF.FilePolarity,Positive*%
%FSLAX46Y46*%
G04 Gerber Fmt 4.6, Leading zero omitted, Abs format (unit mm)*
G04 Created by KiCad (PCBNEW 9.0.1-9.0.1-0~ubuntu24.04.1) date 2025-04-23 18:17:08*
%MOMM*%
%LPD*%
G01*
G04 APERTURE LIST*
G04 Aperture macros list*
%AMRoundRect*
0 Rectangle with rounded corners*
0 $1 Rounding radius*
0 $2 $3 $4 $5 $6 $7 $8 $9 X,Y pos of 4 corners*
0 Add a 4 corners polygon primitive as box body*
4,1,4,$2,$3,$4,$5,$6,$7,$8,$9,$2,$3,0*
0 Add four circle primitives for the rounded corners*
1,1,$1+$1,$2,$3*
1,1,$1+$1,$4,$5*
1,1,$1+$1,$6,$7*
1,1,$1+$1,$8,$9*
0 Add four rect primitives between the rounded corners*
20,1,$1+$1,$2,$3,$4,$5,0*
20,1,$1+$1,$4,$5,$6,$7,0*
20,1,$1+$1,$6,$7,$8,$9,0*
20,1,$1+$1,$8,$9,$2,$3,0*%
G04 Aperture macros list end*
%ADD10RoundRect,0.250001X0.999999X-0.499999X0.999999X0.499999X-0.999999X0.499999X-0.999999X-0.499999X0*%
%ADD11RoundRect,0.140000X-0.140000X-0.170000X0.140000X-0.170000X0.140000X0.170000X-0.140000X0.170000X0*%
%ADD12RoundRect,0.140000X0.140000X0.170000X-0.140000X0.170000X-0.140000X-0.170000X0.140000X-0.170000X0*%
%ADD13RoundRect,0.140000X0.170000X-0.140000X0.170000X0.140000X-0.170000X0.140000X-0.170000X-0.140000X0*%
%ADD14RoundRect,0.225000X-0.225000X-0.250000X0.225000X-0.250000X0.225000X0.250000X-0.225000X0.250000X0*%
%ADD15RoundRect,0.140000X-0.170000X0.140000X-0.170000X-0.140000X0.170000X-0.140000X0.170000X0.140000X0*%
%ADD16RoundRect,0.220000X0.220000X0.255000X-0.220000X0.255000X-0.220000X-0.255000X0.220000X-0.255000X0*%
%ADD17RoundRect,0.220000X0.255000X-0.220000X0.255000X0.220000X-0.255000X0.220000X-0.255000X-0.220000X0*%
%ADD18RoundRect,0.147500X0.147500X0.172500X-0.147500X0.172500X-0.147500X-0.172500X0.147500X-0.172500X0*%
%ADD19R,0.663000X0.225000*%
%ADD20R,0.563000X0.225000*%
%ADD21R,0.225000X0.563000*%
%ADD22RoundRect,0.225000X-0.250000X0.225000X-0.250000X-0.225000X0.250000X-0.225000X0.250000X0.225000X0*%
%ADD23RoundRect,0.075000X-0.075000X0.725000X-0.075000X-0.725000X0.075000X-0.725000X0.075000X0.725000X0*%
%ADD24RoundRect,0.075000X-0.725000X0.075000X-0.725000X-0.075000X0.725000X-0.075000X0.725000X0.075000X0*%
%ADD25RoundRect,0.150000X-0.512500X-0.150000X0.512500X-0.150000X0.512500X0.150000X-0.512500X0.150000X0*%
%ADD26RoundRect,0.220000X-0.220000X-0.255000X0.220000X-0.255000X0.220000X0.255000X-0.220000X0.255000X0*%
%ADD27RoundRect,0.220000X-0.255000X0.220000X-0.255000X-0.220000X0.255000X-0.220000X0.255000X0.220000X0*%
%ADD28RoundRect,0.225000X0.225000X0.250000X-0.225000X0.250000X-0.225000X-0.250000X0.225000X-0.250000X0*%
%ADD29RoundRect,0.250000X0.450000X0.350000X-0.450000X0.350000X-0.450000X-0.350000X0.450000X-0.350000X0*%
%ADD30RoundRect,0.075000X-0.075000X0.662500X-0.075000X-0.662500X0.075000X-0.662500X0.075000X0.662500X0*%
%ADD31RoundRect,0.075000X-0.662500X0.075000X-0.662500X-0.075000X0.662500X-0.075000X0.662500X0.075000X0*%
%ADD32RoundRect,0.050000X0.225000X0.050000X-0.225000X0.050000X-0.225000X-0.050000X0.225000X-0.050000X0*%
%ADD33RoundRect,0.050000X-0.050000X0.225000X-0.050000X-0.225000X0.050000X-0.225000X0.050000X0.225000X0*%
%ADD34R,0.350000X0.500000*%
%ADD35RoundRect,0.150000X0.150000X0.425000X-0.150000X0.425000X-0.150000X-0.425000X0.150000X-0.425000X0*%
%ADD36RoundRect,0.075000X0.075000X0.500000X-0.075000X0.500000X-0.075000X-0.500000X0.075000X-0.500000X0*%
%ADD37O,1.000000X2.100000*%
%ADD38O,1.000000X1.800000*%
%ADD39RoundRect,0.112500X-0.237500X0.112500X-0.237500X-0.112500X0.237500X-0.112500X0.237500X0.112500X0*%
%ADD40R,1.100000X1.300000*%
%ADD41RoundRect,0.200000X-0.200000X-0.275000X0.200000X-0.275000X0.200000X0.275000X-0.200000X0.275000X0*%
%ADD42RoundRect,0.160000X-0.325000X0.160000X-0.325000X-0.160000X0.325000X-0.160000X0.325000X0.160000X0*%
%ADD43RoundRect,0.075000X-0.075000X0.350000X-0.075000X-0.350000X0.075000X-0.350000X0.075000X0.350000X0*%
%ADD44RoundRect,0.250000X0.250000X-0.650000X0.250000X0.650000X-0.250000X0.650000X-0.250000X-0.650000X0*%
%ADD45RoundRect,0.140000X0.219203X0.021213X0.021213X0.219203X-0.219203X-0.021213X-0.021213X-0.219203X0*%
%ADD46R,1.400000X1.200000*%
%ADD47R,0.800000X1.500000*%
%ADD48R,1.500000X0.800000*%
%ADD49R,1.100000X1.100000*%
%ADD50O,0.630000X2.250000*%
%ADD51RoundRect,0.250001X-0.499999X-0.999999X0.499999X-0.999999X0.499999X0.999999X-0.499999X0.999999X0*%
%ADD52RoundRect,0.172500X-0.172500X0.172500X-0.172500X-0.172500X0.172500X-0.172500X0.172500X0.172500X0*%
%ADD53RoundRect,0.062500X-0.062500X0.350000X-0.062500X-0.350000X0.062500X-0.350000X0.062500X0.350000X0*%
%ADD54RoundRect,0.062500X-0.350000X0.062500X-0.350000X-0.062500X0.350000X-0.062500X0.350000X0.062500X0*%
%ADD55RoundRect,0.112500X0.237500X-0.112500X0.237500X0.112500X-0.237500X0.112500X-0.237500X-0.112500X0*%
%ADD56RoundRect,0.225000X0.375000X-0.225000X0.375000X0.225000X-0.375000X0.225000X-0.375000X-0.225000X0*%
%ADD57R,3.600000X2.600000*%
%ADD58RoundRect,0.125000X0.345000X0.125000X-0.345000X0.125000X-0.345000X-0.125000X0.345000X-0.125000X0*%
%ADD59RoundRect,0.150000X-0.150000X0.512500X-0.150000X-0.512500X0.150000X-0.512500X0.150000X0.512500X0*%
G04 APERTURE END LIST*
D10*
%TO.C,L301*%
X107120720Y-134271542D03*
X107120720Y-130571542D03*
%TD*%
D11*
%TO.C,C420*%
X115578000Y-107597001D03*
X116578000Y-107597001D03*
%TD*%
D12*
%TO.C,C423*%
X106672000Y-106327001D03*
X105672000Y-106327001D03*
%TD*%
D11*
%TO.C,C1105*%
X72870000Y-73275001D03*
X73870000Y-73275001D03*
%TD*%
D13*
%TO.C,C406*%
X108204000Y-107589001D03*
X108204000Y-106589001D03*
%TD*%
D14*
%TO.C,C1102*%
X63390000Y-83785001D03*
X64950000Y-83785001D03*
%TD*%
D15*
%TO.C,R903*%
X126850000Y-131625000D03*
X126850000Y-132625000D03*
%TD*%
D12*
%TO.C,R308*%
X127200000Y-138375000D03*
X126200000Y-138375000D03*
%TD*%
D16*
%TO.C,FB401*%
X106462000Y-105057001D03*
X104882000Y-105057001D03*
%TD*%
D13*
%TO.C,C501*%
X119100000Y-138075000D03*
X119100000Y-137075000D03*
%TD*%
D11*
%TO.C,R716*%
X123000000Y-128525000D03*
X124000000Y-128525000D03*
%TD*%
D15*
%TO.C,R306*%
X114070720Y-132821542D03*
X114070720Y-133821542D03*
%TD*%
D17*
%TO.C,D301*%
X124850000Y-138365000D03*
X124850000Y-136785000D03*
%TD*%
D15*
%TO.C,C427*%
X102870000Y-121829001D03*
X102870000Y-122829001D03*
%TD*%
D13*
%TO.C,C601*%
X114550000Y-138075000D03*
X114550000Y-137075000D03*
%TD*%
D12*
%TO.C,R301*%
X97650000Y-138871508D03*
X96650000Y-138871508D03*
%TD*%
D13*
%TO.C,R600*%
X119100000Y-135925000D03*
X119100000Y-134925000D03*
%TD*%
D15*
%TO.C,C400*%
X102870000Y-112734002D03*
X102870000Y-113734002D03*
%TD*%
D12*
%TO.C,C313*%
X114250000Y-106025000D03*
X113250000Y-106025000D03*
%TD*%
D11*
%TO.C,R801*%
X124350000Y-62675000D03*
X125350000Y-62675000D03*
%TD*%
D12*
%TO.C,C600*%
X117300000Y-134025000D03*
X116300000Y-134025000D03*
%TD*%
D18*
%TO.C,L1100*%
X66855000Y-63275001D03*
X65885000Y-63275001D03*
%TD*%
D11*
%TO.C,C314*%
X115200000Y-106025000D03*
X116200000Y-106025000D03*
%TD*%
D19*
%TO.C,U801*%
X132131500Y-137600000D03*
D20*
X132081500Y-138000000D03*
D21*
X132250000Y-138568500D03*
X132650000Y-138568500D03*
X133050000Y-138568500D03*
D20*
X133218500Y-138000000D03*
X133218500Y-137600000D03*
D21*
X133050000Y-137031500D03*
X132650000Y-137031500D03*
X132250000Y-137031500D03*
%TD*%
D22*
%TO.C,C304*%
X94646542Y-136211059D03*
X94646542Y-137771059D03*
%TD*%
D15*
%TO.C,C305*%
X96090000Y-134071508D03*
X96090000Y-135071508D03*
%TD*%
D12*
%TO.C,R404*%
X119950000Y-107645000D03*
X118950000Y-107645000D03*
%TD*%
D23*
%TO.C,U403*%
X118075000Y-109175000D03*
X117575000Y-109175000D03*
X117075000Y-109175000D03*
X116575000Y-109175000D03*
X116075000Y-109175000D03*
X115575000Y-109175000D03*
X115075000Y-109175000D03*
X114575000Y-109175000D03*
X114075000Y-109175000D03*
X113575000Y-109175000D03*
X113075000Y-109175000D03*
X112575000Y-109175000D03*
X112075000Y-109175000D03*
X111575000Y-109175000D03*
X111075000Y-109175000D03*
X110575000Y-109175000D03*
X110075000Y-109175000D03*
X109575000Y-109175000D03*
X109075000Y-109175000D03*
X108575000Y-109175000D03*
X108075000Y-109175000D03*
X107575000Y-109175000D03*
X107075000Y-109175000D03*
X106575000Y-109175000D03*
X106075000Y-109175000D03*
D24*
X104400000Y-110850000D03*
X104400000Y-111350000D03*
X104400000Y-111850000D03*
X104400000Y-112350000D03*
X104400000Y-112850000D03*
X104400000Y-113350000D03*
X104400000Y-113850000D03*
X104400000Y-114350000D03*
X104400000Y-114850000D03*
X104400000Y-115350000D03*
X104400000Y-115850000D03*
X104400000Y-116350000D03*
X104400000Y-116850000D03*
X104400000Y-117350000D03*
X104400000Y-117850000D03*
X104400000Y-118350000D03*
X104400000Y-118850000D03*
X104400000Y-119350000D03*
X104400000Y-119850000D03*
X104400000Y-120350000D03*
X104400000Y-120850000D03*
X104400000Y-121350000D03*
X104400000Y-121850000D03*
X104400000Y-122350000D03*
X104400000Y-122850000D03*
D23*
X106075000Y-124525000D03*
X106575000Y-124525000D03*
X107075000Y-124525000D03*
X107575000Y-124525000D03*
X108075000Y-124525000D03*
X108575000Y-124525000D03*
X109075000Y-124525000D03*
X109575000Y-124525000D03*
X110075000Y-124525000D03*
X110575000Y-124525000D03*
X111075000Y-124525000D03*
X111575000Y-124525000D03*
X112075000Y-124525000D03*
X112575000Y-124525000D03*
X113075000Y-124525000D03*
X113575000Y-124525000D03*
X114075000Y-124525000D03*
X114575000Y-124525000D03*
X115075000Y-124525000D03*
X115575000Y-124525000D03*
X116075000Y-124525000D03*
X116575000Y-124525000D03*
X117075000Y-124525000D03*
X117575000Y-124525000D03*
X118075000Y-124525000D03*
D24*
X119750000Y-122850000D03*
X119750000Y-122350000D03*
X119750000Y-121850000D03*
X119750000Y-121350000D03*
X119750000Y-120850000D03*
X119750000Y-120350000D03*
X119750000Y-119850000D03*
X119750000Y-119350000D03*
X119750000Y-118850000D03*
X119750000Y-118350000D03*
X119750000Y-117850000D03*
X119750000Y-117350000D03*
X119750000Y-116850000D03*
X119750000Y-116350000D03*
X119750000Y-115850000D03*
X119750000Y-115350000D03*
X119750000Y-114850000D03*
X119750000Y-114350000D03*
X119750000Y-113850000D03*
X119750000Y-113350000D03*
X119750000Y-112850000D03*
X119750000Y-112350000D03*
X119750000Y-111850000D03*
X119750000Y-111350000D03*
X119750000Y-110850000D03*
%TD*%
D25*
%TO.C,U301*%
X110412500Y-133168050D03*
X110412500Y-134118050D03*
X110412500Y-135068050D03*
X112687500Y-135068050D03*
X112687500Y-134118050D03*
X112687500Y-133168050D03*
%TD*%
D12*
%TO.C,C500*%
X121900000Y-134025000D03*
X120900000Y-134025000D03*
%TD*%
D15*
%TO.C,R902*%
X127750000Y-131625000D03*
X127750000Y-132625000D03*
%TD*%
D17*
%TO.C,D400*%
X129240000Y-108665000D03*
X129240000Y-107085000D03*
%TD*%
D15*
%TO.C,R700*%
X121325000Y-115925000D03*
X121325000Y-116925000D03*
%TD*%
D11*
%TO.C,R405*%
X100228400Y-58685001D03*
X101228400Y-58685001D03*
%TD*%
D13*
%TO.C,R409*%
X114450000Y-61725000D03*
X114450000Y-60725000D03*
%TD*%
%TO.C,R400*%
X113550000Y-61725000D03*
X113550000Y-60725000D03*
%TD*%
D11*
%TO.C,R1100*%
X63170000Y-85685001D03*
X64170000Y-85685001D03*
%TD*%
D26*
%TO.C,D1103*%
X46380000Y-70375001D03*
X47960000Y-70375001D03*
%TD*%
D13*
%TO.C,R411*%
X126950000Y-108375000D03*
X126950000Y-107375000D03*
%TD*%
D15*
%TO.C,C410*%
X123100000Y-113600000D03*
X123100000Y-114600000D03*
%TD*%
D27*
%TO.C,D701*%
X125702000Y-110660000D03*
X125702000Y-112240000D03*
%TD*%
D12*
%TO.C,C422*%
X120888000Y-108867001D03*
X119888000Y-108867001D03*
%TD*%
D15*
%TO.C,R701*%
X124000000Y-115925000D03*
X124000000Y-116925000D03*
%TD*%
D12*
%TO.C,C424*%
X106680000Y-107343001D03*
X105680000Y-107343001D03*
%TD*%
%TO.C,C405*%
X120896000Y-109883001D03*
X119896000Y-109883001D03*
%TD*%
D28*
%TO.C,C301*%
X102180000Y-136171508D03*
X100620000Y-136171508D03*
%TD*%
D13*
%TO.C,C300*%
X100400000Y-138281508D03*
X100400000Y-137281508D03*
%TD*%
D17*
%TO.C,D402*%
X132240000Y-108665000D03*
X132240000Y-107085000D03*
%TD*%
D29*
%TO.C,Y700*%
X130150000Y-113525000D03*
X127950000Y-113525000D03*
X127950000Y-115125000D03*
X130150000Y-115125000D03*
%TD*%
D30*
%TO.C,U700*%
X130400000Y-117762500D03*
X129900000Y-117762500D03*
X129400000Y-117762500D03*
X128900000Y-117762500D03*
X128400000Y-117762500D03*
X127900000Y-117762500D03*
X127400000Y-117762500D03*
X126900000Y-117762500D03*
X126400000Y-117762500D03*
X125900000Y-117762500D03*
X125400000Y-117762500D03*
X124900000Y-117762500D03*
D31*
X123487500Y-119175000D03*
X123487500Y-119675000D03*
X123487500Y-120175000D03*
X123487500Y-120675000D03*
X123487500Y-121175000D03*
X123487500Y-121675000D03*
X123487500Y-122175000D03*
X123487500Y-122675000D03*
X123487500Y-123175000D03*
X123487500Y-123675000D03*
X123487500Y-124175000D03*
X123487500Y-124675000D03*
D30*
X124900000Y-126087500D03*
X125400000Y-126087500D03*
X125900000Y-126087500D03*
X126400000Y-126087500D03*
X126900000Y-126087500D03*
X127400000Y-126087500D03*
X127900000Y-126087500D03*
X128400000Y-126087500D03*
X128900000Y-126087500D03*
X129400000Y-126087500D03*
X129900000Y-126087500D03*
X130400000Y-126087500D03*
D31*
X131812500Y-124675000D03*
X131812500Y-124175000D03*
X131812500Y-123675000D03*
X131812500Y-123175000D03*
X131812500Y-122675000D03*
X131812500Y-122175000D03*
X131812500Y-121675000D03*
X131812500Y-121175000D03*
X131812500Y-120675000D03*
X131812500Y-120175000D03*
X131812500Y-119675000D03*
X131812500Y-119175000D03*
%TD*%
D32*
%TO.C,U400*%
X60470000Y-97085001D03*
X60470000Y-96685001D03*
X60470000Y-96285001D03*
X60470000Y-95885001D03*
X60470000Y-95485001D03*
X60470000Y-95085001D03*
D33*
X59970000Y-94585001D03*
X59570000Y-94585001D03*
X59170000Y-94585001D03*
X58770000Y-94585001D03*
X58370000Y-94585001D03*
X57970000Y-94585001D03*
D32*
X57470000Y-95085001D03*
X57470000Y-95485001D03*
X57470000Y-95885001D03*
X57470000Y-96285001D03*
X57470000Y-96685001D03*
X57470000Y-97085001D03*
D33*
X57970000Y-97585001D03*
X58370000Y-97585001D03*
X58770000Y-97585001D03*
X59170000Y-97585001D03*
X59570000Y-97585001D03*
X59970000Y-97585001D03*
%TD*%
D34*
%TO.C,U1300*%
X63945000Y-97685001D03*
X63295000Y-97685001D03*
X62645000Y-97685001D03*
X61995000Y-97685001D03*
X61995000Y-96085001D03*
X62645000Y-96085001D03*
X63295000Y-96085001D03*
X63945000Y-96085001D03*
%TD*%
D11*
%TO.C,R707*%
X122850000Y-109375000D03*
X123850000Y-109375000D03*
%TD*%
D15*
%TO.C,R416*%
X66270000Y-83585001D03*
X66270000Y-84585001D03*
%TD*%
D22*
%TO.C,C1300*%
X65170000Y-96305001D03*
X65170000Y-97865001D03*
%TD*%
D12*
%TO.C,C708*%
X128600000Y-116235000D03*
X127600000Y-116235000D03*
%TD*%
D15*
%TO.C,R705*%
X132900000Y-115125000D03*
X132900000Y-116125000D03*
%TD*%
%TO.C,R307*%
X114070720Y-134721542D03*
X114070720Y-135721542D03*
%TD*%
D13*
%TO.C,R417*%
X72670000Y-82185001D03*
X72670000Y-81185001D03*
%TD*%
D15*
%TO.C,C425*%
X103640000Y-106343001D03*
X103640000Y-107343001D03*
%TD*%
D11*
%TO.C,R711*%
X132550000Y-128175000D03*
X133550000Y-128175000D03*
%TD*%
%TO.C,R710*%
X132550000Y-127275000D03*
X133550000Y-127275000D03*
%TD*%
%TO.C,R715*%
X123000000Y-127650000D03*
X124000000Y-127650000D03*
%TD*%
D15*
%TO.C,C801*%
X116250000Y-60725000D03*
X116250000Y-61725000D03*
%TD*%
D13*
%TO.C,C402*%
X102870000Y-111907001D03*
X102870000Y-110907001D03*
%TD*%
D11*
%TO.C,R414*%
X60770000Y-98685001D03*
X61770000Y-98685001D03*
%TD*%
D35*
%TO.C,J800*%
X125250000Y-58715000D03*
X124450000Y-58715000D03*
D36*
X123300000Y-58715000D03*
X122300000Y-58715000D03*
X121800000Y-58715000D03*
X120800000Y-58715000D03*
D35*
X119650000Y-58715000D03*
X118850000Y-58715000D03*
X118850000Y-58715000D03*
X119650000Y-58715000D03*
D36*
X120300000Y-58715000D03*
X121300000Y-58715000D03*
X122800000Y-58715000D03*
X123800000Y-58715000D03*
D35*
X124450000Y-58715000D03*
X125250000Y-58715000D03*
D37*
X126370000Y-58140000D03*
D38*
X126370000Y-53960000D03*
D37*
X117730000Y-58140000D03*
D38*
X117730000Y-53960000D03*
%TD*%
D11*
%TO.C,C311*%
X109270720Y-136281542D03*
X110270720Y-136281542D03*
%TD*%
%TO.C,R1105*%
X46070000Y-75685001D03*
X47070000Y-75685001D03*
%TD*%
D22*
%TO.C,C1106*%
X56170000Y-95205001D03*
X56170000Y-96765001D03*
%TD*%
D39*
%TO.C,U402*%
X131707500Y-141512501D03*
X131707500Y-142812501D03*
X133707500Y-142162501D03*
%TD*%
D11*
%TO.C,C707*%
X129500000Y-116225000D03*
X130500000Y-116225000D03*
%TD*%
D26*
%TO.C,D1101*%
X46370000Y-71975001D03*
X47950000Y-71975001D03*
%TD*%
D15*
%TO.C,R901*%
X123900000Y-132725000D03*
X123900000Y-133725000D03*
%TD*%
D11*
%TO.C,R1107*%
X46070000Y-76585001D03*
X47070000Y-76585001D03*
%TD*%
D40*
%TO.C,Y400*%
X109665000Y-104515001D03*
X109665000Y-106615001D03*
X111315000Y-106615001D03*
X111315000Y-104515001D03*
%TD*%
D12*
%TO.C,R709*%
X133550000Y-129075000D03*
X132550000Y-129075000D03*
%TD*%
D15*
%TO.C,R805*%
X117150000Y-60725000D03*
X117150000Y-61725000D03*
%TD*%
%TO.C,R800*%
X118050000Y-60725000D03*
X118050000Y-61725000D03*
%TD*%
D12*
%TO.C,C1302*%
X62770000Y-94985001D03*
X61770000Y-94985001D03*
%TD*%
D14*
%TO.C,C310*%
X111420720Y-136481542D03*
X112980720Y-136481542D03*
%TD*%
D15*
%TO.C,R402*%
X122200000Y-113600000D03*
X122200000Y-114600000D03*
%TD*%
D13*
%TO.C,R702*%
X133300000Y-122175000D03*
X133300000Y-121175000D03*
%TD*%
D14*
%TO.C,C309*%
X111410271Y-137725000D03*
X112970271Y-137725000D03*
%TD*%
D13*
%TO.C,C900*%
X130450000Y-134575000D03*
X130450000Y-133575000D03*
%TD*%
D15*
%TO.C,C404*%
X118975000Y-124600000D03*
X118975000Y-125600000D03*
%TD*%
%TO.C,R802*%
X132550000Y-133525000D03*
X132550000Y-134525000D03*
%TD*%
%TO.C,C432*%
X108204000Y-104557001D03*
X108204000Y-105557001D03*
%TD*%
D11*
%TO.C,C701*%
X131350000Y-117625000D03*
X132350000Y-117625000D03*
%TD*%
D12*
%TO.C,R300*%
X99550000Y-138871508D03*
X98550000Y-138871508D03*
%TD*%
D22*
%TO.C,C1100*%
X58870000Y-83855001D03*
X58870000Y-85415001D03*
%TD*%
D11*
%TO.C,C700*%
X122000000Y-125875000D03*
X123000000Y-125875000D03*
%TD*%
D12*
%TO.C,R1104*%
X73870000Y-75475001D03*
X72870000Y-75475001D03*
%TD*%
D13*
%TO.C,R500*%
X123650000Y-138075000D03*
X123650000Y-137075000D03*
%TD*%
D15*
%TO.C,C704*%
X133290000Y-118922500D03*
X133290000Y-119922500D03*
%TD*%
D13*
%TO.C,C902*%
X131350000Y-134575000D03*
X131350000Y-133575000D03*
%TD*%
D11*
%TO.C,C312*%
X132650000Y-135775000D03*
X133650000Y-135775000D03*
%TD*%
D13*
%TO.C,C702*%
X122010000Y-124927500D03*
X122010000Y-123927500D03*
%TD*%
D11*
%TO.C,C1103*%
X63170000Y-84885001D03*
X64170000Y-84885001D03*
%TD*%
D15*
%TO.C,R706*%
X131950000Y-115125000D03*
X131950000Y-116125000D03*
%TD*%
D13*
%TO.C,R803*%
X133450000Y-134525000D03*
X133450000Y-133525000D03*
%TD*%
D22*
%TO.C,C307*%
X110108674Y-130191542D03*
X110108674Y-131751542D03*
%TD*%
D12*
%TO.C,C306*%
X113480720Y-131971542D03*
X112480720Y-131971542D03*
%TD*%
D13*
%TO.C,R401*%
X121300000Y-114600000D03*
X121300000Y-113600000D03*
%TD*%
D41*
%TO.C,F300*%
X103580000Y-138775000D03*
X105220000Y-138775000D03*
%TD*%
D11*
%TO.C,R714*%
X123000000Y-126775000D03*
X124000000Y-126775000D03*
%TD*%
D15*
%TO.C,R900*%
X124800000Y-132725000D03*
X124800000Y-133725000D03*
%TD*%
D13*
%TO.C,C1108*%
X58270000Y-93385001D03*
X58270000Y-92385001D03*
%TD*%
D42*
%TO.C,U600*%
X117400000Y-136225000D03*
X116200000Y-136225000D03*
X117400000Y-137025000D03*
X116200000Y-137025000D03*
D43*
X117775000Y-135175000D03*
X117125000Y-135175000D03*
X116475000Y-135175000D03*
X115825000Y-135175000D03*
X115825000Y-138075000D03*
X116475000Y-138075000D03*
X117125000Y-138075000D03*
X117775000Y-138075000D03*
%TD*%
D44*
%TO.C,X300*%
X113475000Y-104550000D03*
X115975000Y-104550000D03*
%TD*%
D12*
%TO.C,R406*%
X101228400Y-56885001D03*
X100228400Y-56885001D03*
%TD*%
D13*
%TO.C,R412*%
X126050000Y-108375000D03*
X126050000Y-107375000D03*
%TD*%
%TO.C,C1104*%
X63670000Y-64275001D03*
X63670000Y-63275001D03*
%TD*%
%TO.C,C706*%
X122200000Y-116925000D03*
X122200000Y-115925000D03*
%TD*%
D11*
%TO.C,C800*%
X124350000Y-60525000D03*
X125350000Y-60525000D03*
%TD*%
D28*
%TO.C,C302*%
X102180000Y-134909462D03*
X100620000Y-134909462D03*
%TD*%
D11*
%TO.C,C1301*%
X63670000Y-94985001D03*
X64670000Y-94985001D03*
%TD*%
D15*
%TO.C,R420*%
X59170000Y-92385001D03*
X59170000Y-93385001D03*
%TD*%
D11*
%TO.C,C401*%
X112825000Y-107475000D03*
X113825000Y-107475000D03*
%TD*%
D12*
%TO.C,C1107*%
X58870000Y-98585001D03*
X57870000Y-98585001D03*
%TD*%
D13*
%TO.C,R419*%
X60070000Y-93385001D03*
X60070000Y-92385001D03*
%TD*%
D11*
%TO.C,C705*%
X125700000Y-116235000D03*
X126700000Y-116235000D03*
%TD*%
D45*
%TO.C,R712*%
X128553553Y-129028553D03*
X127846447Y-128321447D03*
%TD*%
D15*
%TO.C,R708*%
X121900000Y-120675000D03*
X121900000Y-121675000D03*
%TD*%
D12*
%TO.C,C403*%
X104325000Y-123750000D03*
X103325000Y-123750000D03*
%TD*%
D13*
%TO.C,R410*%
X127850000Y-108375000D03*
X127850000Y-107375000D03*
%TD*%
D15*
%TO.C,R1102*%
X61370000Y-63275001D03*
X61370000Y-64275001D03*
%TD*%
D11*
%TO.C,R1106*%
X46070000Y-74785001D03*
X47070000Y-74785001D03*
%TD*%
D46*
%TO.C,Y900*%
X131600000Y-130475000D03*
X129400000Y-130475000D03*
X129400000Y-132175000D03*
X131600000Y-132175000D03*
%TD*%
D42*
%TO.C,U500*%
X122000000Y-136225000D03*
X120800000Y-136225000D03*
X122000000Y-137025000D03*
X120800000Y-137025000D03*
D43*
X122375000Y-135175000D03*
X121725000Y-135175000D03*
X121075000Y-135175000D03*
X120425000Y-135175000D03*
X120425000Y-138075000D03*
X121075000Y-138075000D03*
X121725000Y-138075000D03*
X122375000Y-138075000D03*
%TD*%
D11*
%TO.C,R713*%
X124750000Y-109375000D03*
X125750000Y-109375000D03*
%TD*%
D13*
%TO.C,R415*%
X72670000Y-79785001D03*
X72670000Y-78785001D03*
%TD*%
D11*
%TO.C,C415*%
X118960000Y-105865000D03*
X119960000Y-105865000D03*
%TD*%
D47*
%TO.C,U1100*%
X67970000Y-66875001D03*
X66870000Y-66875001D03*
X65770000Y-66875001D03*
X64670000Y-66875001D03*
X63570000Y-66875001D03*
X62470000Y-66875001D03*
X61370000Y-66875001D03*
X60270000Y-66875001D03*
X59170000Y-66875001D03*
X58070000Y-66875001D03*
X56970000Y-66875001D03*
X55870000Y-66875001D03*
X54770000Y-66875001D03*
X53670000Y-66875001D03*
D48*
X50870000Y-67775001D03*
X50870000Y-68875001D03*
X50870000Y-69975001D03*
X50870000Y-71075001D03*
X50870000Y-72175001D03*
X50870000Y-73275001D03*
X50870000Y-74375001D03*
X50870000Y-75475001D03*
X50870000Y-76575001D03*
X50870000Y-77675001D03*
X50870000Y-78775001D03*
X50870000Y-79875001D03*
X50870000Y-80975001D03*
D47*
X53670000Y-81875001D03*
X54770000Y-81875001D03*
X55870000Y-81875001D03*
X56970000Y-81875001D03*
X58070000Y-81875001D03*
X59170000Y-81875001D03*
X60270000Y-81875001D03*
X61370000Y-81875001D03*
X62470000Y-81875001D03*
X63570000Y-81875001D03*
X64670000Y-81875001D03*
X65770000Y-81875001D03*
X66870000Y-81875001D03*
X67970000Y-81875001D03*
D48*
X70770000Y-80975001D03*
X70770000Y-79875001D03*
X70770000Y-78775001D03*
X70770000Y-77675001D03*
X70770000Y-76575001D03*
X70770000Y-75475001D03*
X70770000Y-74375001D03*
X70770000Y-73275001D03*
X70770000Y-72175001D03*
X70770000Y-71075001D03*
X70770000Y-69975001D03*
X70770000Y-68875001D03*
X70770000Y-67775001D03*
D49*
X68170000Y-69125001D03*
X66070000Y-69125001D03*
X63970000Y-69125001D03*
X61870000Y-69125001D03*
X59770000Y-69125001D03*
X57670000Y-69125001D03*
X55570000Y-69125001D03*
X53470000Y-69125001D03*
X68170000Y-71225001D03*
X66070000Y-71225001D03*
X63970000Y-71225001D03*
X61870000Y-71225001D03*
X59770000Y-71225001D03*
X57670000Y-71225001D03*
X55570000Y-71225001D03*
X53470000Y-71225001D03*
X68170000Y-73325001D03*
X66070000Y-73325001D03*
X63970000Y-73325001D03*
X61870000Y-73325001D03*
X59770000Y-73325001D03*
X57670000Y-73325001D03*
X55570000Y-73325001D03*
X53470000Y-73325001D03*
X68170000Y-75425001D03*
X66070000Y-75425001D03*
X63970000Y-75425001D03*
X61870000Y-75425001D03*
X59770000Y-75425001D03*
X57670000Y-75425001D03*
X55570000Y-75425001D03*
X53470000Y-75425001D03*
X68170000Y-77525001D03*
X66070000Y-77525001D03*
X63970000Y-77525001D03*
X61870000Y-77525001D03*
X59770000Y-77525001D03*
X57670000Y-77525001D03*
X55570000Y-77525001D03*
X53470000Y-77525001D03*
X68170000Y-79625001D03*
X66070000Y-79625001D03*
X63970000Y-79625001D03*
X61870000Y-79625001D03*
X59770000Y-79625001D03*
X57670000Y-79625001D03*
X55570000Y-79625001D03*
X53470000Y-79625001D03*
%TD*%
D50*
%TO.C,U100*%
X101705000Y-113320000D03*
X100435000Y-113320000D03*
X99155000Y-113320000D03*
X97885000Y-113320000D03*
X97885000Y-120380000D03*
X99155000Y-120380000D03*
X100435000Y-120380000D03*
X101705000Y-120380000D03*
%TD*%
D26*
%TO.C,D1102*%
X46370000Y-73475001D03*
X47950000Y-73475001D03*
%TD*%
D17*
%TO.C,D700*%
X123952000Y-112240000D03*
X123952000Y-110660000D03*
%TD*%
D51*
%TO.C,L300*%
X98100000Y-131921508D03*
X101800000Y-131921508D03*
%TD*%
D13*
%TO.C,C100*%
X102850000Y-120925000D03*
X102850000Y-119925000D03*
%TD*%
D12*
%TO.C,R1103*%
X73870000Y-74375001D03*
X72870000Y-74375001D03*
%TD*%
D15*
%TO.C,C1101*%
X59970000Y-83635001D03*
X59970000Y-84635001D03*
%TD*%
D12*
%TO.C,R1101*%
X73870000Y-72175001D03*
X72870000Y-72175001D03*
%TD*%
D52*
%TO.C,U302*%
X128225000Y-134887500D03*
X127375000Y-134887500D03*
X128225000Y-135737500D03*
X127375000Y-135737500D03*
D53*
X128550000Y-133850000D03*
X128050000Y-133850000D03*
X127550000Y-133850000D03*
X127050000Y-133850000D03*
D54*
X126337500Y-134562500D03*
X126337500Y-135062500D03*
X126337500Y-135562500D03*
X126337500Y-136062500D03*
D53*
X127050000Y-136775000D03*
X127550000Y-136775000D03*
X128050000Y-136775000D03*
X128550000Y-136775000D03*
D54*
X129262500Y-136062500D03*
X129262500Y-135562500D03*
X129262500Y-135062500D03*
X129262500Y-134562500D03*
%TD*%
D55*
%TO.C,U401*%
X122470000Y-62435001D03*
X122470000Y-61135001D03*
X120470000Y-61785001D03*
%TD*%
D15*
%TO.C,C426*%
X104656000Y-106335001D03*
X104656000Y-107335001D03*
%TD*%
D11*
%TO.C,C703*%
X131350000Y-126275000D03*
X132350000Y-126275000D03*
%TD*%
D17*
%TO.C,D401*%
X130750000Y-108665000D03*
X130750000Y-107085000D03*
%TD*%
D13*
%TO.C,R408*%
X115350000Y-61725000D03*
X115350000Y-60725000D03*
%TD*%
D12*
%TO.C,R403*%
X119960000Y-106765000D03*
X118960000Y-106765000D03*
%TD*%
D13*
%TO.C,R703*%
X123100000Y-116925000D03*
X123100000Y-115925000D03*
%TD*%
D12*
%TO.C,R413*%
X63670000Y-98685001D03*
X62670000Y-98685001D03*
%TD*%
D22*
%TO.C,C308*%
X111370720Y-130191542D03*
X111370720Y-131751542D03*
%TD*%
D56*
%TO.C,D1100*%
X61570000Y-87135001D03*
X61570000Y-83835001D03*
%TD*%
D13*
%TO.C,R407*%
X112650000Y-61725000D03*
X112650000Y-60725000D03*
%TD*%
D57*
%TO.C,BAT1100*%
X87570000Y-88635001D03*
X87570000Y-59335001D03*
%TD*%
D11*
%TO.C,C434*%
X121354999Y-111850000D03*
X122354999Y-111850000D03*
%TD*%
D15*
%TO.C,R418*%
X67170000Y-83585001D03*
X67170000Y-84585001D03*
%TD*%
D58*
%TO.C,Q700*%
X129600000Y-127725000D03*
X129600000Y-129025000D03*
X131400000Y-128375000D03*
%TD*%
D15*
%TO.C,C904*%
X130450000Y-135525000D03*
X130450000Y-136525000D03*
%TD*%
D11*
%TO.C,C421*%
X117094000Y-126139001D03*
X118094000Y-126139001D03*
%TD*%
D12*
%TO.C,C416*%
X101228400Y-57785001D03*
X100228400Y-57785001D03*
%TD*%
D11*
%TO.C,R804*%
X134450000Y-138925000D03*
X135450000Y-138925000D03*
%TD*%
D59*
%TO.C,U300*%
X99203492Y-135213288D03*
X98253492Y-135213288D03*
X97303492Y-135213288D03*
X97303492Y-137488288D03*
X98253492Y-137488288D03*
X99203492Y-137488288D03*
%TD*%
D22*
%TO.C,C303*%
X95890000Y-136221508D03*
X95890000Y-137781508D03*
%TD*%
D11*
%TO.C,R704*%
X121050000Y-127650000D03*
X122050000Y-127650000D03*
%TD*%
M02*
